G04*
G04 #@! TF.GenerationSoftware,Altium Limited,Altium Designer,23.5.1 (21)*
G04*
G04 Layer_Physical_Order=4*
G04 Layer_Color=16711680*
%FSLAX44Y44*%
%MOMM*%
G71*
G04*
G04 #@! TF.SameCoordinates,D8F5AE86-2F01-4A25-AC6E-D886633190FF*
G04*
G04*
G04 #@! TF.FilePolarity,Positive*
G04*
G01*
G75*
%ADD11C,0.2540*%
%ADD17C,0.1524*%
%ADD23R,0.9000X0.8500*%
%ADD24R,0.8500X0.9000*%
%ADD26R,1.3000X0.6000*%
%ADD90C,1.6000*%
%ADD91C,0.3810*%
%ADD92C,0.3048*%
%ADD94C,0.5080*%
%ADD95C,1.0160*%
%ADD96C,0.7620*%
%ADD98C,1.0000*%
%ADD99O,2.3000X1.2000*%
%ADD100O,2.0000X1.2000*%
%ADD101C,0.7500*%
%ADD102R,1.0000X1.0000*%
%ADD103C,3.5000*%
%ADD104C,0.5588*%
%ADD111R,0.6000X1.0500*%
%ADD112R,1.0500X0.6000*%
%ADD113R,1.3000X1.0500*%
%ADD114R,1.5000X1.0000*%
%ADD115R,1.8000X0.7000*%
%ADD116R,1.4000X1.2000*%
%ADD117R,2.2000X2.0320*%
%ADD118R,1.4000X1.6000*%
%ADD119C,0.6350*%
G36*
X214376Y490474D02*
Y455676D01*
X211074Y452374D01*
X190246D01*
X187706Y454914D01*
Y474218D01*
X182372Y479552D01*
X158574D01*
X158012Y479785D01*
X155890D01*
X155328Y479552D01*
X100838D01*
X91440Y470154D01*
Y446786D01*
X99314Y438912D01*
Y421640D01*
X78232D01*
X73660Y426212D01*
Y485394D01*
X82852Y494586D01*
X210264D01*
X214376Y490474D01*
D02*
G37*
G36*
X344586Y371934D02*
X343316Y371653D01*
X340466Y374502D01*
X338786Y375625D01*
X336804Y376020D01*
X221488D01*
X221488Y376020D01*
X219506Y375625D01*
X217826Y374502D01*
X214778Y371455D01*
X213655Y369774D01*
X213260Y367792D01*
Y353314D01*
X213655Y351332D01*
X214778Y349651D01*
X215186Y349243D01*
X216866Y348120D01*
X218848Y347726D01*
X221742D01*
X222026Y347442D01*
X222397Y347288D01*
X222821Y347005D01*
X223322Y346905D01*
X223793Y346710D01*
X224303D01*
X224804Y346610D01*
X312815D01*
X315107Y344318D01*
X316788Y343195D01*
X318770Y342800D01*
X338582D01*
X338582Y342800D01*
X340564Y343195D01*
X342244Y344318D01*
X343316Y345389D01*
X344586Y345108D01*
Y254688D01*
X343316Y254269D01*
X342112Y255474D01*
X340151Y256286D01*
X338029D01*
X336068Y255474D01*
X334568Y253974D01*
X333756Y252013D01*
Y249891D01*
X334568Y247931D01*
X336068Y246430D01*
X338029Y245618D01*
X340151D01*
X342112Y246430D01*
X343316Y247635D01*
X344586Y247216D01*
Y191159D01*
X343530Y190453D01*
X342657Y190815D01*
X340535D01*
X338574Y190003D01*
X337356Y190245D01*
X337262Y190473D01*
X335761Y191974D01*
X333801Y192786D01*
X331679D01*
X329719Y191974D01*
X328218Y190473D01*
X327406Y188513D01*
Y186391D01*
X328218Y184431D01*
X328245Y184404D01*
X328218Y184377D01*
X327406Y182417D01*
Y180295D01*
X328218Y178335D01*
X328245Y178308D01*
X328218Y178281D01*
X327406Y176321D01*
Y174199D01*
X327906Y172992D01*
X327182Y171616D01*
X325531Y171398D01*
X323144Y170410D01*
X321095Y168837D01*
X319523Y166788D01*
X318534Y164402D01*
X318197Y161841D01*
X318534Y159280D01*
X319523Y156893D01*
X321095Y154844D01*
X323144Y153272D01*
X325531Y152283D01*
X328092Y151946D01*
X336092D01*
X338653Y152283D01*
X341039Y153272D01*
X343088Y154844D01*
X343383Y155229D01*
X344586Y154820D01*
Y78861D01*
X343383Y78453D01*
X343089Y78837D01*
X341040Y80409D01*
X338653Y81398D01*
X336092Y81735D01*
X328092D01*
X325531Y81398D01*
X323145Y80409D01*
X321096Y78837D01*
X319523Y76788D01*
X318535Y74401D01*
X318197Y71840D01*
X318535Y69279D01*
X319523Y66893D01*
X321096Y64844D01*
X323145Y63271D01*
X325531Y62283D01*
X328092Y61946D01*
X336092D01*
X338653Y62283D01*
X341040Y63271D01*
X343089Y64844D01*
X343383Y65228D01*
X344586Y64819D01*
Y37049D01*
X343371Y36681D01*
X342139Y38524D01*
X338994Y41669D01*
X335296Y44140D01*
X331186Y45842D01*
X327140Y46647D01*
Y24130D01*
X324600D01*
Y21590D01*
X302083D01*
X302888Y17544D01*
X304590Y13434D01*
X307061Y9736D01*
X310113Y6684D01*
X310050Y6077D01*
X309849Y5414D01*
X265858D01*
X265372Y6587D01*
X265853Y7068D01*
X266976Y8749D01*
X267370Y10731D01*
Y11728D01*
X268640Y12770D01*
X269494Y12601D01*
X282194D01*
X284176Y12995D01*
X285856Y14117D01*
X287635Y15896D01*
X288757Y17576D01*
X289151Y19558D01*
Y22170D01*
X289151Y22171D01*
Y22680D01*
X289052Y23182D01*
X289052Y23691D01*
X288857Y24162D01*
X288794Y24480D01*
X288794Y24480D01*
X288757Y24662D01*
X288741Y24687D01*
X288741Y24687D01*
X288670Y24858D01*
X288553Y25141D01*
X288285Y25541D01*
X288278Y25559D01*
X288262Y25584D01*
X288248Y25597D01*
X288180Y25699D01*
X287885Y26302D01*
X287123Y27299D01*
X286862Y27529D01*
X286668Y27819D01*
X286668Y27819D01*
X285088Y29400D01*
Y35631D01*
Y60297D01*
Y61940D01*
X285092Y61944D01*
X296092D01*
X298653Y62281D01*
X301040Y63270D01*
X303089Y64842D01*
X304661Y66891D01*
X305650Y69278D01*
X305987Y71839D01*
X305650Y74400D01*
X304661Y76786D01*
X303089Y78835D01*
X301040Y80408D01*
X300378Y80682D01*
X300392Y82051D01*
X301641Y83299D01*
X302637Y85023D01*
X303152Y86946D01*
Y88936D01*
X303102Y89122D01*
X303321Y89408D01*
X305282Y90220D01*
X306782Y91721D01*
X307594Y93681D01*
Y95803D01*
X307903Y96266D01*
X309417D01*
X311378Y97078D01*
X312878Y98579D01*
X313690Y100539D01*
Y101600D01*
X314751D01*
X316712Y102412D01*
X318212Y103912D01*
X319024Y105873D01*
Y107995D01*
X318212Y109956D01*
X316712Y111456D01*
X314751Y112268D01*
X312629D01*
X310669Y111456D01*
X309168Y109956D01*
X308356Y107995D01*
Y106934D01*
X307295D01*
X305334Y106122D01*
X303834Y104621D01*
X303022Y102661D01*
Y100539D01*
X302713Y100076D01*
X301199D01*
X300228Y100725D01*
Y101645D01*
X299416Y103605D01*
X297915Y105106D01*
X295955Y105918D01*
X293833D01*
X291873Y105106D01*
X290372Y103605D01*
X289560Y101645D01*
Y99523D01*
X290372Y97563D01*
X291873Y96062D01*
X291945Y96032D01*
X292038Y94619D01*
X290950Y93991D01*
X289542Y92583D01*
X288547Y90859D01*
X288032Y88936D01*
Y86946D01*
X288547Y85023D01*
X289542Y83299D01*
X289838Y83004D01*
X289312Y81734D01*
X285092D01*
X282531Y81396D01*
X280145Y80408D01*
X278096Y78835D01*
X276523Y76786D01*
X276170Y75933D01*
X275916Y75817D01*
X274712Y75732D01*
X273531Y76912D01*
X271571Y77724D01*
X269449D01*
X268410Y78418D01*
Y80700D01*
X268665Y81981D01*
Y88460D01*
X269801D01*
Y101214D01*
X269801Y102040D01*
X269801Y102040D01*
X269670Y102430D01*
X269670Y102430D01*
Y116010D01*
X269104D01*
Y118640D01*
X276660D01*
Y121768D01*
X281470D01*
X284931Y118308D01*
Y111320D01*
X299011D01*
Y124020D01*
X299011Y124900D01*
X299011D01*
Y125290D01*
X299011D01*
Y138870D01*
X299011Y138870D01*
X299011D01*
X300047Y139584D01*
X300234Y139692D01*
X300575Y140034D01*
X301821Y139786D01*
X302056Y139219D01*
X303556Y137718D01*
X305517Y136906D01*
X307639D01*
X309599Y137718D01*
X311100Y139219D01*
X311226Y139524D01*
X312601D01*
X312867Y138882D01*
X314367Y137381D01*
X316328Y136569D01*
X318450D01*
X320410Y137381D01*
X321911Y138882D01*
X322723Y140842D01*
Y142964D01*
X321911Y144925D01*
X320410Y146425D01*
X318450Y147237D01*
X316328D01*
X314367Y146425D01*
X312867Y144925D01*
X312740Y144620D01*
X311366D01*
X311100Y145261D01*
X309599Y146762D01*
X307639Y147574D01*
X305517D01*
X304370Y147099D01*
X302885Y147745D01*
X302880Y147752D01*
X302637Y148659D01*
X301641Y150383D01*
X300396Y151629D01*
X300384Y152999D01*
X301039Y153270D01*
X303088Y154843D01*
X304661Y156892D01*
X305649Y159278D01*
X305986Y161839D01*
X305649Y164400D01*
X304661Y166786D01*
X303088Y168836D01*
X301039Y170408D01*
X298653Y171397D01*
X296092Y171734D01*
X285092D01*
X282531Y171397D01*
X280144Y170408D01*
X278095Y168836D01*
X276523Y166786D01*
X275534Y164400D01*
X275197Y161839D01*
X275506Y159490D01*
X275180Y158744D01*
X274830Y158220D01*
X265580D01*
Y142640D01*
X266811D01*
Y140480D01*
X266138Y138857D01*
Y136735D01*
X266654Y135490D01*
X265846Y134220D01*
X265580D01*
Y129804D01*
X264407Y129318D01*
X262939Y130786D01*
X260839Y132189D01*
X258361Y132682D01*
X257660D01*
Y134220D01*
X257660D01*
X257040Y135490D01*
X257556Y136735D01*
Y138857D01*
X256744Y140817D01*
X256191Y141370D01*
X256717Y142640D01*
X257660D01*
Y145133D01*
X258776Y146587D01*
X259544Y148441D01*
X259806Y150430D01*
Y170282D01*
X259544Y172271D01*
X258776Y174125D01*
X257555Y175717D01*
X257555Y175717D01*
X250334Y182937D01*
X248742Y184158D01*
X248727Y184165D01*
X248979Y185435D01*
X275082D01*
X277312Y185879D01*
X279202Y187142D01*
X287330Y195270D01*
X288593Y197160D01*
X289037Y199390D01*
Y222260D01*
X288593Y224490D01*
X287330Y226380D01*
X278570Y235141D01*
Y240980D01*
X277607D01*
Y244602D01*
X277163Y246832D01*
X275900Y248722D01*
X274010Y249985D01*
X271780Y250429D01*
X269550Y249985D01*
X267660Y248722D01*
X266397Y246832D01*
X265953Y244602D01*
Y240980D01*
X264990D01*
Y226900D01*
X269304D01*
X269404Y226750D01*
X268725Y225480D01*
X264990D01*
X264981Y225230D01*
X263620D01*
X263330Y226380D01*
X263330Y226380D01*
X263330D01*
X263330Y226380D01*
Y240460D01*
X249750D01*
Y240460D01*
X249106Y240589D01*
X249106Y240589D01*
X248533Y240589D01*
X235526D01*
Y237221D01*
X217932D01*
X215702Y236777D01*
X213812Y235514D01*
X209215Y230917D01*
X201418D01*
X199188Y230474D01*
X197297Y229211D01*
X196034Y227320D01*
X195590Y225091D01*
X196034Y222861D01*
X197297Y220970D01*
X199188Y219707D01*
X201418Y219264D01*
X211628D01*
X213858Y219707D01*
X215749Y220970D01*
X220346Y225567D01*
X224802D01*
X225194Y225091D01*
X225298Y224565D01*
Y224030D01*
X225503Y223535D01*
X225607Y223009D01*
X225905Y222564D01*
X226110Y222069D01*
X226489Y221690D01*
X226786Y221245D01*
X227232Y220947D01*
X227610Y220569D01*
X228105Y220364D01*
X228551Y220066D01*
X229076Y219961D01*
X229571Y219757D01*
X230107D01*
X230632Y219652D01*
X233288D01*
X235401Y217539D01*
Y211650D01*
X249481D01*
Y225222D01*
X249506Y225330D01*
X249536Y225449D01*
X249722D01*
X250901Y224202D01*
Y211650D01*
X264981D01*
X264990Y211400D01*
X277383D01*
Y201804D01*
X272668Y197089D01*
X234501D01*
X230340Y201250D01*
Y207089D01*
X224839D01*
X224572Y207268D01*
X222210Y209630D01*
X220320Y210893D01*
X218090Y211336D01*
X201418D01*
X199188Y210893D01*
X197297Y209630D01*
X196034Y207739D01*
X195590Y205509D01*
X196034Y203280D01*
X197297Y201389D01*
X199188Y200126D01*
X201418Y199683D01*
X215676D01*
X216760Y198599D01*
Y193009D01*
X222099D01*
X227967Y187142D01*
X228990Y186458D01*
X228605Y185188D01*
X215392D01*
X215392Y185188D01*
X215392Y185188D01*
X209860D01*
X209529Y185232D01*
X208224D01*
X207519Y186288D01*
X207772Y186899D01*
Y189021D01*
X206960Y190982D01*
X205459Y192482D01*
X203499Y193294D01*
X201377D01*
X199417Y192482D01*
X197916Y190982D01*
X197104Y189021D01*
Y186899D01*
X197357Y186288D01*
X196652Y185232D01*
X191262D01*
X189273Y184970D01*
X187419Y184202D01*
X185827Y182981D01*
X184606Y181389D01*
X184170Y180336D01*
X182900Y180589D01*
Y192860D01*
X162820D01*
Y187621D01*
X161764Y186915D01*
X161081Y187198D01*
X158959D01*
X158078Y186833D01*
X156808Y187682D01*
Y232125D01*
X158078Y232651D01*
X158777Y231952D01*
X160737Y231140D01*
X162820D01*
Y218280D01*
X181544D01*
X182392Y217010D01*
X182372Y216961D01*
Y214839D01*
X182562Y214380D01*
X181714Y213110D01*
X162820D01*
Y198030D01*
X182900D01*
Y211367D01*
X184170Y211893D01*
X184685Y211378D01*
X186645Y210566D01*
X188767D01*
X190728Y211378D01*
X192228Y212878D01*
X193040Y214839D01*
Y216961D01*
X192228Y218922D01*
X190728Y220422D01*
X188767Y221234D01*
X186645D01*
X184685Y220422D01*
X184170Y219907D01*
X182900Y220433D01*
Y231941D01*
X184170Y232467D01*
X184685Y231952D01*
X186645Y231140D01*
X188767D01*
X190728Y231952D01*
X192228Y233452D01*
X193040Y235413D01*
Y237535D01*
X192228Y239496D01*
X190728Y240996D01*
X188767Y241808D01*
X186645D01*
X184685Y240996D01*
X184170Y240481D01*
X182900Y241007D01*
Y253610D01*
X162820D01*
Y241808D01*
X160737D01*
X158777Y240996D01*
X158078Y240297D01*
X156808Y240823D01*
Y253339D01*
X162967Y259498D01*
X186259D01*
Y248510D01*
X200339D01*
Y253849D01*
X204694Y258204D01*
X205957Y260095D01*
X206401Y262325D01*
Y265498D01*
X206562Y266308D01*
X207940Y266726D01*
X220358Y254308D01*
X221030Y252684D01*
X222530Y251184D01*
X222564Y251170D01*
Y249900D01*
X222530Y249886D01*
X221030Y248386D01*
X220524Y247164D01*
X219150D01*
X218644Y248386D01*
X217143Y249886D01*
X215183Y250698D01*
X213061D01*
X211101Y249886D01*
X209600Y248386D01*
X208788Y246425D01*
Y244303D01*
X209600Y242342D01*
X211101Y240842D01*
X213061Y240030D01*
X215183D01*
X217143Y240842D01*
X218644Y242342D01*
X219150Y243563D01*
X220524D01*
X221030Y242342D01*
X222530Y240842D01*
X224491Y240030D01*
X226613D01*
X228573Y240842D01*
X230074Y242342D01*
X230886Y244303D01*
Y246425D01*
X230074Y248386D01*
X228573Y249886D01*
X228540Y249900D01*
Y251170D01*
X228573Y251184D01*
X230074Y252684D01*
X230778Y254385D01*
X231697Y254866D01*
X232156Y254992D01*
X232819Y254549D01*
X234801Y254154D01*
X249374D01*
X251356Y254549D01*
X253036Y255672D01*
X253632Y256564D01*
X263454D01*
Y257549D01*
X268456D01*
X270686Y257993D01*
X272576Y259256D01*
X272598Y259278D01*
X273861Y261168D01*
X274305Y263398D01*
X273861Y265628D01*
X272598Y267518D01*
X270708Y268781D01*
X268478Y269225D01*
X268367Y269203D01*
X267656D01*
X267130Y270473D01*
X267291Y270634D01*
X267438Y270854D01*
X267642Y271023D01*
X267995Y271688D01*
X268414Y272315D01*
X268466Y272574D01*
X268590Y272808D01*
X268661Y273558D01*
X268808Y274297D01*
X268787Y274402D01*
X268832Y274623D01*
Y297569D01*
X268832Y297570D01*
X268881Y297643D01*
X268881Y297643D01*
X269000Y297930D01*
D01*
X269234Y298280D01*
X269310Y298465D01*
X269392Y298878D01*
X269437Y298985D01*
X269453Y299010D01*
X269459Y299039D01*
X269654Y299510D01*
Y299511D01*
X269748Y299982D01*
Y300492D01*
X269848Y300992D01*
Y307084D01*
X269748Y307584D01*
D01*
Y308095D01*
X269654Y308566D01*
X269459Y309037D01*
X269453Y309066D01*
X269437Y309091D01*
X269098Y309908D01*
X269093Y309937D01*
X269077Y309960D01*
X269076Y309961D01*
X268881Y310433D01*
X268614Y310832D01*
X268253Y311193D01*
X267970Y311617D01*
X267923Y311664D01*
X267392Y312195D01*
X267392Y312195D01*
X267315Y312272D01*
X267315Y312272D01*
X267314Y312272D01*
X266464Y312841D01*
X266046Y313165D01*
X265932Y313197D01*
X265635Y313395D01*
X265634Y313395D01*
X265634Y313395D01*
X264624Y313596D01*
X263653Y313790D01*
X263652Y313789D01*
X263652Y313790D01*
X252984D01*
X252207Y314427D01*
Y319326D01*
X256748D01*
X258504Y318977D01*
X264736D01*
Y317701D01*
X278316D01*
Y331781D01*
X264736D01*
Y330631D01*
X258756D01*
X258442Y330693D01*
X256999Y330406D01*
X250652D01*
Y326567D01*
X249382Y326041D01*
X246855Y328567D01*
X244965Y329830D01*
X242735Y330274D01*
X242232D01*
Y330406D01*
X235885D01*
X234442Y330693D01*
X232999Y330406D01*
X226652D01*
Y320718D01*
Y319326D01*
X232238D01*
X232631Y319063D01*
X234861Y318620D01*
X240322D01*
X240553Y318388D01*
Y314525D01*
X240364Y314209D01*
X239776Y313820D01*
Y313486D01*
X238752Y313690D01*
X238242D01*
X237742Y313790D01*
X229872D01*
X229372Y313690D01*
X228862D01*
X228390Y313596D01*
X227919Y313401D01*
X227890Y313395D01*
X227865Y313379D01*
X227048Y313040D01*
X227019Y313034D01*
X226995Y313018D01*
X226523Y312823D01*
X226523Y312823D01*
X226124Y312556D01*
X226087Y312519D01*
X199136D01*
X197154Y312125D01*
X196401Y311622D01*
X195131Y312301D01*
Y315940D01*
X195131D01*
Y316330D01*
X195131D01*
Y329910D01*
X181051D01*
Y316330D01*
X181051D01*
Y315940D01*
X181051D01*
Y302360D01*
X181051D01*
Y301970D01*
X181051D01*
Y288390D01*
X193957D01*
Y282956D01*
X194351Y280974D01*
X195385Y279426D01*
X195389Y279404D01*
X195365Y278952D01*
X195040Y277931D01*
X193808Y277108D01*
X186678Y269978D01*
X185601Y270697D01*
X185928Y271487D01*
Y273609D01*
X185116Y275569D01*
X183615Y277070D01*
X181655Y277882D01*
X179760D01*
Y287174D01*
X179760Y288000D01*
X179760Y288000D01*
X179631Y288390D01*
X179631D01*
Y301090D01*
X179631Y301970D01*
X179631D01*
Y302360D01*
X179631D01*
Y315060D01*
X179631Y315940D01*
X179631D01*
Y316330D01*
X179631D01*
Y329910D01*
X165551D01*
Y329910D01*
X165367Y329787D01*
X164601Y330104D01*
X163530D01*
Y330810D01*
X140450D01*
Y318730D01*
Y307730D01*
Y296730D01*
X163530D01*
X163530Y296730D01*
Y296730D01*
X164637Y296291D01*
X165551Y295378D01*
Y289216D01*
X165551Y288390D01*
X165551Y288390D01*
X165680Y288000D01*
X165680D01*
Y274420D01*
X168058D01*
Y274066D01*
X168413Y272282D01*
X169424Y270770D01*
X170102Y270092D01*
X169576Y268822D01*
X161036D01*
X159252Y268467D01*
X157740Y267456D01*
X148850Y258566D01*
X147839Y257054D01*
X147484Y255270D01*
Y168910D01*
X145751D01*
X143791Y168098D01*
X142290Y166597D01*
X141478Y164637D01*
Y162515D01*
X142290Y160555D01*
X143791Y159054D01*
X145751Y158242D01*
X147484D01*
Y144383D01*
X146214Y144130D01*
X145746Y145261D01*
X144246Y146762D01*
X142285Y147574D01*
X140163D01*
X138202Y146762D01*
X136702Y145261D01*
X135890Y143301D01*
Y141179D01*
X136702Y139219D01*
X138202Y137718D01*
X140163Y136906D01*
X142285D01*
X144246Y137718D01*
X145746Y139219D01*
X146214Y140350D01*
X147484Y140097D01*
Y133604D01*
X147839Y131820D01*
X148850Y130308D01*
X151270Y127888D01*
X151942Y126264D01*
X152708Y125499D01*
X152410Y124000D01*
X152172Y123902D01*
X150672Y122402D01*
X149860Y120441D01*
Y118319D01*
X150672Y116358D01*
X152172Y114858D01*
X154133Y114046D01*
X156255D01*
X158216Y114858D01*
X159716Y116358D01*
X160528Y118319D01*
Y120441D01*
X159716Y122402D01*
X158950Y123167D01*
X159248Y124666D01*
X159486Y124764D01*
X160986Y126264D01*
X161798Y128225D01*
Y130347D01*
X160986Y132308D01*
X159486Y133808D01*
X157862Y134480D01*
X156808Y135535D01*
Y137774D01*
X157981Y138260D01*
X158014Y138226D01*
X159975Y137414D01*
X162097D01*
X162420Y137548D01*
X162820Y137280D01*
Y137280D01*
X182900D01*
Y152360D01*
X162820D01*
Y148565D01*
X162097Y148082D01*
X159975D01*
X158014Y147270D01*
X157981Y147236D01*
X156808Y147722D01*
Y176047D01*
X158078Y176895D01*
X158959Y176530D01*
X161081D01*
X163041Y177342D01*
X163479Y177780D01*
X182326D01*
X183003Y177653D01*
X183671Y176829D01*
X183838Y175557D01*
X184606Y173703D01*
X185750Y172212D01*
X185707Y171761D01*
X185393Y170844D01*
X184170Y170338D01*
X182900Y171021D01*
Y172610D01*
X162820D01*
Y157530D01*
X182900D01*
Y160195D01*
X184170Y160878D01*
X185629Y160274D01*
X187751D01*
X189711Y161086D01*
X191212Y162586D01*
X192024Y164547D01*
Y166669D01*
X191212Y168629D01*
X191777Y169860D01*
X206953D01*
Y160088D01*
X207096D01*
Y154404D01*
X206375Y154087D01*
X205826Y154015D01*
X204443Y155398D01*
X202483Y156210D01*
X200361D01*
X198400Y155398D01*
X196900Y153897D01*
X196088Y151937D01*
Y151435D01*
X194632D01*
Y137355D01*
X208212D01*
Y140028D01*
X209242Y140608D01*
X220322D01*
Y143101D01*
X221438Y144555D01*
X222206Y146409D01*
X222468Y148398D01*
Y169817D01*
X241716D01*
X244434Y167099D01*
Y150430D01*
X244696Y148441D01*
X245095Y147477D01*
X245014Y147249D01*
X244207Y146304D01*
X242559D01*
X240599Y145492D01*
X240495Y145389D01*
X239322Y145875D01*
Y156188D01*
X239014D01*
Y158287D01*
X238202Y160247D01*
X236702Y161748D01*
X234741Y162560D01*
X232619D01*
X230658Y161748D01*
X229158Y160247D01*
X228346Y158287D01*
Y156188D01*
X228242D01*
Y142567D01*
X226872Y141198D01*
X226060Y139237D01*
Y137115D01*
X226872Y135154D01*
X228372Y133654D01*
X228846Y133458D01*
X228593Y132188D01*
X228242D01*
Y116608D01*
X232730D01*
X235032Y114306D01*
X236544Y113295D01*
X238328Y112940D01*
X238732D01*
X240352Y111321D01*
Y103833D01*
X253932D01*
Y117684D01*
X255028Y118332D01*
X256156Y117871D01*
Y116010D01*
X255590D01*
Y103256D01*
X255590Y102430D01*
X255590Y102430D01*
X255721Y102040D01*
X255721Y102040D01*
Y94704D01*
X255716Y94680D01*
Y89354D01*
X254830Y88451D01*
X254440D01*
Y88451D01*
X240860D01*
Y74371D01*
X240860Y74371D01*
X240860D01*
X240585Y74146D01*
X240431Y74021D01*
X239669Y73259D01*
X238547Y71578D01*
X238153Y69596D01*
Y61468D01*
X238547Y59486D01*
X239669Y57806D01*
X242278Y55198D01*
X243958Y54075D01*
X244360Y53995D01*
X244440Y53593D01*
X245563Y51912D01*
X247805Y49671D01*
Y35129D01*
X246535Y34281D01*
X245390Y34755D01*
X243268D01*
X241308Y33943D01*
X239807Y32442D01*
X238995Y30482D01*
Y30128D01*
X237067Y29330D01*
X235567Y27829D01*
X234755Y25869D01*
Y23747D01*
X235567Y21786D01*
X236271Y21082D01*
X236238Y20646D01*
X235871Y19686D01*
X234214Y19000D01*
X232714Y17500D01*
X231902Y15539D01*
Y14577D01*
X221742D01*
Y16301D01*
X220930Y18261D01*
X219429Y19762D01*
X217469Y20574D01*
X215347D01*
X213386Y19762D01*
X211886Y18261D01*
X211635Y17655D01*
X210389Y17408D01*
X203561Y24237D01*
X201880Y25359D01*
X199898Y25754D01*
X187706D01*
X185724Y25359D01*
X184044Y24237D01*
X182921Y22556D01*
X182526Y20574D01*
Y18590D01*
X181257Y17854D01*
X181102Y17885D01*
X178240D01*
Y19461D01*
X164660D01*
Y5414D01*
X113583D01*
X113458Y6684D01*
X115235Y7037D01*
X117125Y8300D01*
X118388Y10191D01*
X118832Y12421D01*
X118548Y13848D01*
X119487Y15118D01*
X129350D01*
Y26198D01*
X113304D01*
X110930Y28572D01*
Y34961D01*
X111865Y35771D01*
X113288Y36152D01*
X115692Y37540D01*
X117654Y39502D01*
X119042Y41906D01*
X119760Y44586D01*
Y47362D01*
X119042Y50042D01*
X117654Y52446D01*
X115692Y54408D01*
X113288Y55796D01*
X113177Y55826D01*
X113344Y57095D01*
X128453D01*
X128669Y56837D01*
X128426Y55147D01*
X127706Y54666D01*
X126443Y52776D01*
X125999Y50546D01*
X126443Y48316D01*
X127706Y46426D01*
X127826Y45200D01*
X127304Y44678D01*
X126492Y42717D01*
Y40595D01*
X127304Y38635D01*
X128805Y37134D01*
X130765Y36322D01*
X131258D01*
X132270Y35698D01*
X132270Y35052D01*
Y24618D01*
X139444D01*
X140348Y24014D01*
X142429Y23600D01*
X150690D01*
Y20879D01*
X163391D01*
X164270Y20879D01*
Y20879D01*
X164660Y20881D01*
Y20881D01*
X178240D01*
Y34961D01*
X165539D01*
X164660Y34961D01*
Y34961D01*
X164270Y34959D01*
Y34959D01*
X150690D01*
X150350Y35698D01*
X149229D01*
X148976Y36968D01*
X149392Y37140D01*
X150893Y38641D01*
X151705Y40601D01*
Y42723D01*
X151257Y43803D01*
X151580Y45156D01*
X151882Y45363D01*
X153472Y46426D01*
X156874Y49827D01*
X156956Y49811D01*
X158457Y48310D01*
X159371Y47931D01*
Y46557D01*
X158457Y46178D01*
X156956Y44678D01*
X156144Y42717D01*
Y40595D01*
X156956Y38635D01*
X158457Y37134D01*
X160417Y36322D01*
X162539D01*
X164499Y37134D01*
X165956Y38591D01*
X167412Y37134D01*
X169373Y36322D01*
X171495D01*
X173456Y37134D01*
X174956Y38635D01*
X175768Y40595D01*
Y42717D01*
X174956Y44678D01*
X173456Y46178D01*
X171495Y46990D01*
X169373D01*
X167412Y46178D01*
X165956Y44721D01*
X164499Y46178D01*
X163585Y46557D01*
Y47931D01*
X164499Y48310D01*
X166000Y49811D01*
X166812Y51771D01*
Y53893D01*
X166000Y55854D01*
X164499Y57354D01*
X164483Y57436D01*
X171070Y64023D01*
X172684D01*
Y53128D01*
X177183D01*
X177417Y51950D01*
X178428Y50438D01*
X179584Y49282D01*
X181096Y48271D01*
X182880Y47916D01*
X184006D01*
X185629Y47244D01*
X187751D01*
X189711Y48056D01*
X191212Y49556D01*
X192024Y51517D01*
Y53639D01*
X191212Y55599D01*
X190764Y56047D01*
Y62321D01*
X192034Y62847D01*
X195684Y59197D01*
Y53128D01*
X205523D01*
X207270Y51381D01*
X206784Y50208D01*
X195684D01*
Y34628D01*
X200437D01*
X201143Y33572D01*
X201076Y33411D01*
Y31289D01*
X201888Y29328D01*
X203389Y27828D01*
X205349Y27016D01*
X207471D01*
X209431Y27828D01*
X210533Y28930D01*
X211694Y28975D01*
X212066Y28803D01*
X213386Y27482D01*
X215347Y26670D01*
X217469D01*
X219429Y27482D01*
X220930Y28983D01*
X221742Y30943D01*
Y33065D01*
X220930Y35025D01*
X219429Y36526D01*
X217469Y37338D01*
X215347D01*
X214820Y37120D01*
X213764Y37825D01*
Y45610D01*
X214693Y46372D01*
X219270D01*
Y45159D01*
X232850D01*
Y59239D01*
X228226D01*
X227547Y60509D01*
X228051Y61264D01*
X228445Y63246D01*
Y88900D01*
X228445Y88900D01*
X228051Y90882D01*
X226929Y92563D01*
X226015Y93476D01*
X224972Y94173D01*
Y103564D01*
X224972D01*
Y103954D01*
X224972D01*
Y117534D01*
X224406D01*
Y118998D01*
X223914Y121476D01*
X222510Y123576D01*
X221149Y124937D01*
X220764Y126876D01*
X220322Y127536D01*
Y132188D01*
X209242D01*
Y127536D01*
X208800Y126876D01*
X208308Y124398D01*
Y122824D01*
X208253Y122122D01*
X207123Y121594D01*
X194632D01*
Y107514D01*
X199971D01*
X201351Y106135D01*
Y106004D01*
X201558Y104961D01*
X200516Y103691D01*
X197680D01*
Y94206D01*
X196443Y93343D01*
X196133Y93472D01*
X194011D01*
X192050Y92660D01*
X190550Y91159D01*
X189738Y89199D01*
Y87077D01*
X190186Y85995D01*
X188494Y85294D01*
X186994Y83793D01*
X186182Y81833D01*
Y79711D01*
X186994Y77751D01*
X187798Y76947D01*
X187272Y75677D01*
X183817D01*
X182900Y76530D01*
Y91610D01*
X166469D01*
Y93105D01*
X170145Y96780D01*
X182900D01*
Y111860D01*
X162820D01*
Y104105D01*
X157627Y98912D01*
X156505Y97232D01*
X156110Y95250D01*
Y89628D01*
X138169Y71686D01*
X67152D01*
X62786Y76052D01*
X61105Y77175D01*
X60529Y77290D01*
X59481Y77724D01*
X57359D01*
X55399Y76912D01*
X53898Y75412D01*
X53086Y73451D01*
X52692Y73128D01*
X52070Y73252D01*
X47354D01*
X46981Y73406D01*
X44859D01*
X42899Y72594D01*
X41398Y71094D01*
X40586Y69133D01*
Y67011D01*
X41398Y65051D01*
X42899Y63550D01*
X44859Y62738D01*
X46981D01*
X47354Y62892D01*
X49925D01*
X54205Y58612D01*
X55885Y57490D01*
X57867Y57095D01*
X83506D01*
X83673Y55826D01*
X83562Y55796D01*
X81158Y54408D01*
X79196Y52446D01*
X77808Y50042D01*
X77090Y47362D01*
Y45077D01*
X76806Y44794D01*
X44603D01*
X36666Y52731D01*
Y69443D01*
X52477Y85254D01*
X70134D01*
X71918Y85609D01*
X73430Y86620D01*
X83913Y97103D01*
X84924Y98615D01*
X85279Y100399D01*
Y109061D01*
X85852Y110445D01*
Y112567D01*
X85040Y114528D01*
X83539Y116028D01*
X81579Y116840D01*
X79457D01*
X77497Y116028D01*
X75996Y114528D01*
X75184Y112567D01*
Y110445D01*
X75955Y108583D01*
Y102330D01*
X68203Y94578D01*
X55208D01*
Y108956D01*
X54853Y110740D01*
X53842Y112252D01*
X45758Y120336D01*
X44246Y121347D01*
X42462Y121702D01*
X38044D01*
X36421Y122374D01*
X34299D01*
X33557Y123290D01*
X33690Y123454D01*
X34660Y124206D01*
X36421D01*
X38382Y125018D01*
X39882Y126518D01*
X40694Y128479D01*
Y130601D01*
X39882Y132562D01*
X38382Y134062D01*
X36758Y134734D01*
X35702Y135791D01*
X36228Y137060D01*
X55372D01*
X55372Y137060D01*
X55679Y137121D01*
X57389Y135411D01*
Y102616D01*
X57833Y100386D01*
X59096Y98496D01*
X60986Y97233D01*
X63216Y96789D01*
X65446Y97233D01*
X67336Y98496D01*
X68599Y100386D01*
X69043Y102616D01*
Y137825D01*
X68599Y140055D01*
X67336Y141945D01*
X63600Y145682D01*
Y160274D01*
X63205Y162256D01*
X62083Y163937D01*
X58780Y167239D01*
X57100Y168361D01*
X55118Y168755D01*
X37846D01*
X35864Y168361D01*
X34183Y167239D01*
X34073Y167128D01*
X32900Y167614D01*
Y172360D01*
X19412D01*
X16600Y175173D01*
Y177530D01*
X32900D01*
Y180409D01*
X40544D01*
X42328Y180763D01*
X43840Y181774D01*
X55271Y193204D01*
X91186D01*
X92970Y193559D01*
X94482Y194570D01*
X119882Y219970D01*
X120893Y221482D01*
X121248Y223266D01*
Y266920D01*
X127382Y273055D01*
X129005Y273727D01*
X130506Y275228D01*
X131318Y277188D01*
Y279310D01*
X130506Y281271D01*
X129005Y282771D01*
X127045Y283583D01*
X124923D01*
X122963Y282771D01*
X121462Y281271D01*
X120790Y279647D01*
X117759Y276617D01*
X117480Y276693D01*
X116586Y277240D01*
Y279056D01*
X115774Y281017D01*
X114274Y282517D01*
X113772Y282725D01*
X113525Y283970D01*
X121540Y291986D01*
X123163Y292658D01*
X124664Y294158D01*
X125476Y296119D01*
Y298241D01*
X124664Y300201D01*
X123163Y301702D01*
X121203Y302514D01*
X119081D01*
X117121Y301702D01*
X115620Y300201D01*
X114948Y298578D01*
X110889Y294520D01*
X109400Y294826D01*
X109225Y295265D01*
X109474Y295865D01*
Y297987D01*
X108662Y299947D01*
X107162Y301448D01*
X105201Y302260D01*
X103079D01*
X101118Y301448D01*
X99618Y299947D01*
X98806Y297987D01*
Y295865D01*
X99478Y294242D01*
Y292253D01*
X93986Y286760D01*
X92975Y285248D01*
X92620Y283464D01*
Y233325D01*
X77290Y217994D01*
X75666Y217322D01*
X74166Y215821D01*
X73354Y213861D01*
Y211739D01*
X73576Y211203D01*
X72870Y210148D01*
X48768D01*
X46984Y209793D01*
X45472Y208782D01*
X36931Y200242D01*
X32900D01*
Y212860D01*
X12820D01*
Y199801D01*
X11436Y198876D01*
X8642Y196082D01*
X7631Y194570D01*
X7276Y192786D01*
Y173242D01*
X7631Y171458D01*
X8642Y169946D01*
X12820Y165768D01*
Y157280D01*
X27587D01*
Y152110D01*
X12820D01*
Y137232D01*
X11944Y136646D01*
X9404Y134106D01*
X8393Y132594D01*
X8038Y130810D01*
Y116332D01*
X8393Y114548D01*
X9404Y113036D01*
X13722Y108718D01*
X15234Y107707D01*
X17018Y107352D01*
X38455D01*
X41820Y103987D01*
Y92355D01*
X36833Y87367D01*
X35659Y87853D01*
Y89154D01*
X35265Y91136D01*
X34142Y92816D01*
X32462Y93939D01*
X30480Y94333D01*
X9144D01*
X7162Y93939D01*
X6684Y93620D01*
X5414Y94299D01*
X5414Y464037D01*
X6660Y464285D01*
X6660Y464284D01*
X9131Y460586D01*
X12276Y457441D01*
X15974Y454970D01*
X20084Y453268D01*
X24130Y452463D01*
Y474980D01*
X26670D01*
Y477520D01*
X49187D01*
X48382Y481566D01*
X46680Y485676D01*
X44209Y489374D01*
X41064Y492519D01*
X39789Y493371D01*
X40158Y494586D01*
X73868D01*
X74354Y493413D01*
X69998Y489057D01*
X68875Y487376D01*
X68481Y485394D01*
Y426212D01*
X68875Y424230D01*
X69998Y422550D01*
X69998Y422550D01*
X74570Y417977D01*
X76250Y416855D01*
X78232Y416460D01*
X99314D01*
X99767Y416550D01*
X100748Y415745D01*
Y402997D01*
X83254Y385503D01*
X82244Y383990D01*
X81889Y382206D01*
Y354700D01*
X80619Y354447D01*
X80468Y354812D01*
X78967Y356312D01*
X77007Y357124D01*
X74885D01*
X72924Y356312D01*
X71424Y354812D01*
X70612Y352851D01*
Y350729D01*
X71424Y348769D01*
X72924Y347268D01*
X74885Y346456D01*
X77007D01*
X78967Y347268D01*
X80468Y348769D01*
X80619Y349133D01*
X81889Y348881D01*
Y316319D01*
X76968Y311398D01*
X75957Y309886D01*
X75602Y308102D01*
Y265961D01*
X74632Y265114D01*
X73374Y265404D01*
X72848Y266674D01*
X71347Y268174D01*
X69387Y268986D01*
X67265D01*
X65304Y268174D01*
X64584Y267453D01*
X63754Y266718D01*
X62924Y267453D01*
X62203Y268174D01*
X60243Y268986D01*
X59861D01*
X59156Y270042D01*
X59436Y270719D01*
Y272841D01*
X58624Y274802D01*
X57123Y276302D01*
X55163Y277114D01*
X53041D01*
X51080Y276302D01*
X50360Y275581D01*
X49530Y274846D01*
X48700Y275581D01*
X47979Y276302D01*
X46019Y277114D01*
X43897D01*
X41936Y276302D01*
X40436Y274802D01*
X39624Y272841D01*
Y270719D01*
X40436Y268759D01*
X41936Y267258D01*
X43897Y266446D01*
X46019D01*
X47979Y267258D01*
X48700Y267979D01*
X49530Y268714D01*
X50360Y267979D01*
X51080Y267258D01*
X53041Y266446D01*
X53423D01*
X54128Y265390D01*
X53848Y264713D01*
Y262591D01*
X54660Y260630D01*
X56160Y259130D01*
X58121Y258318D01*
X59749D01*
X60297Y257070D01*
X59740Y256514D01*
X58928Y254553D01*
Y252431D01*
X59740Y250471D01*
X61037Y249174D01*
X59740Y247878D01*
X58928Y245917D01*
Y243795D01*
X59740Y241835D01*
X61241Y240334D01*
X63201Y239522D01*
X65323D01*
X66946Y240194D01*
X71120D01*
X72904Y240549D01*
X74416Y241560D01*
X89148Y256292D01*
X90159Y257804D01*
X90514Y259588D01*
Y302361D01*
X96521Y308368D01*
X97531Y309880D01*
X97886Y311664D01*
Y359664D01*
X99867D01*
X101827Y360476D01*
X102675Y361324D01*
X103505Y361862D01*
X104335Y361324D01*
X105183Y360476D01*
X107143Y359664D01*
X109265D01*
X111226Y360476D01*
X112726Y361977D01*
X113538Y363937D01*
Y366059D01*
X112726Y368019D01*
X111226Y369520D01*
X109265Y370332D01*
X107143D01*
X105183Y369520D01*
X104335Y368672D01*
X103505Y368134D01*
X102675Y368672D01*
X101827Y369520D01*
X99867Y370332D01*
X97886D01*
Y376535D01*
X116580Y395230D01*
X117591Y396742D01*
X117946Y398526D01*
Y447395D01*
X124101Y453551D01*
X126120Y453010D01*
X128896D01*
X131576Y453728D01*
X133980Y455116D01*
X135942Y457078D01*
X137330Y459482D01*
X138048Y462162D01*
Y464938D01*
X137330Y467618D01*
X135942Y470022D01*
X133980Y471984D01*
X132043Y473102D01*
X132383Y474372D01*
X155328D01*
X156498Y474605D01*
X157403D01*
X158574Y474372D01*
X180227D01*
X182526Y472073D01*
Y454914D01*
X182921Y452932D01*
X184044Y451251D01*
X186583Y448712D01*
X186670Y448654D01*
X186285Y447384D01*
X177944D01*
X176321Y448056D01*
X174199D01*
X172239Y447244D01*
X170738Y445743D01*
X169926Y443783D01*
Y441661D01*
X170738Y439701D01*
X172239Y438200D01*
X174199Y437388D01*
X176321D01*
X177944Y438060D01*
X323189D01*
X331864Y429386D01*
X332536Y427762D01*
X334036Y426262D01*
X335997Y425450D01*
X338119D01*
X340079Y426262D01*
X341580Y427762D01*
X342392Y429723D01*
Y431845D01*
X341580Y433806D01*
X340079Y435306D01*
X338456Y435978D01*
X328416Y446018D01*
X326904Y447029D01*
X325120Y447384D01*
X215035D01*
X214650Y448654D01*
X214736Y448712D01*
X218039Y452014D01*
X219161Y453694D01*
X219555Y455676D01*
Y490474D01*
X219161Y492456D01*
X218587Y493316D01*
X219266Y494586D01*
X344586D01*
Y371934D01*
D02*
G37*
G36*
X339852Y367792D02*
Y349250D01*
X338582Y347980D01*
X318770D01*
X314960Y351790D01*
X224804D01*
X223724Y352511D01*
X221742Y352906D01*
X218848D01*
X218440Y353314D01*
Y367792D01*
X221488Y370840D01*
X336804D01*
X339852Y367792D01*
D02*
G37*
G36*
X238379Y308483D02*
X239522Y307340D01*
Y299159D01*
X238955Y298592D01*
X233875D01*
Y293512D01*
X220525Y280162D01*
X201930Y280162D01*
X199136Y282956D01*
X199136Y307340D01*
X228092D01*
X229001Y308249D01*
X229401Y308516D01*
X229872Y308610D01*
X237742D01*
X238379Y308483D01*
D02*
G37*
G36*
X263729Y308533D02*
X263729Y308533D01*
X264307Y307955D01*
X264574Y307555D01*
X264668Y307084D01*
Y300992D01*
X264574Y300521D01*
X264525Y300447D01*
X264449Y300263D01*
X263652Y299466D01*
Y297569D01*
Y274623D01*
X263610Y274483D01*
X263629Y274297D01*
X262382Y273050D01*
X252984D01*
X250952Y271018D01*
Y270144D01*
X249374D01*
Y259334D01*
X234801D01*
X228981Y265154D01*
Y279019D01*
X250190Y300228D01*
Y303689D01*
X250500Y304000D01*
X251763Y305890D01*
X252136Y307762D01*
X252984Y308610D01*
X263652D01*
X263729Y308533D01*
D02*
G37*
G36*
X58420Y160274D02*
Y145288D01*
X55372Y142240D01*
X35306D01*
X32900Y144646D01*
Y152110D01*
X32766D01*
Y157280D01*
X32900D01*
Y158630D01*
X37846Y163576D01*
X55118D01*
X58420Y160274D01*
D02*
G37*
G36*
X223266Y88900D02*
Y63246D01*
X222758Y62738D01*
X214630D01*
X213868Y63500D01*
Y72868D01*
X212148Y74588D01*
X199696Y74617D01*
Y85363D01*
X200406Y87077D01*
Y88900D01*
X201117Y89611D01*
X211260D01*
Y89813D01*
X222353D01*
X223266Y88900D01*
D02*
G37*
G36*
X265988Y69369D02*
X267488Y67868D01*
X269449Y67056D01*
X271571D01*
X273531Y67868D01*
X274636Y68973D01*
X275887Y68428D01*
X276523Y66891D01*
X278096Y64842D01*
X279908Y63452D01*
Y60297D01*
Y35631D01*
Y27255D01*
X281425Y25738D01*
X281425Y25738D01*
X283006Y24157D01*
X283006Y24157D01*
Y24156D01*
X283768Y23159D01*
X283955Y22705D01*
X283972Y22681D01*
X283972Y22680D01*
X283972Y22680D01*
Y22171D01*
X283972Y22170D01*
Y19558D01*
X282194Y17780D01*
X269494D01*
X266954Y20320D01*
Y42525D01*
X265251Y44228D01*
X264725Y45280D01*
Y58860D01*
X258894D01*
X257556Y60198D01*
Y70612D01*
X265473D01*
X265988Y69369D01*
D02*
G37*
G36*
X30480Y81014D02*
X28206Y78740D01*
X23876D01*
X20574Y75438D01*
Y45466D01*
X36576Y29464D01*
X44450D01*
X44958Y28956D01*
Y17526D01*
X44704Y17272D01*
X32004D01*
X25908Y23368D01*
X5414D01*
Y85424D01*
X9144Y89154D01*
X30480D01*
Y81014D01*
D02*
G37*
G36*
X252376Y69441D02*
Y60198D01*
X252376Y60198D01*
X252771Y58216D01*
X253894Y56536D01*
X253894Y56536D01*
X255231Y55198D01*
X256912Y54075D01*
X258894Y53681D01*
X259546D01*
Y45280D01*
X259582Y45098D01*
X259559Y44914D01*
X259778Y44113D01*
X259940Y43298D01*
X260043Y43144D01*
X260092Y42965D01*
X260618Y41912D01*
X261127Y41256D01*
X261589Y40565D01*
X261775Y40379D01*
Y20320D01*
X262169Y18338D01*
X262191Y18305D01*
Y10731D01*
X256874Y5414D01*
X193214D01*
X187706Y10922D01*
Y20574D01*
X199898D01*
X211074Y9398D01*
X214734D01*
X215347Y9144D01*
X217469D01*
X218082Y9398D01*
X235562D01*
X236175Y9144D01*
X238297D01*
X238910Y9398D01*
X245976D01*
X246589Y9144D01*
X248711D01*
X250672Y9956D01*
X252172Y11457D01*
X252984Y13417D01*
Y15539D01*
Y51816D01*
X249225Y55575D01*
Y58860D01*
X245940D01*
X243332Y61468D01*
Y69596D01*
X244094Y70358D01*
X251460D01*
X252376Y69441D01*
D02*
G37*
G36*
X58345Y24015D02*
X60427Y23601D01*
X69115D01*
Y6096D01*
X52578D01*
Y22629D01*
X54055Y24106D01*
X58208D01*
X58345Y24015D01*
D02*
G37*
G36*
X28342Y13609D02*
X30022Y12487D01*
X32004Y12092D01*
X44704D01*
X46129Y12376D01*
X47399Y11552D01*
Y6096D01*
X46839Y5414D01*
X5414D01*
Y16918D01*
X5414Y18189D01*
X23763D01*
X28342Y13609D01*
D02*
G37*
%LPC*%
G36*
X301698Y477877D02*
Y468122D01*
Y458367D01*
X303049Y458729D01*
X305347Y460056D01*
X306321Y461030D01*
X308258Y459912D01*
X310498Y459312D01*
X312818D01*
X315058Y459912D01*
X317068Y461072D01*
X317908Y461913D01*
X318748Y461072D01*
X320757Y459912D01*
X322998Y459312D01*
X325318D01*
X327559Y459912D01*
X329567Y461072D01*
X331208Y462713D01*
X332368Y464721D01*
X332968Y466962D01*
Y469282D01*
X332368Y471522D01*
X331208Y473531D01*
X329567Y475172D01*
X327559Y476332D01*
X325318Y476932D01*
X322998D01*
X320757Y476332D01*
X318748Y475172D01*
X317908Y474331D01*
X317068Y475172D01*
X315058Y476332D01*
X312818Y476932D01*
X310498D01*
X308258Y476332D01*
X306321Y475214D01*
X305347Y476188D01*
X303049Y477515D01*
X301698Y477877D01*
D02*
G37*
G36*
X296618D02*
X295267Y477515D01*
X294257Y476932D01*
X277848D01*
Y459312D01*
X294257D01*
X295267Y458729D01*
X296618Y458367D01*
Y468122D01*
Y477877D01*
D02*
G37*
G36*
X49187Y472440D02*
X29210D01*
Y452463D01*
X33256Y453268D01*
X37366Y454970D01*
X41064Y457441D01*
X44209Y460586D01*
X46680Y464284D01*
X48382Y468394D01*
X49187Y472440D01*
D02*
G37*
G36*
X140892Y429383D02*
X138770D01*
X136809Y428571D01*
X135309Y427071D01*
X134497Y425110D01*
Y422988D01*
X135309Y421028D01*
X136809Y419527D01*
X138770Y418715D01*
X140892D01*
X142852Y419527D01*
X144353Y421028D01*
X145165Y422988D01*
Y425110D01*
X144353Y427071D01*
X142852Y428571D01*
X140892Y429383D01*
D02*
G37*
G36*
X46880Y407580D02*
X44560D01*
X42319Y406980D01*
X40311Y405820D01*
X38670Y404179D01*
X37510Y402170D01*
X36910Y399930D01*
Y397610D01*
X37510Y395369D01*
X38670Y393361D01*
X40311Y391720D01*
X42319Y390560D01*
X44560Y389960D01*
X46880D01*
X49120Y390560D01*
X51129Y391720D01*
X52770Y393361D01*
X53930Y395369D01*
X54530Y397610D01*
Y399930D01*
X53930Y402170D01*
X52770Y404179D01*
X51129Y405820D01*
X49120Y406980D01*
X46880Y407580D01*
D02*
G37*
G36*
X195131Y399220D02*
X181051D01*
Y385640D01*
X181051D01*
Y385250D01*
X181051D01*
Y371670D01*
X181051D01*
Y371280D01*
X181051D01*
Y367022D01*
X180901Y366932D01*
X179631Y367651D01*
Y370400D01*
X179631Y371280D01*
X179631D01*
Y371670D01*
X179631D01*
Y385250D01*
X179631D01*
Y385640D01*
X179631D01*
Y399220D01*
X165551D01*
Y397073D01*
X164445Y396276D01*
X163530Y396547D01*
Y396810D01*
X140450D01*
Y384730D01*
Y373454D01*
X139180Y372671D01*
X137668Y372971D01*
X124206D01*
X122224Y372577D01*
X120543Y371455D01*
X118511Y369422D01*
X117389Y367742D01*
X116994Y365760D01*
Y354584D01*
X116995Y354579D01*
X116994Y354575D01*
X117000Y351834D01*
X117198Y350846D01*
X117394Y349861D01*
X117396Y349857D01*
X117397Y349852D01*
X117959Y349015D01*
X118517Y348181D01*
X119586Y347112D01*
X121266Y345989D01*
X123248Y345594D01*
X134552D01*
X134552Y345594D01*
X136535Y345989D01*
X137729Y346787D01*
X138061Y346925D01*
X138383D01*
X138384Y346924D01*
X138894Y346924D01*
X139394Y346825D01*
X140450Y345884D01*
Y340730D01*
X163530D01*
Y341436D01*
X164601D01*
X166562Y342248D01*
X168044Y343730D01*
X179631D01*
Y349985D01*
X183388Y353742D01*
X184230Y354584D01*
X186191Y356545D01*
X187093Y356725D01*
X188552Y357700D01*
X195131D01*
Y371280D01*
X195131D01*
Y371670D01*
X195131D01*
Y385250D01*
X195131D01*
Y385640D01*
X195131D01*
Y399220D01*
D02*
G37*
G36*
X35643Y369862D02*
X33521D01*
X31560Y369050D01*
X30060Y367550D01*
X29906Y367177D01*
X26811Y364081D01*
X25654D01*
X23672Y363687D01*
X21992Y362565D01*
X11323Y351897D01*
X10201Y350216D01*
X9807Y348234D01*
Y275710D01*
X10201Y273728D01*
X11323Y272048D01*
X28838Y254534D01*
X28352Y253360D01*
X12820D01*
Y238280D01*
X25575D01*
X28160Y235695D01*
X25575Y233110D01*
X12820D01*
Y218030D01*
X32900D01*
Y225785D01*
X36631Y229517D01*
X36830D01*
X38812Y229911D01*
X40493Y231033D01*
X46080Y236621D01*
X47203Y238302D01*
X47597Y240284D01*
Y254000D01*
X47597Y254000D01*
X47203Y255982D01*
X46080Y257663D01*
X23976Y279767D01*
Y344057D01*
X28756Y348837D01*
X29059Y348876D01*
X30391Y348676D01*
X31560Y347506D01*
X33521Y346694D01*
X35643D01*
X37603Y347506D01*
X39104Y349007D01*
X39916Y350967D01*
Y353089D01*
X39104Y355050D01*
X37603Y356550D01*
X37231Y356704D01*
X35657Y358278D01*
X37231Y359852D01*
X37603Y360006D01*
X39104Y361507D01*
X39916Y363467D01*
Y365589D01*
X39104Y367550D01*
X37603Y369050D01*
X35643Y369862D01*
D02*
G37*
G36*
X46880Y327580D02*
X44560D01*
X42319Y326980D01*
X40311Y325820D01*
X38670Y324179D01*
X37510Y322170D01*
X36910Y319930D01*
Y317610D01*
X37510Y315369D01*
X38670Y313361D01*
X40311Y311720D01*
X42319Y310560D01*
X44560Y309960D01*
X46880D01*
X49120Y310560D01*
X51129Y311720D01*
X52770Y313361D01*
X53930Y315369D01*
X54530Y317610D01*
Y319930D01*
X53930Y322170D01*
X52770Y324179D01*
X51129Y325820D01*
X49120Y326980D01*
X46880Y327580D01*
D02*
G37*
G36*
X298412Y293285D02*
X296290D01*
X294329Y292473D01*
X292829Y290973D01*
X292694Y290648D01*
X291424D01*
X291290Y290973D01*
X289789Y292473D01*
X287829Y293285D01*
X285707D01*
X283746Y292473D01*
X282246Y290973D01*
X281434Y289012D01*
Y286890D01*
X282246Y284930D01*
X283746Y283429D01*
X284071Y283295D01*
Y282025D01*
X283746Y281890D01*
X282246Y280389D01*
X281434Y278429D01*
Y276307D01*
X282246Y274346D01*
X283746Y272846D01*
X284071Y272711D01*
Y271441D01*
X283746Y271306D01*
X282246Y269806D01*
X281434Y267846D01*
Y265724D01*
X282246Y263763D01*
X283746Y262263D01*
X285707Y261451D01*
X287829D01*
X289789Y262263D01*
X291290Y263763D01*
X291424Y264088D01*
X292694D01*
X292829Y263763D01*
X294329Y262263D01*
X296290Y261451D01*
X298412D01*
X300372Y262263D01*
X301873Y263763D01*
X302685Y265724D01*
Y267846D01*
X301873Y269806D01*
X300372Y271306D01*
X300047Y271441D01*
Y272711D01*
X300372Y272846D01*
X301873Y274346D01*
X302685Y276307D01*
Y278429D01*
X301873Y280389D01*
X300372Y281890D01*
X300047Y282025D01*
Y283295D01*
X300372Y283429D01*
X301873Y284930D01*
X302685Y286890D01*
Y289012D01*
X301873Y290973D01*
X300372Y292473D01*
X298412Y293285D01*
D02*
G37*
G36*
X81071Y183642D02*
X78949D01*
X76989Y182830D01*
X75488Y181329D01*
X74676Y179369D01*
Y177247D01*
X75488Y175287D01*
X76989Y173786D01*
X78949Y172974D01*
X81071D01*
X83032Y173786D01*
X84532Y175287D01*
X85344Y177247D01*
Y179369D01*
X84532Y181329D01*
X83032Y182830D01*
X81071Y183642D01*
D02*
G37*
G36*
X140507Y180340D02*
X138385D01*
X136425Y179528D01*
X134924Y178027D01*
X134112Y176067D01*
Y173945D01*
X134924Y171985D01*
X136425Y170484D01*
X138385Y169672D01*
X140507D01*
X142467Y170484D01*
X143968Y171985D01*
X144780Y173945D01*
Y176067D01*
X143968Y178027D01*
X142467Y179528D01*
X140507Y180340D01*
D02*
G37*
G36*
X75991Y163068D02*
X73869D01*
X71908Y162256D01*
X70408Y160756D01*
X69596Y158795D01*
Y156673D01*
X70408Y154712D01*
X71908Y153212D01*
X73869Y152400D01*
X75991D01*
X77951Y153212D01*
X79452Y154712D01*
X80264Y156673D01*
Y158795D01*
X79452Y160756D01*
X77951Y162256D01*
X75991Y163068D01*
D02*
G37*
G36*
X327959Y137160D02*
X325837D01*
X323876Y136348D01*
X322376Y134847D01*
X321564Y132887D01*
Y132262D01*
X320681D01*
X318720Y131450D01*
X317220Y129949D01*
X316408Y127989D01*
Y125867D01*
X317220Y123906D01*
X318720Y122406D01*
X320681Y121594D01*
X322803D01*
X324763Y122406D01*
X326264Y123906D01*
X327076Y125867D01*
Y126492D01*
X327959D01*
X329920Y127304D01*
X331420Y128805D01*
X332232Y130765D01*
Y132887D01*
X331420Y134847D01*
X329920Y136348D01*
X327959Y137160D01*
D02*
G37*
G36*
X187497Y135128D02*
X185375D01*
X183414Y134316D01*
X181914Y132816D01*
X181102Y130855D01*
Y128733D01*
X181914Y126772D01*
X183414Y125272D01*
X183535Y125222D01*
Y123952D01*
X183414Y123902D01*
X181914Y122402D01*
X181102Y120441D01*
Y118319D01*
X181914Y116358D01*
X183414Y114858D01*
X185375Y114046D01*
X187497D01*
X189457Y114858D01*
X190958Y116358D01*
X191770Y118319D01*
Y120441D01*
X190958Y122402D01*
X189457Y123902D01*
X189337Y123952D01*
Y125222D01*
X189457Y125272D01*
X190958Y126772D01*
X191770Y128733D01*
Y130855D01*
X190958Y132816D01*
X189457Y134316D01*
X187497Y135128D01*
D02*
G37*
G36*
X116885Y124460D02*
X114763D01*
X112802Y123648D01*
X111302Y122148D01*
X110490Y120187D01*
Y118065D01*
X111302Y116104D01*
X112802Y114604D01*
X114763Y113792D01*
X116885D01*
X118846Y114604D01*
X120346Y116104D01*
X121158Y118065D01*
Y120187D01*
X120346Y122148D01*
X118846Y123648D01*
X116885Y124460D01*
D02*
G37*
G36*
X96819Y138176D02*
X94697D01*
X92737Y137364D01*
X91236Y135864D01*
X90424Y133903D01*
Y131781D01*
X91236Y129820D01*
X92463Y128593D01*
X92629Y127826D01*
X92463Y127059D01*
X91236Y125831D01*
X90424Y123871D01*
Y121749D01*
X91236Y119789D01*
X92737Y118288D01*
X94697Y117476D01*
X96819D01*
X98073Y117995D01*
X98856Y116104D01*
X100357Y114604D01*
X102317Y113792D01*
X104439D01*
X106399Y114604D01*
X107900Y116104D01*
X108712Y118065D01*
Y120187D01*
X107900Y122148D01*
X106399Y123648D01*
X104439Y124460D01*
X102317D01*
X101063Y123941D01*
X100280Y125831D01*
X99053Y127059D01*
X98886Y127826D01*
X99053Y128593D01*
X100280Y129820D01*
X101092Y131781D01*
Y133903D01*
X100280Y135864D01*
X98779Y137364D01*
X96819Y138176D01*
D02*
G37*
G36*
X142793Y94742D02*
X140671D01*
X138710Y93930D01*
X137210Y92430D01*
X137160Y92309D01*
X135890D01*
X135840Y92430D01*
X134340Y93930D01*
X132379Y94742D01*
X130257D01*
X128296Y93930D01*
X126796Y92430D01*
X125984Y90469D01*
Y88347D01*
X126796Y86386D01*
X127833Y85349D01*
X127737Y84021D01*
X126804Y83686D01*
X126466Y84024D01*
X124505Y84836D01*
X122383D01*
X120422Y84024D01*
X118922Y82523D01*
X118110Y80563D01*
Y78441D01*
X118922Y76480D01*
X120422Y74980D01*
X122383Y74168D01*
X124505D01*
X126466Y74980D01*
X127334Y75849D01*
X128296Y74886D01*
X130257Y74074D01*
X132379D01*
X134340Y74886D01*
X135840Y76386D01*
X136652Y78347D01*
Y80469D01*
X135840Y82430D01*
X134635Y83634D01*
X134452Y84408D01*
X134635Y85182D01*
X135840Y86386D01*
X135890Y86507D01*
X137160D01*
X137210Y86386D01*
X138710Y84886D01*
X140671Y84074D01*
X142793D01*
X144754Y84886D01*
X146254Y86386D01*
X147066Y88347D01*
Y90469D01*
X146254Y92430D01*
X144754Y93930D01*
X142793Y94742D01*
D02*
G37*
G36*
X322060Y46647D02*
X318014Y45842D01*
X313904Y44140D01*
X310206Y41669D01*
X307061Y38524D01*
X304590Y34826D01*
X302888Y30716D01*
X302083Y26670D01*
X322060D01*
Y46647D01*
D02*
G37*
G36*
X297225Y18796D02*
X295103D01*
X294490Y18542D01*
X293143Y17984D01*
X291642Y16484D01*
X290830Y14523D01*
Y12401D01*
X291642Y10440D01*
X293143Y8940D01*
X295103Y8128D01*
X297225D01*
X299186Y8940D01*
X300686Y10440D01*
X301498Y12401D01*
Y14523D01*
X300686Y16484D01*
X299186Y17984D01*
X297838Y18542D01*
X297225Y18796D01*
D02*
G37*
%LPD*%
G36*
X140450Y365010D02*
Y362730D01*
X142730D01*
X144018Y361442D01*
X161036D01*
X161163Y361315D01*
Y353314D01*
X142690D01*
X142186Y352810D01*
X140450D01*
Y352710D01*
X139394Y352004D01*
X139153Y352104D01*
X137031D01*
X135070Y351292D01*
X134552Y350774D01*
X123248D01*
X122179Y351843D01*
X122174Y354584D01*
Y365760D01*
X124206Y367792D01*
X137668D01*
X140450Y365010D01*
D02*
G37*
D11*
X188091Y371348D02*
Y378460D01*
Y364490D02*
Y371348D01*
Y316008D02*
Y323120D01*
Y309150D02*
Y316008D01*
X140315Y66507D02*
X161290Y87482D01*
Y95250D02*
X166630Y100590D01*
X161290Y87482D02*
Y95250D01*
X52070Y68072D02*
X57867Y62275D01*
X142539D02*
X160604Y80340D01*
X57867Y62275D02*
X142539D01*
X59123Y72390D02*
X65007Y66507D01*
X140315D01*
X166630Y100590D02*
Y100590D01*
X170360Y104320D01*
X172860D01*
X160604Y80340D02*
X164592Y84328D01*
X172602D01*
X172860Y84070D01*
X45920Y68072D02*
X52070D01*
X58420Y72390D02*
X59123D01*
X166630Y80340D02*
X169130D01*
X166630D02*
X170360Y84070D01*
X169130Y80340D02*
X172860Y84070D01*
X170360D02*
X172860D01*
X34486Y234696D02*
X36830D01*
X42418Y240284D02*
Y254000D01*
X36830Y234696D02*
X42418Y240284D01*
X25360Y225570D02*
X34486Y234696D01*
X32420Y238760D02*
X34562D01*
X38608Y242806D02*
Y252088D01*
X34562Y238760D02*
X38608Y242806D01*
Y243078D01*
X25360Y245820D02*
X32420Y238760D01*
X18796Y277622D02*
X42418Y254000D01*
X14986Y275710D02*
X38608Y252088D01*
X14986Y275710D02*
Y348234D01*
X25654Y358902D01*
X28956D01*
X27432Y354838D02*
X31772D01*
X18796Y277622D02*
Y346202D01*
X27432Y354838D01*
X31772D02*
X34582Y352028D01*
X28956Y358902D02*
X34582Y364528D01*
X22860Y245820D02*
X25360D01*
X22860Y225570D02*
X25360D01*
X188091Y295180D02*
Y309150D01*
Y378460D02*
Y392430D01*
X172591Y350520D02*
X172841D01*
X183831Y361510D01*
X185111D01*
X188091Y364490D01*
D17*
X12700Y116332D02*
X17018Y112014D01*
X12700Y130810D02*
X15240Y133350D01*
X12700Y116332D02*
Y130810D01*
X11938Y173242D02*
X20360Y164820D01*
X11938Y192786D02*
X14732Y195580D01*
X11938Y173242D02*
Y192786D01*
X90424Y212852D02*
X104521Y226949D01*
X80518Y111506D02*
X80617Y111407D01*
Y100399D02*
Y111407D01*
X50546Y89916D02*
X70134D01*
X80617Y100399D01*
X175260Y442722D02*
X325120D01*
X337058Y430784D01*
X197104Y273812D02*
X207446D01*
X225552Y255706D01*
X93224Y311664D02*
Y378466D01*
X85852Y259588D02*
Y304292D01*
X93224Y311664D01*
X86551Y314389D02*
Y382206D01*
X105410Y401066D02*
Y463550D01*
X86551Y382206D02*
X105410Y401066D01*
X93224Y378466D02*
X113284Y398526D01*
X80264Y308102D02*
X86551Y314389D01*
X113284Y398526D02*
Y449326D01*
X161036Y264160D02*
X187452D01*
X152146Y255270D02*
X161036Y264160D01*
X152146Y133604D02*
Y255270D01*
Y133604D02*
X156464Y129286D01*
X182880Y52578D02*
X186690D01*
X181724Y53734D02*
Y60918D01*
Y53734D02*
X182880Y52578D01*
X271120Y150430D02*
X271472Y150078D01*
Y137796D02*
Y150078D01*
X284970Y132080D02*
X291971D01*
X271472Y137796D02*
X279254D01*
X284970Y132080D01*
X233680Y148500D02*
X233782Y148398D01*
X233680Y148500D02*
Y157226D01*
X174238Y272548D02*
X180594D01*
X172720Y274066D02*
X174238Y272548D01*
X172720Y274066D02*
Y281210D01*
X187452Y264160D02*
X197104Y273812D01*
X32004Y71374D02*
X50546Y89916D01*
X42462Y117040D02*
X50546Y108956D01*
Y89916D02*
Y108956D01*
X40386Y112014D02*
X46482Y105918D01*
X17018Y112014D02*
X40386D01*
X46482Y90424D02*
Y105918D01*
X28702Y72644D02*
X46482Y90424D01*
X35360Y117040D02*
X42462D01*
X247142Y110873D02*
Y111123D01*
X240663Y117602D02*
X247142Y111123D01*
X238328Y117602D02*
X240663D01*
X233782Y122148D02*
Y124398D01*
Y122148D02*
X238328Y117602D01*
X91186Y197866D02*
X116586Y223266D01*
X53340Y197866D02*
X91186D01*
X116586Y223266D02*
Y268851D01*
X125984Y278249D01*
X172591Y281339D02*
X172720Y281210D01*
X42672Y40132D02*
X78737D01*
X84579Y45974D01*
X32004Y50800D02*
X42672Y40132D01*
X84579Y45974D02*
X87630D01*
X172341Y295180D02*
X172591D01*
Y281339D02*
Y295180D01*
X151990Y302770D02*
X164751D01*
X172341Y295180D01*
X170865Y390705D02*
X172591Y392430D01*
X163540Y390705D02*
X170865D01*
X169620Y310533D02*
X171797Y308356D01*
X163540Y324770D02*
X170941D01*
X172591Y323120D01*
X163540Y313690D02*
X166698Y310533D01*
X169620D01*
X171797Y308356D02*
X172591Y309150D01*
X41148Y35560D02*
X99060D01*
X28702Y48006D02*
Y72644D01*
Y48006D02*
X41148Y35560D01*
X99060D02*
X109220Y45720D01*
X31550Y133350D02*
X35360Y129540D01*
X15240Y133350D02*
X31550D01*
X32004Y50800D02*
Y71374D01*
X80264Y263906D02*
Y308102D01*
X69850Y253492D02*
X80264Y263906D01*
X64262Y253492D02*
X69850D01*
X71120Y244856D02*
X85852Y259588D01*
X97282Y231394D02*
Y283464D01*
X104140Y290322D02*
Y296926D01*
X97282Y283464D02*
X104140Y290322D01*
X78688Y212800D02*
X97282Y231394D01*
X104521Y281559D02*
X120142Y297180D01*
X104521Y226949D02*
Y281559D01*
X111252Y226314D02*
Y277995D01*
X90424Y205486D02*
X111252Y226314D01*
X48768Y205486D02*
X90424D01*
X113284Y449326D02*
X127508Y463550D01*
X64262Y244856D02*
X71120D01*
X14732Y195580D02*
X38862D01*
X48768Y205486D01*
X22860Y185070D02*
X40544D01*
X53340Y197866D01*
X20360Y164820D02*
X22860D01*
X25360D01*
X172341Y364490D02*
X172591D01*
X168061Y368770D02*
X172341Y364490D01*
X163540Y368770D02*
X168061D01*
X171281Y379770D02*
X172591Y378460D01*
X163540Y379770D02*
X171281D01*
X291721Y118110D02*
X291971D01*
X283401Y126430D02*
X291721Y118110D01*
X271120Y126430D02*
X283401D01*
D23*
X278261Y95250D02*
D03*
X262761D02*
D03*
X278130Y109220D02*
D03*
X262630D02*
D03*
X233940Y67310D02*
D03*
X218440D02*
D03*
X233940Y81280D02*
D03*
X218440D02*
D03*
X233432Y96774D02*
D03*
X217932D02*
D03*
X233432Y110744D02*
D03*
X217932D02*
D03*
X307471Y118110D02*
D03*
X291971D02*
D03*
Y132080D02*
D03*
X307471D02*
D03*
X270877Y291802D02*
D03*
X255377D02*
D03*
X270877Y277832D02*
D03*
X255377D02*
D03*
X193299Y255300D02*
D03*
X208799D02*
D03*
X256414Y263354D02*
D03*
X240914D02*
D03*
X242441Y218440D02*
D03*
X257941D02*
D03*
X229493Y166878D02*
D03*
X213993D02*
D03*
X287280Y52070D02*
D03*
X271780D02*
D03*
X287151Y38100D02*
D03*
X271651D02*
D03*
X242185Y52070D02*
D03*
X257685D02*
D03*
X242020Y38282D02*
D03*
X257520D02*
D03*
X172591Y392430D02*
D03*
X188091D02*
D03*
X172591Y378460D02*
D03*
X188091D02*
D03*
X172591Y364490D02*
D03*
X188091D02*
D03*
Y350520D02*
D03*
X172591D02*
D03*
Y323120D02*
D03*
X188091D02*
D03*
X172591Y309150D02*
D03*
X188091D02*
D03*
X172591Y295180D02*
D03*
X188091D02*
D03*
X188220Y281210D02*
D03*
X172720D02*
D03*
D24*
X247142Y95373D02*
D03*
Y110873D02*
D03*
X271526Y309241D02*
D03*
Y324741D02*
D03*
X242316Y233549D02*
D03*
Y249049D02*
D03*
X256540Y233420D02*
D03*
Y248920D02*
D03*
X271780Y218440D02*
D03*
Y233940D02*
D03*
X223550Y200049D02*
D03*
Y215549D02*
D03*
X201422Y144395D02*
D03*
Y159895D02*
D03*
Y114554D02*
D03*
Y130054D02*
D03*
X204470Y81151D02*
D03*
Y96651D02*
D03*
X247650Y65911D02*
D03*
Y81411D02*
D03*
X261620Y65911D02*
D03*
Y81411D02*
D03*
X9035Y12419D02*
D03*
Y27919D02*
D03*
X23005Y12419D02*
D03*
Y27919D02*
D03*
X104140Y27921D02*
D03*
Y12421D02*
D03*
X90170Y27919D02*
D03*
Y12419D02*
D03*
X76200Y12421D02*
D03*
Y27921D02*
D03*
X226060Y36699D02*
D03*
Y52199D02*
D03*
X157480Y27919D02*
D03*
Y12419D02*
D03*
X171450Y12421D02*
D03*
Y27921D02*
D03*
X219710Y317885D02*
D03*
Y302385D02*
D03*
X206204Y317885D02*
D03*
Y302385D02*
D03*
D26*
X38308Y20658D02*
D03*
X59308Y11158D02*
D03*
Y30158D02*
D03*
X120310Y20658D02*
D03*
X141310Y11158D02*
D03*
Y30158D02*
D03*
D90*
X109220Y45974D02*
D03*
X87630D02*
D03*
X127508Y463550D02*
D03*
X105410D02*
D03*
D91*
X271780Y233940D02*
Y244602D01*
Y233690D02*
Y233940D01*
Y233690D02*
X283210Y222260D01*
Y199390D02*
Y222260D01*
X275082Y191262D02*
X283210Y199390D01*
X223550Y199799D02*
Y200049D01*
Y199799D02*
X232087Y191262D01*
X275082D01*
X205974Y60918D02*
X214693Y52199D01*
X193272Y69850D02*
X203464Y59658D01*
X214693Y52199D02*
X226060D01*
X204724Y60918D02*
X205974D01*
X55880Y375666D02*
X61722Y369824D01*
Y348488D02*
Y369824D01*
X56642Y343408D02*
X61722Y348488D01*
X53975Y147066D02*
X63216Y137825D01*
Y102616D02*
Y137825D01*
X200109Y158582D02*
X201422Y159895D01*
X188998Y158582D02*
X200109D01*
X188658Y158242D02*
X188998Y158582D01*
X188220Y272548D02*
Y281210D01*
X38100Y147066D02*
X53975D01*
X188658Y140526D02*
X194564Y134620D01*
X197106D02*
X201422Y130304D01*
X194564Y134620D02*
X197106D01*
X168656Y69850D02*
X193272D01*
X149352Y50546D02*
X168656Y69850D01*
X131826Y50546D02*
X149352D01*
X256414Y263354D02*
X256436Y263376D01*
X268456D01*
X268478Y263398D01*
X208549Y247532D02*
Y255300D01*
X206317Y245300D02*
X208549Y247532D01*
X195716Y245300D02*
X206317D01*
X193299Y255300D02*
X193549D01*
X200574Y262325D01*
Y266868D01*
X200914Y267208D01*
X258442Y324866D02*
X258504Y324804D01*
X271464D01*
X271526Y324741D01*
X240290Y231394D02*
X242381Y233485D01*
X217932Y231394D02*
X240290D01*
X201418Y225091D02*
X211628D01*
X217932Y231394D01*
X242316Y233549D02*
X242381Y233485D01*
X256475D01*
X256540Y233420D01*
X257240Y219140D02*
X257941Y218440D01*
X257240Y219140D02*
Y232720D01*
X256540Y233420D02*
X257240Y232720D01*
X257941Y218440D02*
X271780D01*
X241259Y89240D02*
X247142Y95123D01*
X238338Y89240D02*
X241259D01*
X237998Y88900D02*
X238338Y89240D01*
X257435Y52070D02*
X257685D01*
X252877Y56628D02*
X257435Y52070D01*
X251457Y56628D02*
X252877D01*
X249225Y58860D02*
X251457Y56628D01*
X247650Y65911D02*
X249225Y64336D01*
Y58860D02*
Y64336D01*
X253511Y8147D02*
X256540Y11176D01*
X206858Y8147D02*
X253511D01*
X272030Y52070D02*
Y61726D01*
X261620Y65911D02*
X263113Y64417D01*
X269339D01*
X272030Y61726D01*
X271715Y52005D02*
X271780Y52070D01*
X271715Y38165D02*
Y52005D01*
X271651Y38100D02*
X271715Y38165D01*
X201422Y114304D02*
Y114554D01*
Y114304D02*
X207178Y108548D01*
Y106004D02*
Y108548D01*
Y106004D02*
X207518Y105664D01*
X223550Y200049D02*
Y200299D01*
X221205Y202644D02*
X223550Y200299D01*
X220955Y202644D02*
X221205D01*
X218090Y205509D02*
X220955Y202644D01*
X201418Y205509D02*
X218090D01*
X223321Y215320D02*
X223550Y215549D01*
X201647Y215320D02*
X223321D01*
X201418Y215091D02*
X201647Y215320D01*
X104140Y12421D02*
X113005D01*
X90171Y12420D02*
X104139D01*
X104140Y12421D01*
X90170Y12419D02*
X90171Y12420D01*
X24892Y279908D02*
Y340414D01*
X49530Y238252D02*
Y255270D01*
X24892Y279908D02*
X49530Y255270D01*
X12700Y254508D02*
X20320D01*
X9144Y273304D02*
Y350012D01*
X20320Y254508D02*
X22552Y256740D01*
Y259896D01*
X9144Y273304D02*
X22552Y259896D01*
X9144Y350012D02*
X34458Y375326D01*
X24892Y340414D02*
X27886Y343408D01*
X37338D01*
X56642D01*
X38862Y375666D02*
X55880D01*
X34458Y375326D02*
X38522D01*
X38862Y375666D01*
X10414Y252222D02*
X12700Y254508D01*
X10414Y218948D02*
Y252222D01*
Y218948D02*
X11940Y217423D01*
X13716Y215646D01*
X33020D01*
X35814Y218440D01*
Y224536D01*
X49530Y238252D01*
X49720Y289770D02*
X50560D01*
X233782Y314706D02*
X234442Y315366D01*
X224790Y314706D02*
X233782D01*
X242735Y324447D02*
X246380Y320802D01*
X234464Y305888D02*
X244148D01*
X246380Y308120D01*
Y320802D01*
X234442Y305866D02*
X234464Y305888D01*
X234442Y324866D02*
X234861Y324447D01*
X242735D01*
X49720Y289770D02*
Y305806D01*
Y444770D02*
Y460806D01*
Y428734D02*
Y444770D01*
X33684D02*
X49720D01*
X65756D01*
X145648Y436698D02*
X161684D01*
X145576Y436626D02*
X145720Y436770D01*
X129540Y436626D02*
X145576D01*
X187960Y339852D02*
Y350389D01*
X151990Y357770D02*
X165341D01*
X169996Y353115D01*
Y352865D02*
Y353115D01*
Y352865D02*
X172341Y350520D01*
X172591D01*
D92*
X164084Y75184D02*
X181750D01*
X146647Y57747D02*
X164084Y75184D01*
X80607Y57747D02*
X146647D01*
X184404Y77838D02*
Y110744D01*
X181750Y75184D02*
X184404Y77838D01*
X181610Y113538D02*
X184404Y110744D01*
X162560Y113538D02*
X181610D01*
X155448Y106426D02*
X162560Y113538D01*
X137922Y71882D02*
X155448Y89408D01*
Y106426D01*
X123698Y71882D02*
X137922D01*
X71882D02*
X123698D01*
X37338Y54610D02*
X46228Y45720D01*
X70179Y48006D02*
X70866D01*
X67893Y45720D02*
X70179Y48006D01*
X46228Y45720D02*
X67893D01*
X64008Y79756D02*
X71882Y71882D01*
X48768Y79756D02*
X64008D01*
X247142Y95123D02*
Y95373D01*
X235540Y225091D02*
X242191Y218440D01*
X230632Y225091D02*
X235540D01*
X242191Y218440D02*
X242441D01*
X70866Y48006D02*
X80607Y57747D01*
X76200Y12421D02*
Y12671D01*
X87444Y23915D01*
Y25193D01*
X90170Y27919D01*
X59308Y30158D02*
X60427Y29039D01*
X75081D01*
X76200Y27921D01*
X111153Y20658D02*
X120310D01*
X104140Y27671D02*
X111153Y20658D01*
X90170Y27919D02*
X90171Y27920D01*
X104139D01*
X104140Y27921D01*
X141310Y30158D02*
X142429Y29039D01*
X156361D01*
X157480Y27919D01*
X141301Y11167D02*
X141310Y11158D01*
X130057Y11167D02*
X141301D01*
X130048Y11176D02*
X130057Y11167D01*
X141310Y11158D02*
Y17694D01*
X156849Y11789D02*
X157480Y12419D01*
X141941Y11789D02*
X156849D01*
X141310Y11158D02*
X141941Y11789D01*
X171450Y12421D02*
X171475Y12446D01*
X181102D01*
X171449Y27920D02*
X171450Y27921D01*
X157481Y27920D02*
X171449D01*
X157480Y27919D02*
X157481Y27920D01*
X37338Y54610D02*
Y64770D01*
X37720Y65153D01*
Y68709D01*
X48768Y79756D01*
D94*
X242251Y248985D02*
X242316Y249049D01*
X233745Y248985D02*
X242251D01*
X233680Y248920D02*
X233745Y248985D01*
X181724Y42418D02*
X182529Y41613D01*
Y24989D02*
Y41613D01*
Y24989D02*
X182626Y24892D01*
X259633Y137506D02*
X261620Y139493D01*
X172466Y124964D02*
X172860Y124570D01*
X172466Y124964D02*
Y133604D01*
X256540Y248920D02*
Y249170D01*
X258250Y250880D01*
X258500D01*
X261523Y253903D01*
X271683D01*
X271780Y254000D01*
X229493Y166878D02*
X230198Y167583D01*
X236492D01*
X224282Y148398D02*
Y161917D01*
X229243Y166878D01*
X229493D01*
X261620Y139493D02*
Y150430D01*
X307221Y118110D02*
X307471D01*
X298331Y109220D02*
X307221Y118110D01*
X278130Y109220D02*
X298331D01*
X242020Y38282D02*
X242103Y38365D01*
Y51987D01*
X226060Y36699D02*
X226851Y37491D01*
X241229D01*
X242020Y38282D01*
X247650Y81411D02*
X261620D01*
X262190Y94680D02*
X262761Y95250D01*
X262190Y81981D02*
Y94680D01*
X261620Y81411D02*
X262190Y81981D01*
X247142Y95373D02*
Y95623D01*
X253897Y102378D01*
X253956D01*
X214782Y122148D02*
X217932Y118998D01*
X214782Y122148D02*
Y124398D01*
X217932Y110744D02*
Y118998D01*
X252120Y125747D02*
X252580Y126208D01*
X252120Y124180D02*
Y125747D01*
X252580Y126208D02*
X258361D01*
X262630Y121939D01*
Y109220D02*
Y121939D01*
X262695Y95315D02*
X262761Y95250D01*
X262695Y95315D02*
Y109155D01*
X262630Y109220D02*
X262695Y109155D01*
X278011Y95250D02*
X278261D01*
X271526Y88765D02*
X278011Y95250D01*
X271526Y83566D02*
Y88765D01*
X278130Y109220D02*
X278195Y109155D01*
Y95315D02*
Y109155D01*
Y95315D02*
X278261Y95250D01*
X307471Y118110D02*
X319024D01*
X326136Y110998D01*
X307471Y118110D02*
Y132080D01*
X259633Y137369D02*
Y137506D01*
X203382Y132014D02*
X207004Y135636D01*
X221306D01*
X224282Y138612D01*
Y148398D01*
X203132Y132014D02*
X203382D01*
X201422Y130054D02*
Y130304D01*
X203132Y132014D01*
X217932Y96774D02*
Y110744D01*
X204470Y96651D02*
X204532Y96712D01*
X217870D01*
X217932Y96774D01*
D95*
X22940Y103990D02*
X32376D01*
X22780Y104150D02*
X22860Y104070D01*
X13344Y104150D02*
X22780D01*
D96*
X215392Y177502D02*
X244900D01*
X209573D02*
X215392D01*
X214782Y148398D02*
Y176893D01*
X215392Y177502D01*
X233686Y67564D02*
Y103886D01*
Y110490D01*
X209529Y177546D02*
X209573Y177502D01*
X201662Y177546D02*
X209529D01*
X191262D02*
X201662D01*
X252120Y150430D02*
Y170282D01*
X244900Y177502D02*
X252120Y170282D01*
X233432Y110744D02*
X233686Y110490D01*
D98*
X45720Y318770D02*
D03*
Y398770D02*
D03*
X324158Y468122D02*
D03*
X311658D02*
D03*
X299158D02*
D03*
D99*
X290592Y71839D02*
D03*
X290592Y161839D02*
D03*
D100*
X332092Y161841D02*
D03*
X332092Y71840D02*
D03*
D101*
X295592Y145741D02*
D03*
Y87941D02*
D03*
D102*
X286658Y468122D02*
D03*
D103*
X324600Y24130D02*
D03*
X26670Y474980D02*
D03*
D104*
X216408Y15240D02*
D03*
X52324Y222377D02*
D03*
Y228600D02*
D03*
Y216154D02*
D03*
X271780Y244602D02*
D03*
X180086Y333756D02*
D03*
X195072Y470408D02*
D03*
Y463677D02*
D03*
X96266Y426466D02*
D03*
X96520Y435864D02*
D03*
X85852Y426466D02*
D03*
X86106Y435610D02*
D03*
X61722Y358394D02*
D03*
X63216Y102616D02*
D03*
X175260Y442722D02*
D03*
X225552Y245364D02*
D03*
X233680Y248920D02*
D03*
X214122Y245364D02*
D03*
X187706Y215900D02*
D03*
Y236474D02*
D03*
X240792Y269748D02*
D03*
X232664D02*
D03*
X240792Y275844D02*
D03*
X232664D02*
D03*
X188220Y272548D02*
D03*
X202438Y187960D02*
D03*
X95758Y122810D02*
D03*
Y132842D02*
D03*
X230886Y355854D02*
D03*
X221234D02*
D03*
Y365506D02*
D03*
X230886D02*
D03*
X188091Y371348D02*
D03*
Y316008D02*
D03*
X108204Y364998D02*
D03*
X98806D02*
D03*
X236728Y203962D02*
D03*
X74930Y157734D02*
D03*
X244329Y29421D02*
D03*
X296164Y13462D02*
D03*
X172212Y339852D02*
D03*
X186690Y165608D02*
D03*
X156464Y129286D02*
D03*
X161036Y142748D02*
D03*
X241046Y133350D02*
D03*
X173482Y51562D02*
D03*
X186690Y52578D02*
D03*
X80010Y178308D02*
D03*
X240089Y24808D02*
D03*
X161478Y52832D02*
D03*
X186436Y119380D02*
D03*
Y129794D02*
D03*
X141224Y142240D02*
D03*
X161798Y236474D02*
D03*
X141732Y89408D02*
D03*
X146371Y41662D02*
D03*
X131826Y41656D02*
D03*
X160020Y181864D02*
D03*
X259633Y137796D02*
D03*
X271472D02*
D03*
X307171Y335619D02*
D03*
Y325035D02*
D03*
X328337D02*
D03*
X317754D02*
D03*
Y335619D02*
D03*
X328337D02*
D03*
X318093Y295994D02*
D03*
X328676D02*
D03*
X172466Y133604D02*
D03*
X225552Y255706D02*
D03*
X271780Y254000D02*
D03*
X268478Y263398D02*
D03*
X274574Y204470D02*
D03*
Y184404D02*
D03*
X236492Y167583D02*
D03*
X233680Y157226D02*
D03*
X195716Y245300D02*
D03*
X200914Y267208D02*
D03*
X233686Y103886D02*
D03*
X131826Y50546D02*
D03*
X182626Y24892D02*
D03*
X280162Y20828D02*
D03*
X272796D02*
D03*
X32766Y103600D02*
D03*
X12954Y104540D02*
D03*
X16426Y8890D02*
D03*
X41730Y8802D02*
D03*
X33274Y8890D02*
D03*
X123190Y56388D02*
D03*
X301498Y27178D02*
D03*
X271526Y83566D02*
D03*
X201662Y177546D02*
D03*
X191008D02*
D03*
X188658Y140526D02*
D03*
Y158242D02*
D03*
X201418Y225091D02*
D03*
X230632D02*
D03*
X201418Y215853D02*
D03*
Y205509D02*
D03*
X207518Y105664D02*
D03*
X201422Y150876D02*
D03*
X123698Y71882D02*
D03*
X139446Y175006D02*
D03*
X146812Y163576D02*
D03*
X252222Y137796D02*
D03*
X243450Y122800D02*
D03*
X243620Y140970D02*
D03*
X231394Y138176D02*
D03*
X61468Y16764D02*
D03*
X113005Y12421D02*
D03*
X65024Y20828D02*
D03*
X57332D02*
D03*
X130048Y11176D02*
D03*
X141310Y17694D02*
D03*
X181102Y12446D02*
D03*
X237236Y14478D02*
D03*
X247650D02*
D03*
X270510Y72390D02*
D03*
X195072Y88138D02*
D03*
X191516Y80772D02*
D03*
X155194Y119380D02*
D03*
X73216Y122810D02*
D03*
X180594Y272548D02*
D03*
X48768Y79756D02*
D03*
X58420Y72390D02*
D03*
X45920Y68072D02*
D03*
X123444Y89662D02*
D03*
Y79502D02*
D03*
X115824Y119126D02*
D03*
X103378D02*
D03*
X131318Y79408D02*
D03*
Y89408D02*
D03*
X163540Y390705D02*
D03*
Y324770D02*
D03*
Y313690D02*
D03*
X80518Y111506D02*
D03*
X35360Y129540D02*
D03*
Y117040D02*
D03*
X13716Y215646D02*
D03*
X10414Y235585D02*
D03*
X22552Y256740D02*
D03*
X9144Y273304D02*
D03*
Y307594D02*
D03*
X21801Y362669D02*
D03*
X9144Y350012D02*
D03*
X24892Y340414D02*
D03*
Y307340D02*
D03*
X30734Y274320D02*
D03*
X56642Y343408D02*
D03*
X37338D02*
D03*
X55880Y375666D02*
D03*
X75946Y351790D02*
D03*
X64008Y296926D02*
D03*
X38862Y375666D02*
D03*
X34582Y364528D02*
D03*
Y352028D02*
D03*
X120142Y297180D02*
D03*
X104140Y296926D02*
D03*
X38100Y147066D02*
D03*
X36830Y155194D02*
D03*
X64262Y244856D02*
D03*
Y253492D02*
D03*
X90424Y212852D02*
D03*
X78688Y212800D02*
D03*
X59182Y263652D02*
D03*
X68326D02*
D03*
X44958Y271780D02*
D03*
X54102D02*
D03*
X125984Y278249D02*
D03*
X111252Y277995D02*
D03*
X91440Y296926D02*
D03*
X209042Y330708D02*
D03*
X217324D02*
D03*
X209042Y339852D02*
D03*
X217324D02*
D03*
X217832Y293370D02*
D03*
Y284226D02*
D03*
X209550D02*
D03*
Y293370D02*
D03*
X49720Y305806D02*
D03*
Y460806D02*
D03*
Y428734D02*
D03*
X33684Y444770D02*
D03*
X65756D02*
D03*
X161684Y436698D02*
D03*
X129540Y436626D02*
D03*
X145720Y281108D02*
D03*
X180086Y339852D02*
D03*
X75940Y314966D02*
D03*
X66294Y324612D02*
D03*
X135552Y357378D02*
D03*
X124714D02*
D03*
X138075Y390705D02*
D03*
X138092Y379770D02*
D03*
Y346770D02*
D03*
Y324770D02*
D03*
X137922Y313690D02*
D03*
X163540Y346770D02*
D03*
Y368770D02*
D03*
Y379770D02*
D03*
X337058Y430784D02*
D03*
X156951Y474451D02*
D03*
X151130Y465328D02*
D03*
X153801Y424049D02*
D03*
X139831D02*
D03*
X195072Y456946D02*
D03*
X208534D02*
D03*
X201803D02*
D03*
X254254Y461010D02*
D03*
X270002Y461518D02*
D03*
Y468630D02*
D03*
X337227Y353060D02*
D03*
X326644D02*
D03*
Y363643D02*
D03*
X337227D02*
D03*
X286768Y266785D02*
D03*
Y277368D02*
D03*
X297351D02*
D03*
Y266785D02*
D03*
Y287951D02*
D03*
X286768D02*
D03*
X328676D02*
D03*
X318093D02*
D03*
Y266785D02*
D03*
Y277368D02*
D03*
X328676D02*
D03*
Y266785D02*
D03*
Y256201D02*
D03*
Y245618D02*
D03*
Y235035D02*
D03*
Y224451D02*
D03*
Y213868D02*
D03*
X341596Y177231D02*
D03*
Y185481D02*
D03*
X317389Y141903D02*
D03*
X306578Y142240D02*
D03*
X294894Y100584D02*
D03*
X302260Y94742D02*
D03*
X332740Y181356D02*
D03*
Y175260D02*
D03*
Y187452D02*
D03*
X339090Y197866D02*
D03*
Y250952D02*
D03*
X240030Y88900D02*
D03*
X204978Y87630D02*
D03*
X190997Y17029D02*
D03*
X198374Y12192D02*
D03*
X211328Y87630D02*
D03*
X206410Y32350D02*
D03*
X216408Y32004D02*
D03*
X170434Y41656D02*
D03*
X161478D02*
D03*
X253956Y102378D02*
D03*
X326136Y110998D02*
D03*
X326644Y141224D02*
D03*
X321056Y103378D02*
D03*
X315214Y96012D02*
D03*
X326898Y131826D02*
D03*
X321742Y126928D02*
D03*
X308356Y101600D02*
D03*
X313690Y106934D02*
D03*
D111*
X214782Y124398D02*
D03*
X233782D02*
D03*
Y148398D02*
D03*
X224282D02*
D03*
X214782D02*
D03*
X252120Y126430D02*
D03*
X271120D02*
D03*
Y150430D02*
D03*
X261620D02*
D03*
X252120D02*
D03*
D112*
X258442Y305866D02*
D03*
Y324866D02*
D03*
X234442D02*
D03*
Y315366D02*
D03*
Y305866D02*
D03*
D113*
X204724Y42418D02*
D03*
X181724D02*
D03*
Y60918D02*
D03*
X204724D02*
D03*
D114*
X22860Y83820D02*
D03*
Y104070D02*
D03*
Y124320D02*
D03*
Y144570D02*
D03*
Y164820D02*
D03*
Y185070D02*
D03*
Y205320D02*
D03*
Y225570D02*
D03*
Y245820D02*
D03*
X172860Y84070D02*
D03*
Y104320D02*
D03*
Y124570D02*
D03*
Y144820D02*
D03*
Y165070D02*
D03*
Y185320D02*
D03*
Y205570D02*
D03*
Y225820D02*
D03*
Y246070D02*
D03*
D115*
X151990Y335770D02*
D03*
Y302770D02*
D03*
Y313770D02*
D03*
Y324770D02*
D03*
Y346770D02*
D03*
Y357770D02*
D03*
Y368770D02*
D03*
Y379770D02*
D03*
Y390770D02*
D03*
D116*
X145720Y289770D02*
D03*
D117*
X49720Y289770D02*
D03*
Y444770D02*
D03*
D118*
X145720Y436770D02*
D03*
D119*
X240860Y53145D02*
X240945D01*
X233940Y67310D02*
X234148Y67102D01*
Y59857D02*
Y67102D01*
Y59857D02*
X240860Y53145D01*
X240945D02*
X242103Y51987D01*
M02*
