G04*
G04 #@! TF.GenerationSoftware,Altium Limited,Altium Designer,23.5.1 (21)*
G04*
G04 Layer_Physical_Order=1*
G04 Layer_Color=255*
%FSLAX44Y44*%
%MOMM*%
G71*
G04*
G04 #@! TF.SameCoordinates,D8F5AE86-2F01-4A25-AC6E-D886633190FF*
G04*
G04*
G04 #@! TF.FilePolarity,Positive*
G04*
G01*
G75*
%ADD11C,0.2540*%
%ADD14C,0.2032*%
%ADD17C,0.1524*%
%ADD19R,0.5500X0.6000*%
%ADD20R,1.2700X1.2700*%
%ADD21R,0.7620X0.7620*%
%ADD22R,1.2700X1.2700*%
%ADD23R,0.9000X0.8500*%
%ADD24R,0.8500X0.9000*%
%ADD25R,0.6000X1.3000*%
%ADD26R,1.3000X0.6000*%
%ADD27R,2.0000X2.0000*%
%ADD28R,1.6500X1.5000*%
G04:AMPARAMS|DCode=29|XSize=1.524mm|YSize=3.429mm|CornerRadius=0mm|HoleSize=0mm|Usage=FLASHONLY|Rotation=270.000|XOffset=0mm|YOffset=0mm|HoleType=Round|Shape=Octagon|*
%AMOCTAGOND29*
4,1,8,1.7145,0.3810,1.7145,-0.3810,1.3335,-0.7620,-1.3335,-0.7620,-1.7145,-0.3810,-1.7145,0.3810,-1.3335,0.7620,1.3335,0.7620,1.7145,0.3810,0.0*
%
%ADD29OCTAGOND29*%

%ADD30R,1.6000X0.7000*%
%ADD31R,2.4000X0.7000*%
%ADD32R,2.7000X1.0000*%
%ADD33O,2.7000X1.0000*%
%ADD34R,1.7500X2.2000*%
%ADD35R,1.2000X1.3000*%
%ADD36R,0.5000X0.5000*%
%ADD37R,0.6000X0.5500*%
%ADD38R,9.0000X8.8000*%
%ADD39R,2.2000X2.2000*%
%ADD40R,0.3000X1.5000*%
%ADD41R,1.1500X0.3000*%
%ADD42R,1.1481X0.2997*%
%ADD43R,0.8000X1.6000*%
%ADD44R,2.0000X3.0000*%
%ADD45R,2.5000X2.1000*%
%ADD46R,1.3000X0.8000*%
%ADD47R,1.6000X0.8000*%
%ADD48R,3.0000X2.0000*%
%ADD49R,0.3000X1.2000*%
%ADD50R,1.2000X0.3000*%
%ADD90C,1.6000*%
%ADD91C,0.3810*%
%ADD92C,0.3048*%
%ADD93C,0.1270*%
%ADD94C,0.5080*%
%ADD95C,1.0160*%
%ADD96C,0.7620*%
%ADD97C,0.8890*%
%ADD98C,1.0000*%
%ADD99O,2.3000X1.2000*%
%ADD100O,2.0000X1.2000*%
%ADD101C,0.7500*%
%ADD102R,1.0000X1.0000*%
%ADD103C,3.5000*%
%ADD104C,0.5588*%
G36*
X251206Y487934D02*
Y477012D01*
X249936Y475742D01*
X238506D01*
X235712Y472948D01*
X220726D01*
Y485648D01*
X223520Y488442D01*
X250698D01*
X251206Y487934D01*
D02*
G37*
G36*
X277848Y466063D02*
Y459312D01*
X277848D01*
X277801Y458061D01*
X272388D01*
X272388Y458061D01*
X272387Y458061D01*
X220218D01*
X219555Y458605D01*
Y467000D01*
X220537Y467806D01*
X220726Y467769D01*
X235712D01*
X237694Y468163D01*
X239375Y469286D01*
X239375Y469286D01*
X240651Y470563D01*
X249936D01*
X249936Y470563D01*
X251918Y470957D01*
X253598Y472080D01*
X253959Y472440D01*
X254869Y473349D01*
X255991Y475030D01*
X256082Y475489D01*
X268422D01*
X277848Y466063D01*
D02*
G37*
G36*
X326698Y458367D02*
X328049Y458729D01*
X328338Y458896D01*
X329438Y458261D01*
X329438Y440690D01*
X296418Y407670D01*
X296418Y397864D01*
X273558D01*
Y418846D01*
X279146Y424434D01*
X295402D01*
X318770Y447802D01*
Y451979D01*
X318770Y451979D01*
Y454976D01*
X318843Y455370D01*
X318843Y455370D01*
X318904Y455681D01*
X318935Y455756D01*
X318966Y455910D01*
X318966Y456101D01*
X319026Y456282D01*
X319032Y456332D01*
X319025Y456438D01*
X319054Y456541D01*
X319051Y456570D01*
X319488Y457627D01*
X319515Y457827D01*
X320892Y458562D01*
X321618Y458367D01*
Y468122D01*
X326698D01*
Y458367D01*
D02*
G37*
G36*
X200406Y474472D02*
X213614D01*
X214376Y473710D01*
Y455676D01*
X211582Y452882D01*
X182118D01*
X181610Y453390D01*
Y477774D01*
X197104D01*
X200406Y474472D01*
D02*
G37*
G36*
X305469Y460056D02*
X307767Y458729D01*
X310331Y458042D01*
X312803D01*
X312819Y458041D01*
X313347Y457781D01*
X313892Y456970D01*
X313886Y456921D01*
X313855Y456767D01*
Y456767D01*
X313824Y456692D01*
X313763Y456381D01*
Y456343D01*
X313748Y456307D01*
X313676Y455913D01*
X313682Y455519D01*
X313663Y455433D01*
X313672Y455386D01*
X313591Y454976D01*
Y451979D01*
X313590Y451979D01*
Y451004D01*
X293878Y431292D01*
X230124D01*
X223266Y424434D01*
X195326Y424434D01*
Y445770D01*
X213106D01*
X220218Y452882D01*
X272387D01*
X272388Y452882D01*
X272388Y452882D01*
X295656D01*
X302861Y460087D01*
X304495Y461030D01*
X305469Y460056D01*
D02*
G37*
G36*
X141911Y477090D02*
X152991D01*
Y480951D01*
X164412D01*
Y479000D01*
X164412Y479000D01*
X164281Y478690D01*
X164281D01*
X164281Y477784D01*
Y465990D01*
X164281Y465110D01*
X164281D01*
X164282Y464720D01*
X164282D01*
Y451140D01*
X177004D01*
X177948Y449728D01*
X178456Y449220D01*
X180136Y448097D01*
X182118Y447702D01*
X189530D01*
X190336Y446721D01*
X190147Y445770D01*
Y424434D01*
X190541Y422452D01*
X191663Y420771D01*
X193344Y419649D01*
X195326Y419254D01*
X223266Y419254D01*
X225248Y419649D01*
X226928Y420771D01*
X226929Y420771D01*
X232269Y426113D01*
X271840D01*
X272326Y424939D01*
X269895Y422509D01*
X268773Y420828D01*
X268379Y418846D01*
Y410866D01*
X247528D01*
Y390786D01*
X269108D01*
Y393538D01*
X270378Y393879D01*
X271576Y393078D01*
X273558Y392684D01*
X296418D01*
X298400Y393078D01*
X300081Y394201D01*
X301203Y395881D01*
X301597Y397864D01*
X301597Y405524D01*
X313345Y417272D01*
X314518Y416786D01*
Y411802D01*
X323262D01*
X323973Y410936D01*
Y405850D01*
X318612D01*
Y393770D01*
X339692D01*
Y405850D01*
X334332D01*
Y408791D01*
X337343Y411802D01*
X344098D01*
X344586Y410734D01*
Y377259D01*
X343316Y376733D01*
X342752Y377296D01*
X341072Y378419D01*
X339090Y378814D01*
X323442D01*
X321459Y378419D01*
X319779Y377296D01*
X318813Y375850D01*
X318612D01*
Y375394D01*
X318262Y373634D01*
Y347980D01*
X318656Y345998D01*
X319779Y344318D01*
X321459Y343195D01*
X323442Y342800D01*
X338582D01*
X340564Y343195D01*
X342244Y344318D01*
X343316Y345389D01*
X344586Y344863D01*
Y313782D01*
D01*
Y298704D01*
Y254688D01*
X343316Y254269D01*
X342112Y255474D01*
X340151Y256286D01*
X338029D01*
X336068Y255474D01*
X334568Y253974D01*
X333756Y252013D01*
D01*
Y249891D01*
Y249890D01*
X333800Y248720D01*
X333800D01*
Y237640D01*
Y228140D01*
X333756Y228102D01*
Y227330D01*
X332740D01*
Y214630D01*
X344586D01*
Y195679D01*
X304800D01*
Y210562D01*
X304800Y211070D01*
X304800Y211072D01*
X304801Y211073D01*
X304816Y211096D01*
X305155Y211914D01*
X305161Y211943D01*
X305161Y211943D01*
X305522Y212304D01*
X305550Y212347D01*
X305746Y212818D01*
X306000Y213198D01*
X306000Y213199D01*
X306029Y213243D01*
X306129Y213743D01*
X306324Y214214D01*
X306324Y214724D01*
X306423Y215225D01*
Y310896D01*
X306029Y312878D01*
X304907Y314559D01*
X296772Y322693D01*
Y351677D01*
X299573Y354478D01*
X300695Y356158D01*
X301089Y358140D01*
Y372036D01*
X300990Y372536D01*
Y373046D01*
X300795Y373518D01*
X300695Y374018D01*
X300412Y374442D01*
X300217Y374914D01*
X299856Y375453D01*
X299495Y375814D01*
X299212Y376238D01*
X298768Y376682D01*
X298344Y376965D01*
X297983Y377326D01*
X297584Y377593D01*
X297584Y377593D01*
X297584Y377593D01*
X297113Y377788D01*
X297088Y377804D01*
X297059Y377810D01*
X296242Y378149D01*
X296217Y378165D01*
X296188Y378171D01*
X295717Y378366D01*
X295246Y378460D01*
X294736D01*
X294235Y378559D01*
X283770Y378559D01*
X273306D01*
X273088Y378516D01*
X272753D01*
X272470Y378460D01*
X272296D01*
X272077Y378417D01*
D01*
D01*
X271916Y378350D01*
X270770Y378122D01*
X270228Y377759D01*
X269108Y378358D01*
Y380866D01*
X247528D01*
Y363182D01*
X246355Y362696D01*
X235564Y373487D01*
X233884Y374609D01*
X231902Y375004D01*
X196088D01*
X196088Y375004D01*
X194106Y374609D01*
X193393Y374133D01*
X192613Y374370D01*
X191112Y375870D01*
X189152Y376682D01*
X187030D01*
X185069Y375870D01*
X183569Y374370D01*
X182757Y372409D01*
Y370287D01*
X183569Y368326D01*
X185069Y366826D01*
X187030Y366014D01*
X189152D01*
X189893Y365519D01*
Y348996D01*
X190287Y347014D01*
X191409Y345334D01*
X193090Y344211D01*
X195072Y343816D01*
X216803D01*
X217579Y343041D01*
Y329438D01*
X217579Y329438D01*
X217579Y329438D01*
X217775Y328452D01*
X217973Y327456D01*
X217973Y327456D01*
X217973Y327456D01*
X218078Y327202D01*
X218643Y326357D01*
X219201Y325522D01*
X219201Y325522D01*
X219201Y325521D01*
X220037Y324963D01*
X220881Y324399D01*
X220881Y324399D01*
X220881Y324399D01*
X221877Y324201D01*
X222863Y324005D01*
X244348D01*
X246330Y324399D01*
X248011Y325522D01*
X249133Y327202D01*
X249527Y329184D01*
Y357378D01*
X249527Y357378D01*
X249133Y359360D01*
X248929Y359666D01*
X249528Y360786D01*
X265585D01*
Y322693D01*
X257189Y314298D01*
X226822D01*
X224840Y313903D01*
X223160Y312780D01*
X223160Y312780D01*
X220366Y309986D01*
X219243Y308306D01*
X218848Y306324D01*
Y298704D01*
X216771D01*
X214810Y297892D01*
X213691Y296773D01*
X212572Y297892D01*
X210611Y298704D01*
X208489D01*
X206528Y297892D01*
X205028Y296392D01*
X204216Y294431D01*
Y292309D01*
X205028Y290348D01*
X205749Y289628D01*
X206484Y288798D01*
X205749Y287968D01*
X205028Y287248D01*
X204216Y285287D01*
Y283165D01*
X205028Y281204D01*
X206528Y279704D01*
X208489Y278892D01*
X210611D01*
X212572Y279704D01*
X213691Y280823D01*
X214810Y279704D01*
X216771Y278892D01*
X218893D01*
X219858Y279292D01*
X220366Y278531D01*
X222046Y277409D01*
X224028Y277015D01*
X227257D01*
X227330Y276905D01*
Y274783D01*
X228142Y272822D01*
X228169Y272796D01*
X228142Y272770D01*
X227330Y270809D01*
Y270101D01*
X227329Y270100D01*
X226060Y269668D01*
X224404Y271324D01*
X222000Y272712D01*
X219320Y273430D01*
X216544D01*
X213864Y272712D01*
X211460Y271324D01*
X209498Y269362D01*
X208110Y266958D01*
X207392Y264278D01*
Y261502D01*
X208110Y258822D01*
X209498Y256418D01*
X211460Y254456D01*
X213864Y253068D01*
X216544Y252350D01*
X219320D01*
X220984Y252796D01*
X221030Y252684D01*
X222530Y251184D01*
X222564Y251170D01*
Y249900D01*
X222530Y249886D01*
X221030Y248386D01*
X220579Y247296D01*
X220323Y247188D01*
X218968Y247602D01*
X218644Y248386D01*
X217143Y249886D01*
X215183Y250698D01*
X213061D01*
X211101Y249886D01*
X209600Y248386D01*
X208788Y246425D01*
Y244303D01*
X209315Y243031D01*
X209676Y241840D01*
X209676Y241840D01*
X209676Y241840D01*
Y233760D01*
Y228239D01*
X206648D01*
X205950Y228936D01*
X204186Y230115D01*
X202105Y230529D01*
X201418D01*
X200242Y231401D01*
Y236474D01*
X199887Y238258D01*
X198876Y239770D01*
X193060Y245587D01*
X193546Y246760D01*
X194756D01*
Y251734D01*
X195448Y252434D01*
X196676Y252041D01*
Y246760D01*
X204756D01*
Y263359D01*
X204760Y263362D01*
X205057Y263808D01*
X205436Y264186D01*
X205641Y264681D01*
X205938Y265127D01*
X206043Y265652D01*
X206248Y266147D01*
Y266683D01*
X206353Y267208D01*
X206248Y267733D01*
Y268269D01*
X206043Y268764D01*
X205938Y269289D01*
X205641Y269735D01*
X205436Y270229D01*
X205057Y270608D01*
X204760Y271054D01*
X204314Y271351D01*
X203936Y271730D01*
X203441Y271935D01*
X202995Y272232D01*
X202470Y272337D01*
X201975Y272542D01*
X201439D01*
X200914Y272647D01*
X200389Y272542D01*
X199853D01*
X199492Y272393D01*
X193548D01*
X191467Y271978D01*
X189702Y270800D01*
X186870Y267968D01*
X185692Y266203D01*
X185278Y264122D01*
Y263840D01*
X113790D01*
X113719Y264170D01*
X114572Y265117D01*
X126932D01*
Y270957D01*
X130104Y274129D01*
X131367Y276019D01*
X131811Y278249D01*
X131367Y280479D01*
X130104Y282369D01*
X128214Y283633D01*
X126932Y283888D01*
Y294697D01*
X127646Y295672D01*
X129798Y296248D01*
X132202Y297636D01*
X134164Y299598D01*
X135552Y302002D01*
X136270Y304682D01*
Y307458D01*
X135552Y310138D01*
X134164Y312542D01*
X132202Y314504D01*
X129798Y315892D01*
X127118Y316610D01*
X124342D01*
X121662Y315892D01*
X119258Y314504D01*
X117296Y312542D01*
X115908Y310138D01*
X115190Y307458D01*
Y304682D01*
X115908Y302002D01*
X116232Y301441D01*
X116022Y301300D01*
X114759Y299410D01*
X114315Y297180D01*
Y295438D01*
X113352Y294697D01*
X112200Y294443D01*
Y294443D01*
X112200Y294443D01*
X109799D01*
Y298430D01*
X110967Y299598D01*
X112355Y302002D01*
X113073Y304682D01*
Y307458D01*
X112355Y310138D01*
X110967Y312542D01*
X109005Y314504D01*
X106602Y315892D01*
X103921Y316610D01*
X101146D01*
X98465Y315892D01*
X96062Y314504D01*
X94099Y312542D01*
X92712Y310138D01*
X91993Y307458D01*
Y304682D01*
X92712Y302002D01*
X94099Y299598D01*
X96062Y297636D01*
X98145Y296433D01*
Y288841D01*
X98588Y286612D01*
X98620Y286564D01*
Y280363D01*
X102355D01*
X103034Y279093D01*
X102934Y278943D01*
X98620Y278943D01*
X97401Y278820D01*
X84650D01*
Y278820D01*
X84260D01*
Y278820D01*
X77697D01*
X77069Y279760D01*
X75545Y281285D01*
X73864Y282407D01*
X71882Y282801D01*
X39878D01*
X39878Y282801D01*
X37896Y282407D01*
X36216Y281285D01*
X36216Y281284D01*
X35199Y280268D01*
X34077Y278588D01*
X33682Y276606D01*
Y259842D01*
X34077Y257860D01*
X34435Y257324D01*
X33850Y255913D01*
X33306Y255805D01*
X31794Y254794D01*
X26168Y249168D01*
X25157Y247656D01*
X24802Y245872D01*
Y217170D01*
X25157Y215386D01*
X26168Y213874D01*
X42328Y197713D01*
Y162181D01*
X41058Y161554D01*
X40673Y161850D01*
X38819Y162618D01*
X36830Y162880D01*
X34841Y162618D01*
X32987Y161850D01*
X31395Y160629D01*
X30174Y159037D01*
X29406Y157183D01*
X29144Y155194D01*
Y148336D01*
X29406Y146347D01*
X30174Y144493D01*
X31395Y142901D01*
X32665Y141631D01*
X33069Y141321D01*
X36680Y137711D01*
Y136047D01*
X36421Y134874D01*
X34299D01*
X32339Y134062D01*
X30838Y132562D01*
X30026Y130601D01*
Y128479D01*
X30838Y126518D01*
X32339Y125018D01*
X34299Y124206D01*
X35709D01*
X36102Y123644D01*
X35440Y122374D01*
X34299D01*
X32339Y121562D01*
X30838Y120062D01*
X30026Y118101D01*
Y115979D01*
X30838Y114018D01*
X32339Y112518D01*
X34299Y111706D01*
X36421D01*
X36680Y111533D01*
Y110500D01*
X54760D01*
Y113760D01*
X57389D01*
Y102616D01*
X57833Y100386D01*
X59096Y98496D01*
X62541Y95050D01*
X62552Y93785D01*
X62552D01*
Y79705D01*
X89340D01*
Y91760D01*
X92270D01*
Y79703D01*
X105850D01*
Y91760D01*
X125376D01*
X126081Y90704D01*
X125984Y90469D01*
Y88347D01*
X126796Y86386D01*
X127833Y85349D01*
X127737Y84021D01*
X126804Y83686D01*
X126466Y84024D01*
X124505Y84836D01*
X122383D01*
X120422Y84024D01*
X119667Y83268D01*
X118476Y83031D01*
X116963Y82021D01*
X113228Y78285D01*
X107119D01*
X106240Y78285D01*
Y78285D01*
X105850Y78283D01*
Y78283D01*
X92270D01*
Y64203D01*
X104971D01*
X105850Y64203D01*
Y64203D01*
X106240Y64205D01*
Y64205D01*
X119820D01*
Y71692D01*
X122191Y74063D01*
X122666D01*
X123195Y74168D01*
X124505D01*
X126008Y74791D01*
X127278Y74133D01*
Y57016D01*
X130189D01*
X130442Y55746D01*
X128805Y55068D01*
X127304Y53568D01*
X126492Y51607D01*
Y49485D01*
X127304Y47524D01*
X128728Y46101D01*
X127304Y44678D01*
X126492Y42717D01*
Y40595D01*
X127304Y38635D01*
X128805Y37134D01*
X130428Y36462D01*
X135134Y31756D01*
X136646Y30745D01*
X138430Y30390D01*
X148880D01*
X150664Y30745D01*
X152176Y31756D01*
X156204Y35784D01*
X156928Y36867D01*
X158392Y37199D01*
X158457Y37134D01*
X160417Y36322D01*
X162539D01*
X164499Y37134D01*
X165956Y38591D01*
X167412Y37134D01*
X169373Y36322D01*
X171495D01*
X173118Y36994D01*
X177292D01*
X179076Y37349D01*
X180588Y38360D01*
X184614Y42386D01*
X185625Y43898D01*
X185980Y45682D01*
Y47244D01*
X187751D01*
X187820Y47273D01*
X188876Y46567D01*
Y41007D01*
X184044Y36174D01*
X182921Y34494D01*
X182526Y32512D01*
Y26566D01*
X182780Y25289D01*
Y24495D01*
X182526Y23218D01*
Y18023D01*
X182163Y17780D01*
X180041D01*
X178081Y16968D01*
X176580Y15467D01*
X175768Y13507D01*
Y11385D01*
X176580Y9424D01*
X178081Y7924D01*
X180041Y7112D01*
X182163D01*
X182426Y7221D01*
X182921Y6676D01*
X182350Y5414D01*
X114982D01*
X114496Y6587D01*
X115653Y7744D01*
X116026Y7899D01*
X117527Y9399D01*
X118339Y11360D01*
Y13482D01*
X117527Y15442D01*
X116026Y16943D01*
X114066Y17755D01*
X111944D01*
X109983Y16943D01*
X108483Y15442D01*
X108328Y15069D01*
X104281Y11021D01*
X75350D01*
X74295Y11965D01*
Y24106D01*
X73900Y26089D01*
X72778Y27769D01*
X71650Y28897D01*
X69970Y30019D01*
X67987Y30413D01*
X55808D01*
X53826Y30019D01*
X52146Y28897D01*
X48916Y25666D01*
X47793Y23986D01*
X47399Y22004D01*
Y9144D01*
X47793Y7162D01*
X48112Y6684D01*
X47433Y5414D01*
X5414D01*
X5414Y464037D01*
X6660Y464285D01*
X6660Y464284D01*
X9131Y460586D01*
X12276Y457441D01*
X15974Y454970D01*
X20084Y453268D01*
X24130Y452463D01*
Y474980D01*
X26670D01*
Y477520D01*
X49187D01*
X48382Y481566D01*
X46680Y485676D01*
X44209Y489374D01*
X41064Y492519D01*
X39789Y493371D01*
X40158Y494586D01*
X141911D01*
Y477090D01*
D02*
G37*
G36*
X344586Y426450D02*
X343316Y425382D01*
X340995D01*
X340469Y426652D01*
X341580Y427762D01*
X342392Y429723D01*
Y431845D01*
X341580Y433806D01*
X340079Y435306D01*
X338119Y436118D01*
X335997D01*
X335624Y435964D01*
X333620D01*
X333238Y437234D01*
X334223Y438708D01*
X334618Y440690D01*
X334618Y458261D01*
X334485Y458926D01*
X334441Y459602D01*
X334290Y459908D01*
X334223Y460243D01*
X333847Y460806D01*
X333547Y461414D01*
X333290Y461640D01*
X333101Y461923D01*
X332537Y462300D01*
X332484Y462346D01*
Y465157D01*
X332968Y466962D01*
Y469282D01*
X332368Y471522D01*
X331208Y473531D01*
X329567Y475172D01*
X327559Y476332D01*
X325318Y476932D01*
X322998D01*
X320757Y476332D01*
X318748Y475172D01*
X317908Y474331D01*
X317068Y475172D01*
X315058Y476332D01*
X312818Y476932D01*
X310498D01*
X308258Y476332D01*
X306321Y475214D01*
X305347Y476188D01*
X303049Y477515D01*
X301698Y477877D01*
Y468122D01*
X296618D01*
Y477877D01*
X295267Y477515D01*
X294257Y476932D01*
X288717D01*
X277040Y488609D01*
X275448Y489830D01*
X273595Y490598D01*
X271606Y490860D01*
X255361D01*
X254869Y491596D01*
X254361Y492104D01*
X252680Y493227D01*
X252234Y493316D01*
X252359Y494586D01*
X344586D01*
Y426450D01*
D02*
G37*
G36*
X340360Y372364D02*
Y349758D01*
X338582Y347980D01*
X323442D01*
Y373634D01*
X339090D01*
X340360Y372364D01*
D02*
G37*
G36*
X244348Y357378D02*
Y329184D01*
X222863D01*
X222758Y329438D01*
Y345186D01*
X218948Y348996D01*
X195072D01*
Y368808D01*
X196088Y369824D01*
X231902D01*
X244348Y357378D01*
D02*
G37*
G36*
X272696Y275015D02*
Y268382D01*
X271523Y267896D01*
X271500Y267920D01*
X269539Y268732D01*
X267417D01*
X265457Y267920D01*
X263956Y266420D01*
X263144Y264459D01*
Y262337D01*
X263956Y260376D01*
X265457Y258876D01*
X267417Y258064D01*
X269539D01*
X271500Y258876D01*
X271523Y258900D01*
X272696Y258414D01*
Y251181D01*
X271780Y250429D01*
X269550Y249985D01*
X267660Y248722D01*
X266397Y246832D01*
X265953Y244602D01*
Y233358D01*
X254709D01*
Y219778D01*
X268789D01*
Y220741D01*
X269548D01*
X271427Y221115D01*
X272696Y220387D01*
Y214884D01*
X273091Y212902D01*
X274214Y211222D01*
X278792Y206643D01*
Y195462D01*
X278792Y195462D01*
X278792Y195462D01*
X278978Y194531D01*
X279187Y193480D01*
X279187Y193480D01*
X279187Y193480D01*
X279727Y192671D01*
X280310Y191800D01*
X280310Y191800D01*
X280310Y191799D01*
X281208Y190901D01*
X281208Y190901D01*
X281208Y190901D01*
X282045Y190343D01*
X282888Y189779D01*
X282889Y189779D01*
X282889Y189778D01*
X283910Y189576D01*
X284871Y189385D01*
X284871Y189385D01*
X284871Y189385D01*
X289606Y189386D01*
X290412Y188404D01*
X290222Y187452D01*
Y173482D01*
X290275Y173220D01*
X290249Y172955D01*
X289363Y171734D01*
X285092D01*
X282531Y171397D01*
X280144Y170408D01*
X278095Y168836D01*
X276523Y166786D01*
X275534Y164400D01*
X275197Y161839D01*
X275534Y159278D01*
X276523Y156892D01*
X278095Y154843D01*
X280144Y153270D01*
X282531Y152282D01*
X285092Y151945D01*
X289307D01*
X289833Y150674D01*
X289542Y150383D01*
X288547Y148659D01*
X288234Y147492D01*
X286794Y147779D01*
X282592D01*
X280511Y147365D01*
X279039Y146381D01*
X274302D01*
Y143772D01*
X273259Y142829D01*
X272533Y143130D01*
X270411D01*
X268451Y142318D01*
X266950Y140817D01*
X266138Y138857D01*
Y136735D01*
X265527Y135820D01*
X263593D01*
Y126512D01*
X256884D01*
Y135112D01*
X257556Y136735D01*
Y138857D01*
X256744Y140817D01*
X255243Y142318D01*
X253283Y143130D01*
X251161D01*
X250062Y142675D01*
X248456Y143233D01*
X248142Y143991D01*
X246641Y145492D01*
X244681Y146304D01*
X242559D01*
X240766Y145561D01*
X239205D01*
X237422Y145206D01*
X235909Y144196D01*
X234413Y142699D01*
X232455Y143510D01*
X230333D01*
X228372Y142698D01*
X228324Y142650D01*
X226756D01*
Y153760D01*
Y161840D01*
X221475D01*
X221082Y163068D01*
X221782Y163760D01*
X226756D01*
Y168619D01*
X227000Y168667D01*
X228424Y169619D01*
X236143D01*
X237927Y169974D01*
X239440Y170984D01*
X241296Y172841D01*
X253407D01*
X255230Y171018D01*
Y159530D01*
X257218D01*
Y157920D01*
X254840D01*
Y144340D01*
X268920D01*
Y157920D01*
X266542D01*
Y159530D01*
X272310D01*
Y177610D01*
X261822D01*
X258634Y180799D01*
X257122Y181809D01*
X255338Y182164D01*
X255310D01*
Y198610D01*
X251042D01*
Y201490D01*
X253420D01*
Y215070D01*
X240459D01*
X239932Y216340D01*
X240532Y216940D01*
X241543Y218452D01*
X241807Y219778D01*
X253289D01*
Y233358D01*
X253289D01*
Y233748D01*
X253289D01*
Y247328D01*
X253289D01*
X253350Y247591D01*
X253350Y247591D01*
X253350Y248573D01*
Y261171D01*
X239270D01*
Y260367D01*
X229483D01*
X228472Y261502D01*
Y264278D01*
X228354Y264719D01*
X229492Y265376D01*
X229643Y265226D01*
X231603Y264414D01*
X233725D01*
X235686Y265226D01*
X236728Y266269D01*
X237771Y265226D01*
X239731Y264414D01*
X241853D01*
X243813Y265226D01*
X245314Y266726D01*
X246126Y268687D01*
Y270809D01*
X245314Y272770D01*
X245287Y272796D01*
X245314Y272822D01*
X246126Y274783D01*
Y276905D01*
X246199Y277015D01*
X270697D01*
X272696Y275015D01*
D02*
G37*
G36*
X73406Y276098D02*
Y262382D01*
X70866Y259842D01*
X38862D01*
Y276606D01*
X39878Y277622D01*
X71882D01*
X73406Y276098D01*
D02*
G37*
G36*
X75015Y255410D02*
X75295Y255214D01*
X75691Y253219D01*
X76676Y251745D01*
Y246760D01*
X146054D01*
Y230886D01*
X146409Y229102D01*
X147420Y227590D01*
X154913Y220097D01*
X156425Y219086D01*
X158209Y218731D01*
X178536D01*
X182372Y214896D01*
Y214839D01*
X183184Y212878D01*
X184321Y211742D01*
X180600Y208020D01*
X179589Y206508D01*
X179234Y204724D01*
Y169502D01*
X179589Y167718D01*
X180600Y166206D01*
X181356Y165449D01*
Y164547D01*
X182168Y162586D01*
X183668Y161086D01*
X185629Y160274D01*
X187751D01*
X189711Y161086D01*
X191212Y162586D01*
X192024Y164547D01*
Y165763D01*
X197306D01*
X197792Y164589D01*
X197576Y164374D01*
X196397Y162609D01*
X195984Y160528D01*
Y153349D01*
X194810Y152863D01*
X191814Y155859D01*
X190344Y156841D01*
X188609Y157186D01*
X182613D01*
X180130Y159669D01*
X178660Y160651D01*
X176925Y160996D01*
X152660D01*
X151954Y162052D01*
X152146Y162515D01*
Y164637D01*
X151334Y166597D01*
X149833Y168098D01*
X147873Y168910D01*
X145751D01*
X143791Y168098D01*
X143542Y167850D01*
X141047D01*
X140561Y169023D01*
X141707Y170169D01*
X142467Y170484D01*
X143968Y171985D01*
X144780Y173945D01*
Y176067D01*
X144747Y176147D01*
X145453Y177202D01*
X157336D01*
X158959Y176530D01*
X161081D01*
X163041Y177342D01*
X164542Y178843D01*
X165354Y180803D01*
Y182925D01*
X164542Y184886D01*
X163041Y186386D01*
X161081Y187198D01*
X158959D01*
X157336Y186526D01*
X134874D01*
X133090Y186171D01*
X131578Y185160D01*
X123879Y177462D01*
X85344D01*
Y179369D01*
X84532Y181329D01*
X83032Y182830D01*
X81071Y183642D01*
X78949D01*
X76989Y182830D01*
X76874Y182716D01*
X71756D01*
Y188760D01*
Y198760D01*
Y208138D01*
X76004D01*
X77627Y207466D01*
X79749D01*
X81709Y208278D01*
X83210Y209778D01*
X83766Y211121D01*
X85195Y211488D01*
X85230Y211454D01*
X85902Y209830D01*
X87402Y208330D01*
X89363Y207518D01*
X91485D01*
X93446Y208330D01*
X94946Y209830D01*
X95758Y211791D01*
Y213913D01*
X94946Y215874D01*
X93446Y217374D01*
X91822Y218046D01*
X88772Y221096D01*
X87260Y222107D01*
X85476Y222462D01*
X71756D01*
Y233760D01*
Y241840D01*
X69929D01*
X69224Y242896D01*
X69596Y243795D01*
Y245917D01*
X68784Y247878D01*
X67487Y249174D01*
X68784Y250471D01*
X69596Y252431D01*
Y254553D01*
X69669Y254662D01*
X70866D01*
X72848Y255057D01*
X74008Y255831D01*
X75015Y255410D01*
D02*
G37*
G36*
X54506Y232528D02*
X54676Y231328D01*
Y218760D01*
Y207966D01*
X53406Y207440D01*
X38952Y221895D01*
Y232528D01*
X54506D01*
D02*
G37*
G36*
X294706Y373286D02*
X295106Y373019D01*
X295549Y372576D01*
X295910Y372036D01*
Y358140D01*
X291592Y353822D01*
Y320548D01*
X301244Y310896D01*
Y215225D01*
X301215Y215181D01*
X300855Y214821D01*
X300729Y214518D01*
X300528Y214259D01*
X300479Y214080D01*
X300375Y213925D01*
X300370Y213896D01*
X300031Y213079D01*
X300015Y213054D01*
X299915Y212552D01*
X299719Y212079D01*
X299720Y211571D01*
X299620Y211072D01*
X299620Y210562D01*
X299620Y210562D01*
X299620Y210562D01*
Y195679D01*
X298450D01*
X296468Y195285D01*
X295392Y194566D01*
X284870Y194564D01*
X283972Y195462D01*
Y208788D01*
X277876Y214884D01*
Y277160D01*
X272842Y282194D01*
X224028D01*
Y306324D01*
X226822Y309118D01*
X259334D01*
X270764Y320548D01*
Y371348D01*
X272753Y373337D01*
X273088D01*
X273306Y373380D01*
X294235Y373380D01*
X294706Y373286D01*
D02*
G37*
G36*
X202314Y217775D02*
X204395Y217362D01*
X209676D01*
Y213760D01*
X208622Y213239D01*
X204395D01*
X202314Y212824D01*
X200550Y211646D01*
X199464Y210559D01*
X199336Y210534D01*
X198891Y210236D01*
X198396Y210031D01*
X198017Y209653D01*
X197572Y209355D01*
X197274Y208910D01*
X196896Y208531D01*
X196691Y208036D01*
X196393Y207591D01*
X196289Y207065D01*
X196084Y206570D01*
Y206035D01*
X195979Y205509D01*
X196084Y204984D01*
Y204449D01*
X196289Y203954D01*
X196393Y203428D01*
X196691Y202983D01*
X196896Y202488D01*
X197274Y202109D01*
X197572Y201664D01*
X198017Y201366D01*
X198396Y200987D01*
X198891Y200783D01*
X199336Y200485D01*
X199862Y200380D01*
X200357Y200175D01*
X200892D01*
X201418Y200071D01*
X202105D01*
X204186Y200485D01*
X205950Y201664D01*
X206648Y202362D01*
X209676D01*
Y192542D01*
X205315D01*
X203499Y193294D01*
X201377D01*
X199417Y192482D01*
X197916Y190982D01*
X197104Y189021D01*
Y186899D01*
X196522Y186028D01*
X188722D01*
X188722Y186028D01*
X188558Y186162D01*
Y202793D01*
X198876Y213112D01*
X199887Y214624D01*
X200242Y216408D01*
Y217633D01*
X201512Y218312D01*
X202314Y217775D01*
D02*
G37*
G36*
X344586Y171196D02*
X339141D01*
X338653Y171398D01*
X336092Y171735D01*
X328092D01*
X325531Y171398D01*
X325043Y171196D01*
X299137D01*
X298653Y171397D01*
X297830Y171505D01*
X295402Y173482D01*
Y187452D01*
X298450Y190500D01*
X344586D01*
Y171196D01*
D02*
G37*
G36*
X206756Y179832D02*
Y172853D01*
X206613Y172824D01*
X204848Y171646D01*
X204145Y170942D01*
X189048D01*
X188558Y171433D01*
Y180684D01*
X188722Y180848D01*
X205740D01*
X206756Y179832D01*
D02*
G37*
G36*
X318766Y164960D02*
X318534Y164402D01*
X318197Y161841D01*
X318534Y159280D01*
X319523Y156893D01*
X321095Y154844D01*
X323144Y153272D01*
X325531Y152283D01*
X328092Y151946D01*
X336092D01*
X338653Y152283D01*
X341039Y153272D01*
X343088Y154844D01*
X343383Y155229D01*
X344586Y154820D01*
Y78861D01*
X343383Y78453D01*
X343089Y78837D01*
X341040Y80409D01*
X338653Y81398D01*
X336092Y81735D01*
X328092D01*
X325531Y81398D01*
X323145Y80409D01*
X321096Y78837D01*
X319523Y76788D01*
X318535Y74401D01*
X318197Y71840D01*
X318535Y69279D01*
X319523Y66893D01*
X321096Y64844D01*
X323145Y63271D01*
X325531Y62283D01*
X328092Y61946D01*
X336092D01*
X338653Y62283D01*
X341040Y63271D01*
X343089Y64844D01*
X343383Y65228D01*
X344586Y64819D01*
Y37049D01*
X343371Y36681D01*
X342139Y38524D01*
X338994Y41669D01*
X335296Y44140D01*
X331186Y45842D01*
X327140Y46647D01*
Y24130D01*
X324600D01*
Y21590D01*
X302083D01*
X302888Y17544D01*
X304590Y13434D01*
X307061Y9736D01*
X310113Y6684D01*
X310050Y6077D01*
X309849Y5414D01*
X270802D01*
X270316Y6587D01*
X272529Y8800D01*
X293480D01*
X295103Y8128D01*
X297225D01*
X299186Y8940D01*
X300686Y10440D01*
X301498Y12401D01*
Y14523D01*
X300686Y16484D01*
X299186Y17984D01*
X297225Y18796D01*
X295103D01*
X293480Y18124D01*
X285958D01*
X285253Y19180D01*
X285496Y19767D01*
Y21889D01*
X284684Y23849D01*
X283183Y25350D01*
X281223Y26162D01*
X279101D01*
X277141Y25350D01*
X276479Y24688D01*
X275818Y25350D01*
X273857Y26162D01*
X271735D01*
X269774Y25350D01*
X268274Y23849D01*
X267462Y21889D01*
Y19767D01*
X268274Y17807D01*
X268232Y17380D01*
X267302Y16758D01*
X263352Y12809D01*
X253390D01*
X252984Y13417D01*
Y15539D01*
X252312Y17162D01*
Y19142D01*
X252698Y19529D01*
X253708Y21041D01*
X254063Y22825D01*
Y38888D01*
X253708Y40672D01*
X252698Y42184D01*
X248248Y46635D01*
Y50800D01*
X247893Y52584D01*
X246882Y54096D01*
X245136Y55843D01*
X245622Y57016D01*
X250358D01*
Y62394D01*
X265176D01*
X266960Y62749D01*
X268472Y63760D01*
X271908Y67196D01*
X273531Y67868D01*
X274389Y68726D01*
X275887Y68428D01*
X276523Y66891D01*
X278096Y64842D01*
X280145Y63270D01*
X280333Y63192D01*
X280738Y62033D01*
X280738Y62033D01*
X280738Y62033D01*
Y47953D01*
X294318D01*
Y47953D01*
X294708D01*
Y47953D01*
X308288D01*
Y62033D01*
X306334D01*
Y65208D01*
X305890Y67438D01*
X305271Y68364D01*
X305650Y69278D01*
X305987Y71839D01*
X305650Y74400D01*
X304661Y76786D01*
X303089Y78835D01*
X301040Y80408D01*
X300378Y80682D01*
X300392Y82051D01*
X301641Y83299D01*
X302637Y85023D01*
X303152Y86946D01*
Y88936D01*
X304261Y89702D01*
X304341Y89718D01*
X304787Y90015D01*
X305282Y90220D01*
X305660Y90599D01*
X306106Y90896D01*
X306403Y91342D01*
X306782Y91721D01*
X306987Y92215D01*
X307285Y92661D01*
X307389Y93186D01*
X307594Y93681D01*
Y94217D01*
X307698Y94742D01*
X307648Y94996D01*
X308338Y96266D01*
X309417D01*
X311378Y97078D01*
X312878Y98579D01*
X313690Y100539D01*
Y101600D01*
X314751D01*
X316712Y102412D01*
X318212Y103912D01*
X319024Y105873D01*
Y107995D01*
X318212Y109956D01*
X316712Y111456D01*
X314751Y112268D01*
X312629D01*
X311725Y111894D01*
X308839Y114779D01*
X309257Y116157D01*
X309790Y116263D01*
X311261Y117246D01*
X317570Y123556D01*
X318720Y122406D01*
X320681Y121594D01*
X322803D01*
X324763Y122406D01*
X326264Y123906D01*
X327076Y125867D01*
Y126492D01*
X327959D01*
X329920Y127304D01*
X331420Y128805D01*
X332232Y130765D01*
Y132887D01*
X331420Y134847D01*
X329920Y136348D01*
X327959Y137160D01*
X325837D01*
X325227Y136907D01*
X325219D01*
X324574Y137553D01*
X323103Y138535D01*
X322947Y138668D01*
X322413Y139822D01*
X322518Y140348D01*
X322723Y140842D01*
Y141378D01*
X322827Y141903D01*
X322723Y142429D01*
Y142964D01*
X322518Y143459D01*
X322413Y143985D01*
X322116Y144430D01*
X321911Y144925D01*
X321532Y145304D01*
X321235Y145749D01*
X321066Y145917D01*
X320621Y146215D01*
X320410Y146425D01*
X320135Y146539D01*
X319302Y147096D01*
X317220Y147510D01*
X308111D01*
X307265Y147678D01*
X305891D01*
X303810Y147264D01*
X302921Y147599D01*
X302637Y148659D01*
X301641Y150383D01*
X300396Y151629D01*
X300384Y152999D01*
X301039Y153270D01*
X303088Y154843D01*
X304661Y156892D01*
X305649Y159278D01*
X305986Y161839D01*
X305649Y164400D01*
X305417Y164960D01*
X306123Y166017D01*
X318060D01*
X318766Y164960D01*
D02*
G37*
G36*
X196592Y134310D02*
Y119586D01*
X196937Y117852D01*
X197920Y116382D01*
X203291Y111010D01*
X203144Y109530D01*
X202682Y108840D01*
X196676D01*
Y104411D01*
X195984Y103711D01*
X194756Y104104D01*
Y108840D01*
X190737D01*
Y116138D01*
X190958Y116358D01*
X191770Y118319D01*
Y120441D01*
X190958Y122402D01*
X189457Y123902D01*
Y125272D01*
X190958Y126772D01*
X191770Y128733D01*
Y130855D01*
X190958Y132816D01*
X189457Y134316D01*
X187497Y135128D01*
X185375D01*
X185002Y135378D01*
Y140716D01*
X184647Y142500D01*
X183636Y144012D01*
X183494Y144155D01*
X183980Y145328D01*
X185575D01*
X196592Y134310D01*
D02*
G37*
G36*
X253616Y106470D02*
Y106470D01*
X263943D01*
Y97521D01*
X274023D01*
X274312Y96371D01*
Y95302D01*
X274342D01*
Y87301D01*
X279077D01*
X280551Y86315D01*
X282633Y85901D01*
X286835D01*
X288237Y86180D01*
X288547Y85023D01*
X289542Y83299D01*
X289838Y83004D01*
X289312Y81734D01*
X285092D01*
X282531Y81396D01*
X280145Y80408D01*
X278096Y78835D01*
X276523Y76786D01*
X276170Y75933D01*
X275916Y75817D01*
X274712Y75732D01*
X273531Y76912D01*
X271571Y77724D01*
X269449D01*
X267488Y76912D01*
X265988Y75412D01*
X265316Y73788D01*
X263245Y71718D01*
X250358D01*
Y75179D01*
X251458Y75814D01*
X251964Y75522D01*
X254644Y74804D01*
X257420D01*
X260100Y75522D01*
X262504Y76910D01*
X264466Y78872D01*
X265854Y81276D01*
X266572Y83956D01*
Y86732D01*
X265854Y89412D01*
X264466Y91816D01*
X262504Y93778D01*
X260100Y95166D01*
X257420Y95884D01*
X254644D01*
X252914Y95420D01*
X247988Y100346D01*
X246392Y101413D01*
X244509Y101788D01*
X213091D01*
Y104387D01*
X213345Y105664D01*
X213378Y105704D01*
X250496D01*
X252231Y106049D01*
X253197Y106694D01*
X253616Y106470D01*
D02*
G37*
G36*
X186409Y90710D02*
X187420Y89198D01*
X189523Y87095D01*
X189398Y85668D01*
X188494Y85294D01*
X186994Y83793D01*
X186182Y81833D01*
Y79711D01*
X186755Y78327D01*
Y77096D01*
X177278D01*
Y69497D01*
X176821Y69214D01*
X175961Y69166D01*
X175842Y69202D01*
X175358Y69750D01*
Y77096D01*
X170980D01*
Y77470D01*
X170625Y79254D01*
X169614Y80766D01*
X166058Y84322D01*
X164546Y85333D01*
X162762Y85688D01*
X152045D01*
X147242Y90490D01*
X147689Y91760D01*
X186200D01*
X186409Y90710D01*
D02*
G37*
G36*
X233022Y54772D02*
X238760Y49034D01*
Y41402D01*
X244740Y35422D01*
Y24756D01*
X244354Y24369D01*
X243343Y22857D01*
X243192Y22098D01*
X236208D01*
X230979Y27327D01*
Y55542D01*
X232250Y55928D01*
X233022Y54772D01*
D02*
G37*
G36*
X197278Y59492D02*
Y57016D01*
X199754D01*
X201702Y55068D01*
Y34923D01*
X201076Y33411D01*
Y31289D01*
X201888Y29328D01*
X202692Y28525D01*
Y10668D01*
X201676Y9652D01*
X187706Y9652D01*
Y23218D01*
X187960Y23831D01*
Y25953D01*
X187706Y26566D01*
Y32512D01*
X194056Y38862D01*
Y57016D01*
X195358D01*
Y59492D01*
X196318Y60452D01*
X197278Y59492D01*
D02*
G37*
G36*
X69115Y24106D02*
Y11965D01*
X66294Y9144D01*
X52578D01*
Y22004D01*
X55808Y25234D01*
X67987D01*
X69115Y24106D01*
D02*
G37*
%LPC*%
G36*
X49187Y472440D02*
X29210D01*
Y452463D01*
X33256Y453268D01*
X37366Y454970D01*
X41064Y457441D01*
X44209Y460586D01*
X46680Y464284D01*
X48382Y468394D01*
X49187Y472440D01*
D02*
G37*
G36*
X143491Y474170D02*
X132411D01*
Y456090D01*
X132771D01*
Y450842D01*
X133041Y449487D01*
Y441922D01*
X146621D01*
Y441922D01*
X147011Y441920D01*
Y441920D01*
X147890Y441920D01*
X160591D01*
Y456000D01*
X147011D01*
Y456000D01*
X146621Y456002D01*
Y456002D01*
X145742Y456002D01*
X144724D01*
X143491Y456090D01*
Y474170D01*
D02*
G37*
G36*
X97581Y441198D02*
X95459D01*
X93498Y440386D01*
X91998Y438885D01*
X91895Y438638D01*
X90550Y438709D01*
X89128Y440132D01*
X87167Y440944D01*
X85045D01*
X83084Y440132D01*
X81584Y438632D01*
X80772Y436671D01*
Y434549D01*
X81584Y432589D01*
X82183Y431990D01*
X82159Y430316D01*
X81330Y429487D01*
X80518Y427527D01*
Y425405D01*
X81330Y423445D01*
X82830Y421944D01*
X84791Y421132D01*
X86913D01*
X88874Y421944D01*
X90374Y423445D01*
X90424Y423565D01*
X91694D01*
X91744Y423445D01*
X93244Y421944D01*
X95205Y421132D01*
X97327D01*
X99288Y421944D01*
X100788Y423445D01*
X101600Y425405D01*
Y427527D01*
X100788Y429487D01*
X100067Y430208D01*
X99562Y431298D01*
X100067Y431868D01*
X101042Y432842D01*
X101854Y434803D01*
Y436925D01*
X101042Y438885D01*
X99542Y440386D01*
X97581Y441198D01*
D02*
G37*
G36*
X176321Y448056D02*
X174199D01*
X172239Y447244D01*
X170738Y445743D01*
X169926Y443783D01*
Y441661D01*
X170738Y439701D01*
X172239Y438200D01*
X174199Y437388D01*
X176321D01*
X178281Y438200D01*
X179782Y439701D01*
X180594Y441661D01*
Y443783D01*
X179782Y445743D01*
X178281Y447244D01*
X176321Y448056D01*
D02*
G37*
G36*
X146621Y440502D02*
X133041D01*
Y426422D01*
X133897D01*
X134603Y425366D01*
X134497Y425110D01*
Y422988D01*
X135309Y421028D01*
X136809Y419527D01*
X138770Y418715D01*
X140892D01*
X142852Y419527D01*
X144353Y421028D01*
X145165Y422988D01*
Y425110D01*
X145059Y425366D01*
X145765Y426422D01*
X146621D01*
Y440502D01*
D02*
G37*
G36*
X46880Y407580D02*
X44560D01*
X42319Y406980D01*
X40311Y405820D01*
X38670Y404179D01*
X37510Y402170D01*
X36910Y399930D01*
Y397610D01*
X37510Y395369D01*
X38670Y393361D01*
X40311Y391720D01*
X42319Y390560D01*
X44560Y389960D01*
X46880D01*
X49120Y390560D01*
X51129Y391720D01*
X52770Y393361D01*
X53930Y395369D01*
X54530Y397610D01*
Y399930D01*
X53930Y402170D01*
X52770Y404179D01*
X51129Y405820D01*
X49120Y406980D01*
X46880Y407580D01*
D02*
G37*
G36*
X98482Y397950D02*
X84402D01*
Y386806D01*
X84252Y386716D01*
X82982Y387435D01*
Y397950D01*
X68902D01*
Y384370D01*
X68902D01*
Y383980D01*
X68902D01*
Y370400D01*
X68902D01*
X68900Y370010D01*
X68900D01*
X68900Y369131D01*
Y356430D01*
X71247D01*
X71773Y355160D01*
X71424Y354812D01*
X70612Y352851D01*
Y350729D01*
X70767Y350356D01*
Y347912D01*
X68900D01*
Y334332D01*
X82980D01*
Y345944D01*
X84250Y346623D01*
X84400Y346522D01*
Y334332D01*
X87125D01*
Y331402D01*
X84400D01*
Y317822D01*
X98480D01*
Y331402D01*
X97484D01*
Y334332D01*
X98480D01*
Y336806D01*
X101110D01*
Y336446D01*
X119190D01*
Y344324D01*
X120537D01*
X125565Y339296D01*
X125039Y338026D01*
X122110D01*
Y326946D01*
X140190D01*
Y338026D01*
X136329D01*
Y341036D01*
X135935Y343018D01*
X134812Y344698D01*
X133016Y346495D01*
X133680Y347626D01*
X147574D01*
X149556Y348021D01*
X150180Y348438D01*
X151450Y347759D01*
Y341730D01*
X161530D01*
Y341730D01*
X161622Y341791D01*
X162479Y341436D01*
X164601D01*
X166562Y342248D01*
X168062Y343749D01*
X168874Y345709D01*
Y347831D01*
X168062Y349791D01*
X166562Y351292D01*
X164601Y352104D01*
X162479D01*
X161622Y351749D01*
X161530Y351810D01*
Y351810D01*
X154167D01*
X153361Y352792D01*
X153516Y353568D01*
Y361950D01*
X153357Y362748D01*
X154162Y363730D01*
X161530D01*
Y363730D01*
X161622Y363791D01*
X162479Y363436D01*
X164601D01*
X166562Y364248D01*
X168062Y365748D01*
X168874Y367709D01*
Y369831D01*
X168062Y371791D01*
X166562Y373292D01*
X165860Y373583D01*
Y374957D01*
X166562Y375248D01*
X168062Y376749D01*
X168874Y378709D01*
Y380831D01*
X168062Y382791D01*
X166562Y384292D01*
X165939Y384550D01*
Y385925D01*
X166562Y386183D01*
X168062Y387683D01*
X168874Y389644D01*
Y391766D01*
X168062Y393726D01*
X166562Y395227D01*
X164601Y396039D01*
X162479D01*
X161611Y395679D01*
X161513Y395745D01*
Y395745D01*
X151433D01*
Y386073D01*
X151433Y385665D01*
X151450Y384402D01*
Y375080D01*
X151450Y374730D01*
Y373810D01*
X151450Y373460D01*
Y367410D01*
X150330Y366812D01*
X150064Y366989D01*
X148082Y367383D01*
X147146D01*
X146771Y369266D01*
X145648Y370947D01*
X141585Y375010D01*
X139904Y376133D01*
X137922Y376527D01*
X123190D01*
X121208Y376133D01*
X120460Y375634D01*
X119190Y376312D01*
Y382070D01*
X115330D01*
Y387436D01*
X115330Y387436D01*
X114935Y389418D01*
X113813Y391099D01*
X113812Y391099D01*
X110089Y394823D01*
X108408Y395945D01*
X106426Y396339D01*
X98482D01*
Y397950D01*
D02*
G37*
G36*
X60236Y371068D02*
X39156D01*
Y370355D01*
X34582D01*
X32352Y369911D01*
X30462Y368648D01*
X29199Y366758D01*
X28755Y364528D01*
X29199Y362298D01*
X30462Y360408D01*
X32352Y359145D01*
X33454Y358925D01*
Y357631D01*
X32352Y357411D01*
X30462Y356148D01*
X29199Y354258D01*
X28755Y352028D01*
X29199Y349798D01*
X30462Y347908D01*
X32352Y346645D01*
X34582Y346201D01*
X39156D01*
Y345488D01*
X60236D01*
Y357988D01*
Y371068D01*
D02*
G37*
G36*
X164601Y330104D02*
X162479D01*
X161622Y329749D01*
X161530Y329810D01*
Y329810D01*
X151450D01*
Y319930D01*
X151280Y318730D01*
X151280Y318530D01*
Y308650D01*
X161360D01*
Y308650D01*
X161517Y308755D01*
X162479Y308356D01*
X164601D01*
X166562Y309168D01*
X168062Y310669D01*
X168874Y312629D01*
Y314751D01*
X168062Y316712D01*
X166562Y318212D01*
X165763Y318543D01*
Y319917D01*
X166562Y320248D01*
X168062Y321749D01*
X168874Y323709D01*
Y325831D01*
X168062Y327791D01*
X166562Y329292D01*
X164601Y330104D01*
D02*
G37*
G36*
X189152Y321342D02*
X187030D01*
X185069Y320530D01*
X183569Y319030D01*
X182757Y317069D01*
Y314947D01*
X183569Y312987D01*
X185069Y311486D01*
X187030Y310674D01*
X189152D01*
X191112Y311486D01*
X192613Y312987D01*
X193425Y314947D01*
Y317069D01*
X192613Y319030D01*
X191112Y320530D01*
X189152Y321342D01*
D02*
G37*
G36*
X46880Y327580D02*
X44560D01*
X42319Y326980D01*
X40311Y325820D01*
X38670Y324179D01*
X37510Y322170D01*
X36910Y319930D01*
Y317610D01*
X37510Y315369D01*
X38670Y313361D01*
X40311Y311720D01*
X42319Y310560D01*
X44560Y309960D01*
X46880D01*
X49120Y310560D01*
X51129Y311720D01*
X52770Y313361D01*
X53930Y315369D01*
X54530Y317610D01*
Y319930D01*
X53930Y322170D01*
X52770Y324179D01*
X51129Y325820D01*
X49120Y326980D01*
X46880Y327580D01*
D02*
G37*
G36*
X181655Y277882D02*
X179533D01*
X177572Y277070D01*
X176072Y275569D01*
X175260Y273609D01*
Y271487D01*
X176072Y269527D01*
X177572Y268026D01*
X179533Y267214D01*
X181655D01*
X183615Y268026D01*
X185116Y269527D01*
X185928Y271487D01*
Y273609D01*
X185116Y275569D01*
X183615Y277070D01*
X181655Y277882D01*
D02*
G37*
G36*
X59481Y77724D02*
X57359D01*
X55399Y76912D01*
X53898Y75412D01*
X53086Y73451D01*
Y71329D01*
X53240Y70956D01*
Y63880D01*
X51100D01*
Y66638D01*
X51254Y67011D01*
Y69133D01*
X50442Y71094D01*
X48941Y72594D01*
X46981Y73406D01*
X44859D01*
X42899Y72594D01*
X41398Y71094D01*
X40586Y69133D01*
Y67011D01*
X40740Y66638D01*
Y63880D01*
X39380D01*
Y42800D01*
X64960D01*
Y63880D01*
X63600D01*
Y70956D01*
X63754Y71329D01*
Y73451D01*
X62942Y75412D01*
X61441Y76912D01*
X59481Y77724D01*
D02*
G37*
%LPD*%
G36*
X100584Y379984D02*
Y370586D01*
X102870Y368300D01*
X115575D01*
X115724Y368151D01*
Y355854D01*
X115762Y355665D01*
X114956Y354683D01*
X92051D01*
X87122Y359613D01*
Y381254D01*
X99314D01*
X100584Y379984D01*
D02*
G37*
G36*
X141986Y367284D02*
Y363474D01*
X143256Y362204D01*
X148082D01*
X148336Y361950D01*
Y353568D01*
X147574Y352806D01*
X133350D01*
X131572Y354584D01*
X123182D01*
X122682Y354683D01*
X122074D01*
X120904Y355854D01*
Y369062D01*
X123190Y371348D01*
X137922D01*
X141986Y367284D01*
D02*
G37*
%LPC*%
G36*
X234741Y162560D02*
X232619D01*
X230658Y161748D01*
X229158Y160247D01*
X228346Y158287D01*
Y156165D01*
X229158Y154205D01*
X230658Y152704D01*
X232619Y151892D01*
X234741D01*
X236702Y152704D01*
X238202Y154205D01*
X239014Y156165D01*
Y158287D01*
X238202Y160247D01*
X236702Y161748D01*
X234741Y162560D01*
D02*
G37*
G36*
X322060Y46647D02*
X318014Y45842D01*
X313904Y44140D01*
X310206Y41669D01*
X307061Y38524D01*
X304590Y34826D01*
X302888Y30716D01*
X302083Y26670D01*
X322060D01*
Y46647D01*
D02*
G37*
%LPD*%
D11*
X226314Y90613D02*
X231788D01*
X221499D02*
X226314D01*
Y96479D01*
X226274Y96519D02*
X226314Y96479D01*
X231788Y90613D02*
X231799Y90625D01*
X221488Y90602D02*
X221499Y90613D01*
X106426Y5842D02*
X113005Y12421D01*
X72390Y5842D02*
X106426D01*
X61468Y16764D02*
X72390Y5842D01*
X58420Y53340D02*
Y72390D01*
X45920Y53340D02*
Y68072D01*
X75940Y341122D02*
X75946Y341128D01*
Y351790D01*
X75940Y363220D02*
Y377190D01*
Y391158D01*
X76190Y363220D02*
X89906Y349504D01*
X122682D01*
X131150Y341036D01*
X92304Y325476D02*
Y341986D01*
X91440Y324612D02*
X92304Y325476D01*
Y341986D02*
X110150D01*
X75940Y363220D02*
X76190D01*
X131150Y332486D02*
Y341036D01*
X110150Y376530D02*
Y387436D01*
X106426Y391160D02*
X110150Y387436D01*
X91442Y391160D02*
X106426D01*
X75940Y391158D02*
X75942Y391160D01*
X321558Y418592D02*
Y425444D01*
X326898Y430784D01*
X337058D01*
X329152Y399810D02*
Y410936D01*
X336808Y418592D01*
X139831Y448962D02*
X153799D01*
X137951Y450842D02*
Y465130D01*
Y450842D02*
X139831Y448962D01*
X171452Y458060D02*
Y485790D01*
X147451Y486130D02*
X171112D01*
X171452Y485790D01*
X171322Y457930D02*
X171452Y458060D01*
X187692Y485050D02*
X206932D01*
X186952Y485790D02*
X187692Y485050D01*
D14*
X210981Y96867D02*
X244509D01*
X259633Y130779D02*
Y137796D01*
X207264Y100584D02*
X210981Y96867D01*
X244509D02*
X256032Y85344D01*
X339090Y243180D02*
Y250952D01*
X259891Y102470D02*
X259983Y102561D01*
X254048Y102470D02*
X259891D01*
X253956Y102378D02*
X254048Y102470D01*
X261880Y191460D02*
Y208280D01*
Y191460D02*
X263770Y189570D01*
D17*
X216027Y14859D02*
X216408Y14478D01*
X211318Y20330D02*
Y67056D01*
Y20330D02*
X216408Y15240D01*
X236318Y67056D02*
Y76606D01*
X234037Y78887D02*
X236318Y76606D01*
X233787Y78887D02*
X234037D01*
X231799Y80875D02*
X233787Y78887D01*
X231799Y80875D02*
Y81125D01*
X226318Y67056D02*
Y76272D01*
X223726Y78864D02*
X226318Y76272D01*
X223476Y78864D02*
X223726D01*
X221488Y80852D02*
X223476Y78864D01*
X221488Y80852D02*
Y81102D01*
X63216Y217800D02*
X85476D01*
X90424Y212852D01*
X225552Y245364D02*
Y245364D01*
Y245364D02*
X229108Y241808D01*
Y234188D02*
Y241808D01*
X227720Y232800D02*
X229108Y234188D01*
X218216Y237800D02*
Y241270D01*
X214122Y245364D02*
X218216Y241270D01*
Y232800D02*
X227720D01*
X158209Y223393D02*
X180467D01*
X185859Y218001D01*
X160161Y228727D02*
X180721D01*
X186196Y234202D01*
X183896Y204724D02*
X195580Y216408D01*
X185716Y246338D02*
X195580Y236474D01*
Y216408D02*
Y236474D01*
X218216Y237800D02*
X222716D01*
X183896Y169502D02*
Y204724D01*
X186690Y165608D02*
Y166708D01*
X183896Y169502D02*
X186690Y166708D01*
X170434Y41656D02*
X177292D01*
X181318Y45682D01*
Y67056D01*
X216409Y32003D02*
X216490Y32084D01*
Y66884D01*
X206364Y32350D02*
Y67010D01*
X217932Y262890D02*
X218150D01*
X225334Y255706D01*
X225552D01*
X244986D02*
X246310Y254382D01*
X225552Y255706D02*
X244986D01*
X218136Y187880D02*
X218216Y187800D01*
X202518Y187880D02*
X218136D01*
X202438Y187960D02*
X202518Y187880D01*
X85716Y100300D02*
Y131944D01*
X96012Y142240D02*
X141224D01*
X85716Y131944D02*
X96012Y142240D01*
X90697Y117749D02*
X95758Y122810D01*
X90697Y100319D02*
Y117749D01*
X98298Y132842D02*
X128270D01*
X135716Y125396D01*
Y100300D02*
Y125396D01*
X237236Y220236D02*
Y223774D01*
X230124Y213124D02*
X237236Y220236D01*
Y223774D02*
X240030Y226568D01*
X246249D01*
X230124Y187198D02*
Y213124D01*
X225863Y182937D02*
X230124Y187198D01*
X63216Y157800D02*
X63282Y157734D01*
X74930D01*
X236553Y138247D02*
X239205Y140900D01*
X243550D01*
X234146Y132800D02*
X236553Y135208D01*
Y138247D01*
X218216Y127800D02*
X235496D01*
X241046Y133350D01*
X218216Y137800D02*
X218404Y137988D01*
X231206D01*
X231394Y138176D01*
X218216Y132800D02*
X234146D01*
X270598Y13462D02*
X296164D01*
X265283Y8147D02*
X270598Y13462D01*
X221318Y19982D02*
X233153Y8147D01*
X265283D01*
X249402Y22825D02*
Y38888D01*
X247650Y14478D02*
Y21073D01*
X249402Y22825D01*
X243586Y44704D02*
X249402Y38888D01*
X218216Y117800D02*
X248012D01*
X252222Y122010D02*
Y137796D01*
X248012Y117800D02*
X252222Y122010D01*
X150716Y230886D02*
X158209Y223393D01*
X150716Y230886D02*
Y255300D01*
X155716Y233172D02*
Y255300D01*
Y233172D02*
X160161Y228727D01*
X185716Y246338D02*
Y255300D01*
X63216Y172800D02*
X125810D01*
X134874Y181864D02*
X160020D01*
X125810Y172800D02*
X134874Y181864D01*
X154940Y148082D02*
X172974D01*
X151384Y144526D02*
X154940Y148082D01*
X172974D02*
X180340Y140716D01*
X151384Y134366D02*
X156464Y129286D01*
X151384Y134366D02*
Y144526D01*
X170716Y121440D02*
X180340Y131064D01*
Y140716D01*
X170716Y100300D02*
Y121440D01*
X165736Y100320D02*
Y131826D01*
X161036Y136526D02*
Y142748D01*
Y136526D02*
X165736Y131826D01*
X165716Y100300D02*
X165736Y100320D01*
X186318Y67056D02*
X186504Y66870D01*
Y52764D02*
Y66870D01*
Y52764D02*
X186690Y52578D01*
X161478Y41656D02*
X166398Y46576D01*
X171318Y56896D02*
Y67056D01*
X166398Y46576D02*
Y51976D01*
X171318Y56896D01*
X63216Y177800D02*
X63470Y178054D01*
X79756D01*
X80010Y178308D01*
X138430Y35052D02*
X148880D01*
X131826Y41656D02*
X138430Y35052D01*
X161318Y67056D02*
X161398Y66976D01*
Y52912D02*
Y66976D01*
Y52912D02*
X161478Y52832D01*
X156318Y53566D02*
Y67056D01*
X152908Y39080D02*
Y50202D01*
X156272Y53566D01*
X151318Y55493D02*
Y67056D01*
X146371Y41662D02*
Y50546D01*
X151318Y55493D01*
X175716Y100300D02*
Y119074D01*
X186436Y129794D01*
X185716Y100300D02*
X186076Y100660D01*
Y119020D01*
X186436Y119380D01*
X166318Y67056D02*
Y77470D01*
X150114Y81026D02*
X162762D01*
X166318Y77470D01*
X141732Y89408D02*
X150114Y81026D01*
X161798Y236474D02*
X171196D01*
X175716Y255300D02*
X175768Y255248D01*
Y241046D02*
Y255248D01*
X171196Y236474D02*
X175768Y241046D01*
X148880Y35052D02*
X152908Y39080D01*
X138524Y79408D02*
X141318Y76614D01*
X131318Y79408D02*
X138524D01*
X141318Y67056D02*
Y76614D01*
X236318Y58068D02*
X243586Y50800D01*
Y44704D02*
Y50800D01*
X221318Y19982D02*
Y67056D01*
X226318Y25396D02*
Y67056D01*
Y25396D02*
X237236Y14478D01*
X113030Y71245D02*
Y71495D01*
X120260Y78724D01*
X122666D01*
X123444Y79502D01*
X139446Y174501D02*
Y175006D01*
X132745Y167800D02*
X139446Y174501D01*
X63216Y162800D02*
X63604Y163188D01*
X146424D01*
X146812Y163576D01*
X218216Y122800D02*
X243450D01*
X236318Y58068D02*
Y67056D01*
X265176D02*
X270510Y72390D01*
X246318Y67056D02*
X265176D01*
X190716Y92494D02*
X195072Y88138D01*
X190716Y92494D02*
Y100300D01*
X191318Y67056D02*
X191417Y67155D01*
Y80673D02*
X191516Y80772D01*
X191417Y67155D02*
Y80673D01*
X160716Y100300D02*
Y113858D01*
X155194Y119380D02*
X160716Y113858D01*
X74676Y94869D02*
Y113792D01*
X63216Y127800D02*
X77940D01*
X80772Y119888D02*
Y124968D01*
X74676Y113792D02*
X80772Y119888D01*
X77940Y127800D02*
X80772Y124968D01*
X82550Y86745D02*
Y86995D01*
X74676Y94869D02*
X82550Y86995D01*
X161177Y67197D02*
X161318Y67056D01*
X115716Y100300D02*
X115770Y100354D01*
Y119072D01*
X115824Y119126D01*
X95716Y100300D02*
Y111464D01*
X103378Y119126D01*
X146318Y67056D02*
Y77964D01*
X140970Y83312D02*
X146318Y77964D01*
X131318Y89408D02*
X137414Y83312D01*
X140970D01*
X99060Y71243D02*
X113028D01*
X100716Y88399D02*
Y100300D01*
X99060Y86743D02*
X100716Y88399D01*
X156473Y390705D02*
X163540D01*
X90697Y100319D02*
X90716Y100300D01*
X63216Y167800D02*
X132745D01*
X156490Y324770D02*
X163540D01*
X156320Y313690D02*
X163540D01*
X80518Y100498D02*
Y111506D01*
Y100498D02*
X80716Y100300D01*
X35360Y129540D02*
X45720D01*
X35360Y117040D02*
X45720D01*
X53824Y244856D02*
X64262D01*
X57442Y251498D02*
X59436Y253492D01*
X45466Y251498D02*
X57442D01*
X59436Y253492D02*
X64262D01*
X47966Y238998D02*
X53824Y244856D01*
X51308Y156718D02*
Y202946D01*
X34290Y219964D02*
Y236982D01*
Y219964D02*
X51308Y202946D01*
X46990Y155194D02*
Y199644D01*
X36306Y238998D02*
X45466D01*
X34290Y236982D02*
X36306Y238998D01*
X29464Y245872D02*
X35090Y251498D01*
X45466D01*
X29464Y217170D02*
Y245872D01*
Y217170D02*
X46990Y199644D01*
X54384Y147800D02*
X63216D01*
X46990Y155194D02*
X54384Y147800D01*
X55226Y152800D02*
X63216D01*
X51308Y156718D02*
X55226Y152800D01*
X63216Y212800D02*
X78688D01*
X45720Y129540D02*
X48958Y132778D01*
X54707D01*
X54729Y132800D01*
X63216D01*
X45466Y238998D02*
X47966D01*
X156490Y368770D02*
X163540D01*
X156490Y379770D02*
X163540D01*
X156490Y346770D02*
X163540D01*
X139831Y424049D02*
Y433462D01*
X153799Y448962D02*
X153801Y448960D01*
X339090Y220980D02*
Y233680D01*
X206318Y67056D02*
X206364Y67010D01*
X216318Y67056D02*
X216490Y66884D01*
X237459Y180596D02*
X244858D01*
X234659Y177796D02*
X237459Y180596D01*
X244858D02*
X246380Y182118D01*
X236143Y174281D02*
X239365Y177502D01*
X255338D02*
X263770Y169070D01*
X239365Y177502D02*
X255338D01*
X226523Y174281D02*
X236143D01*
X225216Y172974D02*
X226523Y174281D01*
X218221Y177796D02*
X234659D01*
X223724Y172974D02*
X225216D01*
X223687Y182937D02*
X225863D01*
X246380Y182118D02*
Y188680D01*
Y189460D02*
X246770Y189070D01*
X246380Y188680D02*
X246770Y189070D01*
X223550Y182800D02*
X223687Y182937D01*
X246249Y226568D02*
Y236220D01*
X261880Y166680D02*
X263770Y168570D01*
X261880Y151130D02*
Y166680D01*
X246380Y189460D02*
Y208280D01*
X223550Y172800D02*
X223724Y172974D01*
X263770Y168570D02*
Y169070D01*
D19*
X231799Y81125D02*
D03*
Y90625D02*
D03*
X221488Y81102D02*
D03*
Y90602D02*
D03*
X339090Y233680D02*
D03*
Y243180D02*
D03*
D20*
X323850Y180340D02*
D03*
Y203200D02*
D03*
D21*
X339090Y205740D02*
D03*
Y220980D02*
D03*
D22*
X293370D02*
D03*
X316230D02*
D03*
X293370Y240030D02*
D03*
X316230D02*
D03*
D23*
X312551Y256540D02*
D03*
X297051D02*
D03*
X171452Y485790D02*
D03*
X186952D02*
D03*
X171321Y471900D02*
D03*
X186821D02*
D03*
X171322Y457930D02*
D03*
X186822D02*
D03*
X337058Y418592D02*
D03*
X321558D02*
D03*
X302520Y349250D02*
D03*
X287020D02*
D03*
X246310Y254382D02*
D03*
X261810D02*
D03*
X261749Y226568D02*
D03*
X246249D02*
D03*
Y240538D02*
D03*
X261749D02*
D03*
X246380Y208280D02*
D03*
X261880D02*
D03*
Y151130D02*
D03*
X246380D02*
D03*
X159258Y357886D02*
D03*
X143758D02*
D03*
X91440Y324612D02*
D03*
X75940D02*
D03*
Y341122D02*
D03*
X91440D02*
D03*
X75940Y363220D02*
D03*
X91440D02*
D03*
X75942Y377190D02*
D03*
X91442D02*
D03*
X75942Y391160D02*
D03*
X91442D02*
D03*
D24*
X260612Y467545D02*
D03*
Y483045D02*
D03*
X246642Y467674D02*
D03*
Y483174D02*
D03*
X287528Y39493D02*
D03*
Y54993D02*
D03*
X301498D02*
D03*
Y39493D02*
D03*
X82550Y86745D02*
D03*
Y71245D02*
D03*
X69342Y86745D02*
D03*
Y71245D02*
D03*
X99060Y86743D02*
D03*
Y71243D02*
D03*
X113030Y86745D02*
D03*
Y71245D02*
D03*
X153801Y448960D02*
D03*
Y433460D02*
D03*
X139831Y433462D02*
D03*
Y448962D02*
D03*
X120142Y287657D02*
D03*
Y272157D02*
D03*
X105410Y287403D02*
D03*
Y271903D02*
D03*
X91440Y271780D02*
D03*
Y287280D02*
D03*
X77470Y271780D02*
D03*
Y287280D02*
D03*
X63500Y271649D02*
D03*
Y287149D02*
D03*
D25*
X147451Y486130D02*
D03*
X156951Y465130D02*
D03*
X137951D02*
D03*
X298450Y180000D02*
D03*
X288950Y201000D02*
D03*
X307950D02*
D03*
D26*
X227932Y475550D02*
D03*
X206932Y466050D02*
D03*
Y485050D02*
D03*
X131150Y367030D02*
D03*
X110150Y357530D02*
D03*
Y376530D02*
D03*
X131150Y332486D02*
D03*
X110150Y322986D02*
D03*
Y341986D02*
D03*
D27*
X205486Y435356D02*
D03*
Y359156D02*
D03*
D28*
X258318Y400826D02*
D03*
Y370826D02*
D03*
D29*
X297180Y384810D02*
D03*
D30*
X329152Y399810D02*
D03*
Y369810D02*
D03*
X288068Y399810D02*
D03*
Y369810D02*
D03*
D31*
X325374Y384810D02*
D03*
D32*
X270736Y304800D02*
D03*
D33*
X330736D02*
D03*
D34*
X234950Y294500D02*
D03*
Y340500D02*
D03*
D35*
X263770Y189570D02*
D03*
Y168570D02*
D03*
X246770D02*
D03*
Y189570D02*
D03*
D36*
X268633Y130779D02*
D03*
X259633D02*
D03*
X259983Y102561D02*
D03*
X268983D02*
D03*
X147490Y379770D02*
D03*
X156490D02*
D03*
X147473Y390705D02*
D03*
X156473D02*
D03*
X147490Y368770D02*
D03*
X156490D02*
D03*
X147490Y346770D02*
D03*
X156490D02*
D03*
X147490Y324770D02*
D03*
X156490D02*
D03*
X147320Y313690D02*
D03*
X156320D02*
D03*
D37*
X259088Y121222D02*
D03*
X268588D02*
D03*
X259156Y111760D02*
D03*
X268656D02*
D03*
D38*
X188787Y-126111D02*
D03*
D39*
X114808Y36830D02*
D03*
X262890D02*
D03*
D40*
X131318Y67056D02*
D03*
X136318D02*
D03*
X141318D02*
D03*
X146318D02*
D03*
X151318D02*
D03*
X156318D02*
D03*
X161318D02*
D03*
X166318D02*
D03*
X171318D02*
D03*
X176318D02*
D03*
X181318D02*
D03*
X186318D02*
D03*
X191318D02*
D03*
X196318D02*
D03*
X201318D02*
D03*
X206318D02*
D03*
X211318D02*
D03*
X216318D02*
D03*
X221318D02*
D03*
X226318D02*
D03*
X231318D02*
D03*
X236318D02*
D03*
X241318D02*
D03*
X246318D02*
D03*
D41*
X282592Y150340D02*
D03*
Y147340D02*
D03*
X282592Y142341D02*
D03*
Y139339D02*
D03*
X282592Y134340D02*
D03*
Y124340D02*
D03*
X282607Y119339D02*
D03*
X282592Y114340D02*
D03*
X282610Y109338D02*
D03*
X282588Y104340D02*
D03*
X282633Y94340D02*
D03*
Y91341D02*
D03*
X282607Y86339D02*
D03*
Y83340D02*
D03*
D42*
X282592Y129340D02*
D03*
X282593Y99340D02*
D03*
D43*
X45920Y53340D02*
D03*
X58420D02*
D03*
D44*
X18488Y25234D02*
D03*
X86128D02*
D03*
D45*
X19304Y169472D02*
D03*
Y77108D02*
D03*
X19050Y291500D02*
D03*
Y199136D02*
D03*
D46*
X45720Y104540D02*
D03*
Y117040D02*
D03*
Y129540D02*
D03*
Y142040D02*
D03*
X45466Y226568D02*
D03*
Y239068D02*
D03*
Y251568D02*
D03*
Y264068D02*
D03*
D47*
X49696Y364528D02*
D03*
Y352028D02*
D03*
D48*
X21590Y391960D02*
D03*
Y324320D02*
D03*
D49*
X200716Y100300D02*
D03*
X195716D02*
D03*
X190716D02*
D03*
X185716D02*
D03*
X180716D02*
D03*
X175716D02*
D03*
X170716D02*
D03*
X165716D02*
D03*
X160716D02*
D03*
X155716D02*
D03*
X150716D02*
D03*
X145716D02*
D03*
X140716D02*
D03*
X135716D02*
D03*
X130716D02*
D03*
X125716D02*
D03*
X120716D02*
D03*
X115716D02*
D03*
X110716D02*
D03*
X105716D02*
D03*
X100716D02*
D03*
X95716D02*
D03*
X90716D02*
D03*
X85716D02*
D03*
X80716D02*
D03*
Y255300D02*
D03*
X85716D02*
D03*
X90716D02*
D03*
X95716D02*
D03*
X100716D02*
D03*
X105716D02*
D03*
X110716D02*
D03*
X115716D02*
D03*
X120716D02*
D03*
X125716D02*
D03*
X130716D02*
D03*
X135716D02*
D03*
X140716D02*
D03*
X145716D02*
D03*
X150716D02*
D03*
X155716D02*
D03*
X160716D02*
D03*
X165716D02*
D03*
X170716D02*
D03*
X175716D02*
D03*
X180716D02*
D03*
X185716D02*
D03*
X190716D02*
D03*
X195716D02*
D03*
X200716D02*
D03*
D50*
X63216Y117800D02*
D03*
Y122800D02*
D03*
Y127800D02*
D03*
Y132800D02*
D03*
Y137800D02*
D03*
Y142800D02*
D03*
Y147800D02*
D03*
Y152800D02*
D03*
Y157800D02*
D03*
Y162800D02*
D03*
Y167800D02*
D03*
Y172800D02*
D03*
Y177800D02*
D03*
Y182800D02*
D03*
Y187800D02*
D03*
Y192800D02*
D03*
Y197800D02*
D03*
Y202800D02*
D03*
Y207800D02*
D03*
Y212800D02*
D03*
Y217800D02*
D03*
Y222800D02*
D03*
Y227800D02*
D03*
Y232800D02*
D03*
Y237800D02*
D03*
X218216D02*
D03*
Y232800D02*
D03*
Y227800D02*
D03*
Y222800D02*
D03*
Y217800D02*
D03*
Y212800D02*
D03*
Y207800D02*
D03*
Y202800D02*
D03*
Y197800D02*
D03*
Y192800D02*
D03*
Y187800D02*
D03*
Y182800D02*
D03*
Y177800D02*
D03*
Y172800D02*
D03*
Y167800D02*
D03*
Y162800D02*
D03*
Y157800D02*
D03*
Y152800D02*
D03*
Y147800D02*
D03*
Y142800D02*
D03*
Y137800D02*
D03*
Y132800D02*
D03*
Y127800D02*
D03*
Y122800D02*
D03*
Y117800D02*
D03*
D90*
X217932Y262890D02*
D03*
X256032Y85344D02*
D03*
X125730Y306070D02*
D03*
X102533D02*
D03*
D91*
X63216Y102616D02*
X68965Y96867D01*
Y87122D02*
Y96867D01*
Y87122D02*
X69342Y86745D01*
X63216Y102616D02*
Y117123D01*
X236728Y203962D02*
Y212344D01*
X241554Y217170D01*
X261630Y208280D02*
X261880D01*
X252740Y217170D02*
X261630Y208280D01*
X241554Y217170D02*
X252740D01*
X261749Y226568D02*
X269548D01*
X271780Y228800D01*
Y244602D01*
X201000Y100584D02*
X207264D01*
Y105410D02*
X207518Y105664D01*
X207264Y100584D02*
Y105410D01*
X64008Y287280D02*
Y296926D01*
X63500Y287149D02*
X63565Y287215D01*
X77405D01*
X77470Y287280D01*
X103972Y288841D02*
Y304632D01*
X34582Y364528D02*
X49696D01*
X34582Y352028D02*
X49696D01*
X120142Y287657D02*
Y297180D01*
Y272407D02*
X125984Y278249D01*
X105410Y271903D02*
Y272153D01*
X111252Y277995D01*
X103972Y288841D02*
X105410Y287403D01*
X102533Y306070D02*
X103972Y304632D01*
X91440Y287280D02*
Y296926D01*
X75940Y314966D02*
Y324612D01*
X66294D02*
X75940D01*
X258318Y400826D02*
X259334Y399810D01*
X288068D01*
X258318Y370826D02*
X275858D01*
X276860Y369824D01*
X300507Y55985D02*
X301498Y54993D01*
X300507Y55985D02*
Y65208D01*
X293875Y71840D02*
X300507Y65208D01*
X290592Y71840D02*
X293875D01*
X287528Y54993D02*
X301498D01*
X271526Y156718D02*
X274574Y159766D01*
X270764Y208280D02*
X274574Y204470D01*
Y159766D02*
Y204470D01*
X267800Y143451D02*
X271526Y147177D01*
Y156718D01*
X246380Y151130D02*
X246630D01*
X254309Y143451D01*
X267800D01*
X261880Y208280D02*
X270764D01*
D92*
X204395Y222800D02*
X218216D01*
X202105Y225091D02*
X204395Y222800D01*
X201418Y225091D02*
X202105D01*
X204395Y207800D02*
X218216D01*
X202105Y205509D02*
X204395Y207800D01*
X201418Y205509D02*
X202105D01*
X205157Y212800D02*
X218216D01*
X202105Y215853D02*
X205157Y212800D01*
X201418Y215853D02*
X202105D01*
X176318Y54984D02*
Y67056D01*
X173482Y52148D02*
X176318Y54984D01*
X173482Y51562D02*
Y52148D01*
X233540Y26670D02*
Y27357D01*
X261810Y254382D02*
X262191Y254000D01*
X271780D01*
X261779Y254351D02*
X261810Y254382D01*
X261779Y240568D02*
Y254351D01*
X261749Y240538D02*
X261779Y240568D01*
X246380Y168180D02*
X246770Y168570D01*
X246380Y151130D02*
Y168180D01*
X231709Y162800D02*
X236492Y167583D01*
X245783D02*
X246380Y168180D01*
X236492Y167583D02*
X245783D01*
X195716Y245300D02*
Y255300D01*
X190716Y264122D02*
X193548Y266954D01*
X200660D01*
X200914Y267208D01*
X190716Y255300D02*
Y264122D01*
X243318Y77453D02*
Y88839D01*
X241533Y90625D02*
X243318Y88839D01*
X241318Y75453D02*
X243318Y77453D01*
X241318Y67056D02*
Y75453D01*
Y75790D02*
Y75928D01*
Y76923D02*
Y85580D01*
X231318Y29579D02*
Y67056D01*
Y29579D02*
X233540Y27357D01*
X196318Y55094D02*
Y67056D01*
X208694Y167800D02*
X218216D01*
X201422Y150876D02*
Y160528D01*
X208694Y167800D01*
X218216Y162800D02*
X231709D01*
X230632Y220472D02*
Y225091D01*
X218216Y217800D02*
X227960D01*
X230632Y220472D01*
X209498Y142800D02*
X218216D01*
X201422Y150876D02*
X209498Y142800D01*
X188658Y140526D02*
X195716Y133468D01*
Y100300D02*
Y133468D01*
X69342Y71245D02*
X82550D01*
X69342D02*
Y71495D01*
X66616Y74221D02*
X69342Y71495D01*
X66366Y74221D02*
X66616D01*
X60831Y79756D02*
X66366Y74221D01*
X48768Y79756D02*
X60831D01*
X63216Y122800D02*
X63226Y122810D01*
X73788D01*
X113030Y86745D02*
X120485D01*
X123402Y89662D01*
X123444D01*
X68326Y271780D02*
X77470D01*
X85716Y255300D02*
Y265872D01*
X88648Y268804D01*
X88714D01*
X91440Y271530D01*
Y271780D01*
X80716Y255300D02*
Y268284D01*
X77470Y271530D02*
X80716Y268284D01*
X77470Y271530D02*
Y271780D01*
X147490Y368770D02*
Y379770D01*
X138075Y390705D02*
X147473D01*
X138092Y379770D02*
X147490D01*
X138092Y346770D02*
X147490D01*
X138092Y324770D02*
X147490D01*
X137922Y313690D02*
X147320D01*
X156951Y465130D02*
Y474451D01*
X151130Y465328D02*
X156753D01*
X156951Y465130D01*
X153801Y424049D02*
Y433460D01*
X306578Y141986D02*
X307519D01*
X306324D02*
X306578D01*
X293430Y103124D02*
X299974D01*
X282592Y142340D02*
X286794D01*
X282592Y139340D02*
X289794D01*
X291644Y101339D02*
X293430Y103124D01*
X297180Y97514D02*
X297572Y97906D01*
X291644Y96647D02*
Y101339D01*
X282633Y91340D02*
X286835D01*
X304792Y136144D02*
X309909D01*
X300482D02*
X304792D01*
X309909D02*
X312308Y138542D01*
X312199Y138938D02*
X313736D01*
X310661D02*
X312199D01*
X306092Y137444D02*
X310704D01*
X312199Y138938D01*
X311898Y141986D02*
X312069D01*
X307519D02*
X311898D01*
X311983Y142072D01*
X310661Y140750D02*
X311898Y141986D01*
X310661Y138938D02*
Y140750D01*
X307434Y142072D02*
X311983D01*
X306746D02*
X307434D01*
X307519Y141986D02*
X310567Y138938D01*
X307434Y142072D02*
X307519Y141986D01*
X307265Y142240D02*
X307434Y142072D01*
X307586Y138938D02*
X310567D01*
X306578Y142240D02*
X307265D01*
X310567Y138938D02*
X310661D01*
X312069Y141986D02*
X316992D01*
X311983Y142072D02*
X317220D01*
X312069Y141986D02*
X313736Y140319D01*
X311983Y142072D02*
X312069Y141986D01*
X313736Y138938D02*
Y140319D01*
X306578Y142240D02*
X306746Y142072D01*
X317220D02*
X317389Y141903D01*
X306578Y137929D02*
X307586Y138938D01*
X306092Y137444D02*
X306578Y137929D01*
X316702Y141903D02*
X317389D01*
X313736Y138938D02*
X316702Y141903D01*
X306324Y141986D02*
X306578Y142240D01*
Y141986D02*
Y142240D01*
Y137929D02*
Y141986D01*
X306092Y141754D02*
X306324Y141986D01*
X300482Y136144D02*
X303276Y138938D01*
X292990Y136144D02*
X294640D01*
X289794Y139340D02*
X292990Y136144D01*
X302589Y138938D02*
X305891Y142240D01*
X291444Y139340D02*
X291846Y138938D01*
X303276D02*
X306092Y141754D01*
X305891Y142240D02*
X306578D01*
X291846Y138938D02*
X294640Y136144D01*
X291846Y138938D02*
X302589D01*
X289794Y139340D02*
X291444D01*
X304792Y136144D02*
X306092Y137444D01*
X294640Y136144D02*
X300482D01*
X304792D02*
Y137422D01*
X306092Y137444D02*
Y141754D01*
X303276Y138938D02*
X304792Y137422D01*
X286794Y142340D02*
X289794Y139340D01*
X299974Y103124D02*
X301774Y101324D01*
Y99038D02*
Y101324D01*
Y95228D02*
X302260Y94742D01*
X301774Y95228D02*
Y99038D01*
X299974Y100838D02*
X301774Y99038D01*
X295148Y100838D02*
X299974D01*
X294894Y100584D02*
X295148Y100838D01*
X301774Y95228D02*
X302260Y94742D01*
X297591Y99411D02*
X301774Y95228D01*
X297180Y94742D02*
X302260D01*
X301774Y95228D02*
X301774D01*
X300250D02*
X301774D01*
X294894Y100584D02*
X295581D01*
X296755Y99411D01*
X297591D01*
X302260Y94742D02*
X302260D01*
X294408Y99411D02*
X294894Y99897D01*
X291644Y96647D02*
X294408Y99411D01*
Y100098D01*
Y97050D02*
Y99411D01*
X294894Y99897D02*
Y100584D01*
X291644Y96149D02*
Y96647D01*
X289859Y94364D02*
X291644Y96149D01*
X292100Y94742D02*
X297180D01*
Y97514D01*
X294408Y97050D02*
X295264Y97906D01*
X297572D02*
X300250Y95228D01*
X294894Y100584D02*
X297572Y97906D01*
X292100Y94742D02*
X294408Y97050D01*
X295264Y97906D02*
X297572D01*
X291722Y94364D02*
X292100Y94742D01*
X289859Y94364D02*
X291722D01*
X282656D02*
X289859D01*
X286835Y91340D02*
X289859Y94364D01*
X294408Y100098D02*
X294894Y100584D01*
X282633Y94340D02*
X282656Y94364D01*
X339090Y197866D02*
Y205740D01*
X237998Y88900D02*
X241318Y85580D01*
X204470Y87630D02*
X211328D01*
X207656Y83958D02*
X211328Y87630D01*
X203984Y80286D02*
X207656Y83958D01*
X204470Y87144D02*
Y87630D01*
Y87144D02*
X207656Y83958D01*
X201318Y84478D02*
X203984Y87144D01*
X203073Y79375D02*
X203984Y80286D01*
Y87144D02*
X204470Y87630D01*
X203984Y80286D02*
Y87144D01*
X211439Y84399D02*
Y87519D01*
Y81280D02*
Y84399D01*
X201318Y77620D02*
X203073Y79375D01*
X209550Y83312D02*
X210352D01*
X211439Y84399D01*
X205613Y79375D02*
X209550Y83312D01*
X203073Y79375D02*
X205613D01*
X211328Y87630D02*
X211439Y87519D01*
X201318Y77620D02*
X207779D01*
X211439Y81280D01*
X201318Y77620D02*
Y84478D01*
Y67056D02*
Y77620D01*
D93*
X95645Y153670D02*
X175768D01*
X80878Y138903D02*
X95645Y153670D01*
X73216Y138903D02*
X80878D01*
X73216Y141697D02*
X79721D01*
X94488Y156464D01*
X176925D01*
X180735Y152654D02*
X188609D01*
X179578Y149860D02*
X187452D01*
X203918Y120743D02*
Y137345D01*
X211632Y113030D02*
X249339D01*
X203918Y120743D02*
X211632Y113030D01*
X249339D02*
X253838Y117529D01*
X188609Y152654D02*
X203918Y137345D01*
X253838Y117529D02*
X255634D01*
X256723Y118618D01*
Y119107D02*
X258838Y121222D01*
X259088D01*
X256723Y118618D02*
Y119107D01*
X63216Y142800D02*
X72113D01*
X73216Y141697D01*
X201124Y119586D02*
X210474Y110236D01*
X250496D01*
X201124Y119586D02*
Y136188D01*
X250496Y110236D02*
X254995Y114735D01*
X187452Y149860D02*
X201124Y136188D01*
X256047Y114735D02*
X256791Y113991D01*
Y113875D02*
Y113991D01*
X254995Y114735D02*
X256047D01*
X256791Y113875D02*
X258906Y111760D01*
X259156D01*
X63216Y137800D02*
X72113D01*
X73216Y138903D01*
X179578Y149860D02*
Y149860D01*
X175768Y153670D02*
X179578Y149860D01*
X176925Y156464D02*
X180735Y152654D01*
X288466Y120450D02*
X308056D01*
X319160Y131554D02*
X320212D01*
X308056Y120450D02*
X319160Y131554D01*
X306899Y123244D02*
X318002Y134348D01*
X321369D01*
X288451Y123244D02*
X306899D01*
X321369Y134348D02*
X323342Y132375D01*
X320212Y131554D02*
X321237Y130528D01*
X323342Y132375D02*
X326349D01*
X321237Y127432D02*
Y130528D01*
X326349Y132375D02*
X326898Y131826D01*
X283457Y123475D02*
X288220D01*
X282592Y124340D02*
X283457Y123475D01*
X288220D02*
X288451Y123244D01*
X303969Y113240D02*
X310275Y106934D01*
X313690D01*
X283457Y113475D02*
X288216D01*
X288451Y113240D02*
X303969D01*
X288216Y113475D02*
X288451Y113240D01*
X281727Y115205D02*
X282592Y114340D01*
X276974Y115205D02*
X281727D01*
X272103Y115446D02*
X276733D01*
X271021Y114364D02*
X272103Y115446D01*
X276733D02*
X276974Y115205D01*
X271021Y113875D02*
Y114364D01*
X282592Y114340D02*
X283457Y113475D01*
X268906Y111760D02*
X271021Y113875D01*
X268656Y111760D02*
X268906D01*
X268983Y102561D02*
Y111433D01*
X268656Y111760D02*
X268983Y111433D01*
X321237Y127432D02*
X321742Y126928D01*
X288220Y120204D02*
X288466Y120450D01*
X283471Y120204D02*
X288220D01*
X282607Y119340D02*
X283471Y120204D01*
X276982Y118474D02*
X281741D01*
X270953Y118984D02*
Y119107D01*
X268588Y121222D02*
Y130734D01*
X268633Y130779D01*
X268838Y121222D02*
X270953Y119107D01*
X268588Y121222D02*
X268838D01*
X281741Y118474D02*
X282607Y119340D01*
X270953Y118984D02*
X271697Y118240D01*
X276748D02*
X276982Y118474D01*
X271697Y118240D02*
X276748D01*
X302812Y110446D02*
X308356Y104902D01*
Y101600D02*
Y104902D01*
X288470Y110446D02*
X302812D01*
X288226Y110203D02*
X288470Y110446D01*
X283474Y110203D02*
X288226D01*
X282610Y109339D02*
X283474Y110203D01*
D94*
X265044Y38984D02*
X287269D01*
X287528Y39243D01*
X262890Y36830D02*
X265044Y38984D01*
X287528Y39493D02*
X301498D01*
X86128Y25234D02*
X103212D01*
X114808Y36830D01*
X123190Y45212D02*
Y56388D01*
X116116Y38138D02*
X123190Y45212D01*
X301498Y27178D02*
Y39493D01*
X91440Y363220D02*
X91690D01*
X94154Y360756D01*
Y360506D02*
Y360756D01*
Y360506D02*
X97130Y357530D01*
X110150D01*
X91441Y377189D02*
X91442Y377190D01*
X91441Y363221D02*
Y377189D01*
X91440Y363220D02*
X91441Y363221D01*
D95*
X19304Y102000D02*
X21844Y104540D01*
X45720D01*
X19304Y102000D02*
Y169472D01*
Y77108D02*
Y102000D01*
X18488Y25234D02*
X18896Y25642D01*
Y76700D01*
X19304Y77108D01*
D96*
X36830Y148336D02*
X38100Y147066D01*
X36830Y148336D02*
Y155194D01*
X38194Y147066D02*
X43220Y142040D01*
X38100Y147066D02*
X38194D01*
X43220Y142040D02*
X45720D01*
X44575Y263998D02*
X45466D01*
X246642Y483174D02*
X271606D01*
X286658Y468122D01*
D97*
X308102Y456438D02*
X311446Y459782D01*
Y467910D01*
X324158Y448872D02*
Y468122D01*
X311446Y467910D02*
X311658Y468122D01*
D98*
X45720Y318770D02*
D03*
Y398770D02*
D03*
X324158Y468122D02*
D03*
X311658D02*
D03*
X299158D02*
D03*
D99*
X290592Y71839D02*
D03*
X290592Y161839D02*
D03*
D100*
X332092Y161841D02*
D03*
X332092Y71840D02*
D03*
D101*
X295592Y145741D02*
D03*
Y87941D02*
D03*
D102*
X286658Y468122D02*
D03*
D103*
X324600Y24130D02*
D03*
X26670Y474980D02*
D03*
D104*
X216408Y15240D02*
D03*
X52324Y222377D02*
D03*
Y228600D02*
D03*
Y216154D02*
D03*
X271780Y244602D02*
D03*
X180086Y333756D02*
D03*
X195072Y470408D02*
D03*
Y463677D02*
D03*
X96266Y426466D02*
D03*
X96520Y435864D02*
D03*
X85852Y426466D02*
D03*
X86106Y435610D02*
D03*
X61722Y358394D02*
D03*
X63216Y102616D02*
D03*
X175260Y442722D02*
D03*
X225552Y245364D02*
D03*
X233680Y248920D02*
D03*
X214122Y245364D02*
D03*
X187706Y215900D02*
D03*
Y236474D02*
D03*
X240792Y269748D02*
D03*
X232664D02*
D03*
X240792Y275844D02*
D03*
X232664D02*
D03*
X188220Y272548D02*
D03*
X202438Y187960D02*
D03*
X95758Y122810D02*
D03*
Y132842D02*
D03*
X230886Y355854D02*
D03*
X221234D02*
D03*
Y365506D02*
D03*
X230886D02*
D03*
X188091Y371348D02*
D03*
Y316008D02*
D03*
X108204Y364998D02*
D03*
X98806D02*
D03*
X236728Y203962D02*
D03*
X74930Y157734D02*
D03*
X244329Y29421D02*
D03*
X296164Y13462D02*
D03*
X172212Y339852D02*
D03*
X186690Y165608D02*
D03*
X156464Y129286D02*
D03*
X161036Y142748D02*
D03*
X241046Y133350D02*
D03*
X173482Y51562D02*
D03*
X186690Y52578D02*
D03*
X80010Y178308D02*
D03*
X240089Y24808D02*
D03*
X161478Y52832D02*
D03*
X186436Y119380D02*
D03*
Y129794D02*
D03*
X141224Y142240D02*
D03*
X161798Y236474D02*
D03*
X141732Y89408D02*
D03*
X146371Y41662D02*
D03*
X131826Y41656D02*
D03*
X160020Y181864D02*
D03*
X259633Y137796D02*
D03*
X271472D02*
D03*
X307171Y335619D02*
D03*
Y325035D02*
D03*
X328337D02*
D03*
X317754D02*
D03*
Y335619D02*
D03*
X328337D02*
D03*
X318093Y295994D02*
D03*
X328676D02*
D03*
X172466Y133604D02*
D03*
X225552Y255706D02*
D03*
X271780Y254000D02*
D03*
X268478Y263398D02*
D03*
X274574Y204470D02*
D03*
Y184404D02*
D03*
X236492Y167583D02*
D03*
X233680Y157226D02*
D03*
X195716Y245300D02*
D03*
X200914Y267208D02*
D03*
X233686Y103886D02*
D03*
X131826Y50546D02*
D03*
X182626Y24892D02*
D03*
X280162Y20828D02*
D03*
X272796D02*
D03*
X32766Y103600D02*
D03*
X12954Y104540D02*
D03*
X16426Y8890D02*
D03*
X41730Y8802D02*
D03*
X33274Y8890D02*
D03*
X123190Y56388D02*
D03*
X301498Y27178D02*
D03*
X271526Y83566D02*
D03*
X201662Y177546D02*
D03*
X191008D02*
D03*
X188658Y140526D02*
D03*
Y158242D02*
D03*
X201418Y225091D02*
D03*
X230632D02*
D03*
X201418Y215853D02*
D03*
Y205509D02*
D03*
X207518Y105664D02*
D03*
X201422Y150876D02*
D03*
X123698Y71882D02*
D03*
X139446Y175006D02*
D03*
X146812Y163576D02*
D03*
X252222Y137796D02*
D03*
X243450Y122800D02*
D03*
X243620Y140970D02*
D03*
X231394Y138176D02*
D03*
X61468Y16764D02*
D03*
X113005Y12421D02*
D03*
X65024Y20828D02*
D03*
X57332D02*
D03*
X130048Y11176D02*
D03*
X141310Y17694D02*
D03*
X181102Y12446D02*
D03*
X237236Y14478D02*
D03*
X247650D02*
D03*
X270510Y72390D02*
D03*
X195072Y88138D02*
D03*
X191516Y80772D02*
D03*
X155194Y119380D02*
D03*
X73216Y122810D02*
D03*
X180594Y272548D02*
D03*
X48768Y79756D02*
D03*
X58420Y72390D02*
D03*
X45920Y68072D02*
D03*
X123444Y89662D02*
D03*
Y79502D02*
D03*
X115824Y119126D02*
D03*
X103378D02*
D03*
X131318Y79408D02*
D03*
Y89408D02*
D03*
X163540Y390705D02*
D03*
Y324770D02*
D03*
Y313690D02*
D03*
X80518Y111506D02*
D03*
X35360Y129540D02*
D03*
Y117040D02*
D03*
X13716Y215646D02*
D03*
X10414Y235585D02*
D03*
X22552Y256740D02*
D03*
X9144Y273304D02*
D03*
Y307594D02*
D03*
X21801Y362669D02*
D03*
X9144Y350012D02*
D03*
X24892Y340414D02*
D03*
Y307340D02*
D03*
X30734Y274320D02*
D03*
X56642Y343408D02*
D03*
X37338D02*
D03*
X55880Y375666D02*
D03*
X75946Y351790D02*
D03*
X64008Y296926D02*
D03*
X38862Y375666D02*
D03*
X34582Y364528D02*
D03*
Y352028D02*
D03*
X120142Y297180D02*
D03*
X104140Y296926D02*
D03*
X38100Y147066D02*
D03*
X36830Y155194D02*
D03*
X64262Y244856D02*
D03*
Y253492D02*
D03*
X90424Y212852D02*
D03*
X78688Y212800D02*
D03*
X59182Y263652D02*
D03*
X68326D02*
D03*
X44958Y271780D02*
D03*
X54102D02*
D03*
X125984Y278249D02*
D03*
X111252Y277995D02*
D03*
X91440Y296926D02*
D03*
X209042Y330708D02*
D03*
X217324D02*
D03*
X209042Y339852D02*
D03*
X217324D02*
D03*
X217832Y293370D02*
D03*
Y284226D02*
D03*
X209550D02*
D03*
Y293370D02*
D03*
X49720Y305806D02*
D03*
Y460806D02*
D03*
Y428734D02*
D03*
X33684Y444770D02*
D03*
X65756D02*
D03*
X161684Y436698D02*
D03*
X129540Y436626D02*
D03*
X145720Y281108D02*
D03*
X180086Y339852D02*
D03*
X75940Y314966D02*
D03*
X66294Y324612D02*
D03*
X135552Y357378D02*
D03*
X124714D02*
D03*
X138075Y390705D02*
D03*
X138092Y379770D02*
D03*
Y346770D02*
D03*
Y324770D02*
D03*
X137922Y313690D02*
D03*
X163540Y346770D02*
D03*
Y368770D02*
D03*
Y379770D02*
D03*
X337058Y430784D02*
D03*
X156951Y474451D02*
D03*
X151130Y465328D02*
D03*
X153801Y424049D02*
D03*
X139831D02*
D03*
X195072Y456946D02*
D03*
X208534D02*
D03*
X201803D02*
D03*
X254254Y461010D02*
D03*
X270002Y461518D02*
D03*
Y468630D02*
D03*
X337227Y353060D02*
D03*
X326644D02*
D03*
Y363643D02*
D03*
X337227D02*
D03*
X286768Y266785D02*
D03*
Y277368D02*
D03*
X297351D02*
D03*
Y266785D02*
D03*
Y287951D02*
D03*
X286768D02*
D03*
X328676D02*
D03*
X318093D02*
D03*
Y266785D02*
D03*
Y277368D02*
D03*
X328676D02*
D03*
Y266785D02*
D03*
Y256201D02*
D03*
Y245618D02*
D03*
Y235035D02*
D03*
Y224451D02*
D03*
Y213868D02*
D03*
X341596Y177231D02*
D03*
Y185481D02*
D03*
X317389Y141903D02*
D03*
X306578Y142240D02*
D03*
X294894Y100584D02*
D03*
X302260Y94742D02*
D03*
X332740Y181356D02*
D03*
Y175260D02*
D03*
Y187452D02*
D03*
X339090Y197866D02*
D03*
Y250952D02*
D03*
X240030Y88900D02*
D03*
X204978Y87630D02*
D03*
X190997Y17029D02*
D03*
X198374Y12192D02*
D03*
X211328Y87630D02*
D03*
X206410Y32350D02*
D03*
X216408Y32004D02*
D03*
X170434Y41656D02*
D03*
X161478D02*
D03*
X253956Y102378D02*
D03*
X326136Y110998D02*
D03*
X326644Y141224D02*
D03*
X321056Y103378D02*
D03*
X315214Y96012D02*
D03*
X326898Y131826D02*
D03*
X321742Y126928D02*
D03*
X308356Y101600D02*
D03*
X313690Y106934D02*
D03*
M02*
