G04*
G04 #@! TF.GenerationSoftware,Altium Limited,Altium Designer,23.5.1 (21)*
G04*
G04 Layer_Color=65535*
%FSLAX44Y44*%
%MOMM*%
G71*
G04*
G04 #@! TF.SameCoordinates,D8F5AE86-2F01-4A25-AC6E-D886633190FF*
G04*
G04*
G04 #@! TF.FilePolarity,Positive*
G04*
G01*
G75*
%ADD10C,0.2500*%
%ADD11C,0.2540*%
%ADD12C,0.1500*%
%ADD13C,0.2000*%
%ADD14C,0.2032*%
%ADD15C,0.4000*%
%ADD16C,0.6000*%
%ADD17C,0.1524*%
%ADD18C,0.1016*%
D10*
X130701Y465130D02*
G03*
X130701Y465130I-1250J0D01*
G01*
X208182Y493550D02*
G03*
X208182Y493550I-1250J0D01*
G01*
X333860Y361810D02*
G03*
X333860Y361810I-1250J0D01*
G01*
X111400Y385030D02*
G03*
X111400Y385030I-1250J0D01*
G01*
Y350486D02*
G03*
X111400Y350486I-1250J0D01*
G01*
X219466Y110800D02*
G03*
X219466Y110800I-1250J0D01*
G01*
X317700Y201000D02*
G03*
X317700Y201000I-1250J0D01*
G01*
D11*
X220726Y371856D02*
G03*
X220726Y422656I-15240J25400D01*
G01*
X235966Y359156D02*
G03*
X243586Y366776I0J7620D01*
G01*
Y427736D02*
G03*
X235966Y435356I-7620J0D01*
G01*
X167386Y366776D02*
G03*
X175006Y359156I7620J0D01*
G01*
Y435356D02*
G03*
X167386Y427736I0J-7620D01*
G01*
X190246Y422656D02*
G03*
X190246Y371856I15240J-25400D01*
G01*
X205486Y402336D02*
G03*
X205486Y392176I0J-5080D01*
G01*
Y412496D02*
G03*
X205486Y402336I0J-5080D01*
G01*
Y392176D02*
G03*
X205486Y382016I0J-5080D01*
G01*
X250190Y283210D02*
G03*
X250190Y283210I-1270J0D01*
G01*
X218186Y435356D02*
X235966D01*
X243586Y366776D02*
Y427736D01*
X218186Y359156D02*
X235966D01*
X175006Y435356D02*
X192786D01*
X167386Y366776D02*
Y427736D01*
X175006Y359156D02*
X192786D01*
X205486Y412496D02*
Y422656D01*
Y371856D02*
Y382016D01*
X267736Y323300D02*
X282236Y337800D01*
X333736Y271800D02*
Y337800D01*
X282236D02*
X333736D01*
X267736Y287300D02*
Y323300D01*
Y287300D02*
X283236Y271800D01*
X333736D01*
X250190Y292100D02*
Y344500D01*
X219710D02*
X223900D01*
X219710Y292100D02*
Y344500D01*
X245750D02*
X250190D01*
X219710Y292100D02*
X224790D01*
X221450Y300990D02*
X224790D01*
X245110Y292100D02*
X250190D01*
X245110Y300990D02*
X248450D01*
X234950Y314452D02*
X237998Y320802D01*
X231902Y320040D02*
X234950Y314452D01*
X231902Y320040D02*
X235458D01*
X234951Y317271D02*
X235458Y320040D01*
X304384Y162415D02*
X319800D01*
X344383D02*
X358092D01*
X304321Y71840D02*
X319864D01*
X279842Y155027D02*
Y155405D01*
Y154152D02*
Y155027D01*
Y78275D02*
Y79529D01*
X358092Y71840D02*
Y162415D01*
X344319Y71840D02*
X358092D01*
X44172Y32854D02*
X59412D01*
Y16344D02*
Y32854D01*
X44172Y16344D02*
X59412D01*
X44172D02*
Y32854D01*
X12746Y2954D02*
X91816D01*
X12476Y43014D02*
Y46570D01*
X39146D01*
X65592D02*
X92262D01*
Y43014D02*
Y46570D01*
X34544Y176098D02*
X44450D01*
Y149428D02*
Y176098D01*
X12954Y102000D02*
X21844D01*
Y107080D01*
X12954D02*
X21844D01*
X12954Y102000D02*
Y107080D01*
Y114500D02*
X21844D01*
Y119580D01*
X12954D02*
X21844D01*
X12954Y114500D02*
Y119580D01*
Y127000D02*
X21844D01*
Y132080D01*
X12954D02*
X21844D01*
X12954Y127000D02*
Y132080D01*
Y139500D02*
Y144580D01*
X21844D01*
Y139500D02*
Y144580D01*
X12954Y139500D02*
X21844D01*
X5334Y70482D02*
Y174552D01*
X34544Y70482D02*
X44450D01*
Y97152D01*
X34290Y298126D02*
X44196D01*
Y271456D02*
Y298126D01*
X12700Y224028D02*
X21590D01*
Y229108D01*
X12700D02*
X21590D01*
X12700Y224028D02*
Y229108D01*
Y236528D02*
X21590D01*
Y241608D01*
X12700D02*
X21590D01*
X12700Y236528D02*
Y241608D01*
Y249028D02*
X21590D01*
Y254108D01*
X12700D02*
X21590D01*
X12700Y249028D02*
Y254108D01*
Y261528D02*
Y266608D01*
X21590D01*
Y261528D02*
Y266608D01*
X12700Y261528D02*
X21590D01*
X5080Y192510D02*
Y296580D01*
X34290Y192510D02*
X44196D01*
Y219180D01*
X29210Y351036D02*
Y366276D01*
X12700Y351036D02*
X29210D01*
X12700D02*
Y366276D01*
X29210D01*
X-690Y318632D02*
Y397702D01*
X39370Y397972D02*
X42926D01*
Y371302D02*
Y397972D01*
Y318186D02*
Y344856D01*
X39370Y318186D02*
X42926D01*
D12*
X317500Y368300D02*
G03*
X317500Y368300I-2540J0D01*
G01*
X238760Y198120D02*
X271780D01*
X238760Y160020D02*
Y198120D01*
Y160020D02*
X271780D01*
Y198120D01*
D13*
X332236Y304800D02*
G03*
X332236Y304800I-31500J0D01*
G01*
X154451Y482630D02*
X162451D01*
Y475630D02*
Y482630D01*
X132451D02*
X140451D01*
X132451Y475630D02*
Y482630D01*
X224432Y460550D02*
Y468550D01*
X217432Y460550D02*
X224432D01*
Y482550D02*
Y490550D01*
X217432D02*
X224432D01*
X293370Y359410D02*
X306070D01*
X293370D02*
Y364490D01*
Y410210D02*
X306070D01*
X293370Y405130D02*
Y410210D01*
X237744Y187960D02*
Y199390D01*
X237998D02*
X249174D01*
X127650Y352030D02*
Y360030D01*
X120650Y352030D02*
X127650D01*
Y374030D02*
Y382030D01*
X120650D02*
X127650D01*
Y317486D02*
Y325486D01*
X120650Y317486D02*
X127650D01*
Y339486D02*
Y347486D01*
X120650D02*
X127650D01*
X73216Y245300D02*
X208216D01*
X73216Y110300D02*
X208216D01*
X73216D02*
Y245300D01*
X208216Y110300D02*
Y245300D01*
X283450Y183500D02*
X291450D01*
X283450D02*
Y190500D01*
X305450Y183500D02*
X313450D01*
Y190500D01*
X340398Y455422D02*
Y489712D01*
X270618D02*
X340398D01*
X270618Y455422D02*
Y489712D01*
Y455422D02*
X340398D01*
D14*
X228092Y262890D02*
G03*
X228092Y262890I-10160J0D01*
G01*
X266192Y85344D02*
G03*
X266192Y85344I-10160J0D01*
G01*
X135890Y306070D02*
G03*
X135890Y306070I-10160J0D01*
G01*
X112693D02*
G03*
X112693Y306070I-10160J0D01*
G01*
X314706Y212344D02*
X332994D01*
X314706Y171196D02*
X332994D01*
Y197866D02*
Y212344D01*
X314706Y197866D02*
Y212344D01*
X332994Y171196D02*
Y185674D01*
X314706Y171196D02*
Y185674D01*
X325374Y211836D02*
Y230124D01*
X284226Y211836D02*
Y230124D01*
X310896Y211836D02*
X325374D01*
X310896Y230124D02*
X325374D01*
X284226Y211836D02*
X298704D01*
X284226Y230124D02*
X298704D01*
X325374Y230886D02*
Y249174D01*
X284226Y230886D02*
Y249174D01*
X310896Y230886D02*
X325374D01*
X310896Y249174D02*
X325374D01*
X284226Y230886D02*
X298704D01*
X284226Y249174D02*
X298704D01*
X247142Y360426D02*
Y411226D01*
X269494Y360426D02*
Y411226D01*
X247142Y360426D02*
X269494D01*
X247142Y411226D02*
X269494D01*
X234950Y312560D02*
X240030Y321450D01*
X229870D02*
X240030D01*
X229870D02*
X234950Y312560D01*
X229870D02*
X240030D01*
D15*
X36066Y55714D02*
G03*
X36066Y55714I-2000J0D01*
G01*
X53054Y153324D02*
G03*
X53054Y153324I-2000J0D01*
G01*
X52800Y275352D02*
G03*
X52800Y275352I-2000J0D01*
G01*
X54070Y376382D02*
G03*
X54070Y376382I-2000J0D01*
G01*
D16*
X201216Y120300D02*
G03*
X201216Y120300I-3000J0D01*
G01*
D17*
X226973Y95527D02*
X236625D01*
X226973Y76223D02*
Y95527D01*
Y76223D02*
X236625D01*
Y95527D01*
X216662Y95504D02*
X226314D01*
X216662Y76200D02*
Y95504D01*
Y76200D02*
X226314D01*
Y95504D01*
X322834Y254762D02*
X329692Y249936D01*
X322834Y254762D02*
X329438Y260096D01*
X322834Y254762D02*
X334772D01*
X323850Y193040D02*
Y194310D01*
Y189230D02*
Y190500D01*
X320040D02*
X327660D01*
X320040Y193040D02*
X327660D01*
X335280Y197866D02*
X342900D01*
X333247Y226822D02*
X344931D01*
X333247Y199898D02*
Y226822D01*
X339153Y211836D02*
X341693Y214376D01*
X336613D02*
X339153Y211836D01*
X336613Y214376D02*
X341693D01*
X333247Y199898D02*
X344931D01*
Y226822D01*
X334264Y248082D02*
X343916D01*
X334264Y228778D02*
Y248082D01*
Y228778D02*
X343916D01*
Y248082D01*
X306070Y220980D02*
X307340D01*
X302260D02*
X303530D01*
Y217170D02*
Y224790D01*
X306070Y217170D02*
Y224790D01*
Y240030D02*
X307340D01*
X302260D02*
X303530D01*
Y236220D02*
Y243840D01*
X306070Y236220D02*
Y243840D01*
X305816Y254000D02*
Y259080D01*
X303784Y254000D02*
Y259080D01*
X302514Y256540D02*
X303784D01*
X305816D02*
X307086D01*
X319550Y249682D02*
Y263398D01*
X290050Y249682D02*
Y263398D01*
X308864Y249682D02*
X319532D01*
X308864Y263398D02*
X319532D01*
X290068Y249428D02*
X300736D01*
X290068Y263398D02*
X300736D01*
X193951Y492648D02*
Y496824D01*
X122936Y456184D02*
Y496570D01*
X105918Y456184D02*
X122936D01*
X105918Y496824D02*
X193951D01*
X105918Y456184D02*
Y496824D01*
X258072Y474280D02*
X263152D01*
X258072Y476312D02*
X263152D01*
X260612D02*
Y477582D01*
Y473010D02*
Y474280D01*
X253754Y460546D02*
X267470D01*
X253754Y490046D02*
X267470D01*
X253754Y460564D02*
Y471232D01*
X267470Y460564D02*
Y471232D01*
X253500Y479360D02*
Y490028D01*
X267470Y479360D02*
Y490028D01*
X244102Y474409D02*
X249182D01*
X244102Y476441D02*
X249182D01*
X246642D02*
Y477711D01*
Y473139D02*
Y474409D01*
X239784Y460675D02*
X253500D01*
X239784Y490175D02*
X253500D01*
X239784Y460693D02*
Y471361D01*
X253500Y460693D02*
Y471361D01*
X239530Y479489D02*
Y490157D01*
X253500Y479489D02*
Y490157D01*
X164451Y492648D02*
X193951D01*
X164451Y478932D02*
Y492648D01*
Y478932D02*
X193951D01*
Y492648D01*
X164320Y478758D02*
X193820D01*
X164320Y465042D02*
Y478758D01*
Y465042D02*
X193820D01*
Y478758D01*
X178057Y455390D02*
Y460470D01*
X180089Y455390D02*
Y460470D01*
Y457930D02*
X181359D01*
X176786D02*
X178057D01*
X164322Y451072D02*
Y464788D01*
X193822Y451072D02*
Y464788D01*
X164340D02*
X175009D01*
X164340Y451072D02*
X175009D01*
X183137Y465042D02*
X193804D01*
X183137Y451072D02*
X193804D01*
X314559Y411734D02*
X344059D01*
Y425450D01*
X314559D02*
X344059D01*
X314559Y411734D02*
Y425450D01*
X295785Y346710D02*
Y351790D01*
X293753Y346710D02*
Y351790D01*
X292483Y349250D02*
X293753D01*
X295785D02*
X297055D01*
X309519Y342392D02*
Y356108D01*
X280019Y342392D02*
Y356108D01*
X298833Y342392D02*
X309501D01*
X298833Y356108D02*
X309501D01*
X280037Y342138D02*
X290705D01*
X280037Y356108D02*
X290705D01*
X266446Y277050D02*
X272446D01*
X269486Y274010D02*
Y280050D01*
X239309Y261239D02*
X268809D01*
X239309Y247523D02*
Y261239D01*
Y247523D02*
X268809D01*
Y261239D01*
X239250Y219710D02*
X268750D01*
Y233426D01*
X239250D02*
X268750D01*
X239250Y219710D02*
Y233426D01*
X252984Y237998D02*
Y243078D01*
X255016Y237998D02*
Y243078D01*
Y240538D02*
X256286D01*
X251714D02*
X252984D01*
X239250Y233680D02*
Y247396D01*
X268750Y233680D02*
Y247396D01*
X239268D02*
X249936D01*
X239268Y233680D02*
X249936D01*
X258064Y247650D02*
X268732D01*
X258064Y233680D02*
X268732D01*
X253115Y205740D02*
Y210820D01*
X255147Y205740D02*
Y210820D01*
Y208280D02*
X256417D01*
X251845D02*
X253115D01*
X239381Y201422D02*
Y215138D01*
X268881Y201422D02*
Y215138D01*
X239399D02*
X250067D01*
X239399Y201422D02*
X250067D01*
X258195Y215392D02*
X268863D01*
X258195Y201422D02*
X268863D01*
X255145Y148590D02*
Y153670D01*
X253113Y148590D02*
Y153670D01*
X251843Y151130D02*
X253113D01*
X255145D02*
X256415D01*
X268879Y144272D02*
Y157988D01*
X239379Y144272D02*
Y157988D01*
X258193Y144272D02*
X268861D01*
X258193Y157988D02*
X268861D01*
X239397Y144018D02*
X250065D01*
X239397Y157988D02*
X250065D01*
X255383Y126208D02*
Y135351D01*
X272883Y126208D02*
Y135351D01*
X266927D02*
X272883D01*
X255383Y126208D02*
X261339D01*
X266927D02*
X272882D01*
X255383Y135351D02*
X261339D01*
X273490Y116396D02*
Y126048D01*
X254186D02*
X273490D01*
X254186Y116396D02*
Y126048D01*
Y116396D02*
X273490D01*
X273558Y106934D02*
Y116586D01*
X254254D02*
X273558D01*
X254254Y106934D02*
Y116586D01*
Y106934D02*
X273558D01*
X273233Y97989D02*
Y107133D01*
X255733Y97989D02*
Y107133D01*
Y97989D02*
X261689D01*
X267277Y107133D02*
X273233D01*
X255733D02*
X261689D01*
X267277Y97989D02*
X273233D01*
X222608Y3976D02*
X224728D01*
X218787Y155D02*
X222608Y3976D01*
X218787Y-80264D02*
Y155D01*
X158787Y-80264D02*
Y-67183D01*
X154878Y3976D02*
X158787Y67D01*
Y-187D02*
Y67D01*
X153608Y3976D02*
X154458D01*
X158787Y-67183D02*
Y-187D01*
X107818Y9906D02*
X107888Y9976D01*
X127014D01*
X133014Y3976D01*
X244452D01*
X243016D02*
X244452D01*
X250452Y9976D01*
X250636D01*
X269564D01*
X269748D02*
Y24130D01*
X107818Y9976D02*
Y24130D01*
X249682Y61976D02*
X269880D01*
X107818D02*
X128016D01*
X269880Y49530D02*
Y61976D01*
X107818Y49530D02*
Y61976D01*
X284988Y46228D02*
X290068D01*
X284988Y48260D02*
X290068D01*
X287528D02*
Y49530D01*
Y44958D02*
Y46228D01*
X280670Y32494D02*
X294386D01*
X280670Y61994D02*
X294386D01*
X280670Y32512D02*
Y43180D01*
X294386Y32512D02*
Y43180D01*
X280416Y51308D02*
Y61976D01*
X294386Y51308D02*
Y61976D01*
X308356Y32494D02*
Y61994D01*
X294640D02*
X308356D01*
X294640Y32494D02*
Y61994D01*
Y32494D02*
X308356D01*
X80010Y80010D02*
X85090D01*
X80010Y77978D02*
X85090D01*
X82550Y76708D02*
Y77978D01*
Y80010D02*
Y81280D01*
X75692Y93744D02*
X89408D01*
X75692Y64244D02*
X89408D01*
Y83058D02*
Y93726D01*
X75692Y83058D02*
Y93726D01*
X89662Y64262D02*
Y74930D01*
X75692Y64262D02*
Y74930D01*
X66802Y80010D02*
X71882D01*
X66802Y77978D02*
X71882D01*
X69342Y76708D02*
Y77978D01*
Y80010D02*
Y81280D01*
X62484Y93744D02*
X76200D01*
X62484Y64244D02*
X76200D01*
Y83058D02*
Y93726D01*
X62484Y83058D02*
Y93726D01*
X76454Y64262D02*
Y74930D01*
X62484Y64262D02*
Y74930D01*
X105918Y64244D02*
Y93744D01*
X92202D02*
X105918D01*
X92202Y64244D02*
Y93744D01*
Y64244D02*
X105918D01*
X110490Y80010D02*
X115570D01*
X110490Y77978D02*
X115570D01*
X113030Y76708D02*
Y77978D01*
Y80010D02*
Y81280D01*
X106172Y93744D02*
X119888D01*
X106172Y64244D02*
X119888D01*
Y83058D02*
Y93726D01*
X106172Y83058D02*
Y93726D01*
X120142Y64262D02*
Y74930D01*
X106172Y64262D02*
Y74930D01*
X160659Y426461D02*
Y455961D01*
X146943D02*
X160659D01*
X146943Y426461D02*
Y455961D01*
Y426461D02*
X160659D01*
X132973D02*
Y455961D01*
Y426461D02*
X146689D01*
Y455961D01*
X132973D02*
X146689D01*
X160740Y375198D02*
Y384342D01*
X143240Y375198D02*
Y384342D01*
Y375198D02*
X149196D01*
X154784Y384342D02*
X160740D01*
X143240D02*
X149196D01*
X154784Y375198D02*
X160740D01*
X160723Y386133D02*
Y395277D01*
X143223Y386133D02*
Y395277D01*
Y386133D02*
X149179D01*
X154767Y395277D02*
X160722D01*
X143223D02*
X149179D01*
X154767Y386133D02*
X160722D01*
X160740Y364198D02*
Y373342D01*
X143240Y364198D02*
Y373342D01*
Y364198D02*
X149196D01*
X154784Y373342D02*
X160740D01*
X143240D02*
X149196D01*
X154784Y364198D02*
X160740D01*
X152523Y355346D02*
Y360426D01*
X150491Y355346D02*
Y360426D01*
X149221Y357886D02*
X150491D01*
X152523D02*
X153793D01*
X166257Y351028D02*
Y364744D01*
X136757Y351028D02*
Y364744D01*
X155571Y351028D02*
X166239D01*
X155571Y364744D02*
X166239D01*
X136775Y350774D02*
X147443D01*
X136775Y364744D02*
X147443D01*
X160740Y342198D02*
Y351342D01*
X143240Y342198D02*
Y351342D01*
Y342198D02*
X149196D01*
X154784Y351342D02*
X160740D01*
X143240D02*
X149196D01*
X154784Y342198D02*
X160740D01*
X160740Y320198D02*
Y329342D01*
X143240Y320198D02*
Y329342D01*
Y320198D02*
X149196D01*
X154784Y329342D02*
X160740D01*
X143240D02*
X149196D01*
X154784Y320198D02*
X160740D01*
X160570Y309118D02*
Y318262D01*
X143070Y309118D02*
Y318262D01*
Y309118D02*
X149026D01*
X154614Y318262D02*
X160570D01*
X143070D02*
X149026D01*
X154614Y309118D02*
X160570D01*
X127000Y265158D02*
Y294658D01*
X113284D02*
X127000D01*
X113284Y265158D02*
Y294658D01*
Y265158D02*
X127000D01*
X112268Y264904D02*
Y294404D01*
X98552D02*
X112268D01*
X98552Y264904D02*
Y294404D01*
Y264904D02*
X112268D01*
X88900Y278515D02*
X93980D01*
X88900Y280547D02*
X93980D01*
X91440D02*
Y281817D01*
Y277245D02*
Y278515D01*
X84582Y264781D02*
X98298D01*
X84582Y294281D02*
X98298D01*
X84582Y264799D02*
Y275467D01*
X98298Y264799D02*
Y275467D01*
X84328Y283595D02*
Y294263D01*
X98298Y283595D02*
Y294263D01*
X74930Y278515D02*
X80010D01*
X74930Y280547D02*
X80010D01*
X77470D02*
Y281817D01*
Y277245D02*
Y278515D01*
X70612Y264781D02*
X84328D01*
X70612Y294281D02*
X84328D01*
X70612Y264799D02*
Y275467D01*
X84328Y264799D02*
Y275467D01*
X70358Y283595D02*
Y294263D01*
X84328Y283595D02*
Y294263D01*
X60960Y278384D02*
X66040D01*
X60960Y280416D02*
X66040D01*
X63500D02*
Y281686D01*
Y277114D02*
Y278384D01*
X56642Y264650D02*
X70358D01*
X56642Y294150D02*
X70358D01*
X56642Y264668D02*
Y275336D01*
X70358Y264668D02*
Y275336D01*
X56388Y283464D02*
Y294132D01*
X70358Y283464D02*
Y294132D01*
X68941Y317754D02*
X98441D01*
Y331470D01*
X68941D02*
X98441D01*
X68941Y317754D02*
Y331470D01*
X68939Y347980D02*
X98439D01*
X68939Y334264D02*
Y347980D01*
Y334264D02*
X98439D01*
Y347980D01*
X82675Y360680D02*
Y365760D01*
X84707Y360680D02*
Y365760D01*
Y363220D02*
X85977D01*
X81405D02*
X82675D01*
X68941Y356362D02*
Y370078D01*
X98441Y356362D02*
Y370078D01*
X68959D02*
X79627D01*
X68959Y356362D02*
X79627D01*
X87755Y370332D02*
X98423D01*
X87755Y356362D02*
X98423D01*
X68941Y384048D02*
X98441D01*
X68941Y370332D02*
Y384048D01*
Y370332D02*
X98441D01*
Y384048D01*
X68941Y398018D02*
X98441D01*
X68941Y384302D02*
Y398018D01*
Y384302D02*
X98441D01*
Y398018D01*
D18*
X210769Y76833D02*
X204421D01*
Y80007D01*
X205479Y81065D01*
X207595D01*
X208653Y80007D01*
Y76833D01*
Y78949D02*
X210769Y81065D01*
Y83181D02*
Y85297D01*
Y84239D01*
X204421D01*
X205479Y83181D01*
X204421Y88471D02*
Y92703D01*
X205479D01*
X209711Y88471D01*
X210769D01*
X201117Y76821D02*
X194769D01*
Y79995D01*
X195827Y81053D01*
X197943D01*
X199001Y79995D01*
Y76821D01*
Y78937D02*
X201117Y81053D01*
Y83169D02*
Y85285D01*
Y84227D01*
X194769D01*
X195827Y83169D01*
X194769Y92691D02*
Y88459D01*
X197943D01*
X196885Y90575D01*
Y91633D01*
X197943Y92691D01*
X200059D01*
X201117Y91633D01*
Y89517D01*
X200059Y88459D01*
X256712Y72262D02*
X260944D01*
X258828D01*
Y65914D01*
X263060D02*
Y72262D01*
X266234D01*
X267292Y71204D01*
Y69088D01*
X266234Y68030D01*
X263060D01*
X269408Y66972D02*
X270466Y65914D01*
X272582D01*
X273640Y66972D01*
Y71204D01*
X272582Y72262D01*
X270466D01*
X269408Y71204D01*
Y70146D01*
X270466Y69088D01*
X273640D01*
X283930Y173906D02*
Y178138D01*
X282872Y179196D01*
X280756D01*
X279698Y178138D01*
Y173906D01*
X280756Y172848D01*
X282872D01*
X281814Y174964D02*
X283930Y172848D01*
X282872D02*
X283930Y173906D01*
X286046Y179196D02*
X290278D01*
Y178138D01*
X286046Y173906D01*
Y172848D01*
X235594Y105015D02*
X234536Y106073D01*
X232420D01*
X231362Y105015D01*
Y100783D01*
X232420Y99725D01*
X234536D01*
X235594Y100783D01*
X241942Y106073D02*
X239826Y105015D01*
X237710Y102899D01*
Y100783D01*
X238768Y99725D01*
X240884D01*
X241942Y100783D01*
Y101841D01*
X240884Y102899D01*
X237710D01*
X244058Y105015D02*
X245116Y106073D01*
X247232D01*
X248290Y105015D01*
Y100783D01*
X247232Y99725D01*
X245116D01*
X244058Y100783D01*
Y105015D01*
X235594Y133209D02*
X234536Y134267D01*
X232420D01*
X231362Y133209D01*
Y128977D01*
X232420Y127919D01*
X234536D01*
X235594Y128977D01*
X241942Y134267D02*
X237710D01*
Y131093D01*
X239826Y132151D01*
X240884D01*
X241942Y131093D01*
Y128977D01*
X240884Y127919D01*
X238768D01*
X237710Y128977D01*
X244058D02*
X245116Y127919D01*
X247232D01*
X248290Y128977D01*
Y133209D01*
X247232Y134267D01*
X245116D01*
X244058Y133209D01*
Y132151D01*
X245116Y131093D01*
X248290D01*
X329312Y498220D02*
X327196D01*
X328254D01*
Y492930D01*
X327196Y491872D01*
X326138D01*
X325080Y492930D01*
X331428Y491872D02*
Y498220D01*
X334602D01*
X335660Y497162D01*
Y495046D01*
X334602Y493988D01*
X331428D01*
X337776Y491872D02*
X339892D01*
X338834D01*
Y498220D01*
X337776Y497162D01*
X252774Y342772D02*
Y336424D01*
X255948D01*
X257006Y337482D01*
Y341714D01*
X255948Y342772D01*
X252774D01*
X263354D02*
X259122D01*
Y339598D01*
X261238Y340656D01*
X262296D01*
X263354Y339598D01*
Y337482D01*
X262296Y336424D01*
X260180D01*
X259122Y337482D01*
X162986Y439040D02*
Y445388D01*
X166160D01*
X167218Y444330D01*
Y442214D01*
X166160Y441156D01*
X162986D01*
X165102D02*
X167218Y439040D01*
X169334Y444330D02*
X170392Y445388D01*
X172508D01*
X173566Y444330D01*
Y443272D01*
X172508Y442214D01*
X171450D01*
X172508D01*
X173566Y441156D01*
Y440098D01*
X172508Y439040D01*
X170392D01*
X169334Y440098D01*
X175682D02*
X176740Y439040D01*
X178856D01*
X179914Y440098D01*
Y444330D01*
X178856Y445388D01*
X176740D01*
X175682Y444330D01*
Y443272D01*
X176740Y442214D01*
X179914D01*
X113710Y436246D02*
Y442594D01*
X116884D01*
X117942Y441536D01*
Y439420D01*
X116884Y438362D01*
X113710D01*
X115826D02*
X117942Y436246D01*
X120058Y441536D02*
X121116Y442594D01*
X123232D01*
X124290Y441536D01*
Y440478D01*
X123232Y439420D01*
X122174D01*
X123232D01*
X124290Y438362D01*
Y437304D01*
X123232Y436246D01*
X121116D01*
X120058Y437304D01*
X126406Y441536D02*
X127464Y442594D01*
X129580D01*
X130638Y441536D01*
Y440478D01*
X129580Y439420D01*
X130638Y438362D01*
Y437304D01*
X129580Y436246D01*
X127464D01*
X126406Y437304D01*
Y438362D01*
X127464Y439420D01*
X126406Y440478D01*
Y441536D01*
X127464Y439420D02*
X129580D01*
X135848Y486580D02*
Y490812D01*
X134790Y491870D01*
X132674D01*
X131616Y490812D01*
Y486580D01*
X132674Y485522D01*
X134790D01*
X133732Y487638D02*
X135848Y485522D01*
X134790D02*
X135848Y486580D01*
X142196Y491870D02*
X140080Y490812D01*
X137964Y488696D01*
Y486580D01*
X139022Y485522D01*
X141138D01*
X142196Y486580D01*
Y487638D01*
X141138Y488696D01*
X137964D01*
X210270Y452544D02*
Y456776D01*
X209212Y457834D01*
X207096D01*
X206038Y456776D01*
Y452544D01*
X207096Y451486D01*
X209212D01*
X208154Y453602D02*
X210270Y451486D01*
X209212D02*
X210270Y452544D01*
X216618Y457834D02*
X212386D01*
Y454660D01*
X214502Y455718D01*
X215560D01*
X216618Y454660D01*
Y452544D01*
X215560Y451486D01*
X213444D01*
X212386Y452544D01*
X259504Y444332D02*
X258446Y443274D01*
Y441158D01*
X259504Y440100D01*
X263736D01*
X264794Y441158D01*
Y443274D01*
X263736Y444332D01*
X258446Y450680D02*
Y446448D01*
X261620D01*
X260562Y448564D01*
Y449622D01*
X261620Y450680D01*
X263736D01*
X264794Y449622D01*
Y447506D01*
X263736Y446448D01*
X259504Y452796D02*
X258446Y453854D01*
Y455970D01*
X259504Y457028D01*
X260562D01*
X261620Y455970D01*
X262678Y457028D01*
X263736D01*
X264794Y455970D01*
Y453854D01*
X263736Y452796D01*
X262678D01*
X261620Y453854D01*
X260562Y452796D01*
X259504D01*
X261620Y453854D02*
Y455970D01*
X244518Y444078D02*
X243460Y443020D01*
Y440904D01*
X244518Y439846D01*
X248750D01*
X249808Y440904D01*
Y443020D01*
X248750Y444078D01*
X243460Y450426D02*
Y446194D01*
X246634D01*
X245576Y448310D01*
Y449368D01*
X246634Y450426D01*
X248750D01*
X249808Y449368D01*
Y447252D01*
X248750Y446194D01*
X243460Y452542D02*
Y456774D01*
X244518D01*
X248750Y452542D01*
X249808D01*
X228178Y185546D02*
X232410Y179198D01*
Y185546D02*
X228178Y179198D01*
X234526D02*
X236642D01*
X235584D01*
Y185546D01*
X234526Y184488D01*
X340234Y37046D02*
X345524D01*
X346582Y38104D01*
Y40220D01*
X345524Y41278D01*
X340234D01*
X341292Y47626D02*
X340234Y46568D01*
Y44452D01*
X341292Y43394D01*
X342350D01*
X343408Y44452D01*
Y46568D01*
X344466Y47626D01*
X345524D01*
X346582Y46568D01*
Y44452D01*
X345524Y43394D01*
X340234Y49742D02*
X346582D01*
Y52916D01*
X345524Y53974D01*
X344466D01*
X343408Y52916D01*
Y49742D01*
Y52916D01*
X342350Y53974D01*
X341292D01*
X340234Y52916D01*
Y49742D01*
X341292Y60322D02*
X340234Y59264D01*
Y57148D01*
X341292Y56090D01*
X345524D01*
X346582Y57148D01*
Y59264D01*
X345524Y60322D01*
X346582Y62438D02*
Y64554D01*
Y63496D01*
X340234D01*
X341292Y62438D01*
X268268Y7492D02*
Y2202D01*
X269326Y1144D01*
X271442D01*
X272500Y2202D01*
Y7492D01*
X274616D02*
X278848D01*
Y6434D01*
X274616Y2202D01*
Y1144D01*
X326688Y356488D02*
Y351198D01*
X327746Y350140D01*
X329862D01*
X330920Y351198D01*
Y356488D01*
X336210Y350140D02*
Y356488D01*
X333036Y353314D01*
X337268D01*
X135382Y181100D02*
Y175810D01*
X136440Y174752D01*
X138556D01*
X139614Y175810D01*
Y181100D01*
X145962Y174752D02*
X141730D01*
X145962Y178984D01*
Y180042D01*
X144904Y181100D01*
X142788D01*
X141730Y180042D01*
X137840Y300608D02*
X142072D01*
X139956D01*
Y294260D01*
X144188D02*
Y300608D01*
X147362D01*
X148420Y299550D01*
Y297434D01*
X147362Y296376D01*
X144188D01*
X150536Y299550D02*
X151594Y300608D01*
X153710D01*
X154768Y299550D01*
Y298492D01*
X153710Y297434D01*
X152652D01*
X153710D01*
X154768Y296376D01*
Y295318D01*
X153710Y294260D01*
X151594D01*
X150536Y295318D01*
X71546Y309244D02*
X75778D01*
X73662D01*
Y302896D01*
X77894D02*
Y309244D01*
X81068D01*
X82126Y308186D01*
Y306070D01*
X81068Y305012D01*
X77894D01*
X88474Y302896D02*
X84242D01*
X88474Y307128D01*
Y308186D01*
X87416Y309244D01*
X85300D01*
X84242Y308186D01*
X197572Y280034D02*
X201804D01*
X199688D01*
Y273686D01*
X203920D02*
Y280034D01*
X207094D01*
X208152Y278976D01*
Y276860D01*
X207094Y275802D01*
X203920D01*
X210268Y273686D02*
X212384D01*
X211326D01*
Y280034D01*
X210268Y278976D01*
X279018Y217088D02*
X272670D01*
Y220262D01*
X273728Y221320D01*
X275844D01*
X276902Y220262D01*
Y217088D01*
Y219204D02*
X279018Y221320D01*
X273728Y223436D02*
X272670Y224494D01*
Y226610D01*
X273728Y227668D01*
X274786D01*
X275844Y226610D01*
Y225552D01*
Y226610D01*
X276902Y227668D01*
X277960D01*
X279018Y226610D01*
Y224494D01*
X277960Y223436D01*
X272670Y229784D02*
Y234016D01*
X273728D01*
X277960Y229784D01*
X279018D01*
X148462Y76118D02*
X142114D01*
Y79292D01*
X143172Y80350D01*
X145288D01*
X146346Y79292D01*
Y76118D01*
Y78234D02*
X148462Y80350D01*
X143172Y82466D02*
X142114Y83524D01*
Y85640D01*
X143172Y86698D01*
X144230D01*
X145288Y85640D01*
Y84582D01*
Y85640D01*
X146346Y86698D01*
X147404D01*
X148462Y85640D01*
Y83524D01*
X147404Y82466D01*
X142114Y93046D02*
Y88814D01*
X145288D01*
X144230Y90930D01*
Y91988D01*
X145288Y93046D01*
X147404D01*
X148462Y91988D01*
Y89872D01*
X147404Y88814D01*
X172084Y268671D02*
X165736D01*
Y271845D01*
X166794Y272903D01*
X168910D01*
X169968Y271845D01*
Y268671D01*
Y270787D02*
X172084Y272903D01*
X166794Y275019D02*
X165736Y276077D01*
Y278193D01*
X166794Y279251D01*
X167852D01*
X168910Y278193D01*
Y277135D01*
Y278193D01*
X169968Y279251D01*
X171026D01*
X172084Y278193D01*
Y276077D01*
X171026Y275019D01*
X172084Y284541D02*
X165736D01*
X168910Y281367D01*
Y285599D01*
X162686Y268671D02*
X156338D01*
Y271845D01*
X157396Y272903D01*
X159512D01*
X160570Y271845D01*
Y268671D01*
Y270787D02*
X162686Y272903D01*
X157396Y275019D02*
X156338Y276077D01*
Y278193D01*
X157396Y279251D01*
X158454D01*
X159512Y278193D01*
Y277135D01*
Y278193D01*
X160570Y279251D01*
X161628D01*
X162686Y278193D01*
Y276077D01*
X161628Y275019D01*
X157396Y281367D02*
X156338Y282425D01*
Y284541D01*
X157396Y285599D01*
X158454D01*
X159512Y284541D01*
Y283483D01*
Y284541D01*
X160570Y285599D01*
X161628D01*
X162686Y284541D01*
Y282425D01*
X161628Y281367D01*
X48686Y321184D02*
Y327532D01*
X51860D01*
X52918Y326474D01*
Y324358D01*
X51860Y323300D01*
X48686D01*
X50802D02*
X52918Y321184D01*
X59266D02*
X55034D01*
X59266Y325416D01*
Y326474D01*
X58208Y327532D01*
X56092D01*
X55034Y326474D01*
X65614Y327532D02*
X63498Y326474D01*
X61382Y324358D01*
Y322242D01*
X62440Y321184D01*
X64556D01*
X65614Y322242D01*
Y323300D01*
X64556Y324358D01*
X61382D01*
X48897Y336042D02*
Y342390D01*
X52071D01*
X53129Y341332D01*
Y339216D01*
X52071Y338158D01*
X48897D01*
X51013D02*
X53129Y336042D01*
X59477D02*
X55245D01*
X59477Y340274D01*
Y341332D01*
X58419Y342390D01*
X56303D01*
X55245Y341332D01*
X64767Y336042D02*
Y342390D01*
X61593Y339216D01*
X65825D01*
X75356Y416434D02*
Y422782D01*
X78530D01*
X79588Y421724D01*
Y419608D01*
X78530Y418550D01*
X75356D01*
X77472D02*
X79588Y416434D01*
X85936D02*
X81704D01*
X85936Y420666D01*
Y421724D01*
X84878Y422782D01*
X82762D01*
X81704Y421724D01*
X92284Y416434D02*
X88052D01*
X92284Y420666D01*
Y421724D01*
X91226Y422782D01*
X89110D01*
X88052Y421724D01*
X75356Y408560D02*
Y414908D01*
X78530D01*
X79588Y413850D01*
Y411734D01*
X78530Y410676D01*
X75356D01*
X77472D02*
X79588Y408560D01*
X85936D02*
X81704D01*
X85936Y412792D01*
Y413850D01*
X84878Y414908D01*
X82762D01*
X81704Y413850D01*
X88052D02*
X89110Y414908D01*
X91226D01*
X92284Y413850D01*
Y409618D01*
X91226Y408560D01*
X89110D01*
X88052Y409618D01*
Y413850D01*
X278002Y248097D02*
X271654D01*
Y251271D01*
X272712Y252329D01*
X274828D01*
X275886Y251271D01*
Y248097D01*
Y250213D02*
X278002Y252329D01*
Y254445D02*
Y256561D01*
Y255503D01*
X271654D01*
X272712Y254445D01*
Y259735D02*
X271654Y260793D01*
Y262909D01*
X272712Y263967D01*
X276944D01*
X278002Y262909D01*
Y260793D01*
X276944Y259735D01*
X272712D01*
X301796Y415418D02*
Y421766D01*
X304970D01*
X306028Y420708D01*
Y418592D01*
X304970Y417534D01*
X301796D01*
X303912D02*
X306028Y415418D01*
X308144Y416476D02*
X309202Y415418D01*
X311318D01*
X312376Y416476D01*
Y420708D01*
X311318Y421766D01*
X309202D01*
X308144Y420708D01*
Y419650D01*
X309202Y418592D01*
X312376D01*
X109089Y486522D02*
Y492870D01*
X112263D01*
X113321Y491812D01*
Y489696D01*
X112263Y488638D01*
X109089D01*
X111205D02*
X113321Y486522D01*
X115437Y491812D02*
X116495Y492870D01*
X118611D01*
X119669Y491812D01*
Y490754D01*
X118611Y489696D01*
X119669Y488638D01*
Y487580D01*
X118611Y486522D01*
X116495D01*
X115437Y487580D01*
Y488638D01*
X116495Y489696D01*
X115437Y490754D01*
Y491812D01*
X116495Y489696D02*
X118611D01*
X254298Y413640D02*
Y419988D01*
X257472D01*
X258530Y418930D01*
Y416814D01*
X257472Y415756D01*
X254298D01*
X256414D02*
X258530Y413640D01*
X260646Y419988D02*
X264878D01*
Y418930D01*
X260646Y414698D01*
Y413640D01*
X333120Y233978D02*
X326772D01*
Y237152D01*
X327830Y238210D01*
X329946D01*
X331004Y237152D01*
Y233978D01*
Y236094D02*
X333120Y238210D01*
X326772Y244558D02*
X327830Y242442D01*
X329946Y240326D01*
X332062D01*
X333120Y241384D01*
Y243500D01*
X332062Y244558D01*
X331004D01*
X329946Y243500D01*
Y240326D01*
X326516Y45764D02*
X320168D01*
Y48938D01*
X321226Y49996D01*
X323342D01*
X324400Y48938D01*
Y45764D01*
Y47880D02*
X326516Y49996D01*
X320168Y56344D02*
Y52112D01*
X323342D01*
X322284Y54228D01*
Y55286D01*
X323342Y56344D01*
X325458D01*
X326516Y55286D01*
Y53170D01*
X325458Y52112D01*
X108835Y472552D02*
Y478900D01*
X112009D01*
X113067Y477842D01*
Y475726D01*
X112009Y474668D01*
X108835D01*
X110951D02*
X113067Y472552D01*
X118357D02*
Y478900D01*
X115183Y475726D01*
X119415D01*
X231362Y109123D02*
Y115471D01*
X234536D01*
X235594Y114413D01*
Y112297D01*
X234536Y111239D01*
X231362D01*
X233478D02*
X235594Y109123D01*
X241942D02*
X237710D01*
X241942Y113355D01*
Y114413D01*
X240884Y115471D01*
X238768D01*
X237710Y114413D01*
X231362Y118521D02*
Y124869D01*
X234536D01*
X235594Y123811D01*
Y121695D01*
X234536Y120637D01*
X231362D01*
X233478D02*
X235594Y118521D01*
X237710D02*
X239826D01*
X238768D01*
Y124869D01*
X237710Y123811D01*
X134070Y341038D02*
Y345270D01*
X133012Y346328D01*
X130896D01*
X129838Y345270D01*
Y341038D01*
X130896Y339980D01*
X133012D01*
X131954Y342096D02*
X134070Y339980D01*
X133012D02*
X134070Y341038D01*
X136186Y345270D02*
X137244Y346328D01*
X139360D01*
X140418Y345270D01*
Y344212D01*
X139360Y343154D01*
X138302D01*
X139360D01*
X140418Y342096D01*
Y341038D01*
X139360Y339980D01*
X137244D01*
X136186Y341038D01*
X134874Y375836D02*
Y380068D01*
X133816Y381126D01*
X131700D01*
X130642Y380068D01*
Y375836D01*
X131700Y374778D01*
X133816D01*
X132758Y376894D02*
X134874Y374778D01*
X133816D02*
X134874Y375836D01*
X136990Y374778D02*
X139106D01*
X138048D01*
Y381126D01*
X136990Y380068D01*
X336424Y172808D02*
X342772D01*
Y177040D01*
X336424Y183388D02*
Y179156D01*
X342772D01*
Y183388D01*
X339598Y179156D02*
Y181272D01*
X336424Y185504D02*
X342772D01*
Y188678D01*
X341714Y189736D01*
X337482D01*
X336424Y188678D01*
Y185504D01*
X342772Y191852D02*
Y193968D01*
Y192910D01*
X336424D01*
X337482Y191852D01*
X225088Y444880D02*
Y438532D01*
X229320D01*
X235668D02*
X231436D01*
X235668Y442764D01*
Y443822D01*
X234610Y444880D01*
X232494D01*
X231436Y443822D01*
X40726Y309752D02*
X38610D01*
X39668D01*
Y304462D01*
X38610Y303404D01*
X37552D01*
X36494Y304462D01*
X42842Y303404D02*
Y309752D01*
X46016D01*
X47074Y308694D01*
Y306578D01*
X46016Y305520D01*
X42842D01*
X53422Y309752D02*
X51306Y308694D01*
X49190Y306578D01*
Y304462D01*
X50248Y303404D01*
X52364D01*
X53422Y304462D01*
Y305520D01*
X52364Y306578D01*
X49190D01*
X39202Y187324D02*
X37086D01*
X38144D01*
Y182034D01*
X37086Y180976D01*
X36028D01*
X34970Y182034D01*
X41318Y180976D02*
Y187324D01*
X44492D01*
X45550Y186266D01*
Y184150D01*
X44492Y183092D01*
X41318D01*
X51898Y187324D02*
X47666D01*
Y184150D01*
X49782Y185208D01*
X50840D01*
X51898Y184150D01*
Y182034D01*
X50840Y180976D01*
X48724D01*
X47666Y182034D01*
X43266Y409828D02*
X41150D01*
X42208D01*
Y404538D01*
X41150Y403480D01*
X40092D01*
X39034Y404538D01*
X45382Y403480D02*
Y409828D01*
X48556D01*
X49614Y408770D01*
Y406654D01*
X48556Y405596D01*
X45382D01*
X54904Y403480D02*
Y409828D01*
X51730Y406654D01*
X55962D01*
X7960Y58292D02*
X5844D01*
X6902D01*
Y53002D01*
X5844Y51944D01*
X4786D01*
X3728Y53002D01*
X10076Y51944D02*
Y58292D01*
X13250D01*
X14308Y57234D01*
Y55118D01*
X13250Y54060D01*
X10076D01*
X16424Y57234D02*
X17482Y58292D01*
X19598D01*
X20656Y57234D01*
Y56176D01*
X19598Y55118D01*
X18540D01*
X19598D01*
X20656Y54060D01*
Y53002D01*
X19598Y51944D01*
X17482D01*
X16424Y53002D01*
X341080Y323468D02*
X336848D01*
Y317120D01*
X341080D01*
X336848Y320294D02*
X338964D01*
X347428Y317120D02*
X343196D01*
X347428Y321352D01*
Y322410D01*
X346370Y323468D01*
X344254D01*
X343196Y322410D01*
X231056Y236560D02*
X229998Y235502D01*
Y233386D01*
X231056Y232328D01*
X235288D01*
X236346Y233386D01*
Y235502D01*
X235288Y236560D01*
X229998Y242908D02*
Y238676D01*
X233172D01*
X232114Y240792D01*
Y241850D01*
X233172Y242908D01*
X235288D01*
X236346Y241850D01*
Y239734D01*
X235288Y238676D01*
X229998Y249256D02*
X231056Y247140D01*
X233172Y245024D01*
X235288D01*
X236346Y246082D01*
Y248198D01*
X235288Y249256D01*
X234230D01*
X233172Y248198D01*
Y245024D01*
X167710Y349146D02*
X166652Y350204D01*
X164536D01*
X163478Y349146D01*
Y344914D01*
X164536Y343856D01*
X166652D01*
X167710Y344914D01*
X174058Y350204D02*
X169826D01*
Y347030D01*
X171942Y348088D01*
X173000D01*
X174058Y347030D01*
Y344914D01*
X173000Y343856D01*
X170884D01*
X169826Y344914D01*
X179348Y343856D02*
Y350204D01*
X176174Y347030D01*
X180406D01*
X152570Y80350D02*
X151512Y79292D01*
Y77176D01*
X152570Y76118D01*
X156802D01*
X157860Y77176D01*
Y79292D01*
X156802Y80350D01*
X151512Y86698D02*
Y82466D01*
X154686D01*
X153628Y84582D01*
Y85640D01*
X154686Y86698D01*
X156802D01*
X157860Y85640D01*
Y83524D01*
X156802Y82466D01*
X152570Y88814D02*
X151512Y89872D01*
Y91988D01*
X152570Y93046D01*
X153628D01*
X154686Y91988D01*
Y90930D01*
Y91988D01*
X155744Y93046D01*
X156802D01*
X157860Y91988D01*
Y89872D01*
X156802Y88814D01*
X127578Y401744D02*
X126520Y402802D01*
X124404D01*
X123346Y401744D01*
Y397512D01*
X124404Y396454D01*
X126520D01*
X127578Y397512D01*
X133926Y402802D02*
X129694D01*
Y399628D01*
X131810Y400686D01*
X132868D01*
X133926Y399628D01*
Y397512D01*
X132868Y396454D01*
X130752D01*
X129694Y397512D01*
X140274Y396454D02*
X136042D01*
X140274Y400686D01*
Y401744D01*
X139216Y402802D01*
X137100D01*
X136042Y401744D01*
X127578Y412920D02*
X126520Y413978D01*
X124404D01*
X123346Y412920D01*
Y408688D01*
X124404Y407630D01*
X126520D01*
X127578Y408688D01*
X133926Y413978D02*
X129694D01*
Y410804D01*
X131810Y411862D01*
X132868D01*
X133926Y410804D01*
Y408688D01*
X132868Y407630D01*
X130752D01*
X129694Y408688D01*
X136042Y407630D02*
X138158D01*
X137100D01*
Y413978D01*
X136042Y412920D01*
X127578Y423842D02*
X126520Y424900D01*
X124404D01*
X123346Y423842D01*
Y419610D01*
X124404Y418552D01*
X126520D01*
X127578Y419610D01*
X133926Y424900D02*
X129694D01*
Y421726D01*
X131810Y422784D01*
X132868D01*
X133926Y421726D01*
Y419610D01*
X132868Y418552D01*
X130752D01*
X129694Y419610D01*
X136042Y423842D02*
X137100Y424900D01*
X139216D01*
X140274Y423842D01*
Y419610D01*
X139216Y418552D01*
X137100D01*
X136042Y419610D01*
Y423842D01*
X167456Y316126D02*
X166398Y317184D01*
X164282D01*
X163224Y316126D01*
Y311894D01*
X164282Y310836D01*
X166398D01*
X167456Y311894D01*
X172746Y310836D02*
Y317184D01*
X169572Y314010D01*
X173804D01*
X175920Y311894D02*
X176978Y310836D01*
X179094D01*
X180152Y311894D01*
Y316126D01*
X179094Y317184D01*
X176978D01*
X175920Y316126D01*
Y315068D01*
X176978Y314010D01*
X180152D01*
X167710Y327048D02*
X166652Y328106D01*
X164536D01*
X163478Y327048D01*
Y322816D01*
X164536Y321758D01*
X166652D01*
X167710Y322816D01*
X173000Y321758D02*
Y328106D01*
X169826Y324932D01*
X174058D01*
X176174Y327048D02*
X177232Y328106D01*
X179348D01*
X180406Y327048D01*
Y325990D01*
X179348Y324932D01*
X180406Y323874D01*
Y322816D01*
X179348Y321758D01*
X177232D01*
X176174Y322816D01*
Y323874D01*
X177232Y324932D01*
X176174Y325990D01*
Y327048D01*
X177232Y324932D02*
X179348D01*
X79545Y405308D02*
X78487Y406366D01*
X76371D01*
X75313Y405308D01*
Y401076D01*
X76371Y400018D01*
X78487D01*
X79545Y401076D01*
X84835Y400018D02*
Y406366D01*
X81661Y403192D01*
X85893D01*
X91183Y400018D02*
Y406366D01*
X88009Y403192D01*
X92241D01*
X127578Y390822D02*
X126520Y391880D01*
X124404D01*
X123346Y390822D01*
Y386590D01*
X124404Y385532D01*
X126520D01*
X127578Y386590D01*
X132868Y385532D02*
Y391880D01*
X129694Y388706D01*
X133926D01*
X140274Y385532D02*
X136042D01*
X140274Y389764D01*
Y390822D01*
X139216Y391880D01*
X137100D01*
X136042Y390822D01*
X230548Y206080D02*
X229490Y205022D01*
Y202906D01*
X230548Y201848D01*
X234780D01*
X235838Y202906D01*
Y205022D01*
X234780Y206080D01*
X235838Y212428D02*
Y208196D01*
X231606Y212428D01*
X230548D01*
X229490Y211370D01*
Y209254D01*
X230548Y208196D01*
X229490Y218776D02*
Y214544D01*
X232664D01*
X231606Y216660D01*
Y217718D01*
X232664Y218776D01*
X234780D01*
X235838Y217718D01*
Y215602D01*
X234780Y214544D01*
X231056Y144358D02*
X229998Y143300D01*
Y141184D01*
X231056Y140126D01*
X235288D01*
X236346Y141184D01*
Y143300D01*
X235288Y144358D01*
X236346Y150706D02*
Y146474D01*
X232114Y150706D01*
X231056D01*
X229998Y149648D01*
Y147532D01*
X231056Y146474D01*
X236346Y155996D02*
X229998D01*
X233172Y152822D01*
Y157054D01*
X140600Y272903D02*
X139542Y271845D01*
Y269729D01*
X140600Y268671D01*
X144832D01*
X145890Y269729D01*
Y271845D01*
X144832Y272903D01*
X145890Y279251D02*
Y275019D01*
X141658Y279251D01*
X140600D01*
X139542Y278193D01*
Y276077D01*
X140600Y275019D01*
X145890Y281367D02*
Y283483D01*
Y282425D01*
X139542D01*
X140600Y281367D01*
X124376Y80350D02*
X123318Y79292D01*
Y77176D01*
X124376Y76118D01*
X128608D01*
X129666Y77176D01*
Y79292D01*
X128608Y80350D01*
X129666Y86698D02*
Y82466D01*
X125434Y86698D01*
X124376D01*
X123318Y85640D01*
Y83524D01*
X124376Y82466D01*
Y88814D02*
X123318Y89872D01*
Y91988D01*
X124376Y93046D01*
X128608D01*
X129666Y91988D01*
Y89872D01*
X128608Y88814D01*
X124376D01*
X132218Y272903D02*
X131160Y271845D01*
Y269729D01*
X132218Y268671D01*
X136450D01*
X137508Y269729D01*
Y271845D01*
X136450Y272903D01*
X137508Y275019D02*
Y277135D01*
Y276077D01*
X131160D01*
X132218Y275019D01*
X131160Y280309D02*
Y284541D01*
X132218D01*
X136450Y280309D01*
X137508D01*
X133774Y80350D02*
X132716Y79292D01*
Y77176D01*
X133774Y76118D01*
X138006D01*
X139064Y77176D01*
Y79292D01*
X138006Y80350D01*
X139064Y82466D02*
Y84582D01*
Y83524D01*
X132716D01*
X133774Y82466D01*
X139064Y90930D02*
X132716D01*
X135890Y87756D01*
Y91988D01*
X340826Y275674D02*
X339768Y276732D01*
X337652D01*
X336594Y275674D01*
Y271442D01*
X337652Y270384D01*
X339768D01*
X340826Y271442D01*
X342942Y275674D02*
X344000Y276732D01*
X346116D01*
X347174Y275674D01*
Y274616D01*
X346116Y273558D01*
X347174Y272500D01*
Y271442D01*
X346116Y270384D01*
X344000D01*
X342942Y271442D01*
Y272500D01*
X344000Y273558D01*
X342942Y274616D01*
Y275674D01*
X344000Y273558D02*
X346116D01*
X340826Y258402D02*
X339768Y259460D01*
X337652D01*
X336594Y258402D01*
Y254170D01*
X337652Y253112D01*
X339768D01*
X340826Y254170D01*
X342942Y259460D02*
X347174D01*
Y258402D01*
X342942Y254170D01*
Y253112D01*
X340826Y267038D02*
X339768Y268096D01*
X337652D01*
X336594Y267038D01*
Y262806D01*
X337652Y261748D01*
X339768D01*
X340826Y262806D01*
X347174Y268096D02*
X345058Y267038D01*
X342942Y264922D01*
Y262806D01*
X344000Y261748D01*
X346116D01*
X347174Y262806D01*
Y263864D01*
X346116Y264922D01*
X342942D01*
X306790Y172296D02*
X305732Y173354D01*
X303616D01*
X302558Y172296D01*
Y168064D01*
X303616Y167006D01*
X305732D01*
X306790Y168064D01*
X313138Y173354D02*
X308906D01*
Y170180D01*
X311022Y171238D01*
X312080D01*
X313138Y170180D01*
Y168064D01*
X312080Y167006D01*
X309964D01*
X308906Y168064D01*
X311320Y49996D02*
X310262Y48938D01*
Y46822D01*
X311320Y45764D01*
X315552D01*
X316610Y46822D01*
Y48938D01*
X315552Y49996D01*
X316610Y55286D02*
X310262D01*
X313436Y52112D01*
Y56344D01*
X149014Y272903D02*
X147956Y271845D01*
Y269729D01*
X149014Y268671D01*
X153246D01*
X154304Y269729D01*
Y271845D01*
X153246Y272903D01*
X149014Y275019D02*
X147956Y276077D01*
Y278193D01*
X149014Y279251D01*
X150072D01*
X151130Y278193D01*
Y277135D01*
Y278193D01*
X152188Y279251D01*
X153246D01*
X154304Y278193D01*
Y276077D01*
X153246Y275019D01*
X271230Y351874D02*
X270172Y352932D01*
X268056D01*
X266998Y351874D01*
Y347642D01*
X268056Y346584D01*
X270172D01*
X271230Y347642D01*
X277578Y346584D02*
X273346D01*
X277578Y350816D01*
Y351874D01*
X276520Y352932D01*
X274404D01*
X273346Y351874D01*
X114083Y464126D02*
X113025Y465184D01*
X110909D01*
X109851Y464126D01*
Y459894D01*
X110909Y458836D01*
X113025D01*
X114083Y459894D01*
X116199Y458836D02*
X118315D01*
X117257D01*
Y465184D01*
X116199Y464126D01*
M02*
