M48
;Layer_Color=9474304
;FILE_FORMAT=4:4
METRIC,LZ
;TYPE=PLATED
T1F00S00C0.3048
T2F00S00C0.5000
T5F00S00C3.0000
;TYPE=NON_PLATED
T6F00S00C0.7500
T7F00S00C1.0000
%
T01
X00016426Y0000889
X00033274
X0004173Y00008802
X00057332Y00020828
X00065024
X00061468Y00016764
X00113005Y00012421
X00130048Y00011176
X0014131Y00017694
X00131826Y00041656
Y00050546
X0012319Y00056388
X00123698Y00071882
X00123444Y00079502
X00131318Y00079408
Y00089408
X00123444Y00089662
X00141732Y00089408
X00141224Y0014224
X00115824Y00119126
X00103378
X00095758Y0012281
Y00132842
X00073216Y0012281
X00080518Y00111506
X00063216Y00102616
X00032766Y001036
X0003536Y0011704
Y0012954
X00012954Y0010454
X00048768Y00079756
X0004592Y00068072
X0005842Y0007239
X00146371Y00041662
X00161478Y00041656
X00170434
X00173482Y00051562
X00161478Y00052832
X0018669Y00052578
X00182626Y00024892
X00181102Y00012446
X00190997Y00017029
X00198374Y00012192
X00216408Y0001524
Y00032004
X0020641Y0003235
X00244329Y00029421
X00240089Y00024808
X00237236Y00014478
X0024765
X00272796Y00020828
X00280162
X00296164Y00013462
X00301498Y00027178
X0030226Y00094742
X00308356Y001016
X0031369Y00106934
X00321056Y00103378
X00326136Y00110998
X00321742Y00126928
X00326898Y00131826
X00326644Y00141224
X00317389Y00141903
X00306578Y0014224
X00271472Y00137796
X00259633
X00252222
X0024362Y0014097
X00241046Y0013335
X0024345Y001228
X00231394Y00138176
X00233686Y00103886
X0024003Y000889
X00253956Y00102378
X00271526Y00083566
X0027051Y0007239
X00294894Y00100584
X00315214Y00096012
X00211328Y0008763
X00204978
X00195072Y00088138
X00191516Y00080772
X00207518Y00105664
X00186436Y0011938
Y00129794
X00188658Y00140526
X00172466Y00133604
X00156464Y00129286
X00155194Y0011938
X00161036Y00142748
X00146812Y00163576
X0016002Y00181864
X00191008Y00177546
X00201662
X00202438Y0018796
X00201418Y00205509
Y00215853
Y00225091
X00187706Y002159
Y00236474
X00195716Y002453
X00214122Y00245364
X00225552
Y00255706
X0023368Y0024892
X00232664Y00269748
Y00275844
X00240792
Y00269748
X00268478Y00263398
X0027178Y00254
Y00244602
X00286768Y00266785
Y00277368
X00297351
Y00266785
X00318093
Y00277368
Y00287951
Y00295994
X00328676
Y00287951
Y00277368
Y00266785
Y00256201
Y00245618
Y00235035
Y00224451
Y00213868
X0033909Y00197866
X00341596Y00185481
Y00177231
X0033274Y0017526
Y00181356
Y00187452
X00274574Y00184404
Y0020447
X00236728Y00203962
X00230632Y00225091
X00236492Y00167583
X0023368Y00157226
X00201422Y00150876
X00188658Y00158242
X0018669Y00165608
X00161798Y00236474
X00180594Y00272548
X0018822
X00200914Y00267208
X0020955Y00284226
X00217832
Y0029337
X0020955
X00209042Y00330708
X00217324
Y00339852
X00209042
X00221234Y00355854
X00230886
Y00365506
X00221234
X00188091Y00371348
X0016354Y0036877
Y0037977
Y00390705
X00153801Y00424049
X00161684Y00436698
X0017526Y00442722
X00195072Y00456946
Y00463677
Y00470408
X00201803Y00456946
X00208534
X00254254Y0046101
X00270002Y00461518
Y0046863
X00337058Y00430784
X00337227Y00363643
Y0035306
X00326644
Y00363643
X00328337Y00335619
Y00325035
X00317754
X00307171
Y00335619
X00317754
X00297351Y00287951
X00286768
X0033909Y00250952
X00188091Y00316008
X00180086Y00333756
Y00339852
X00172212
X0016354Y0034677
Y0032477
Y0031369
X0014572Y00281108
X0015113Y00465328
X00156951Y00474451
X0012954Y00436626
X00139831Y00424049
X00138075Y00390705
X00138092Y0037977
X00135552Y00357378
X00124714
X00138092Y0034677
Y0032477
X00137922Y0031369
X00120142Y0029718
X0010414Y00296926
X0009144
X00064008
X0004972Y00305806
X00024892Y0030734
X00009144Y00307594
Y00273304
X00030734Y0027432
X00044958Y0027178
X00054102
X00059182Y00263652
X00068326
X00064262Y00253492
Y00244856
X00052324Y002286
Y00222377
Y00216154
X00078688Y002128
X00090424Y00212852
X0008001Y00178308
X0007493Y00157734
X0003683Y00155194
X000381Y00147066
X00013716Y00215646
X00010414Y00235585
X00022552Y0025674
X00024892Y00340414
X00037338Y00343408
X00034582Y00352028
Y00364528
X00021801Y00362669
X00009144Y00350012
X00056642Y00343408
X00061722Y00358394
X00075946Y0035179
X00098806Y00364998
X00108204
X0005588Y00375666
X00038862
X0004972Y00428734
Y00460806
X00033684Y0044477
X00065756
X00086106Y0043561
X00085852Y00426466
X00096266
X0009652Y00435864
X0007594Y00314966
X00066294Y00324612
X00111252Y00277995
X00125984Y00278249
X00139446Y00175006
T02
X00286658Y00468122
X00299158
X00311658
X00324158
T05
X003246Y0002413
X0002667Y0047498
T06
X00295592Y00087941
Y00145741
T07
X0004572Y0031877
Y0039877
M30
