G04*
G04 #@! TF.GenerationSoftware,Altium Limited,Altium Designer,23.5.1 (21)*
G04*
G04 Layer_Physical_Order=2*
G04 Layer_Color=32768*
%FSLAX44Y44*%
%MOMM*%
G71*
G04*
G04 #@! TF.SameCoordinates,D8F5AE86-2F01-4A25-AC6E-D886633190FF*
G04*
G04*
G04 #@! TF.FilePolarity,Negative*
G04*
G01*
G75*
%ADD94C,0.5080*%
%ADD95C,1.0160*%
%ADD105C,1.5080*%
%ADD106C,1.2580*%
%ADD107C,1.0080*%
G04:AMPARAMS|DCode=108|XSize=2.024mm|YSize=2.024mm|CornerRadius=0mm|HoleSize=0mm|Usage=FLASHONLY|Rotation=0.000|XOffset=0mm|YOffset=0mm|HoleType=Round|Shape=Relief|Width=0.508mm|Gap=0.254mm|Entries=4|*
%AMTHD108*
7,0,0,2.0240,1.5160,0.5080,45*
%
%ADD108THD108*%
G04:AMPARAMS|DCode=109|XSize=4.524mm|YSize=4.524mm|CornerRadius=0mm|HoleSize=0mm|Usage=FLASHONLY|Rotation=0.000|XOffset=0mm|YOffset=0mm|HoleType=Round|Shape=Relief|Width=0.508mm|Gap=0.254mm|Entries=4|*
%AMTHD109*
7,0,0,4.5240,4.0160,0.5080,45*
%
%ADD109THD109*%
%ADD110C,0.8128*%
D94*
X246082Y236938D02*
X259842Y250698D01*
X70716Y91336D02*
Y99822D01*
Y110998D01*
X56134Y152800D02*
Y167800D01*
X120142D01*
X56134Y110998D02*
Y152800D01*
Y110998D02*
X70716D01*
X197062Y149395D02*
Y261700D01*
Y149395D02*
X199618Y146838D01*
X246082D01*
X28194Y91336D02*
X70716D01*
X28194Y228330D02*
X38862Y238998D01*
X120142Y167800D02*
Y238998D01*
X28194Y91336D02*
Y138430D01*
Y214884D01*
Y228330D01*
X38862Y238998D02*
Y259842D01*
X120142Y238998D02*
Y261700D01*
X197062D01*
X246082Y146838D02*
Y218396D01*
Y236938D01*
X259842Y250698D02*
Y308610D01*
X120650D02*
X259842D01*
X120650D02*
Y375285D01*
X81280D02*
X120650D01*
X81280Y280547D02*
Y375285D01*
X38862Y280547D02*
X81280D01*
X38862Y279654D02*
Y280547D01*
Y259842D02*
Y279654D01*
X275844Y48768D02*
Y86614D01*
X332994D01*
Y147574D01*
X274828D02*
X332994D01*
X274828D02*
Y168910D01*
X346456D01*
Y48768D02*
Y168910D01*
X275844Y48768D02*
X346456D01*
D95*
X-0Y500000D02*
X0Y0D01*
X-0Y500000D02*
X350000D01*
X350000Y0D01*
X0D02*
X350000D01*
D105*
X45720Y318770D02*
D03*
Y398770D02*
D03*
D106*
X295592Y145741D02*
D03*
Y87941D02*
D03*
D107*
X324158Y468122D02*
D03*
X311658D02*
D03*
X286658D02*
D03*
D108*
X299158D02*
D03*
D109*
X324600Y24130D02*
D03*
X26670Y474980D02*
D03*
D110*
X216408Y15240D02*
D03*
X52324Y222377D02*
D03*
Y228600D02*
D03*
Y216154D02*
D03*
X271780Y244602D02*
D03*
X195072Y470408D02*
D03*
Y463677D02*
D03*
X96266Y426466D02*
D03*
X96520Y435864D02*
D03*
X85852Y426466D02*
D03*
X86106Y435610D02*
D03*
X175260Y442722D02*
D03*
X225552Y245364D02*
D03*
X233680Y248920D02*
D03*
X214122Y245364D02*
D03*
X187706Y215900D02*
D03*
Y236474D02*
D03*
X188220Y272548D02*
D03*
X202438Y187960D02*
D03*
X95758Y122810D02*
D03*
Y132842D02*
D03*
X230886Y355854D02*
D03*
X221234D02*
D03*
Y365506D02*
D03*
X230886D02*
D03*
X188091Y371348D02*
D03*
Y316008D02*
D03*
X236728Y203962D02*
D03*
X74930Y157734D02*
D03*
X244329Y29421D02*
D03*
X296164Y13462D02*
D03*
X186690Y165608D02*
D03*
X156464Y129286D02*
D03*
X161036Y142748D02*
D03*
X241046Y133350D02*
D03*
X186690Y52578D02*
D03*
X80010Y178308D02*
D03*
X240089Y24808D02*
D03*
X161478Y52832D02*
D03*
X186436Y119380D02*
D03*
Y129794D02*
D03*
X141224Y142240D02*
D03*
X161798Y236474D02*
D03*
X141732Y89408D02*
D03*
X146371Y41662D02*
D03*
X131826Y41656D02*
D03*
X160020Y181864D02*
D03*
X271472Y137796D02*
D03*
X225552Y255706D02*
D03*
X268478Y263398D02*
D03*
X236492Y167583D02*
D03*
X233680Y157226D02*
D03*
X195716Y245300D02*
D03*
X131826Y50546D02*
D03*
X280162Y20828D02*
D03*
X272796D02*
D03*
X32766Y103600D02*
D03*
X201662Y177546D02*
D03*
X191008D02*
D03*
X201418Y225091D02*
D03*
X230632D02*
D03*
X201418Y215853D02*
D03*
X207518Y105664D02*
D03*
X139446Y175006D02*
D03*
X146812Y163576D02*
D03*
X252222Y137796D02*
D03*
X243450Y122800D02*
D03*
X243620Y140970D02*
D03*
X231394Y138176D02*
D03*
X61468Y16764D02*
D03*
X113005Y12421D02*
D03*
X65024Y20828D02*
D03*
X57332D02*
D03*
X181102Y12446D02*
D03*
X237236Y14478D02*
D03*
X247650D02*
D03*
X270510Y72390D02*
D03*
X195072Y88138D02*
D03*
X191516Y80772D02*
D03*
X155194Y119380D02*
D03*
X180594Y272548D02*
D03*
X58420Y72390D02*
D03*
X45920Y68072D02*
D03*
X123444Y79502D02*
D03*
X115824Y119126D02*
D03*
X103378D02*
D03*
X131318Y79408D02*
D03*
Y89408D02*
D03*
X163540Y390705D02*
D03*
Y324770D02*
D03*
Y313690D02*
D03*
X80518Y111506D02*
D03*
X35360Y129540D02*
D03*
Y117040D02*
D03*
X75946Y351790D02*
D03*
X34582Y364528D02*
D03*
Y352028D02*
D03*
X120142Y297180D02*
D03*
X104140Y296926D02*
D03*
X64262Y244856D02*
D03*
Y253492D02*
D03*
X90424Y212852D02*
D03*
X78688Y212800D02*
D03*
X125984Y278249D02*
D03*
X111252Y277995D02*
D03*
X91440Y296926D02*
D03*
X217832Y293370D02*
D03*
Y284226D02*
D03*
X209550D02*
D03*
Y293370D02*
D03*
X145720Y281108D02*
D03*
X135552Y357378D02*
D03*
X124714D02*
D03*
X163540Y346770D02*
D03*
Y368770D02*
D03*
Y379770D02*
D03*
X337058Y430784D02*
D03*
X139831Y424049D02*
D03*
X195072Y456946D02*
D03*
X208534D02*
D03*
X201803D02*
D03*
X337227Y353060D02*
D03*
X326644D02*
D03*
Y363643D02*
D03*
X337227D02*
D03*
X286768Y266785D02*
D03*
Y277368D02*
D03*
X297351D02*
D03*
Y266785D02*
D03*
Y287951D02*
D03*
X286768D02*
D03*
X341596Y177231D02*
D03*
Y185481D02*
D03*
X317389Y141903D02*
D03*
X306578Y142240D02*
D03*
X294894Y100584D02*
D03*
X302260Y94742D02*
D03*
X332740Y181356D02*
D03*
Y175260D02*
D03*
Y187452D02*
D03*
X339090Y250952D02*
D03*
X204978Y87630D02*
D03*
X190997Y17029D02*
D03*
X198374Y12192D02*
D03*
X211328Y87630D02*
D03*
X206410Y32350D02*
D03*
X216408Y32004D02*
D03*
X170434Y41656D02*
D03*
X161478D02*
D03*
X326898Y131826D02*
D03*
X321742Y126928D02*
D03*
X308356Y101600D02*
D03*
X313690Y106934D02*
D03*
M02*
