G04*
G04 #@! TF.GenerationSoftware,Altium Limited,Altium Designer,23.5.1 (21)*
G04*
G04 Layer_Color=65535*
%FSLAX44Y44*%
%MOMM*%
G71*
G04*
G04 #@! TF.SameCoordinates,F507A0DE-0196-4A71-86C9-71FBE13DDA2A*
G04*
G04*
G04 #@! TF.FilePolarity,Positive*
G04*
G01*
G75*
%ADD10C,0.1270*%
%ADD11C,0.1524*%
%ADD12C,0.2540*%
%ADD13C,0.2032*%
%ADD14C,0.1016*%
G36*
X-76198Y-22771D02*
X-73341Y-20750D01*
X-71320Y-23608D01*
X-76198Y-22771D01*
D01*
D02*
G37*
G36*
X-65241Y-80754D02*
X-63762Y-77582D01*
X-60589Y-79061D01*
X-65241Y-80754D01*
D01*
D02*
G37*
G36*
X-17452Y-74984D02*
X-17446Y-71485D01*
X-13946Y-71491D01*
X-17452Y-74984D01*
D01*
D02*
G37*
G36*
X-102556Y16123D02*
X-99069Y16428D01*
X-98764Y12941D01*
X-102556Y16123D01*
D01*
D02*
G37*
G36*
X-62019Y56282D02*
X-58874Y54747D01*
X-60409Y51602D01*
X-62019Y56282D01*
D01*
D02*
G37*
G36*
X-37986Y96240D02*
X-35921Y93414D01*
X-38747Y91349D01*
X-37986Y96240D01*
D01*
D02*
G37*
G36*
X38147Y-94323D02*
X36398Y-91292D01*
X39429Y-89542D01*
X38147Y-94323D01*
D01*
D02*
G37*
G36*
X59489Y-46171D02*
X56420Y-44489D01*
X58102Y-41420D01*
X59489Y-46171D01*
D01*
D02*
G37*
G36*
X101424Y-5169D02*
X97934Y-5431D01*
X97671Y-1941D01*
X101424Y-5169D01*
D01*
D02*
G37*
G36*
X14331Y75629D02*
X14397Y72130D01*
X10897Y72064D01*
X14331Y75629D01*
D01*
D02*
G37*
G36*
X52920Y86095D02*
X51505Y82894D01*
X48304Y84309D01*
X52920Y86095D01*
D01*
D02*
G37*
G36*
X79302Y27817D02*
X76554Y25650D01*
X74386Y28398D01*
X79302Y27817D01*
D01*
D02*
G37*
D10*
X15000Y-127000D02*
G03*
X15000Y-127000I-15000J0D01*
G01*
Y127000D02*
G03*
X15000Y127000I-15000J0D01*
G01*
D11*
X60406Y-114301D02*
X84066Y-101453D01*
X60406Y-114301D02*
X66952Y-126355D01*
X90612Y-113506D01*
X84066Y-101453D02*
X90612Y-113506D01*
X-68636Y-110837D02*
X-44014Y-121728D01*
X-74185Y-123380D02*
X-68636Y-110837D01*
X-74185Y-123380D02*
X-49563Y-134272D01*
X-44014Y-121728D01*
X32438Y127180D02*
X57153Y116500D01*
X62594Y129090D01*
X37878Y139770D02*
X62594Y129090D01*
X32438Y127180D02*
X37878Y139770D01*
X128719Y32284D02*
X130110Y5396D01*
X143808Y6105D01*
X142416Y32993D02*
X143808Y6105D01*
X128719Y32284D02*
X142416Y32993D01*
X-85500Y98877D02*
X-63755Y114754D01*
X-71843Y125832D02*
X-63755Y114754D01*
X-93588Y109955D02*
X-71843Y125832D01*
X-93588Y109955D02*
X-85500Y98877D01*
X-130972Y1962D02*
X-128625Y-24859D01*
X-144636Y767D02*
X-130972Y1962D01*
X-144636Y767D02*
X-142289Y-26055D01*
X-128625Y-24859D01*
X81601Y-78586D02*
X84322Y-83299D01*
X80605Y-82303D02*
X85318Y-79582D01*
X28033Y-83168D02*
X28023Y-88610D01*
X25307Y-85884D02*
X30749Y-85894D01*
X-27425Y-107323D02*
X-29725Y-112255D01*
X-31041Y-108639D02*
X-26109Y-110939D01*
X20711Y126933D02*
X22912Y131910D01*
X24300Y128322D02*
X19323Y130522D01*
X57478Y68556D02*
X61750Y71926D01*
X61299Y68105D02*
X57929Y72377D01*
X106090Y40811D02*
X111517Y41219D01*
X109008Y38302D02*
X108600Y43728D01*
X88462Y-10165D02*
X93234Y-12781D01*
X89540Y-13859D02*
X92156Y-9087D01*
X-31316Y82864D02*
X-31419Y88305D01*
X-28647Y85636D02*
X-34088Y85533D01*
X-79501Y75932D02*
X-82711Y80325D01*
X-78909Y79734D02*
X-83303Y76523D01*
X-89261Y18949D02*
X-94151Y21337D01*
X-90512Y22588D02*
X-92900Y17698D01*
X-106657Y-29911D02*
X-112078Y-30385D01*
X-109605Y-27437D02*
X-109131Y-32858D01*
X-56534Y-64596D02*
X-60977Y-67738D01*
X-60327Y-63945D02*
X-57185Y-68388D01*
D12*
X55786Y-112972D02*
X84382Y-96462D01*
X41992Y-88674D02*
X70412Y-72266D01*
X-11548Y-99965D02*
X21472Y-100028D01*
X-11293Y-72026D02*
X21524Y-72088D01*
X-70400Y-105900D02*
X-40473Y-119855D01*
X-58408Y-80663D02*
X-28666Y-94532D01*
X27375Y124691D02*
X57575Y111339D01*
X16077Y99137D02*
X46091Y85867D01*
X74768Y73879D02*
X95220Y47956D01*
X52832Y56574D02*
X73158Y30810D01*
X123404Y35564D02*
X125878Y2637D01*
X95543Y33470D02*
X98001Y746D01*
X84245Y-52956D02*
X100118Y-24001D01*
X59843Y-39347D02*
X75617Y-10570D01*
X-25107Y99857D02*
X7908Y100482D01*
X-24578Y71922D02*
X8234Y72543D01*
X-84183Y93406D02*
X-57524Y112889D01*
X-67698Y70848D02*
X-41202Y90211D01*
X-101557Y32220D02*
X-87068Y61891D01*
X-76450Y19960D02*
X-62050Y49449D01*
X-126912Y8018D02*
X-124034Y-24876D01*
X-99060Y10251D02*
X-96200Y-22441D01*
X-93147Y-42050D02*
X-74079Y-69008D01*
X-70219Y-26081D02*
X-51269Y-52873D01*
D13*
X-80427Y4182D02*
X-78478Y-18085D01*
X-32856Y8344D02*
X-30908Y-13923D01*
X-80427Y4182D02*
X-32856Y8344D01*
X-78478Y-18085D02*
X-30908Y-13923D01*
X-54901Y58922D02*
X-36591Y71743D01*
X-27512Y19806D02*
X-9202Y32626D01*
X-36591Y71743D02*
X-9202Y32626D01*
X-54901Y58922D02*
X-27512Y19806D01*
X23577Y77007D02*
X43835Y67560D01*
X3396Y33729D02*
X23654Y24282D01*
X43835Y67560D01*
X3396Y33729D02*
X23577Y77007D01*
X78478Y18085D02*
X80427Y-4182D01*
X30908Y13923D02*
X32856Y-8344D01*
X80427Y-4182D01*
X30908Y13923D02*
X78478Y18085D01*
X36591Y-71743D02*
X54901Y-58922D01*
X9202Y-32626D02*
X27512Y-19806D01*
X9202Y-32626D02*
X36591Y-71743D01*
X27512Y-19806D02*
X54901Y-58922D01*
X-49557Y-63483D02*
X-30199Y-74659D01*
X-25681Y-22128D02*
X-6323Y-33304D01*
X-49557Y-63483D02*
X-25681Y-22128D01*
X-30199Y-74659D02*
X-6323Y-33304D01*
D14*
X45510Y-126364D02*
Y-120016D01*
X48684D01*
X49742Y-121074D01*
Y-123190D01*
X48684Y-124248D01*
X45510D01*
X47626D02*
X49742Y-126364D01*
X56090D02*
X51858D01*
X56090Y-122132D01*
Y-121074D01*
X55032Y-120016D01*
X52916D01*
X51858Y-121074D01*
X82342Y-66676D02*
Y-73024D01*
X86574D01*
X92922Y-66676D02*
X88690D01*
Y-73024D01*
X92922D01*
X88690Y-69850D02*
X90806D01*
X95038Y-66676D02*
Y-73024D01*
X98212D01*
X99270Y-71966D01*
Y-67734D01*
X98212Y-66676D01*
X95038D01*
X105618Y-73024D02*
X101386D01*
X105618Y-68792D01*
Y-67734D01*
X104560Y-66676D01*
X102444D01*
X101386Y-67734D01*
X16302Y-106046D02*
Y-112394D01*
X20534D01*
X26882Y-106046D02*
X22650D01*
Y-112394D01*
X26882D01*
X22650Y-109220D02*
X24766D01*
X28998Y-106046D02*
Y-112394D01*
X32172D01*
X33230Y-111336D01*
Y-107104D01*
X32172Y-106046D01*
X28998D01*
X35346D02*
X39578D01*
Y-107104D01*
X35346Y-111336D01*
Y-112394D01*
X-96728Y-85726D02*
Y-92074D01*
X-92496D01*
X-86148Y-85726D02*
X-90380D01*
Y-92074D01*
X-86148D01*
X-90380Y-88900D02*
X-88264D01*
X-84032Y-85726D02*
Y-92074D01*
X-80858D01*
X-79800Y-91016D01*
Y-86784D01*
X-80858Y-85726D01*
X-84032D01*
X-77684Y-86784D02*
X-76626Y-85726D01*
X-74510D01*
X-73452Y-86784D01*
Y-87842D01*
X-74510Y-88900D01*
X-75568D01*
X-74510D01*
X-73452Y-89958D01*
Y-91016D01*
X-74510Y-92074D01*
X-76626D01*
X-77684Y-91016D01*
X-40850Y-135254D02*
Y-128906D01*
X-37676D01*
X-36618Y-129964D01*
Y-132080D01*
X-37676Y-133138D01*
X-40850D01*
X-38734D02*
X-36618Y-135254D01*
X-34502Y-129964D02*
X-33444Y-128906D01*
X-31328D01*
X-30270Y-129964D01*
Y-131022D01*
X-31328Y-132080D01*
X-32386D01*
X-31328D01*
X-30270Y-133138D01*
Y-134196D01*
X-31328Y-135254D01*
X-33444D01*
X-34502Y-134196D01*
X112885Y59634D02*
X115605Y56392D01*
X118586Y56132D01*
X118847Y59113D01*
X116127Y62354D01*
X117748Y63715D02*
X121828Y58852D01*
X125070Y61572D01*
X125852Y70515D02*
X122610Y67795D01*
X126691Y62932D01*
X129933Y65652D01*
X124651Y65363D02*
X126272Y66724D01*
X127473Y71875D02*
X131554Y67013D01*
X133985Y69053D01*
X134115Y70543D01*
X131395Y73785D01*
X129905Y73916D01*
X127473Y71875D01*
X107917Y71704D02*
X106426Y71834D01*
X104805Y70474D01*
X104675Y68984D01*
X107395Y65742D01*
X108886Y65611D01*
X110507Y66972D01*
X110637Y68462D01*
X109277Y70083D01*
X107656Y68723D01*
X112938Y69012D02*
X108858Y73875D01*
X116180Y71732D01*
X112100Y76595D01*
X113720Y77955D02*
X117801Y73092D01*
X120232Y75132D01*
X120363Y76623D01*
X117642Y79865D01*
X116152Y79995D01*
X113720Y77955D01*
X96375Y78684D02*
X100455Y73821D01*
X103697Y76542D01*
X104480Y85485D02*
X101238Y82765D01*
X105318Y77902D01*
X108560Y80622D01*
X103278Y80333D02*
X104899Y81693D01*
X106100Y86845D02*
X110181Y81982D01*
X112612Y84022D01*
X112743Y85513D01*
X110022Y88755D01*
X108532Y88885D01*
X106100Y86845D01*
X113003Y88494D02*
X116245Y91214D01*
X87485Y88844D02*
X91565Y83981D01*
X94807Y86702D01*
X95590Y95645D02*
X92348Y92925D01*
X96428Y88062D01*
X99670Y90782D01*
X94388Y90493D02*
X96009Y91853D01*
X97210Y97005D02*
X101291Y92142D01*
X103722Y94182D01*
X103853Y95673D01*
X101132Y98915D01*
X99642Y99045D01*
X97210Y97005D01*
X104113Y98654D02*
X107355Y101374D01*
X104374Y101635D02*
X107094Y98393D01*
X64560Y113666D02*
Y120014D01*
X67734D01*
X68792Y118956D01*
Y116840D01*
X67734Y115782D01*
X64560D01*
X66676D02*
X68792Y113666D01*
X75140Y120014D02*
X70908D01*
Y116840D01*
X73024Y117898D01*
X74082D01*
X75140Y116840D01*
Y114724D01*
X74082Y113666D01*
X71966D01*
X70908Y114724D01*
X62022Y100964D02*
Y94616D01*
X66254D01*
X72602Y100964D02*
X68370D01*
Y94616D01*
X72602D01*
X68370Y97790D02*
X70486D01*
X74718Y100964D02*
Y94616D01*
X77892D01*
X78950Y95674D01*
Y99906D01*
X77892Y100964D01*
X74718D01*
X85298D02*
X81066D01*
Y97790D01*
X83182Y98848D01*
X84240D01*
X85298Y97790D01*
Y95674D01*
X84240Y94616D01*
X82124D01*
X81066Y95674D01*
X52101Y47785D02*
X47238Y43705D01*
X49958Y40463D01*
X58901Y39681D02*
X56181Y42923D01*
X51318Y38842D01*
X54039Y35600D01*
X53750Y40882D02*
X55110Y39261D01*
X60262Y38060D02*
X55399Y33979D01*
X57439Y31548D01*
X58929Y31418D01*
X62171Y34138D01*
X62302Y35628D01*
X60262Y38060D01*
X60290Y29797D02*
X60159Y28306D01*
X61519Y26685D01*
X63010Y26555D01*
X66252Y29275D01*
X66382Y30766D01*
X65022Y32387D01*
X63531Y32517D01*
X62721Y31837D01*
X62590Y30346D01*
X64631Y27915D01*
X130600Y38736D02*
Y45084D01*
X133774D01*
X134832Y44026D01*
Y41910D01*
X133774Y40852D01*
X130600D01*
X132716D02*
X134832Y38736D01*
X141180Y45084D02*
X139064Y44026D01*
X136948Y41910D01*
Y39794D01*
X138006Y38736D01*
X140122D01*
X141180Y39794D01*
Y40852D01*
X140122Y41910D01*
X136948D01*
X103932Y-6986D02*
Y-13334D01*
X108164D01*
X114512Y-6986D02*
X110280D01*
Y-13334D01*
X114512D01*
X110280Y-10160D02*
X112396D01*
X116628Y-6986D02*
Y-13334D01*
X119802D01*
X120860Y-12276D01*
Y-8044D01*
X119802Y-6986D01*
X116628D01*
X127208D02*
X125092Y-8044D01*
X122976Y-10160D01*
Y-12276D01*
X124034Y-13334D01*
X126150D01*
X127208Y-12276D01*
Y-11218D01*
X126150Y-10160D01*
X122976D01*
X93772Y-46356D02*
Y-52704D01*
X98004D01*
X104352Y-46356D02*
X100120D01*
Y-52704D01*
X104352D01*
X100120Y-49530D02*
X102236D01*
X106468Y-46356D02*
Y-52704D01*
X109642D01*
X110700Y-51646D01*
Y-47414D01*
X109642Y-46356D01*
X106468D01*
X112816Y-47414D02*
X113874Y-46356D01*
X115990D01*
X117048Y-47414D01*
Y-48472D01*
X115990Y-49530D01*
X117048Y-50588D01*
Y-51646D01*
X115990Y-52704D01*
X113874D01*
X112816Y-51646D01*
Y-50588D01*
X113874Y-49530D01*
X112816Y-48472D01*
Y-47414D01*
X113874Y-49530D02*
X115990D01*
X-21903Y65404D02*
Y59056D01*
X-17671D01*
X-11323Y65404D02*
X-15555D01*
Y59056D01*
X-11323D01*
X-15555Y62230D02*
X-13439D01*
X-9207Y65404D02*
Y59056D01*
X-6033D01*
X-4975Y60114D01*
Y64346D01*
X-6033Y65404D01*
X-9207D01*
X-2859Y59056D02*
X-743D01*
X-1801D01*
Y65404D01*
X-2859Y64346D01*
X2431D02*
X3489Y65404D01*
X5605D01*
X6663Y64346D01*
Y60114D01*
X5605Y59056D01*
X3489D01*
X2431Y60114D01*
Y64346D01*
X-102022Y95886D02*
Y102234D01*
X-98848D01*
X-97790Y101176D01*
Y99060D01*
X-98848Y98002D01*
X-102022D01*
X-99906D02*
X-97790Y95886D01*
X-95674D02*
X-93558D01*
X-94616D01*
Y102234D01*
X-95674Y101176D01*
X-51220Y118744D02*
Y112396D01*
X-46988D01*
X-40640Y118744D02*
X-44872D01*
Y112396D01*
X-40640D01*
X-44872Y115570D02*
X-42756D01*
X-38524Y118744D02*
Y112396D01*
X-35350D01*
X-34292Y113454D01*
Y117686D01*
X-35350Y118744D01*
X-38524D01*
X-32176Y112396D02*
X-30060D01*
X-31118D01*
Y118744D01*
X-32176Y117686D01*
X-122445Y64134D02*
Y57786D01*
X-118213D01*
X-111865Y64134D02*
X-116097D01*
Y57786D01*
X-111865D01*
X-116097Y60960D02*
X-113981D01*
X-109749Y64134D02*
Y57786D01*
X-106575D01*
X-105517Y58844D01*
Y63076D01*
X-106575Y64134D01*
X-109749D01*
X-103401Y57786D02*
X-101285D01*
X-102343D01*
Y64134D01*
X-103401Y63076D01*
X-98111Y57786D02*
X-95995D01*
X-97053D01*
Y64134D01*
X-98111Y63076D01*
X-127208Y24764D02*
Y18416D01*
X-122976D01*
X-116628Y24764D02*
X-120860D01*
Y18416D01*
X-116628D01*
X-120860Y21590D02*
X-118744D01*
X-114512Y24764D02*
Y18416D01*
X-111338D01*
X-110280Y19474D01*
Y23706D01*
X-111338Y24764D01*
X-114512D01*
X-104990Y18416D02*
Y24764D01*
X-108164Y21590D01*
X-103932D01*
X-143720Y8256D02*
Y14604D01*
X-140546D01*
X-139488Y13546D01*
Y11430D01*
X-140546Y10372D01*
X-143720D01*
X-141604D02*
X-139488Y8256D01*
X-134198D02*
Y14604D01*
X-137372Y11430D01*
X-133140D01*
X-113343Y-59056D02*
Y-65404D01*
X-109111D01*
X-102763Y-59056D02*
X-106995D01*
Y-65404D01*
X-102763D01*
X-106995Y-62230D02*
X-104879D01*
X-100647Y-59056D02*
Y-65404D01*
X-97473D01*
X-96415Y-64346D01*
Y-60114D01*
X-97473Y-59056D01*
X-100647D01*
X-94299Y-65404D02*
X-92183D01*
X-93241D01*
Y-59056D01*
X-94299Y-60114D01*
X-84777Y-65404D02*
X-89009D01*
X-84777Y-61172D01*
Y-60114D01*
X-85835Y-59056D01*
X-87951D01*
X-89009Y-60114D01*
X-61275Y12066D02*
Y18414D01*
X-58101D01*
X-57043Y17356D01*
Y15240D01*
X-58101Y14182D01*
X-61275D01*
X-59159D02*
X-57043Y12066D01*
X-54927D02*
X-52811D01*
X-53869D01*
Y18414D01*
X-54927Y17356D01*
X-45405Y12066D02*
X-49637D01*
X-45405Y16298D01*
Y17356D01*
X-46463Y18414D01*
X-48579D01*
X-49637Y17356D01*
X-58947Y32386D02*
Y38734D01*
X-55773D01*
X-54715Y37676D01*
Y35560D01*
X-55773Y34502D01*
X-58947D01*
X-56831D02*
X-54715Y32386D01*
X-52599D02*
X-50483D01*
X-51541D01*
Y38734D01*
X-52599Y37676D01*
X-47309Y32386D02*
X-45193D01*
X-46251D01*
Y38734D01*
X-47309Y37676D01*
X36353Y23217D02*
X30600Y25900D01*
X31941Y28777D01*
X33347Y29288D01*
X35265Y28394D01*
X35777Y26988D01*
X34435Y24111D01*
X35330Y26029D02*
X38142Y27053D01*
X39036Y28970D02*
X39930Y30888D01*
X39483Y29929D01*
X33730Y32612D01*
X34242Y31206D01*
X36477Y36000D02*
X35965Y37406D01*
X36860Y39324D01*
X38266Y39836D01*
X42101Y38047D01*
X42613Y36641D01*
X41719Y34723D01*
X40313Y34212D01*
X36477Y36000D01*
X50590Y-20954D02*
Y-14606D01*
X53764D01*
X54822Y-15664D01*
Y-17780D01*
X53764Y-18838D01*
X50590D01*
X52706D02*
X54822Y-20954D01*
X56938Y-19896D02*
X57996Y-20954D01*
X60112D01*
X61170Y-19896D01*
Y-15664D01*
X60112Y-14606D01*
X57996D01*
X56938Y-15664D01*
Y-16722D01*
X57996Y-17780D01*
X61170D01*
X11220Y-61594D02*
Y-55246D01*
X14394D01*
X15452Y-56304D01*
Y-58420D01*
X14394Y-59478D01*
X11220D01*
X13336D02*
X15452Y-61594D01*
X17568Y-56304D02*
X18626Y-55246D01*
X20742D01*
X21800Y-56304D01*
Y-57362D01*
X20742Y-58420D01*
X21800Y-59478D01*
Y-60536D01*
X20742Y-61594D01*
X18626D01*
X17568Y-60536D01*
Y-59478D01*
X18626Y-58420D01*
X17568Y-57362D01*
Y-56304D01*
X18626Y-58420D02*
X20742D01*
X-14180Y-61594D02*
Y-55246D01*
X-11006D01*
X-9948Y-56304D01*
Y-58420D01*
X-11006Y-59478D01*
X-14180D01*
X-12064D02*
X-9948Y-61594D01*
X-7832Y-55246D02*
X-3600D01*
Y-56304D01*
X-7832Y-60536D01*
Y-61594D01*
M02*
