G04*
G04 #@! TF.GenerationSoftware,Altium Limited,Altium Designer,23.5.1 (21)*
G04*
G04 Layer_Color=8388736*
%FSLAX44Y44*%
%MOMM*%
G71*
G04*
G04 #@! TF.SameCoordinates,F507A0DE-0196-4A71-86C9-71FBE13DDA2A*
G04*
G04*
G04 #@! TF.FilePolarity,Negative*
G04*
G01*
G75*
G04:AMPARAMS|DCode=49|XSize=0.877mm|YSize=0.977mm|CornerRadius=0mm|HoleSize=0mm|Usage=FLASHONLY|Rotation=208.504|XOffset=0mm|YOffset=0mm|HoleType=Round|Shape=Rectangle|*
%AMROTATEDRECTD49*
4,1,4,0.1522,0.6386,0.6185,-0.2200,-0.1522,-0.6386,-0.6185,0.2200,0.1522,0.6386,0.0*
%
%ADD49ROTATEDRECTD49*%

G04:AMPARAMS|DCode=50|XSize=2.4316mm|YSize=2.4816mm|CornerRadius=0mm|HoleSize=0mm|Usage=FLASHONLY|Rotation=210.000|XOffset=0mm|YOffset=0mm|HoleType=Round|Shape=Rectangle|*
%AMROTATEDRECTD50*
4,1,4,0.4325,1.6825,1.6733,-0.4667,-0.4325,-1.6825,-1.6733,0.4667,0.4325,1.6825,0.0*
%
%ADD50ROTATEDRECTD50*%

G04:AMPARAMS|DCode=51|XSize=1.2016mm|YSize=2.4816mm|CornerRadius=0mm|HoleSize=0mm|Usage=FLASHONLY|Rotation=210.000|XOffset=0mm|YOffset=0mm|HoleType=Round|Shape=Rectangle|*
%AMROTATEDRECTD51*
4,1,4,-0.1001,1.3750,1.1407,-0.7742,0.1001,-1.3750,-1.1407,0.7742,-0.1001,1.3750,0.0*
%
%ADD51ROTATEDRECTD51*%

G04:AMPARAMS|DCode=52|XSize=2.4316mm|YSize=2.4816mm|CornerRadius=0mm|HoleSize=0mm|Usage=FLASHONLY|Rotation=179.892|XOffset=0mm|YOffset=0mm|HoleType=Round|Shape=Rectangle|*
%AMROTATEDRECTD52*
4,1,4,1.2181,1.2385,1.2135,-1.2431,-1.2181,-1.2385,-1.2135,1.2431,1.2181,1.2385,0.0*
%
%ADD52ROTATEDRECTD52*%

G04:AMPARAMS|DCode=53|XSize=1.2016mm|YSize=2.4816mm|CornerRadius=0mm|HoleSize=0mm|Usage=FLASHONLY|Rotation=179.892|XOffset=0mm|YOffset=0mm|HoleType=Round|Shape=Rectangle|*
%AMROTATEDRECTD53*
4,1,4,0.6031,1.2397,0.5985,-1.2419,-0.6031,-1.2397,-0.5985,1.2419,0.6031,1.2397,0.0*
%
%ADD53ROTATEDRECTD53*%

G04:AMPARAMS|DCode=54|XSize=2.4316mm|YSize=2.4816mm|CornerRadius=0mm|HoleSize=0mm|Usage=FLASHONLY|Rotation=155.000|XOffset=0mm|YOffset=0mm|HoleType=Round|Shape=Rectangle|*
%AMROTATEDRECTD54*
4,1,4,1.6263,0.6107,0.5775,-1.6384,-1.6263,-0.6107,-0.5775,1.6384,1.6263,0.6107,0.0*
%
%ADD54ROTATEDRECTD54*%

G04:AMPARAMS|DCode=55|XSize=1.2016mm|YSize=2.4816mm|CornerRadius=0mm|HoleSize=0mm|Usage=FLASHONLY|Rotation=155.000|XOffset=0mm|YOffset=0mm|HoleType=Round|Shape=Rectangle|*
%AMROTATEDRECTD55*
4,1,4,1.0689,0.8706,0.0201,-1.3785,-1.0689,-0.8706,-0.0201,1.3785,1.0689,0.8706,0.0*
%
%ADD55ROTATEDRECTD55*%

G04:AMPARAMS|DCode=56|XSize=0.877mm|YSize=0.977mm|CornerRadius=0mm|HoleSize=0mm|Usage=FLASHONLY|Rotation=156.138|XOffset=0mm|YOffset=0mm|HoleType=Round|Shape=Rectangle|*
%AMROTATEDRECTD56*
4,1,4,0.5986,0.2694,0.2034,-0.6241,-0.5986,-0.2694,-0.2034,0.6241,0.5986,0.2694,0.0*
%
%ADD56ROTATEDRECTD56*%

G04:AMPARAMS|DCode=57|XSize=0.877mm|YSize=0.977mm|CornerRadius=0mm|HoleSize=0mm|Usage=FLASHONLY|Rotation=336.629|XOffset=0mm|YOffset=0mm|HoleType=Round|Shape=Rectangle|*
%AMROTATEDRECTD57*
4,1,4,-0.5963,-0.2745,-0.2087,0.6224,0.5963,0.2745,0.2087,-0.6224,-0.5963,-0.2745,0.0*
%
%ADD57ROTATEDRECTD57*%

G04:AMPARAMS|DCode=58|XSize=2.4316mm|YSize=2.4816mm|CornerRadius=0mm|HoleSize=0mm|Usage=FLASHONLY|Rotation=336.148|XOffset=0mm|YOffset=0mm|HoleType=Round|Shape=Rectangle|*
%AMROTATEDRECTD58*
4,1,4,-1.6137,-0.6432,-0.6102,1.6265,1.6137,0.6432,0.6102,-1.6265,-1.6137,-0.6432,0.0*
%
%ADD58ROTATEDRECTD58*%

G04:AMPARAMS|DCode=59|XSize=1.2016mm|YSize=2.4816mm|CornerRadius=0mm|HoleSize=0mm|Usage=FLASHONLY|Rotation=336.148|XOffset=0mm|YOffset=0mm|HoleType=Round|Shape=Rectangle|*
%AMROTATEDRECTD59*
4,1,4,-1.0512,-0.8919,-0.0478,1.3778,1.0512,0.8919,0.0478,-1.3778,-1.0512,-0.8919,0.0*
%
%ADD59ROTATEDRECTD59*%

G04:AMPARAMS|DCode=60|XSize=2.4316mm|YSize=2.4816mm|CornerRadius=0mm|HoleSize=0mm|Usage=FLASHONLY|Rotation=308.271|XOffset=0mm|YOffset=0mm|HoleType=Round|Shape=Rectangle|*
%AMROTATEDRECTD60*
4,1,4,-1.7272,0.1860,0.2211,1.7230,1.7272,-0.1860,-0.2211,-1.7230,-1.7272,0.1860,0.0*
%
%ADD60ROTATEDRECTD60*%

G04:AMPARAMS|DCode=61|XSize=1.2016mm|YSize=2.4816mm|CornerRadius=0mm|HoleSize=0mm|Usage=FLASHONLY|Rotation=308.271|XOffset=0mm|YOffset=0mm|HoleType=Round|Shape=Rectangle|*
%AMROTATEDRECTD61*
4,1,4,-1.3463,-0.2968,0.6020,1.2402,1.3463,0.2968,-0.6020,-1.2402,-1.3463,-0.2968,0.0*
%
%ADD61ROTATEDRECTD61*%

G04:AMPARAMS|DCode=62|XSize=0.877mm|YSize=0.977mm|CornerRadius=0mm|HoleSize=0mm|Usage=FLASHONLY|Rotation=272.963|XOffset=0mm|YOffset=0mm|HoleType=Round|Shape=Rectangle|*
%AMROTATEDRECTD62*
4,1,4,-0.5105,0.4127,0.4652,0.4632,0.5105,-0.4127,-0.4652,-0.4632,-0.5105,0.4127,0.0*
%
%ADD62ROTATEDRECTD62*%

G04:AMPARAMS|DCode=63|XSize=2.4316mm|YSize=2.4816mm|CornerRadius=0mm|HoleSize=0mm|Usage=FLASHONLY|Rotation=274.296|XOffset=0mm|YOffset=0mm|HoleType=Round|Shape=Rectangle|*
%AMROTATEDRECTD63*
4,1,4,-1.3284,1.1194,1.1462,1.3053,1.3284,-1.1194,-1.1462,-1.3053,-1.3284,1.1194,0.0*
%
%ADD63ROTATEDRECTD63*%

G04:AMPARAMS|DCode=64|XSize=1.2016mm|YSize=2.4816mm|CornerRadius=0mm|HoleSize=0mm|Usage=FLASHONLY|Rotation=274.296|XOffset=0mm|YOffset=0mm|HoleType=Round|Shape=Rectangle|*
%AMROTATEDRECTD64*
4,1,4,-1.2823,0.5061,1.1923,0.6921,1.2823,-0.5061,-1.1923,-0.6921,-1.2823,0.5061,0.0*
%
%ADD64ROTATEDRECTD64*%

G04:AMPARAMS|DCode=65|XSize=2.4316mm|YSize=2.4816mm|CornerRadius=0mm|HoleSize=0mm|Usage=FLASHONLY|Rotation=241.269|XOffset=0mm|YOffset=0mm|HoleType=Round|Shape=Rectangle|*
%AMROTATEDRECTD65*
4,1,4,-0.5036,1.6626,1.6725,0.4697,0.5036,-1.6626,-1.6725,-0.4697,-0.5036,1.6626,0.0*
%
%ADD65ROTATEDRECTD65*%

G04:AMPARAMS|DCode=66|XSize=1.2016mm|YSize=2.4816mm|CornerRadius=0mm|HoleSize=0mm|Usage=FLASHONLY|Rotation=241.269|XOffset=0mm|YOffset=0mm|HoleType=Round|Shape=Rectangle|*
%AMROTATEDRECTD66*
4,1,4,-0.7993,1.1233,1.3769,-0.0696,0.7993,-1.1233,-1.3769,0.0696,-0.7993,1.1233,0.0*
%
%ADD66ROTATEDRECTD66*%

G04:AMPARAMS|DCode=67|XSize=2.4316mm|YSize=2.4816mm|CornerRadius=0mm|HoleSize=0mm|Usage=FLASHONLY|Rotation=1.085|XOffset=0mm|YOffset=0mm|HoleType=Round|Shape=Rectangle|*
%AMROTATEDRECTD67*
4,1,4,-1.1921,-1.2636,-1.2391,1.2175,1.1921,1.2636,1.2391,-1.2175,-1.1921,-1.2636,0.0*
%
%ADD67ROTATEDRECTD67*%

G04:AMPARAMS|DCode=68|XSize=1.2016mm|YSize=2.4816mm|CornerRadius=0mm|HoleSize=0mm|Usage=FLASHONLY|Rotation=1.085|XOffset=0mm|YOffset=0mm|HoleType=Round|Shape=Rectangle|*
%AMROTATEDRECTD68*
4,1,4,-0.5772,-1.2520,-0.6242,1.2292,0.5772,1.2520,0.6242,-1.2292,-0.5772,-1.2520,0.0*
%
%ADD68ROTATEDRECTD68*%

G04:AMPARAMS|DCode=69|XSize=0.877mm|YSize=0.977mm|CornerRadius=0mm|HoleSize=0mm|Usage=FLASHONLY|Rotation=36.135|XOffset=0mm|YOffset=0mm|HoleType=Round|Shape=Rectangle|*
%AMROTATEDRECTD69*
4,1,4,-0.0661,-0.6531,-0.6422,0.1360,0.0661,0.6531,0.6422,-0.1360,-0.0661,-0.6531,0.0*
%
%ADD69ROTATEDRECTD69*%

G04:AMPARAMS|DCode=70|XSize=2.4316mm|YSize=2.4816mm|CornerRadius=0mm|HoleSize=0mm|Usage=FLASHONLY|Rotation=36.159|XOffset=0mm|YOffset=0mm|HoleType=Round|Shape=Rectangle|*
%AMROTATEDRECTD70*
4,1,4,-0.2495,-1.7192,-1.7137,0.2845,0.2495,1.7192,1.7137,-0.2845,-0.2495,-1.7192,0.0*
%
%ADD70ROTATEDRECTD70*%

G04:AMPARAMS|DCode=71|XSize=1.2016mm|YSize=2.4816mm|CornerRadius=0mm|HoleSize=0mm|Usage=FLASHONLY|Rotation=36.159|XOffset=0mm|YOffset=0mm|HoleType=Round|Shape=Rectangle|*
%AMROTATEDRECTD71*
4,1,4,0.2470,-1.3563,-1.2172,0.6473,-0.2470,1.3563,1.2172,-0.6473,0.2470,-1.3563,0.0*
%
%ADD71ROTATEDRECTD71*%

G04:AMPARAMS|DCode=72|XSize=2.4316mm|YSize=2.4816mm|CornerRadius=0mm|HoleSize=0mm|Usage=FLASHONLY|Rotation=63.973|XOffset=0mm|YOffset=0mm|HoleType=Round|Shape=Rectangle|*
%AMROTATEDRECTD72*
4,1,4,0.5815,-1.6370,-1.6485,-0.5481,-0.5815,1.6370,1.6485,0.5481,0.5815,-1.6370,0.0*
%
%ADD72ROTATEDRECTD72*%

G04:AMPARAMS|DCode=73|XSize=1.2016mm|YSize=2.4816mm|CornerRadius=0mm|HoleSize=0mm|Usage=FLASHONLY|Rotation=63.973|XOffset=0mm|YOffset=0mm|HoleType=Round|Shape=Rectangle|*
%AMROTATEDRECTD73*
4,1,4,0.8514,-1.0843,-1.3786,0.0046,-0.8514,1.0843,1.3786,-0.0046,0.8514,-1.0843,0.0*
%
%ADD73ROTATEDRECTD73*%

G04:AMPARAMS|DCode=74|XSize=2.4316mm|YSize=2.4816mm|CornerRadius=0mm|HoleSize=0mm|Usage=FLASHONLY|Rotation=95.000|XOffset=0mm|YOffset=0mm|HoleType=Round|Shape=Rectangle|*
%AMROTATEDRECTD74*
4,1,4,1.3420,-1.1030,-1.1301,-1.3193,-1.3420,1.1030,1.1301,1.3193,1.3420,-1.1030,0.0*
%
%ADD74ROTATEDRECTD74*%

G04:AMPARAMS|DCode=75|XSize=1.2016mm|YSize=2.4816mm|CornerRadius=0mm|HoleSize=0mm|Usage=FLASHONLY|Rotation=95.000|XOffset=0mm|YOffset=0mm|HoleType=Round|Shape=Rectangle|*
%AMROTATEDRECTD75*
4,1,4,1.2884,-0.4904,-1.1837,-0.7067,-1.2884,0.4904,1.1837,0.7067,1.2884,-0.4904,0.0*
%
%ADD75ROTATEDRECTD75*%

G04:AMPARAMS|DCode=76|XSize=0.877mm|YSize=0.977mm|CornerRadius=0mm|HoleSize=0mm|Usage=FLASHONLY|Rotation=95.000|XOffset=0mm|YOffset=0mm|HoleType=Round|Shape=Rectangle|*
%AMROTATEDRECTD76*
4,1,4,0.5249,-0.3943,-0.4484,-0.4794,-0.5249,0.3943,0.4484,0.4794,0.5249,-0.3943,0.0*
%
%ADD76ROTATEDRECTD76*%

G04:AMPARAMS|DCode=77|XSize=2.4316mm|YSize=2.4816mm|CornerRadius=0mm|HoleSize=0mm|Usage=FLASHONLY|Rotation=125.273|XOffset=0mm|YOffset=0mm|HoleType=Round|Shape=Rectangle|*
%AMROTATEDRECTD77*
4,1,4,1.7151,-0.2761,-0.3109,-1.7091,-1.7151,0.2761,0.3109,1.7091,1.7151,-0.2761,0.0*
%
%ADD77ROTATEDRECTD77*%

G04:AMPARAMS|DCode=78|XSize=1.2016mm|YSize=2.4816mm|CornerRadius=0mm|HoleSize=0mm|Usage=FLASHONLY|Rotation=125.273|XOffset=0mm|YOffset=0mm|HoleType=Round|Shape=Rectangle|*
%AMROTATEDRECTD78*
4,1,4,1.3600,0.2260,-0.6661,-1.2070,-1.3600,-0.2260,0.6661,1.2070,1.3600,0.2260,0.0*
%
%ADD78ROTATEDRECTD78*%

G04:AMPARAMS|DCode=79|XSize=1.527mm|YSize=1.777mm|CornerRadius=0mm|HoleSize=0mm|Usage=FLASHONLY|Rotation=185.000|XOffset=0mm|YOffset=0mm|HoleType=Round|Shape=Rectangle|*
%AMROTATEDRECTD79*
4,1,4,0.6832,0.9517,0.8380,-0.8186,-0.6832,-0.9517,-0.8380,0.8186,0.6832,0.9517,0.0*
%
%ADD79ROTATEDRECTD79*%

G04:AMPARAMS|DCode=80|XSize=1.527mm|YSize=1.777mm|CornerRadius=0mm|HoleSize=0mm|Usage=FLASHONLY|Rotation=125.000|XOffset=0mm|YOffset=0mm|HoleType=Round|Shape=Rectangle|*
%AMROTATEDRECTD80*
4,1,4,1.1657,-0.1158,-0.2899,-1.1350,-1.1657,0.1158,0.2899,1.1350,1.1657,-0.1158,0.0*
%
%ADD80ROTATEDRECTD80*%

G04:AMPARAMS|DCode=81|XSize=1.527mm|YSize=1.777mm|CornerRadius=0mm|HoleSize=0mm|Usage=FLASHONLY|Rotation=65.000|XOffset=0mm|YOffset=0mm|HoleType=Round|Shape=Rectangle|*
%AMROTATEDRECTD81*
4,1,4,0.4826,-1.0675,-1.1279,-0.3165,-0.4826,1.0675,1.1279,0.3165,0.4826,-1.0675,0.0*
%
%ADD81ROTATEDRECTD81*%

G04:AMPARAMS|DCode=82|XSize=1.527mm|YSize=1.777mm|CornerRadius=0mm|HoleSize=0mm|Usage=FLASHONLY|Rotation=240.000|XOffset=0mm|YOffset=0mm|HoleType=Round|Shape=Rectangle|*
%AMROTATEDRECTD82*
4,1,4,-0.3877,1.1055,1.1512,0.2170,0.3877,-1.1055,-1.1512,-0.2170,-0.3877,1.1055,0.0*
%
%ADD82ROTATEDRECTD82*%

%ADD83C,1.1270*%
%ADD84P,1.5938X4X85.452*%
D49*
X69138Y-117364D02*
D03*
X81880Y-110444D02*
D03*
D50*
X55880Y-96787D02*
D03*
D51*
X74716Y-85912D02*
D03*
D52*
X-3348Y-86011D02*
D03*
D53*
X18402Y-86052D02*
D03*
D54*
X-57088Y-96693D02*
D03*
D55*
X-37376Y-105885D02*
D03*
D56*
X-65730Y-119621D02*
D03*
X-52469Y-125487D02*
D03*
D57*
X54171Y125259D02*
D03*
X40861Y131011D02*
D03*
D58*
X44450Y101867D02*
D03*
D59*
X24558Y110662D02*
D03*
D60*
X79189Y45720D02*
D03*
D61*
X65718Y62796D02*
D03*
D62*
X136638Y11954D02*
D03*
X135889Y26435D02*
D03*
D63*
X111335Y9740D02*
D03*
D64*
X109705Y31430D02*
D03*
D65*
X75924Y-39073D02*
D03*
D66*
X86379Y-20001D02*
D03*
D67*
X0Y86360D02*
D03*
D68*
X-21746Y85948D02*
D03*
D69*
X-72817Y116630D02*
D03*
X-84527Y108080D02*
D03*
D70*
X-55880Y96787D02*
D03*
D71*
X-73441Y83954D02*
D03*
D72*
X-78101Y48416D02*
D03*
D73*
X-87644Y28872D02*
D03*
D74*
X-112283Y1093D02*
D03*
D75*
X-110387Y-20574D02*
D03*
D76*
X-137262Y-4824D02*
D03*
X-135999Y-19269D02*
D03*
D77*
X-77022Y-40656D02*
D03*
D78*
X-64462Y-58413D02*
D03*
D79*
X-41721Y-3650D02*
D03*
X-69614Y-6090D02*
D03*
X41721Y3650D02*
D03*
X69614Y6091D02*
D03*
D80*
X-24021Y34306D02*
D03*
X-40082Y57242D02*
D03*
X24021Y-34306D02*
D03*
X40082Y-57242D02*
D03*
D81*
X17699Y37956D02*
D03*
X29533Y63333D02*
D03*
D82*
X-20940Y-36269D02*
D03*
X-34940Y-60518D02*
D03*
D83*
X83619Y80606D02*
D03*
X91730Y71094D02*
D03*
X99840Y61582D02*
D03*
D84*
X107950Y52070D02*
D03*
M02*
