G04*
G04 #@! TF.GenerationSoftware,Altium Limited,Altium Designer,23.5.1 (21)*
G04*
G04 Layer_Physical_Order=3*
G04 Layer_Color=36540*
%FSLAX44Y44*%
%MOMM*%
G71*
G04*
G04 #@! TF.SameCoordinates,D8F5AE86-2F01-4A25-AC6E-D886633190FF*
G04*
G04*
G04 #@! TF.FilePolarity,Positive*
G04*
G01*
G75*
%ADD11C,0.2540*%
%ADD17C,0.1524*%
%ADD91C,0.3810*%
%ADD92C,0.3048*%
%ADD93C,0.1270*%
%ADD94C,0.5080*%
%ADD96C,0.7620*%
%ADD98C,1.0000*%
%ADD99O,2.3000X1.2000*%
%ADD100O,2.0000X1.2000*%
%ADD101C,0.7500*%
%ADD102R,1.0000X1.0000*%
%ADD103C,3.5000*%
%ADD104C,0.5588*%
G36*
X170392Y444908D02*
X169926Y443783D01*
Y441661D01*
X170598Y440038D01*
Y418719D01*
X169478Y418121D01*
X169170Y418327D01*
X167386Y418682D01*
X151791D01*
X145025Y425447D01*
X144353Y427071D01*
X142852Y428571D01*
X140892Y429383D01*
X138770D01*
X136809Y428571D01*
X135309Y427071D01*
X134497Y425110D01*
Y422988D01*
X135309Y421028D01*
X136809Y419527D01*
X138433Y418855D01*
X146564Y410724D01*
X148076Y409713D01*
X149860Y409358D01*
X165455D01*
X189511Y385303D01*
Y376922D01*
X189152Y376682D01*
X187030D01*
X185069Y375870D01*
X183569Y374370D01*
X182757Y372409D01*
Y370287D01*
X182911Y369914D01*
Y317442D01*
X182757Y317069D01*
Y314947D01*
X183569Y312987D01*
X185069Y311486D01*
X187030Y310674D01*
X189152D01*
X189376Y310524D01*
X189392Y309960D01*
X188297Y308875D01*
X179282D01*
Y309250D01*
X178927Y311034D01*
X177916Y312546D01*
X173476Y316986D01*
X171964Y317997D01*
X170180Y318352D01*
X166225D01*
X165763Y318543D01*
Y319917D01*
X166562Y320248D01*
X168062Y321749D01*
X168874Y323709D01*
Y325831D01*
X168062Y327791D01*
X166562Y329292D01*
X164601Y330104D01*
X162479D01*
X160519Y329292D01*
X159019Y327791D01*
X158346Y326168D01*
X155538Y323359D01*
X154879Y323482D01*
X154220Y323838D01*
X153913Y325380D01*
X153488Y326016D01*
X154172Y326701D01*
X155183Y328213D01*
X155538Y329997D01*
Y332740D01*
X155183Y334524D01*
X154172Y336036D01*
X153258Y336951D01*
X151746Y337961D01*
X150296Y338250D01*
X149713Y339463D01*
X152359Y342108D01*
X160856D01*
X162479Y341436D01*
X164601D01*
X166562Y342248D01*
X168062Y343749D01*
X168874Y345709D01*
Y347831D01*
X168062Y349791D01*
X166562Y351292D01*
X164601Y352104D01*
X162479D01*
X160856Y351432D01*
X150428D01*
X148644Y351077D01*
X147132Y350066D01*
X139960Y342894D01*
X138949Y341382D01*
X138594Y339598D01*
Y334569D01*
X138949Y332785D01*
X139748Y331590D01*
X139622Y331464D01*
X138611Y329952D01*
X138256Y328168D01*
Y325425D01*
X138611Y323641D01*
X139622Y322129D01*
X139748Y322003D01*
X138949Y320808D01*
X138594Y319024D01*
Y310134D01*
X138949Y308350D01*
X139960Y306838D01*
X146722Y300075D01*
Y273711D01*
X145684Y272672D01*
X144513Y273298D01*
X144616Y273812D01*
Y297180D01*
X144261Y298964D01*
X143250Y300476D01*
X132134Y311593D01*
X132267Y313255D01*
X132606Y313594D01*
X133617Y315107D01*
X133972Y316891D01*
Y319634D01*
X133617Y321418D01*
X132670Y322834D01*
X133617Y324251D01*
X133972Y326035D01*
Y328778D01*
X133617Y330562D01*
X132670Y331978D01*
X133617Y333395D01*
X133972Y335178D01*
Y337922D01*
X133617Y339706D01*
X132606Y341218D01*
X131692Y342132D01*
X130180Y343143D01*
X128812Y343415D01*
Y346247D01*
X129693Y347128D01*
X140150D01*
X141934Y347483D01*
X143446Y348494D01*
X148177Y353224D01*
X152654D01*
X154438Y353579D01*
X155950Y354590D01*
X164934Y363574D01*
X166562Y364248D01*
X168062Y365748D01*
X168874Y367709D01*
Y369831D01*
X168062Y371791D01*
X166562Y373292D01*
X165860Y373583D01*
Y374957D01*
X166562Y375248D01*
X168062Y376749D01*
X168874Y378709D01*
Y380831D01*
X168062Y382791D01*
X166562Y384292D01*
X165939Y384550D01*
Y385925D01*
X166562Y386183D01*
X168062Y387683D01*
X168874Y389644D01*
Y391766D01*
X168062Y393726D01*
X166562Y395227D01*
X164601Y396039D01*
X162479D01*
X160519Y395227D01*
X159019Y393726D01*
X158346Y392103D01*
X144686Y378443D01*
X124746D01*
X122962Y378088D01*
X121449Y377077D01*
X112559Y368187D01*
X111226Y369520D01*
X109265Y370332D01*
X107143D01*
X105183Y369520D01*
X104335Y368672D01*
X103505Y368134D01*
X102675Y368672D01*
X101827Y369520D01*
X99867Y370332D01*
X97745D01*
X95785Y369520D01*
X94284Y368019D01*
X93472Y366059D01*
Y363937D01*
X94284Y361977D01*
X95785Y360476D01*
X97745Y359664D01*
X99867D01*
X101827Y360476D01*
X102675Y361324D01*
X103505Y361862D01*
X104335Y361324D01*
X105183Y360476D01*
X107143Y359664D01*
X107514D01*
Y302677D01*
X106243Y301828D01*
X105201Y302260D01*
X103214D01*
Y329184D01*
X102859Y330968D01*
X101848Y332480D01*
X81140Y353188D01*
X80468Y354812D01*
X78967Y356312D01*
X77007Y357124D01*
X74885D01*
X74307Y356885D01*
X73252Y357590D01*
Y366917D01*
X115676Y409342D01*
X115676Y409342D01*
X116799Y411022D01*
X117193Y413004D01*
Y438545D01*
X124827Y446179D01*
X169544D01*
X170392Y444908D01*
D02*
G37*
G36*
X103378Y438912D02*
Y417830D01*
X101346Y415798D01*
X78486D01*
Y440436D01*
X80518Y442468D01*
X99822D01*
X103378Y438912D01*
D02*
G37*
G36*
X101033Y409348D02*
X64409Y372724D01*
X63287Y371044D01*
X62892Y369062D01*
Y343408D01*
X63287Y341426D01*
X64409Y339745D01*
X78228Y325927D01*
Y308157D01*
X77277Y307868D01*
X76958Y307864D01*
X64640Y320182D01*
Y332232D01*
X64148Y334710D01*
X62744Y336810D01*
X53464Y346090D01*
Y376794D01*
X73158Y396488D01*
X74562Y398588D01*
X75054Y401066D01*
Y403464D01*
X82209Y410619D01*
X100507D01*
X101033Y409348D01*
D02*
G37*
G36*
X344586Y307751D02*
X343316Y307366D01*
X342956Y307904D01*
X333050Y317810D01*
X331160Y319073D01*
X328930Y319517D01*
X296518D01*
Y378714D01*
X296518Y378714D01*
X296123Y380696D01*
X295000Y382377D01*
X295000Y382377D01*
X221842Y455535D01*
Y471424D01*
X221447Y473406D01*
X220324Y475087D01*
X217785Y477626D01*
X216104Y478749D01*
X214122Y479143D01*
X192786D01*
X190804Y478749D01*
X189123Y477626D01*
X187092Y475594D01*
X185969Y473914D01*
X185574Y471932D01*
Y450282D01*
X184401Y449796D01*
X179177Y455020D01*
X177496Y456143D01*
X175514Y456538D01*
X122682D01*
X120700Y456143D01*
X119019Y455020D01*
X108351Y444352D01*
X107834Y443577D01*
X106199Y443416D01*
X103484Y446130D01*
X101804Y447253D01*
X99822Y447648D01*
X80518D01*
X78536Y447253D01*
X76856Y446130D01*
X74823Y444099D01*
X73701Y442418D01*
X73306Y440436D01*
Y420029D01*
X64002Y410724D01*
X62598Y408624D01*
X62106Y406146D01*
Y403748D01*
X55681Y397323D01*
X54530Y397968D01*
Y399930D01*
X53930Y402170D01*
X52770Y404179D01*
X51129Y405820D01*
X49120Y406980D01*
X46880Y407580D01*
X44560D01*
X42319Y406980D01*
X40311Y405820D01*
X38670Y404179D01*
X37510Y402170D01*
X36910Y399930D01*
Y397610D01*
X37510Y395369D01*
X38670Y393361D01*
X40311Y391720D01*
X42319Y390560D01*
X44560Y389960D01*
X46522D01*
X47167Y388809D01*
X42412Y384054D01*
X41008Y381954D01*
X40516Y379476D01*
Y367460D01*
X39246Y367207D01*
X39104Y367550D01*
X37603Y369050D01*
X35643Y369862D01*
X33521D01*
X31560Y369050D01*
X30060Y367550D01*
X29248Y365589D01*
Y363467D01*
X30060Y361507D01*
X31560Y360006D01*
X33521Y359194D01*
X35643D01*
X37603Y360006D01*
X39104Y361507D01*
X39246Y361848D01*
X40516Y361596D01*
Y354960D01*
X39246Y354707D01*
X39104Y355050D01*
X37603Y356550D01*
X35643Y357362D01*
X33521D01*
X31560Y356550D01*
X30060Y355050D01*
X29248Y353089D01*
Y350967D01*
X30060Y349007D01*
X31560Y347506D01*
X33521Y346694D01*
X35643D01*
X37603Y347506D01*
X39104Y349007D01*
X39246Y349348D01*
X40516Y349096D01*
Y343408D01*
X41008Y340930D01*
X42412Y338830D01*
X51692Y329550D01*
Y326962D01*
X50422Y326228D01*
X49120Y326980D01*
X46880Y327580D01*
X44560D01*
X42319Y326980D01*
X40311Y325820D01*
X38670Y324179D01*
X37510Y322170D01*
X36910Y319930D01*
Y317610D01*
X37510Y315369D01*
X38670Y313361D01*
X40311Y311720D01*
X42319Y310560D01*
X44560Y309960D01*
X46880D01*
X49120Y310560D01*
X51129Y311720D01*
X52169Y312760D01*
X53476Y312909D01*
X53821Y312689D01*
X65916Y300594D01*
Y289306D01*
X66408Y286828D01*
X67812Y284728D01*
X69484Y283055D01*
X68958Y281786D01*
X41148D01*
X39166Y281391D01*
X37485Y280268D01*
X27833Y270616D01*
X26711Y268936D01*
X26316Y266954D01*
Y257161D01*
X20447Y251292D01*
X19325Y249612D01*
X18930Y247630D01*
Y160548D01*
X19325Y158566D01*
X20447Y156885D01*
X26316Y151017D01*
Y146050D01*
X26711Y144068D01*
X27833Y142388D01*
X30373Y139847D01*
X32054Y138725D01*
X34036Y138330D01*
X45651D01*
X46249Y137210D01*
X45834Y136590D01*
X45342Y134112D01*
Y97536D01*
X45834Y95058D01*
X47238Y92958D01*
X71758Y68438D01*
Y34686D01*
X70191Y33119D01*
X54610D01*
X52628Y32725D01*
X50947Y31602D01*
X48916Y29571D01*
X47793Y27890D01*
X47399Y25908D01*
Y14363D01*
X47793Y12380D01*
X48916Y10700D01*
X50070Y9546D01*
X51750Y8423D01*
X53733Y8029D01*
X73406D01*
X75388Y8423D01*
X77069Y9546D01*
X79355Y11832D01*
X80477Y13512D01*
X80871Y15494D01*
Y25487D01*
X82810Y27426D01*
X84214Y29526D01*
X84706Y32004D01*
Y63408D01*
X85976Y63793D01*
X86366Y63210D01*
X120106Y29470D01*
X121619Y28459D01*
X123403Y28104D01*
X136245D01*
X143516Y20834D01*
X145028Y19823D01*
X146812Y19468D01*
X167487D01*
X175908Y11048D01*
X176580Y9424D01*
X178081Y7924D01*
X180041Y7112D01*
X182163D01*
X184123Y7924D01*
X185624Y9424D01*
X186436Y11385D01*
Y12250D01*
X187706Y12777D01*
X187976Y12507D01*
X189936Y11695D01*
X192058D01*
X192143Y11730D01*
X193040Y11131D01*
X193852Y9171D01*
X195352Y7670D01*
X197313Y6858D01*
X199435D01*
X201395Y7670D01*
X202896Y9171D01*
X203708Y11131D01*
Y13253D01*
X203238Y14388D01*
X204086Y15658D01*
X211074D01*
Y14179D01*
X211886Y12219D01*
X213386Y10718D01*
X215347Y9906D01*
X217469D01*
X219092Y10578D01*
X224790D01*
X226574Y10933D01*
X228086Y11944D01*
X230632Y14490D01*
X231902Y13964D01*
Y13417D01*
X232714Y11457D01*
X234214Y9956D01*
X235838Y9284D01*
X238534Y6587D01*
X238048Y5414D01*
X5414D01*
X5414Y464037D01*
X6660Y464285D01*
X6660Y464284D01*
X9131Y460586D01*
X12276Y457441D01*
X15974Y454970D01*
X20084Y453268D01*
X24130Y452463D01*
Y474980D01*
X26670D01*
Y477520D01*
X49187D01*
X48382Y481566D01*
X46680Y485676D01*
X44209Y489374D01*
X41064Y492519D01*
X39789Y493371D01*
X40158Y494586D01*
X344586D01*
Y307751D01*
D02*
G37*
G36*
X261012Y363361D02*
Y304646D01*
X210058D01*
X208633Y304362D01*
X207363Y305186D01*
Y399248D01*
X206969Y401230D01*
X205847Y402911D01*
X189076Y419682D01*
Y433638D01*
X190249Y434124D01*
X261012Y363361D01*
D02*
G37*
G36*
X93890Y327253D02*
Y291913D01*
X92620Y291387D01*
X88587Y295420D01*
Y328073D01*
X88193Y330055D01*
X87070Y331735D01*
X87070Y331735D01*
X73885Y344919D01*
X73928Y345419D01*
X75244Y345899D01*
X93890Y327253D01*
D02*
G37*
G36*
X216662Y471424D02*
Y453390D01*
X291338Y378714D01*
Y299212D01*
X296164Y294386D01*
X301244Y289306D01*
Y265430D01*
X298196Y262382D01*
X279400D01*
X264046Y277736D01*
X260643Y281331D01*
X208340D01*
X207363Y282307D01*
Y296772D01*
X210058Y299466D01*
X263652D01*
X266192Y302260D01*
Y365506D01*
X190754Y440944D01*
Y471932D01*
X192786Y473964D01*
X214122D01*
X216662Y471424D01*
D02*
G37*
G36*
X275737Y258720D02*
X277418Y257597D01*
X279400Y257202D01*
X280096D01*
Y246516D01*
X278384Y244803D01*
X277114Y245329D01*
Y245663D01*
X276302Y247624D01*
X274802Y249124D01*
X272841Y249936D01*
X270719D01*
X268759Y249124D01*
X267258Y247624D01*
X266446Y245663D01*
Y243541D01*
X266489Y243438D01*
X265783Y242382D01*
X231233D01*
X230528Y243438D01*
X230886Y244303D01*
Y246425D01*
X230074Y248386D01*
X228573Y249886D01*
X228540Y249900D01*
Y251170D01*
X228573Y251184D01*
X230074Y252684D01*
X230886Y254645D01*
Y256767D01*
X230722Y257162D01*
X231428Y258218D01*
X267044D01*
X267417Y258064D01*
X269539D01*
X271500Y258876D01*
X272642Y260019D01*
X274214Y260243D01*
X275737Y258720D01*
D02*
G37*
G36*
X333009Y301370D02*
Y251206D01*
X333453Y248976D01*
X334716Y247086D01*
X334970Y246832D01*
X336860Y245569D01*
X339090Y245125D01*
X341320Y245569D01*
X343210Y246832D01*
X343316Y246990D01*
X344586Y246605D01*
Y195679D01*
X315468D01*
X313486Y195285D01*
X311805Y194163D01*
X300375Y182733D01*
X299253Y181052D01*
X298859Y179070D01*
Y172633D01*
X297589Y171537D01*
X296092Y171734D01*
X285092D01*
X282531Y171397D01*
X280144Y170408D01*
X278095Y168836D01*
X276523Y166786D01*
X276115Y165803D01*
X274870Y165555D01*
X226308Y214116D01*
X224796Y215127D01*
X223012Y215482D01*
X199035D01*
X197702Y216815D01*
Y219604D01*
X198972Y220330D01*
X200357Y219757D01*
X202479D01*
X204439Y220569D01*
X205939Y222069D01*
X206751Y224030D01*
Y226152D01*
X206235Y227398D01*
X207278Y228199D01*
X207485Y228040D01*
X209339Y227272D01*
X211328Y227010D01*
X224724D01*
X225298Y226152D01*
Y224030D01*
X226110Y222069D01*
X227610Y220569D01*
X229571Y219757D01*
X231693D01*
X233654Y220569D01*
X235154Y222069D01*
X235966Y224030D01*
Y226152D01*
X236540Y227010D01*
X279146D01*
X281135Y227272D01*
X282989Y228040D01*
X284581Y229261D01*
X293217Y237897D01*
X293217Y237897D01*
X294438Y239489D01*
X295206Y241343D01*
X295468Y243332D01*
X295468Y243332D01*
Y257202D01*
X298196D01*
X298196Y257202D01*
X300178Y257597D01*
X301859Y258720D01*
X304907Y261768D01*
X306029Y263448D01*
X306423Y265430D01*
Y289306D01*
X306029Y291288D01*
X304907Y292969D01*
X299827Y298048D01*
X296518Y301357D01*
Y307863D01*
X326516D01*
X333009Y301370D01*
D02*
G37*
G36*
X73790Y253851D02*
Y237886D01*
X60954Y225050D01*
X59550Y222950D01*
X59058Y220472D01*
Y150510D01*
X56391Y147843D01*
X55217Y148329D01*
Y161798D01*
X55028Y162752D01*
X54852Y163708D01*
X54831Y163741D01*
X54823Y163780D01*
X54282Y164590D01*
X53755Y165405D01*
X46835Y172534D01*
Y236742D01*
X58823Y248729D01*
X59740Y247877D01*
X58928Y245917D01*
Y243795D01*
X59740Y241835D01*
X61241Y240334D01*
X63201Y239522D01*
X65323D01*
X67284Y240334D01*
X68784Y241835D01*
X69596Y243795D01*
Y245917D01*
X68784Y247878D01*
X67487Y249174D01*
X68784Y250471D01*
X69596Y252431D01*
Y254408D01*
X71120D01*
X72520Y254687D01*
X73790Y253851D01*
D02*
G37*
G36*
X194194Y195956D02*
X194490Y195897D01*
X195978Y195601D01*
X197358D01*
Y189634D01*
X197104Y189021D01*
Y186899D01*
X197358Y186286D01*
Y185723D01*
X197756Y185325D01*
X197916Y184939D01*
X199417Y183438D01*
X199803Y183278D01*
X201067Y182014D01*
X204145D01*
X205596Y180564D01*
Y176386D01*
X204724Y175634D01*
X199154D01*
X198025Y175859D01*
X187234D01*
X187198Y175895D01*
X184785D01*
X180848Y179832D01*
Y195072D01*
X182626Y196850D01*
X192855D01*
X194194Y195956D01*
D02*
G37*
G36*
X344586Y154820D02*
Y78861D01*
X343383Y78453D01*
X343089Y78837D01*
X341040Y80409D01*
X338653Y81398D01*
X336092Y81735D01*
X328092D01*
X325531Y81398D01*
X323145Y80409D01*
X321096Y78837D01*
X319523Y76788D01*
X318535Y74401D01*
X318197Y71840D01*
X318535Y69279D01*
X319523Y66893D01*
X321096Y64844D01*
X323145Y63271D01*
X325531Y62283D01*
X328092Y61946D01*
X336092D01*
X338653Y62283D01*
X341040Y63271D01*
X343089Y64844D01*
X343383Y65228D01*
X344586Y64819D01*
Y37049D01*
X343371Y36681D01*
X342139Y38524D01*
X338994Y41669D01*
X335296Y44140D01*
X331186Y45842D01*
X327140Y46647D01*
Y24130D01*
X322060D01*
Y46647D01*
X318014Y45842D01*
X313904Y44140D01*
X310206Y41669D01*
X307061Y38524D01*
X304590Y34826D01*
X302888Y30716D01*
X302096Y26734D01*
X300826Y26859D01*
Y37592D01*
X300471Y39376D01*
X299460Y40888D01*
X273863Y66485D01*
X273985Y67809D01*
X274714Y68364D01*
X276051Y68033D01*
X276523Y66891D01*
X278096Y64842D01*
X280145Y63270D01*
X282531Y62281D01*
X285092Y61944D01*
X296092D01*
X298653Y62281D01*
X301040Y63270D01*
X303089Y64842D01*
X304661Y66891D01*
X305650Y69278D01*
X305987Y71839D01*
X305650Y74400D01*
X304661Y76786D01*
X303089Y78835D01*
X301040Y80408D01*
X300378Y80682D01*
X300392Y82051D01*
X301641Y83299D01*
X302637Y85023D01*
X303152Y86946D01*
Y87022D01*
X305816D01*
X306683Y87195D01*
X307557Y87324D01*
X307670Y87391D01*
X307798Y87417D01*
X308533Y87908D01*
X309292Y88362D01*
X309370Y88467D01*
X309478Y88539D01*
X309970Y89274D01*
X310497Y89984D01*
X310529Y90111D01*
X310601Y90220D01*
X310774Y91087D01*
X310914Y91645D01*
X310917Y91649D01*
X310923Y91682D01*
X310989Y91944D01*
X310994Y92036D01*
X311331Y93731D01*
Y94920D01*
X310938Y96896D01*
X311378Y97078D01*
X312878Y98579D01*
X313690Y100539D01*
Y101600D01*
X314751D01*
X316712Y102412D01*
X318212Y103912D01*
X319024Y105873D01*
Y107995D01*
X318212Y109956D01*
X316932Y111236D01*
X317187Y112274D01*
X317321Y112506D01*
X325572D01*
X327306Y112851D01*
X328776Y113833D01*
X332179Y117236D01*
X332179Y117236D01*
X333161Y118706D01*
X333506Y120440D01*
X333506Y120441D01*
Y126696D01*
X333506Y126696D01*
X333161Y128431D01*
X332179Y129901D01*
X332179Y129901D01*
X331963Y130117D01*
X332232Y130765D01*
Y132887D01*
X331420Y134847D01*
X329920Y136348D01*
X327959Y137160D01*
X326419D01*
X326336Y137203D01*
X325499Y138199D01*
X325456Y138333D01*
X325728Y139700D01*
Y151294D01*
X326682Y152132D01*
X328092Y151946D01*
X336092D01*
X338653Y152283D01*
X341039Y153272D01*
X343088Y154844D01*
X343383Y155229D01*
X344586Y154820D01*
D02*
G37*
G36*
X73152Y273050D02*
Y261620D01*
X71120Y259588D01*
X62357D01*
X41656Y238887D01*
Y170434D01*
X50038Y161798D01*
Y144780D01*
X48768Y143510D01*
X34036D01*
X31496Y146050D01*
Y153162D01*
X24110Y160548D01*
Y247630D01*
X31496Y255016D01*
Y266954D01*
X41148Y276606D01*
X69596D01*
X73152Y273050D01*
D02*
G37*
G36*
X81943Y135921D02*
Y117083D01*
X81579Y116840D01*
X79457D01*
X77497Y116028D01*
X75996Y114528D01*
X75828Y114122D01*
X74582Y113874D01*
X72226Y116231D01*
Y127863D01*
X80769Y136407D01*
X81943Y135921D01*
D02*
G37*
G36*
X122949Y248418D02*
X122846Y247904D01*
Y114199D01*
X114052Y105404D01*
X113041Y103892D01*
X112686Y102108D01*
Y85598D01*
X113041Y83814D01*
X114052Y82302D01*
X118250Y78104D01*
X118922Y76480D01*
X120422Y74980D01*
X122383Y74168D01*
X124505D01*
X125386Y74533D01*
X126656Y73685D01*
Y71326D01*
X125675Y70520D01*
X124714Y70711D01*
X117461D01*
X111351Y76821D01*
Y97028D01*
X110957Y99010D01*
X109834Y100690D01*
X94222Y116303D01*
X94542Y117093D01*
X94845Y117476D01*
X96819D01*
X98073Y117995D01*
X98856Y116104D01*
X100357Y114604D01*
X102317Y113792D01*
X104439D01*
X106399Y114604D01*
X107900Y116104D01*
X108521Y117605D01*
X109380Y118168D01*
X110633Y117721D01*
X111302Y116104D01*
X112802Y114604D01*
X114763Y113792D01*
X116885D01*
X118846Y114604D01*
X120346Y116104D01*
X121158Y118065D01*
Y120187D01*
X120486Y121810D01*
Y247751D01*
X121778Y249044D01*
X122949Y248418D01*
D02*
G37*
G36*
X222101Y164144D02*
X222456Y162360D01*
X223466Y160847D01*
X228486Y155828D01*
X229158Y154205D01*
X230658Y152704D01*
X232619Y151892D01*
X234741D01*
X236702Y152704D01*
X238202Y154205D01*
X239014Y156165D01*
Y158287D01*
X238202Y160247D01*
X236702Y161748D01*
X235078Y162420D01*
X231424Y166074D01*
Y178977D01*
X232597Y179463D01*
X266811Y145249D01*
Y140480D01*
X266138Y138857D01*
Y136735D01*
X266950Y134775D01*
X268451Y133274D01*
X269465Y132854D01*
X269763Y131356D01*
X269587Y131179D01*
X268576Y129667D01*
X268221Y127883D01*
Y99381D01*
X268122Y99315D01*
X266852Y99994D01*
Y105311D01*
X266497Y107095D01*
X265487Y108607D01*
X256884Y117210D01*
Y135112D01*
X257556Y136735D01*
Y138857D01*
X256744Y140817D01*
X255243Y142318D01*
X253283Y143130D01*
X251161D01*
X250062Y142675D01*
X248456Y143233D01*
X248142Y143991D01*
X246641Y145492D01*
X244681Y146304D01*
X242559D01*
X240599Y145492D01*
X239098Y143991D01*
X238286Y142031D01*
Y139909D01*
X238411Y139606D01*
X237555Y138559D01*
X236728Y138836D01*
Y139237D01*
X235916Y141198D01*
X235916Y141198D01*
Y143256D01*
X235561Y145040D01*
X234550Y146552D01*
X232658Y148444D01*
X231146Y149455D01*
X229362Y149810D01*
X220586D01*
X218802Y149455D01*
X217290Y148444D01*
X215014Y146168D01*
X214148Y144872D01*
X213145Y144981D01*
X212878Y145083D01*
Y161006D01*
X212523Y162790D01*
X211512Y164302D01*
X206375Y169439D01*
X206364Y169953D01*
X206424Y170292D01*
X206704Y170844D01*
X206739Y170871D01*
X207390Y171306D01*
X208106Y171711D01*
X208978Y172463D01*
X209097Y172616D01*
X209258Y172723D01*
X209715Y173407D01*
X210222Y174056D01*
X210273Y174242D01*
X210381Y174403D01*
X210541Y175210D01*
X210761Y176003D01*
X210737Y176196D01*
X210775Y176386D01*
Y180564D01*
X210484Y182028D01*
X211289Y183298D01*
X222101D01*
Y164144D01*
D02*
G37*
G36*
X344586Y172466D02*
X325120D01*
X322798Y170144D01*
X321095Y168837D01*
X319523Y166788D01*
X318534Y164402D01*
X318197Y161841D01*
X318534Y159280D01*
X319523Y156893D01*
X320548Y155557D01*
Y139700D01*
X300369Y119521D01*
Y114048D01*
X300240Y113397D01*
Y108542D01*
X300369Y107891D01*
Y101586D01*
X305892Y96063D01*
Y93731D01*
X305816Y92202D01*
X301861D01*
X301641Y92583D01*
X300234Y93991D01*
X298510Y94986D01*
X296587Y95501D01*
X294596D01*
X292673Y94986D01*
X290950Y93991D01*
X289995Y93036D01*
X285129Y97903D01*
Y120029D01*
X287522Y122422D01*
X287523Y122423D01*
X304038Y138938D01*
Y156080D01*
X304661Y156892D01*
X305649Y159278D01*
X305986Y161839D01*
X305649Y164400D01*
X304661Y166786D01*
X304038Y167598D01*
Y179070D01*
X315468Y190500D01*
X344586D01*
Y172466D01*
D02*
G37*
G36*
X133745Y246759D02*
X134398Y246406D01*
X134706Y244861D01*
X135716Y243348D01*
X137162Y241903D01*
X136150Y240891D01*
X135139Y239379D01*
X134784Y237595D01*
Y177690D01*
X134112Y176067D01*
Y173945D01*
X134924Y171985D01*
X136425Y170484D01*
X138385Y169672D01*
X140507D01*
X141095Y169915D01*
X142150Y169210D01*
Y166260D01*
X141478Y164637D01*
Y162515D01*
X142290Y160555D01*
X143791Y159054D01*
X144196Y158886D01*
X144444Y157640D01*
X137928Y151124D01*
X136917Y149612D01*
X136562Y147828D01*
Y144924D01*
X135890Y143301D01*
Y141179D01*
X136702Y139219D01*
X138202Y137718D01*
X138293Y137265D01*
X135547Y134519D01*
X134536Y133007D01*
X134181Y131223D01*
Y109731D01*
X128022Y103571D01*
X127011Y102059D01*
X126656Y100275D01*
Y92092D01*
X125984Y90469D01*
Y88347D01*
X126796Y86386D01*
X127833Y85349D01*
X127737Y84021D01*
X126804Y83686D01*
X126466Y84024D01*
X124842Y84696D01*
X122010Y87529D01*
Y100177D01*
X130804Y108972D01*
X131815Y110484D01*
X132170Y112268D01*
Y245973D01*
X133081Y246884D01*
X133745Y246759D01*
D02*
G37*
G36*
X235770Y104348D02*
Y99424D01*
X236124Y97640D01*
X237135Y96128D01*
X241275Y91987D01*
Y86128D01*
X233165Y78018D01*
X231992Y78504D01*
Y106378D01*
X233262Y106856D01*
X235770Y104348D01*
D02*
G37*
G36*
X282183Y24980D02*
Y18773D01*
X281190Y17780D01*
X269494D01*
X265430Y21844D01*
X236518D01*
X236310Y22098D01*
Y33020D01*
X274143D01*
X282183Y24980D01*
D02*
G37*
G36*
X75692Y25654D02*
Y15494D01*
X73406Y13208D01*
X53733D01*
X52578Y14363D01*
Y25908D01*
X54610Y27940D01*
X73406D01*
X75692Y25654D01*
D02*
G37*
%LPC*%
G36*
X301698Y477877D02*
Y468122D01*
Y458367D01*
X303049Y458729D01*
X305347Y460056D01*
X306321Y461030D01*
X308258Y459912D01*
X310498Y459312D01*
X312818D01*
X315058Y459912D01*
X317068Y461072D01*
X317908Y461913D01*
X318748Y461072D01*
X320757Y459912D01*
X322998Y459312D01*
X325318D01*
X327559Y459912D01*
X329567Y461072D01*
X331208Y462713D01*
X332368Y464721D01*
X332968Y466962D01*
Y469282D01*
X332368Y471522D01*
X331208Y473531D01*
X329567Y475172D01*
X327559Y476332D01*
X325318Y476932D01*
X322998D01*
X320757Y476332D01*
X318748Y475172D01*
X317908Y474331D01*
X317068Y475172D01*
X315058Y476332D01*
X312818Y476932D01*
X310498D01*
X308258Y476332D01*
X306321Y475214D01*
X305347Y476188D01*
X303049Y477515D01*
X301698Y477877D01*
D02*
G37*
G36*
X296618D02*
X295267Y477515D01*
X294257Y476932D01*
X277848D01*
Y459312D01*
X294257D01*
X295267Y458729D01*
X296618Y458367D01*
Y468122D01*
Y477877D01*
D02*
G37*
G36*
X49187Y472440D02*
X29210D01*
Y452463D01*
X33256Y453268D01*
X37366Y454970D01*
X41064Y457441D01*
X44209Y460586D01*
X46680Y464284D01*
X48382Y468394D01*
X49187Y472440D01*
D02*
G37*
G36*
X338119Y436118D02*
X335997D01*
X334036Y435306D01*
X332536Y433806D01*
X331724Y431845D01*
Y429723D01*
X332536Y427762D01*
X334036Y426262D01*
X335997Y425450D01*
X338119D01*
X340079Y426262D01*
X341580Y427762D01*
X342392Y429723D01*
Y431845D01*
X341580Y433806D01*
X340079Y435306D01*
X338119Y436118D01*
D02*
G37*
G36*
X338288Y368977D02*
X336166D01*
X334206Y368165D01*
X332705Y366665D01*
X332571Y366340D01*
X331301D01*
X331166Y366665D01*
X329665Y368165D01*
X327705Y368977D01*
X325583D01*
X323623Y368165D01*
X322122Y366665D01*
X321310Y364704D01*
Y362582D01*
X322122Y360622D01*
X323623Y359121D01*
X323948Y358987D01*
Y357717D01*
X323623Y357582D01*
X322122Y356082D01*
X321310Y354121D01*
Y351999D01*
X322122Y350038D01*
X323623Y348538D01*
X325583Y347726D01*
X327705D01*
X329665Y348538D01*
X331166Y350038D01*
X331301Y350364D01*
X332571D01*
X332705Y350038D01*
X334206Y348538D01*
X336166Y347726D01*
X338288D01*
X340249Y348538D01*
X341749Y350038D01*
X342561Y351999D01*
Y354121D01*
X341749Y356082D01*
X340249Y357582D01*
X339924Y357717D01*
Y358987D01*
X340249Y359121D01*
X341749Y360622D01*
X342561Y362582D01*
Y364704D01*
X341749Y366665D01*
X340249Y368165D01*
X338288Y368977D01*
D02*
G37*
G36*
X36421Y134874D02*
X34299D01*
X32339Y134062D01*
X30838Y132562D01*
X30026Y130601D01*
Y128479D01*
X30838Y126518D01*
X32339Y125018D01*
X34299Y124206D01*
X36421D01*
X38382Y125018D01*
X39882Y126518D01*
X40694Y128479D01*
Y130601D01*
X39882Y132562D01*
X38382Y134062D01*
X36421Y134874D01*
D02*
G37*
G36*
Y122374D02*
X34299D01*
X32339Y121562D01*
X30838Y120062D01*
X30026Y118101D01*
Y115979D01*
X30838Y114018D01*
X32339Y112518D01*
X34299Y111706D01*
X36421D01*
X38382Y112518D01*
X39882Y114018D01*
X40694Y115979D01*
Y118101D01*
X39882Y120062D01*
X38382Y121562D01*
X36421Y122374D01*
D02*
G37*
G36*
X59481Y77724D02*
X57359D01*
X55399Y76912D01*
X53898Y75412D01*
X53086Y73451D01*
Y71329D01*
X53898Y69369D01*
X55399Y67868D01*
X57359Y67056D01*
X59481D01*
X61441Y67868D01*
X62942Y69369D01*
X63754Y71329D01*
Y73451D01*
X62942Y75412D01*
X61441Y76912D01*
X59481Y77724D01*
D02*
G37*
G36*
X46981Y73406D02*
X44859D01*
X42899Y72594D01*
X41398Y71094D01*
X40586Y69133D01*
Y67011D01*
X41398Y65051D01*
X42899Y63550D01*
X44859Y62738D01*
X46981D01*
X48941Y63550D01*
X50442Y65051D01*
X51254Y67011D01*
Y69133D01*
X50442Y71094D01*
X48941Y72594D01*
X46981Y73406D01*
D02*
G37*
G36*
X114066Y17755D02*
X111944D01*
X109983Y16943D01*
X108483Y15442D01*
X107671Y13482D01*
Y11360D01*
X108483Y9399D01*
X109983Y7899D01*
X111944Y7087D01*
X114066D01*
X116026Y7899D01*
X117527Y9399D01*
X118339Y11360D01*
Y13482D01*
X117527Y15442D01*
X116026Y16943D01*
X114066Y17755D01*
D02*
G37*
G36*
X231947Y370840D02*
X229825D01*
X227864Y370028D01*
X226890Y369053D01*
X226060Y368668D01*
X225230Y369053D01*
X224256Y370028D01*
X222295Y370840D01*
X220173D01*
X218213Y370028D01*
X216712Y368527D01*
X215900Y366567D01*
Y364445D01*
X216712Y362485D01*
X217687Y361510D01*
X218072Y360680D01*
X217687Y359850D01*
X216712Y358876D01*
X215900Y356915D01*
Y354793D01*
X216712Y352832D01*
X218213Y351332D01*
X220173Y350520D01*
X222295D01*
X224256Y351332D01*
X225230Y352307D01*
X226060Y352692D01*
X226890Y352307D01*
X227864Y351332D01*
X229825Y350520D01*
X231947D01*
X233908Y351332D01*
X235408Y352832D01*
X236220Y354793D01*
Y356915D01*
X235408Y358876D01*
X234433Y359850D01*
X234048Y360680D01*
X234433Y361510D01*
X235408Y362485D01*
X236220Y364445D01*
Y366567D01*
X235408Y368527D01*
X233908Y370028D01*
X231947Y370840D01*
D02*
G37*
%LPD*%
D11*
X202184Y280162D02*
Y399248D01*
X183896Y417536D02*
X202184Y399248D01*
X188091Y316008D02*
Y371348D01*
X218948Y263398D02*
X268478D01*
X202184Y280162D02*
X218948Y263398D01*
X84709Y227711D02*
X89408Y232410D01*
X84709Y190881D02*
Y227711D01*
Y190881D02*
X87122Y188468D01*
X183896Y417536D02*
Y442976D01*
X175514Y451358D02*
X183896Y442976D01*
X122682Y451358D02*
X175514D01*
X112014Y413004D02*
Y440690D01*
X68072Y343408D02*
Y369062D01*
X112014Y413004D01*
X83407Y293275D02*
X89408Y287274D01*
X83407Y293275D02*
Y328073D01*
X68072Y343408D02*
X83407Y328073D01*
X89408Y232410D02*
Y287274D01*
X112014Y440690D02*
X122682Y451358D01*
X87122Y116078D02*
Y188468D01*
Y116078D02*
X106172Y97028D01*
Y74676D02*
Y97028D01*
Y74676D02*
X115316Y65532D01*
X124714D01*
X131486Y50886D02*
X131826Y50546D01*
X131486Y50886D02*
Y58760D01*
X124714Y65532D02*
X131486Y58760D01*
D17*
X216408Y15240D02*
X224790D01*
X231648Y22098D01*
X143891Y106045D02*
X147574Y109728D01*
Y129540D02*
X154178Y136144D01*
X147574Y109728D02*
Y129540D01*
X197755Y279003D02*
Y393557D01*
X175260Y416052D02*
X197755Y393557D01*
X167386Y414020D02*
X194172Y387234D01*
Y265314D02*
Y387234D01*
X197755Y279003D02*
X219837Y256921D01*
Y251079D02*
Y256921D01*
X214122Y245364D02*
Y256978D01*
X209226Y261874D02*
X214122Y256978D01*
X197612Y261874D02*
X209226D01*
X194172Y265314D02*
X197612Y261874D01*
X97790Y68834D02*
X124968Y41656D01*
X67564Y114300D02*
X97790Y84074D01*
Y68834D02*
Y84074D01*
X67564Y114300D02*
Y129794D01*
X62992Y111252D02*
Y134244D01*
X89662Y66507D02*
Y84582D01*
X62992Y111252D02*
X89662Y84582D01*
X67564Y129794D02*
X80010Y142240D01*
X62992Y134244D02*
X74930Y146182D01*
X80010Y142240D02*
Y178308D01*
X74930Y146182D02*
Y157734D01*
X89662Y66507D02*
X123403Y32766D01*
X138176D01*
X175260Y442722D02*
Y443822D01*
Y416052D02*
Y442722D01*
X219837Y251079D02*
X225552Y245364D01*
X226712Y200262D02*
X279620Y147354D01*
X187706Y208534D02*
X195978Y200262D01*
X226712D01*
X187706Y208534D02*
Y215900D01*
X223012Y210820D02*
X284226Y149606D01*
X197104Y210820D02*
X223012D01*
X193040Y214884D02*
Y231140D01*
Y214884D02*
X197104Y210820D01*
X187706Y236474D02*
X193040Y231140D01*
X161798Y230378D02*
Y236474D01*
Y195961D02*
Y198628D01*
Y228651D02*
Y230378D01*
Y228651D02*
X162712Y227736D01*
X171044D01*
X171958Y226822D01*
Y224079D02*
Y226822D01*
X171044Y223165D02*
X171958Y224079D01*
X162204Y223165D02*
X171044D01*
X161290Y222250D02*
X162204Y223165D01*
X161290Y219507D02*
Y222250D01*
Y219507D02*
X162204Y218592D01*
X171044D01*
X171958Y217678D01*
Y214935D02*
Y217678D01*
X171044Y214021D02*
X171958Y214935D01*
X162204Y214021D02*
X171044D01*
X161290Y213106D02*
X162204Y214021D01*
X161290Y210363D02*
Y213106D01*
Y210363D02*
X162204Y209449D01*
X171044D01*
X171958Y208534D01*
Y205791D02*
Y208534D01*
X171044Y204876D02*
X171958Y205791D01*
X162712Y204876D02*
X171044D01*
X161798Y203962D02*
X162712Y204876D01*
X161798Y198628D02*
Y203962D01*
X178816Y159512D02*
Y167625D01*
X182388Y171197D02*
X198025D01*
X178816Y167625D02*
X182388Y171197D01*
X198025D02*
X208216Y161006D01*
X186690Y165608D02*
X194310D01*
X196318Y163600D01*
X202438Y187960D02*
X224279D01*
X226762Y185476D01*
X146812Y24130D02*
X169418D01*
X138176Y32766D02*
X146812Y24130D01*
X103124Y130176D02*
Y256794D01*
X95758Y122810D02*
X103124Y130176D01*
X169418Y24130D02*
X181102Y12446D01*
X124968Y41656D02*
X131826D01*
X112175Y361211D02*
X124746Y373781D01*
X112175Y296003D02*
Y361211D01*
X124746Y373781D02*
X146617D01*
X75946Y351790D02*
X98552Y329184D01*
Y271070D02*
Y329184D01*
X95758Y132842D02*
Y268276D01*
X98552Y271070D01*
X233176Y185476D02*
X271472Y147180D01*
X226762Y164144D02*
Y185476D01*
X233176D01*
X226762Y164144D02*
X233680Y157226D01*
X139831Y424049D02*
X149860Y414020D01*
X167386D01*
X272883Y127883D02*
X279620Y134620D01*
X272883Y96353D02*
Y127883D01*
X264160Y87630D02*
X272883Y96353D01*
X252222Y115279D02*
Y137796D01*
X262190Y93534D02*
Y105311D01*
X252222Y115279D02*
X262190Y105311D01*
X264160Y69596D02*
Y87630D01*
X270510Y72390D02*
X277876Y79756D01*
X284226Y132824D02*
Y149606D01*
X277876Y79756D02*
Y126474D01*
X284226Y132824D01*
X279620Y134620D02*
Y147354D01*
X259588Y90932D02*
X262190Y93534D01*
X240002Y128270D02*
X244941D01*
X247257Y130586D02*
Y136642D01*
X244941Y128270D02*
X247257Y130586D01*
X246947Y100271D02*
X254762Y92456D01*
Y64008D02*
Y92456D01*
X246947Y100271D02*
Y108145D01*
X243450Y111642D02*
X246947Y108145D01*
X245937Y84197D02*
Y93918D01*
X236220Y110490D02*
X240431Y106279D01*
Y99424D02*
Y106279D01*
Y99424D02*
X245937Y93918D01*
X243450Y111642D02*
Y122800D01*
X236220Y110490D02*
Y124488D01*
X243620Y140279D02*
X247257Y136642D01*
X234946Y133350D02*
X241046D01*
X227330Y125734D02*
X234946Y133350D01*
X227330Y26162D02*
Y125734D01*
X220586Y145148D02*
X229362D01*
X231254Y138316D02*
X231394Y138176D01*
X231254Y138316D02*
Y143256D01*
X229362Y145148D02*
X231254Y143256D01*
X290779Y14173D02*
Y36881D01*
X280582Y3976D02*
X290779Y14173D01*
X259588Y68072D02*
X290779Y36881D01*
X254762Y64008D02*
X286844Y31926D01*
X279146Y9144D02*
X286844Y16842D01*
Y31926D01*
X247650Y14478D02*
X252984Y9144D01*
X279146D01*
X243620Y140279D02*
Y140970D01*
X231648Y69908D02*
X245937Y84197D01*
X236220Y124488D02*
X240002Y128270D01*
X259588Y68072D02*
Y90932D01*
X264160Y69596D02*
X296164Y37592D01*
X231648Y22098D02*
Y69908D01*
X237236Y14478D02*
X247738Y3976D01*
X280582D01*
X296164Y13462D02*
Y37592D01*
X271472Y137796D02*
Y147180D01*
X131318Y100275D02*
X138843Y107800D01*
Y131223D01*
X146558Y138938D01*
X148140Y29972D02*
X192024D01*
X139954Y38158D02*
X148140Y29972D01*
X175006Y148559D02*
X176307Y149860D01*
X182622D01*
X175006Y139446D02*
Y148559D01*
X182622Y149860D02*
X183642Y148840D01*
X175006Y139446D02*
X177800Y136652D01*
X183642Y136904D02*
Y148840D01*
X184910Y135636D02*
X190497D01*
X183642Y136904D02*
X184910Y135636D01*
X177800Y131108D02*
Y136652D01*
X221488Y20320D02*
X227330Y26162D01*
X201676Y20320D02*
X221488D01*
X156718Y175842D02*
Y178431D01*
Y175842D02*
X157632Y174928D01*
X163424D01*
X164338Y174013D01*
Y171270D02*
Y174013D01*
X163424Y170356D02*
X164338Y171270D01*
X158140Y170356D02*
X163424D01*
X157226Y169441D02*
X158140Y170356D01*
X157226Y166698D02*
Y169441D01*
Y166698D02*
X158140Y165784D01*
X163424D01*
X164338Y164869D01*
Y162126D02*
Y164869D01*
X163424Y161212D02*
X164338Y162126D01*
X157632Y161212D02*
X163424D01*
X156718Y160297D02*
X157632Y161212D01*
X156718Y155702D02*
Y160297D01*
X154686Y153670D02*
X156718Y155702D01*
X146558Y145542D02*
X154686Y153670D01*
X156718Y178431D02*
X160020Y181733D01*
X141224Y147828D02*
X152400Y159004D01*
Y235458D02*
X180594Y263652D01*
X152400Y159004D02*
Y235458D01*
X160020Y181733D02*
Y181864D01*
X133096Y64516D02*
X146812D01*
X131318Y66294D02*
Y79408D01*
Y66294D02*
X133096Y64516D01*
X148590Y66294D02*
Y81331D01*
X146812Y64516D02*
X148590Y66294D01*
X218310Y142872D02*
X220586Y145148D01*
X218310Y135766D02*
Y142872D01*
X221996Y29700D02*
Y132080D01*
X218310Y135766D02*
X221996Y132080D01*
X146371Y41662D02*
Y47113D01*
X147263Y48006D01*
X154940D01*
X156464Y37592D02*
Y46482D01*
X154940Y48006D02*
X156464Y46482D01*
Y37592D02*
X159136Y34920D01*
X191699D01*
X139954Y38158D02*
Y47244D01*
X145542Y52832D02*
X161478D01*
X139954Y47244D02*
X145542Y52832D01*
X167861Y58820D02*
Y67005D01*
X166947Y67920D02*
X167861Y67005D01*
X154690Y67920D02*
X166947D01*
X153776Y68834D02*
X154690Y67920D01*
X153776Y68834D02*
Y71577D01*
X154690Y72491D01*
X167234D01*
X168148Y73406D01*
Y76149D01*
X167234Y77063D02*
X168148Y76149D01*
X154690Y77063D02*
X167234D01*
X153776Y77978D02*
X154690Y77063D01*
X153776Y77978D02*
Y80721D01*
X154690Y81636D01*
X166947D01*
X167861Y82550D01*
Y87884D01*
Y48039D02*
Y58820D01*
Y87884D02*
Y94126D01*
X148590Y97079D02*
Y103124D01*
Y93066D02*
Y97079D01*
Y93066D02*
X149504Y92151D01*
X161646D01*
X162560Y91237D01*
Y88494D02*
Y91237D01*
X161646Y87579D02*
X162560Y88494D01*
X149504Y87579D02*
X161646D01*
X148590Y86665D02*
X149504Y87579D01*
X148590Y81331D02*
Y86665D01*
X143891Y102489D02*
Y106045D01*
X131318Y89408D02*
Y100275D01*
X177928Y119380D02*
X179024D01*
X177014Y118466D02*
X177928Y119380D01*
X177014Y117173D02*
Y118466D01*
Y117173D02*
X179227Y114959D01*
Y113666D02*
Y114959D01*
X177287Y111727D02*
X179227Y113666D01*
X175994Y111727D02*
X177287D01*
X167289Y120432D02*
X175994Y111727D01*
X165996Y120432D02*
X167289D01*
X164056Y118492D02*
X165996Y120432D01*
X164056Y117199D02*
Y118492D01*
Y117199D02*
X172761Y108494D01*
Y107200D02*
Y108494D01*
X170822Y105261D02*
X172761Y107200D01*
X169529Y105261D02*
X170822D01*
X160823Y113966D02*
X169529Y105261D01*
X159530Y113966D02*
X160823D01*
X157590Y112027D02*
X159530Y113966D01*
X157590Y110733D02*
Y112027D01*
Y110733D02*
X166296Y102028D01*
Y100735D02*
Y102028D01*
X164356Y98795D02*
X166296Y100735D01*
X163063Y98795D02*
X164356D01*
X154308Y107549D02*
X163063Y98795D01*
X153015Y107549D02*
X154308D01*
X149243Y103778D02*
X153015Y107549D01*
X179024Y119380D02*
X186436D01*
X174620Y305128D02*
Y306324D01*
Y305128D02*
X175534Y304214D01*
X188946D01*
X189860Y303299D01*
Y300556D02*
Y303299D01*
X188946Y299642D02*
X189860Y300556D01*
X176135Y299642D02*
X188946D01*
X175221Y298727D02*
X176135Y299642D01*
X175221Y295984D02*
Y298727D01*
Y295984D02*
X176135Y295070D01*
X188946D01*
X189860Y294155D01*
Y291412D02*
Y294155D01*
X188946Y290498D02*
X189860Y291412D01*
X176135Y290498D02*
X188946D01*
X175221Y289583D02*
X176135Y290498D01*
X175221Y286840D02*
Y289583D01*
Y286840D02*
X176135Y285926D01*
X188946D01*
X189860Y285011D01*
Y282268D02*
Y285011D01*
X188946Y281354D02*
X189860Y282268D01*
X175534Y281354D02*
X188946D01*
X174620Y280439D02*
X175534Y281354D01*
X174620Y265552D02*
Y280439D01*
X173736Y264668D02*
X174620Y265552D01*
X146812Y237744D02*
X173736Y264668D01*
X143256Y334569D02*
Y338836D01*
Y334569D02*
X144170Y333655D01*
X149962D01*
X150876Y332740D01*
Y329997D02*
Y332740D01*
X149962Y329082D02*
X150876Y329997D01*
X143832Y329082D02*
X149962D01*
X142918Y328168D02*
X143832Y329082D01*
X142918Y325425D02*
Y328168D01*
Y325425D02*
X143832Y324510D01*
X148692D01*
X149606Y323596D01*
Y320853D02*
Y323596D01*
X148692Y319939D02*
X149606Y320853D01*
X144170Y319939D02*
X148692D01*
X143256Y319024D02*
X144170Y319939D01*
X143256Y313690D02*
Y319024D01*
Y338836D02*
Y339598D01*
Y310134D02*
Y313690D01*
X150428Y346770D02*
X163540D01*
X143256Y339598D02*
X150428Y346770D01*
X152654Y357886D02*
X163538Y368770D01*
X127762Y351790D02*
X140150D01*
X146246Y357886D02*
X152654D01*
X140150Y351790D02*
X146246Y357886D01*
X124150Y339751D02*
Y345440D01*
Y339751D02*
X125064Y338836D01*
X128396D01*
X129310Y337922D01*
Y335178D02*
Y337922D01*
X128396Y334264D02*
X129310Y335178D01*
X124810Y334264D02*
X128396D01*
X123895Y333350D02*
X124810Y334264D01*
X123895Y330606D02*
Y333350D01*
Y330606D02*
X124810Y329692D01*
X128396D01*
X129310Y328778D01*
Y326035D02*
Y328778D01*
X128396Y325120D02*
X129310Y326035D01*
X124810Y325120D02*
X128396D01*
X123895Y324206D02*
X124810Y325120D01*
X123895Y321463D02*
Y324206D01*
Y321463D02*
X124810Y320548D01*
X128396D01*
X129310Y319634D01*
Y316891D02*
Y319634D01*
X128396Y315976D02*
X129310Y316891D01*
X125064Y315976D02*
X128396D01*
X124150Y315062D02*
X125064Y315976D01*
X124150Y312984D02*
Y315062D01*
Y312984D02*
X126492Y310642D01*
X139954Y297180D01*
X124150Y345440D02*
Y348178D01*
X127762Y351790D01*
X167031Y265180D02*
X167842Y265990D01*
X165738Y265180D02*
X167031D01*
X161643Y269275D02*
X165738Y265180D01*
X160350Y269275D02*
X161643D01*
X158410Y267335D02*
X160350Y269275D01*
X158410Y266042D02*
Y267335D01*
Y266042D02*
X162106Y262346D01*
Y261053D02*
Y262346D01*
X160166Y259113D02*
X162106Y261053D01*
X158873Y259113D02*
X160166D01*
X155177Y262809D02*
X158873Y259113D01*
X153884Y262809D02*
X155177D01*
X151944Y260869D02*
X153884Y262809D01*
X151944Y259576D02*
Y260869D01*
Y259576D02*
X155640Y255880D01*
Y254587D02*
Y255880D01*
X153700Y252647D02*
X155640Y254587D01*
X152407Y252647D02*
X153700D01*
X148711Y256343D02*
X152407Y252647D01*
X147418Y256343D02*
X148711D01*
X145478Y254403D02*
X147418Y256343D01*
X145478Y253110D02*
Y254403D01*
Y253110D02*
X149174Y249415D01*
Y248121D02*
Y249415D01*
X147234Y246182D02*
X149174Y248121D01*
X145941Y246182D02*
X147234D01*
X142245Y249877D02*
X145941Y246182D01*
X140952Y249877D02*
X142245D01*
X139012Y247938D02*
X140952Y249877D01*
X139012Y246644D02*
Y247938D01*
Y246644D02*
X143108Y242549D01*
Y241256D02*
Y242549D01*
X142569Y240717D02*
X143108Y241256D01*
X167842Y265990D02*
X169810Y267959D01*
X139446Y237595D02*
X142569Y240717D01*
X169810Y267959D02*
Y274574D01*
X139446Y175006D02*
Y237595D01*
X174620Y306324D02*
Y309250D01*
X169810Y300025D02*
Y302292D01*
X168896Y299111D02*
X169810Y300025D01*
X163104Y299111D02*
X168896D01*
X162190Y298196D02*
X163104Y299111D01*
X162190Y295453D02*
Y298196D01*
Y295453D02*
X163104Y294538D01*
X168758D01*
X169672Y293624D01*
Y290881D02*
Y293624D01*
X168758Y289967D02*
X169672Y290881D01*
X163104Y289967D02*
X168758D01*
X162190Y289052D02*
X163104Y289967D01*
X162190Y286309D02*
Y289052D01*
Y286309D02*
X163104Y285394D01*
X168758D01*
X169672Y284480D01*
Y281737D02*
Y284480D01*
X168758Y280823D02*
X169672Y281737D01*
X163104Y280823D02*
X168758D01*
X162190Y279908D02*
X163104Y280823D01*
X162190Y277165D02*
Y279908D01*
Y277165D02*
X163104Y276250D01*
X168896D01*
X169810Y275336D01*
Y274574D02*
Y275336D01*
Y302292D02*
Y305170D01*
X167560Y307420D02*
X169810Y305170D01*
X146812Y163576D02*
Y237744D01*
X157592Y309929D02*
X160100Y307420D01*
X167560D01*
X163540Y313690D02*
X170180D01*
X174620Y309250D01*
X112175Y296003D02*
X117617Y290561D01*
X180230Y44594D02*
Y54142D01*
X172049Y56604D02*
X177767D01*
X180230Y54142D01*
X172119Y60484D02*
X178177D01*
X171156Y59521D02*
X172119Y60484D01*
X171156Y57497D02*
Y59521D01*
X177800Y65278D02*
X179070Y64008D01*
X175242Y65278D02*
X177800D01*
X178177Y60484D02*
X179070Y61377D01*
X173736Y66784D02*
X175242Y65278D01*
X179070Y61377D02*
Y64008D01*
X171156Y57497D02*
X172049Y56604D01*
X173736Y66784D02*
Y93980D01*
X177546Y97790D01*
X196318Y136422D02*
Y163600D01*
X162052Y142748D02*
X178816Y159512D01*
X208216Y138494D02*
Y161006D01*
X216408Y32004D02*
Y130302D01*
X208216Y138494D02*
X216408Y130302D01*
X169926Y159512D02*
Y187833D01*
X154178Y143764D02*
X169926Y159512D01*
X154178Y136144D02*
Y143764D01*
X161036Y142748D02*
X162052D01*
X192024Y29972D02*
X201676Y20320D01*
X148590Y103124D02*
X149243Y103778D01*
X141732Y100330D02*
X143891Y102489D01*
X189823Y93218D02*
X193802Y97197D01*
X180340Y97790D02*
X184912Y93218D01*
X177546Y97790D02*
X180340D01*
X193802Y97197D02*
Y104244D01*
X197358Y107800D01*
Y128774D01*
X184912Y93218D02*
X189823D01*
X190497Y135636D02*
X197358Y128774D01*
X177800Y131108D02*
X179114Y129794D01*
X186436D01*
X184680Y59012D02*
X193234D01*
X183268Y60424D02*
Y61069D01*
Y60424D02*
X184680Y59012D01*
X193610Y36831D02*
Y40956D01*
X191699Y34920D02*
X193610Y36831D01*
X192401Y42164D02*
X193610Y40956D01*
X194818Y48526D02*
Y57428D01*
X185805Y42164D02*
X192401D01*
X184912Y43057D02*
Y45720D01*
Y43057D02*
X185805Y42164D01*
X185928Y46736D02*
X193028D01*
X184912Y45720D02*
X185928Y46736D01*
X193028D02*
X194818Y48526D01*
X178171Y83058D02*
Y85461D01*
Y70213D02*
Y75692D01*
X179695Y77216D01*
X186436Y78109D02*
Y80641D01*
X185543Y77216D02*
X186436Y78109D01*
X179695Y77216D02*
X185543D01*
Y81534D02*
X186436Y80641D01*
X178171Y83058D02*
X179695Y81534D01*
X185543D01*
X178171Y85461D02*
X180848Y88138D01*
X178171Y70213D02*
X179543Y68841D01*
X180848Y88138D02*
X195072D01*
X170434Y41656D02*
X177292D01*
X180230Y44594D01*
X193234Y59012D02*
X194818Y57428D01*
X179543Y68841D02*
X196310D01*
X197682Y67470D01*
Y65641D02*
Y67470D01*
X196310Y64269D02*
X197682Y65641D01*
X184639Y64269D02*
X196310D01*
X183268Y62898D02*
X184639Y64269D01*
X183268Y61069D02*
Y62898D01*
X161478Y41656D02*
X167861Y48039D01*
Y94126D02*
X175716Y101981D01*
X201168Y28702D02*
Y71120D01*
X205371Y24499D02*
X216795D01*
X221996Y29700D01*
X201168Y28702D02*
X205371Y24499D01*
X206410Y32350D02*
Y72482D01*
X141732Y89408D02*
Y100330D01*
X191516Y80772D02*
X201168Y71120D01*
X199898Y78994D02*
Y101370D01*
Y78994D02*
X206410Y72482D01*
X199898Y101370D02*
X202178Y103650D01*
Y130562D01*
X196318Y136422D02*
X202178Y130562D01*
X175716Y101981D02*
X184785D01*
X155194Y119380D02*
X160528Y124714D01*
X189992D01*
X192786Y109982D02*
Y121920D01*
X189992Y124714D02*
X192786Y121920D01*
X184785Y101981D02*
X192786Y109982D01*
X146558Y138938D02*
Y145542D01*
X141224Y142240D02*
Y147828D01*
X161798Y195961D02*
X169926Y187833D01*
X180594Y263652D02*
Y272548D01*
X103124Y256794D02*
X117617Y271287D01*
Y290561D01*
X118364Y309372D02*
X133096Y294640D01*
Y275844D02*
Y294640D01*
X118364Y309372D02*
Y360426D01*
X124206Y366268D02*
X150038D01*
X118364Y360426D02*
X124206Y366268D01*
X151384Y271780D02*
Y302006D01*
X143256Y310134D02*
X151384Y302006D01*
X157592Y309929D02*
Y318822D01*
X109220Y124968D02*
Y251968D01*
X103378Y119126D02*
X109220Y124968D01*
Y251968D02*
X133096Y275844D01*
X115824Y119126D02*
Y249682D01*
X139954Y273812D01*
X163538Y368770D02*
X163540D01*
X150038Y366268D02*
X163540Y379770D01*
X146617Y373781D02*
X163540Y390705D01*
X157592Y318822D02*
X163540Y324770D01*
X117348Y85598D02*
Y102108D01*
X127508Y112268D01*
Y247904D01*
X151384Y271780D01*
X139954Y273812D02*
Y297180D01*
X117348Y85598D02*
X123444Y79502D01*
D91*
X201422Y137596D02*
Y150876D01*
X207518Y105664D02*
Y131500D01*
X201422Y137596D02*
X207518Y131500D01*
X338836Y251206D02*
X339090Y250952D01*
X338836Y251206D02*
Y303784D01*
X328930Y313690D02*
X338836Y303784D01*
X285496Y313690D02*
X328930D01*
D92*
X143794Y347153D02*
X149309Y352668D01*
X170193D02*
X172212Y350649D01*
X149309Y352668D02*
X170193D01*
X138475Y347153D02*
X143794D01*
X153162Y306832D02*
Y325374D01*
X167640Y339852D02*
X172212D01*
X153162Y325374D02*
X167640Y339852D01*
X138092Y346770D02*
X138475Y347153D01*
X138092Y324770D02*
Y346770D01*
Y307424D02*
Y324770D01*
X113030Y78724D02*
Y105060D01*
X119387Y72368D02*
X123212D01*
X113030Y78724D02*
X119387Y72368D01*
X123212D02*
X123698Y71882D01*
X121920Y212090D02*
X122047Y211963D01*
X121920Y212090D02*
X122174Y212344D01*
X122047Y195453D02*
X122174Y195326D01*
Y212344D02*
Y250444D01*
X122047Y195453D02*
Y211963D01*
X122174Y114204D02*
Y195326D01*
X153162Y306832D02*
X156986Y303008D01*
X145720Y281108D02*
Y299796D01*
X138092Y307424D02*
X145720Y299796D01*
X156986Y271286D02*
Y303008D01*
X113030Y105060D02*
X122174Y114204D01*
Y250444D02*
X145472Y273742D01*
Y280860D01*
X145720Y281108D01*
X132842Y247142D02*
X156986Y271286D01*
X123444Y99314D02*
X132842Y108712D01*
Y247142D01*
X172212Y339852D02*
Y350649D01*
X123444Y89662D02*
Y99314D01*
X319278Y137668D02*
Y170180D01*
X324188Y175090D01*
X305892Y93731D02*
Y94920D01*
X299720Y101092D02*
X305892Y94920D01*
X305092Y144818D02*
Y178482D01*
X291266Y94742D02*
X302260D01*
X290751Y95257D02*
X291266Y94742D01*
X299720Y101092D02*
Y118110D01*
X319278Y137668D01*
X305092Y178482D02*
X315572Y188962D01*
D93*
X322270Y126400D02*
X325320D01*
X326180Y121598D02*
Y125539D01*
X327424Y128247D02*
Y131300D01*
X324414Y119832D02*
X326180Y121598D01*
X326898Y131826D02*
X327424Y131300D01*
X328974Y120440D02*
Y126696D01*
X325320Y126400D02*
X326180Y125539D01*
X325572Y117038D02*
X328974Y120440D01*
X312364Y117038D02*
X325572D01*
X321742Y126928D02*
X322270Y126400D01*
X311206Y119832D02*
X324414D01*
X327424Y128247D02*
X328974Y126696D01*
X307566Y112240D02*
X312364Y117038D01*
X304772Y113397D02*
X311206Y119832D01*
X305590Y107724D02*
X307983Y105332D01*
X307566Y109700D02*
Y112240D01*
X304772Y108542D02*
Y113397D01*
Y108542D02*
X305590Y107724D01*
X307566Y109700D02*
X309958Y107308D01*
X313316D01*
X313690Y106934D01*
X307983Y101973D02*
Y105332D01*
Y101973D02*
X308356Y101600D01*
D94*
X51816Y97536D02*
Y134112D01*
X65532Y147828D01*
Y220472D01*
X80264Y235204D01*
X68580Y401066D02*
Y406146D01*
X80907Y418473D01*
X46990Y379476D02*
X68580Y401066D01*
X46990Y343408D02*
Y379476D01*
X72390Y289306D02*
Y303276D01*
X58166Y317500D02*
Y332232D01*
Y317500D02*
X72390Y303276D01*
X80264Y235204D02*
Y281432D01*
X72390Y289306D02*
X80264Y281432D01*
X46990Y343408D02*
X58166Y332232D01*
X51816Y97536D02*
X78232Y71120D01*
Y32004D02*
Y71120D01*
X71120Y24892D02*
X78232Y32004D01*
D96*
X211328Y234696D02*
X279146D01*
X205994Y240030D02*
Y250836D01*
Y240030D02*
X211328Y234696D01*
X287782Y243332D02*
Y265770D01*
X279146Y234696D02*
X287782Y243332D01*
X286768Y266785D02*
X287782Y265770D01*
X185958Y255300D02*
X201530D01*
X205994Y250836D01*
X178562Y247904D02*
X185958Y255300D01*
X178562Y200406D02*
Y247904D01*
Y200406D02*
X185674Y193294D01*
D98*
X45720Y318770D02*
D03*
Y398770D02*
D03*
X324158Y468122D02*
D03*
X311658D02*
D03*
X299158D02*
D03*
D99*
X290592Y71839D02*
D03*
X290592Y161839D02*
D03*
D100*
X332092Y161841D02*
D03*
X332092Y71840D02*
D03*
D101*
X295592Y145741D02*
D03*
Y87941D02*
D03*
D102*
X286658Y468122D02*
D03*
D103*
X324600Y24130D02*
D03*
X26670Y474980D02*
D03*
D104*
X216408Y15240D02*
D03*
X52324Y222377D02*
D03*
Y228600D02*
D03*
Y216154D02*
D03*
X271780Y244602D02*
D03*
X180086Y333756D02*
D03*
X195072Y470408D02*
D03*
Y463677D02*
D03*
X96266Y426466D02*
D03*
X96520Y435864D02*
D03*
X85852Y426466D02*
D03*
X86106Y435610D02*
D03*
X61722Y358394D02*
D03*
X63216Y102616D02*
D03*
X175260Y442722D02*
D03*
X225552Y245364D02*
D03*
X233680Y248920D02*
D03*
X214122Y245364D02*
D03*
X187706Y215900D02*
D03*
Y236474D02*
D03*
X240792Y269748D02*
D03*
X232664D02*
D03*
X240792Y275844D02*
D03*
X232664D02*
D03*
X188220Y272548D02*
D03*
X202438Y187960D02*
D03*
X95758Y122810D02*
D03*
Y132842D02*
D03*
X230886Y355854D02*
D03*
X221234D02*
D03*
Y365506D02*
D03*
X230886D02*
D03*
X188091Y371348D02*
D03*
Y316008D02*
D03*
X108204Y364998D02*
D03*
X98806D02*
D03*
X236728Y203962D02*
D03*
X74930Y157734D02*
D03*
X244329Y29421D02*
D03*
X296164Y13462D02*
D03*
X172212Y339852D02*
D03*
X186690Y165608D02*
D03*
X156464Y129286D02*
D03*
X161036Y142748D02*
D03*
X241046Y133350D02*
D03*
X173482Y51562D02*
D03*
X186690Y52578D02*
D03*
X80010Y178308D02*
D03*
X240089Y24808D02*
D03*
X161478Y52832D02*
D03*
X186436Y119380D02*
D03*
Y129794D02*
D03*
X141224Y142240D02*
D03*
X161798Y236474D02*
D03*
X141732Y89408D02*
D03*
X146371Y41662D02*
D03*
X131826Y41656D02*
D03*
X160020Y181864D02*
D03*
X259633Y137796D02*
D03*
X271472D02*
D03*
X307171Y335619D02*
D03*
Y325035D02*
D03*
X328337D02*
D03*
X317754D02*
D03*
Y335619D02*
D03*
X328337D02*
D03*
X318093Y295994D02*
D03*
X328676D02*
D03*
X172466Y133604D02*
D03*
X225552Y255706D02*
D03*
X271780Y254000D02*
D03*
X268478Y263398D02*
D03*
X274574Y204470D02*
D03*
Y184404D02*
D03*
X236492Y167583D02*
D03*
X233680Y157226D02*
D03*
X195716Y245300D02*
D03*
X200914Y267208D02*
D03*
X233686Y103886D02*
D03*
X131826Y50546D02*
D03*
X182626Y24892D02*
D03*
X280162Y20828D02*
D03*
X272796D02*
D03*
X32766Y103600D02*
D03*
X12954Y104540D02*
D03*
X16426Y8890D02*
D03*
X41730Y8802D02*
D03*
X33274Y8890D02*
D03*
X123190Y56388D02*
D03*
X301498Y27178D02*
D03*
X271526Y83566D02*
D03*
X201662Y177546D02*
D03*
X191008D02*
D03*
X188658Y140526D02*
D03*
Y158242D02*
D03*
X201418Y225091D02*
D03*
X230632D02*
D03*
X201418Y215853D02*
D03*
Y205509D02*
D03*
X207518Y105664D02*
D03*
X201422Y150876D02*
D03*
X123698Y71882D02*
D03*
X139446Y175006D02*
D03*
X146812Y163576D02*
D03*
X252222Y137796D02*
D03*
X243450Y122800D02*
D03*
X243620Y140970D02*
D03*
X231394Y138176D02*
D03*
X61468Y16764D02*
D03*
X113005Y12421D02*
D03*
X65024Y20828D02*
D03*
X57332D02*
D03*
X130048Y11176D02*
D03*
X141310Y17694D02*
D03*
X181102Y12446D02*
D03*
X237236Y14478D02*
D03*
X247650D02*
D03*
X270510Y72390D02*
D03*
X195072Y88138D02*
D03*
X191516Y80772D02*
D03*
X155194Y119380D02*
D03*
X73216Y122810D02*
D03*
X180594Y272548D02*
D03*
X48768Y79756D02*
D03*
X58420Y72390D02*
D03*
X45920Y68072D02*
D03*
X123444Y89662D02*
D03*
Y79502D02*
D03*
X115824Y119126D02*
D03*
X103378D02*
D03*
X131318Y79408D02*
D03*
Y89408D02*
D03*
X163540Y390705D02*
D03*
Y324770D02*
D03*
Y313690D02*
D03*
X80518Y111506D02*
D03*
X35360Y129540D02*
D03*
Y117040D02*
D03*
X13716Y215646D02*
D03*
X10414Y235585D02*
D03*
X22552Y256740D02*
D03*
X9144Y273304D02*
D03*
Y307594D02*
D03*
X21801Y362669D02*
D03*
X9144Y350012D02*
D03*
X24892Y340414D02*
D03*
Y307340D02*
D03*
X30734Y274320D02*
D03*
X56642Y343408D02*
D03*
X37338D02*
D03*
X55880Y375666D02*
D03*
X75946Y351790D02*
D03*
X64008Y296926D02*
D03*
X38862Y375666D02*
D03*
X34582Y364528D02*
D03*
Y352028D02*
D03*
X120142Y297180D02*
D03*
X104140Y296926D02*
D03*
X38100Y147066D02*
D03*
X36830Y155194D02*
D03*
X64262Y244856D02*
D03*
Y253492D02*
D03*
X90424Y212852D02*
D03*
X78688Y212800D02*
D03*
X59182Y263652D02*
D03*
X68326D02*
D03*
X44958Y271780D02*
D03*
X54102D02*
D03*
X125984Y278249D02*
D03*
X111252Y277995D02*
D03*
X91440Y296926D02*
D03*
X209042Y330708D02*
D03*
X217324D02*
D03*
X209042Y339852D02*
D03*
X217324D02*
D03*
X217832Y293370D02*
D03*
Y284226D02*
D03*
X209550D02*
D03*
Y293370D02*
D03*
X49720Y305806D02*
D03*
Y460806D02*
D03*
Y428734D02*
D03*
X33684Y444770D02*
D03*
X65756D02*
D03*
X161684Y436698D02*
D03*
X129540Y436626D02*
D03*
X145720Y281108D02*
D03*
X180086Y339852D02*
D03*
X75940Y314966D02*
D03*
X66294Y324612D02*
D03*
X135552Y357378D02*
D03*
X124714D02*
D03*
X138075Y390705D02*
D03*
X138092Y379770D02*
D03*
Y346770D02*
D03*
Y324770D02*
D03*
X137922Y313690D02*
D03*
X163540Y346770D02*
D03*
Y368770D02*
D03*
Y379770D02*
D03*
X337058Y430784D02*
D03*
X156951Y474451D02*
D03*
X151130Y465328D02*
D03*
X153801Y424049D02*
D03*
X139831D02*
D03*
X195072Y456946D02*
D03*
X208534D02*
D03*
X201803D02*
D03*
X254254Y461010D02*
D03*
X270002Y461518D02*
D03*
Y468630D02*
D03*
X337227Y353060D02*
D03*
X326644D02*
D03*
Y363643D02*
D03*
X337227D02*
D03*
X286768Y266785D02*
D03*
Y277368D02*
D03*
X297351D02*
D03*
Y266785D02*
D03*
Y287951D02*
D03*
X286768D02*
D03*
X328676D02*
D03*
X318093D02*
D03*
Y266785D02*
D03*
Y277368D02*
D03*
X328676D02*
D03*
Y266785D02*
D03*
Y256201D02*
D03*
Y245618D02*
D03*
Y235035D02*
D03*
Y224451D02*
D03*
Y213868D02*
D03*
X341596Y177231D02*
D03*
Y185481D02*
D03*
X317389Y141903D02*
D03*
X306578Y142240D02*
D03*
X294894Y100584D02*
D03*
X302260Y94742D02*
D03*
X332740Y181356D02*
D03*
Y175260D02*
D03*
Y187452D02*
D03*
X339090Y197866D02*
D03*
Y250952D02*
D03*
X240030Y88900D02*
D03*
X204978Y87630D02*
D03*
X190997Y17029D02*
D03*
X198374Y12192D02*
D03*
X211328Y87630D02*
D03*
X206410Y32350D02*
D03*
X216408Y32004D02*
D03*
X170434Y41656D02*
D03*
X161478D02*
D03*
X253956Y102378D02*
D03*
X326136Y110998D02*
D03*
X326644Y141224D02*
D03*
X321056Y103378D02*
D03*
X315214Y96012D02*
D03*
X326898Y131826D02*
D03*
X321742Y126928D02*
D03*
X308356Y101600D02*
D03*
X313690Y106934D02*
D03*
M02*
