G04*
G04 #@! TF.GenerationSoftware,Altium Limited,Altium Designer,23.5.1 (21)*
G04*
G04 Layer_Color=128*
%FSLAX44Y44*%
%MOMM*%
G71*
G04*
G04 #@! TF.SameCoordinates,D8F5AE86-2F01-4A25-AC6E-D886633190FF*
G04*
G04*
G04 #@! TF.FilePolarity,Positive*
G04*
G01*
G75*
%ADD23R,0.9000X0.8500*%
%ADD24R,0.8500X0.9000*%
%ADD26R,1.3000X0.6000*%
%ADD111R,0.6000X1.0500*%
%ADD112R,1.0500X0.6000*%
%ADD113R,1.3000X1.0500*%
%ADD114R,1.5000X1.0000*%
%ADD115R,1.8000X0.7000*%
%ADD116R,1.4000X1.2000*%
%ADD117R,2.2000X2.0320*%
%ADD118R,1.4000X1.6000*%
D23*
X278261Y95250D02*
D03*
X262761D02*
D03*
X278130Y109220D02*
D03*
X262630D02*
D03*
X233940Y67310D02*
D03*
X218440D02*
D03*
X233940Y81280D02*
D03*
X218440D02*
D03*
X233432Y96774D02*
D03*
X217932D02*
D03*
X233432Y110744D02*
D03*
X217932D02*
D03*
X307471Y118110D02*
D03*
X291971D02*
D03*
Y132080D02*
D03*
X307471D02*
D03*
X270877Y291802D02*
D03*
X255377D02*
D03*
X270877Y277832D02*
D03*
X255377D02*
D03*
X193299Y255300D02*
D03*
X208799D02*
D03*
X256414Y263354D02*
D03*
X240914D02*
D03*
X242441Y218440D02*
D03*
X257941D02*
D03*
X229493Y166878D02*
D03*
X213993D02*
D03*
X287280Y52070D02*
D03*
X271780D02*
D03*
X287151Y38100D02*
D03*
X271651D02*
D03*
X242185Y52070D02*
D03*
X257685D02*
D03*
X242020Y38282D02*
D03*
X257520D02*
D03*
X172591Y392430D02*
D03*
X188091D02*
D03*
X172591Y378460D02*
D03*
X188091D02*
D03*
X172591Y364490D02*
D03*
X188091D02*
D03*
Y350520D02*
D03*
X172591D02*
D03*
Y323120D02*
D03*
X188091D02*
D03*
X172591Y309150D02*
D03*
X188091D02*
D03*
X172591Y295180D02*
D03*
X188091D02*
D03*
X188220Y281210D02*
D03*
X172720D02*
D03*
D24*
X247142Y95373D02*
D03*
Y110873D02*
D03*
X271526Y309241D02*
D03*
Y324741D02*
D03*
X242316Y233549D02*
D03*
Y249049D02*
D03*
X256540Y233420D02*
D03*
Y248920D02*
D03*
X271780Y218440D02*
D03*
Y233940D02*
D03*
X223550Y200049D02*
D03*
Y215549D02*
D03*
X201422Y144395D02*
D03*
Y159895D02*
D03*
Y114554D02*
D03*
Y130054D02*
D03*
X204470Y81151D02*
D03*
Y96651D02*
D03*
X247650Y65911D02*
D03*
Y81411D02*
D03*
X261620Y65911D02*
D03*
Y81411D02*
D03*
X9035Y12419D02*
D03*
Y27919D02*
D03*
X23005Y12419D02*
D03*
Y27919D02*
D03*
X104140Y27921D02*
D03*
Y12421D02*
D03*
X90170Y27919D02*
D03*
Y12419D02*
D03*
X76200Y12421D02*
D03*
Y27921D02*
D03*
X226060Y36699D02*
D03*
Y52199D02*
D03*
X157480Y27919D02*
D03*
Y12419D02*
D03*
X171450Y12421D02*
D03*
Y27921D02*
D03*
X219710Y317885D02*
D03*
Y302385D02*
D03*
X206204Y317885D02*
D03*
Y302385D02*
D03*
D26*
X38308Y20658D02*
D03*
X59308Y11158D02*
D03*
Y30158D02*
D03*
X120310Y20658D02*
D03*
X141310Y11158D02*
D03*
Y30158D02*
D03*
D111*
X214782Y124398D02*
D03*
X233782D02*
D03*
Y148398D02*
D03*
X224282D02*
D03*
X214782D02*
D03*
X252120Y126430D02*
D03*
X271120D02*
D03*
Y150430D02*
D03*
X261620D02*
D03*
X252120D02*
D03*
D112*
X258442Y305866D02*
D03*
Y324866D02*
D03*
X234442D02*
D03*
Y315366D02*
D03*
Y305866D02*
D03*
D113*
X204724Y42418D02*
D03*
X181724D02*
D03*
Y60918D02*
D03*
X204724D02*
D03*
D114*
X22860Y83820D02*
D03*
Y104070D02*
D03*
Y124320D02*
D03*
Y144570D02*
D03*
Y164820D02*
D03*
Y185070D02*
D03*
Y205320D02*
D03*
Y225570D02*
D03*
Y245820D02*
D03*
X172860Y84070D02*
D03*
Y104320D02*
D03*
Y124570D02*
D03*
Y144820D02*
D03*
Y165070D02*
D03*
Y185320D02*
D03*
Y205570D02*
D03*
Y225820D02*
D03*
Y246070D02*
D03*
D115*
X151990Y335770D02*
D03*
Y302770D02*
D03*
Y313770D02*
D03*
Y324770D02*
D03*
Y346770D02*
D03*
Y357770D02*
D03*
Y368770D02*
D03*
Y379770D02*
D03*
Y390770D02*
D03*
D116*
X145720Y289770D02*
D03*
D117*
X49720Y289770D02*
D03*
Y444770D02*
D03*
D118*
X145720Y436770D02*
D03*
M02*
