G04*
G04 #@! TF.GenerationSoftware,Altium Limited,Altium Designer,23.5.1 (21)*
G04*
G04 Layer_Color=8421504*
%FSLAX44Y44*%
%MOMM*%
G71*
G04*
G04 #@! TF.SameCoordinates,D8F5AE86-2F01-4A25-AC6E-D886633190FF*
G04*
G04*
G04 #@! TF.FilePolarity,Positive*
G04*
G01*
G75*
%ADD19R,0.5500X0.6000*%
%ADD20R,1.2700X1.2700*%
%ADD21R,0.7620X0.7620*%
%ADD22R,1.2700X1.2700*%
%ADD23R,0.9000X0.8500*%
%ADD24R,0.8500X0.9000*%
%ADD25R,0.6000X1.3000*%
%ADD26R,1.3000X0.6000*%
%ADD27R,2.0000X2.0000*%
%ADD28R,1.6500X1.5000*%
G04:AMPARAMS|DCode=29|XSize=1.524mm|YSize=3.429mm|CornerRadius=0mm|HoleSize=0mm|Usage=FLASHONLY|Rotation=270.000|XOffset=0mm|YOffset=0mm|HoleType=Round|Shape=Octagon|*
%AMOCTAGOND29*
4,1,8,1.7145,0.3810,1.7145,-0.3810,1.3335,-0.7620,-1.3335,-0.7620,-1.7145,-0.3810,-1.7145,0.3810,-1.3335,0.7620,1.3335,0.7620,1.7145,0.3810,0.0*
%
%ADD29OCTAGOND29*%

%ADD30R,1.6000X0.7000*%
%ADD31R,2.4000X0.7000*%
%ADD32R,2.7000X1.0000*%
%ADD33O,2.7000X1.0000*%
%ADD34R,1.7500X2.2000*%
%ADD35R,1.2000X1.3000*%
%ADD36R,0.5000X0.5000*%
%ADD37R,0.6000X0.5500*%
%ADD38R,9.0000X8.8000*%
%ADD39R,2.2000X2.2000*%
%ADD40R,0.3000X1.5000*%
%ADD41R,1.1500X0.3000*%
%ADD42R,1.1481X0.2997*%
%ADD43R,0.8000X1.6000*%
%ADD44R,2.0000X3.0000*%
%ADD45R,2.5000X2.1000*%
%ADD46R,1.3000X0.8000*%
%ADD47R,1.6000X0.8000*%
%ADD48R,3.0000X2.0000*%
%ADD49R,0.3000X1.2000*%
%ADD50R,1.2000X0.3000*%
D19*
X231799Y81125D02*
D03*
Y90625D02*
D03*
X221488Y81102D02*
D03*
Y90602D02*
D03*
X339090Y233680D02*
D03*
Y243180D02*
D03*
D20*
X323850Y180340D02*
D03*
Y203200D02*
D03*
D21*
X339090Y205740D02*
D03*
Y220980D02*
D03*
D22*
X293370D02*
D03*
X316230D02*
D03*
X293370Y240030D02*
D03*
X316230D02*
D03*
D23*
X312551Y256540D02*
D03*
X297051D02*
D03*
X171452Y485790D02*
D03*
X186952D02*
D03*
X171321Y471900D02*
D03*
X186821D02*
D03*
X171322Y457930D02*
D03*
X186822D02*
D03*
X337058Y418592D02*
D03*
X321558D02*
D03*
X302520Y349250D02*
D03*
X287020D02*
D03*
X246310Y254382D02*
D03*
X261810D02*
D03*
X261749Y226568D02*
D03*
X246249D02*
D03*
Y240538D02*
D03*
X261749D02*
D03*
X246380Y208280D02*
D03*
X261880D02*
D03*
Y151130D02*
D03*
X246380D02*
D03*
X159258Y357886D02*
D03*
X143758D02*
D03*
X91440Y324612D02*
D03*
X75940D02*
D03*
Y341122D02*
D03*
X91440D02*
D03*
X75940Y363220D02*
D03*
X91440D02*
D03*
X75942Y377190D02*
D03*
X91442D02*
D03*
X75942Y391160D02*
D03*
X91442D02*
D03*
D24*
X260612Y467545D02*
D03*
Y483045D02*
D03*
X246642Y467674D02*
D03*
Y483174D02*
D03*
X287528Y39493D02*
D03*
Y54993D02*
D03*
X301498D02*
D03*
Y39493D02*
D03*
X82550Y86745D02*
D03*
Y71245D02*
D03*
X69342Y86745D02*
D03*
Y71245D02*
D03*
X99060Y86743D02*
D03*
Y71243D02*
D03*
X113030Y86745D02*
D03*
Y71245D02*
D03*
X153801Y448960D02*
D03*
Y433460D02*
D03*
X139831Y433462D02*
D03*
Y448962D02*
D03*
X120142Y287657D02*
D03*
Y272157D02*
D03*
X105410Y287403D02*
D03*
Y271903D02*
D03*
X91440Y271780D02*
D03*
Y287280D02*
D03*
X77470Y271780D02*
D03*
Y287280D02*
D03*
X63500Y271649D02*
D03*
Y287149D02*
D03*
D25*
X147451Y486130D02*
D03*
X156951Y465130D02*
D03*
X137951D02*
D03*
X298450Y180000D02*
D03*
X288950Y201000D02*
D03*
X307950D02*
D03*
D26*
X227932Y475550D02*
D03*
X206932Y466050D02*
D03*
Y485050D02*
D03*
X131150Y367030D02*
D03*
X110150Y357530D02*
D03*
Y376530D02*
D03*
X131150Y332486D02*
D03*
X110150Y322986D02*
D03*
Y341986D02*
D03*
D27*
X205486Y435356D02*
D03*
Y359156D02*
D03*
D28*
X258318Y400826D02*
D03*
Y370826D02*
D03*
D29*
X297180Y384810D02*
D03*
D30*
X329152Y399810D02*
D03*
Y369810D02*
D03*
X288068Y399810D02*
D03*
Y369810D02*
D03*
D31*
X325374Y384810D02*
D03*
D32*
X270736Y304800D02*
D03*
D33*
X330736D02*
D03*
D34*
X234950Y294500D02*
D03*
Y340500D02*
D03*
D35*
X263770Y189570D02*
D03*
Y168570D02*
D03*
X246770D02*
D03*
Y189570D02*
D03*
D36*
X268633Y130779D02*
D03*
X259633D02*
D03*
X259983Y102561D02*
D03*
X268983D02*
D03*
X147490Y379770D02*
D03*
X156490D02*
D03*
X147473Y390705D02*
D03*
X156473D02*
D03*
X147490Y368770D02*
D03*
X156490D02*
D03*
X147490Y346770D02*
D03*
X156490D02*
D03*
X147490Y324770D02*
D03*
X156490D02*
D03*
X147320Y313690D02*
D03*
X156320D02*
D03*
D37*
X259088Y121222D02*
D03*
X268588D02*
D03*
X259156Y111760D02*
D03*
X268656D02*
D03*
D38*
X188787Y-126111D02*
D03*
D39*
X114808Y36830D02*
D03*
X262890D02*
D03*
D40*
X131318Y67056D02*
D03*
X136318D02*
D03*
X141318D02*
D03*
X146318D02*
D03*
X151318D02*
D03*
X156318D02*
D03*
X161318D02*
D03*
X166318D02*
D03*
X171318D02*
D03*
X176318D02*
D03*
X181318D02*
D03*
X186318D02*
D03*
X191318D02*
D03*
X196318D02*
D03*
X201318D02*
D03*
X206318D02*
D03*
X211318D02*
D03*
X216318D02*
D03*
X221318D02*
D03*
X226318D02*
D03*
X231318D02*
D03*
X236318D02*
D03*
X241318D02*
D03*
X246318D02*
D03*
D41*
X282592Y150340D02*
D03*
Y147340D02*
D03*
X282592Y142341D02*
D03*
Y139339D02*
D03*
X282592Y134340D02*
D03*
Y124340D02*
D03*
X282607Y119339D02*
D03*
X282592Y114340D02*
D03*
X282610Y109338D02*
D03*
X282588Y104340D02*
D03*
X282633Y94340D02*
D03*
Y91341D02*
D03*
X282607Y86339D02*
D03*
Y83340D02*
D03*
D42*
X282592Y129340D02*
D03*
X282593Y99340D02*
D03*
D43*
X45920Y53340D02*
D03*
X58420D02*
D03*
D44*
X18488Y25234D02*
D03*
X86128D02*
D03*
D45*
X19304Y169472D02*
D03*
Y77108D02*
D03*
X19050Y291500D02*
D03*
Y199136D02*
D03*
D46*
X45720Y104540D02*
D03*
Y117040D02*
D03*
Y129540D02*
D03*
Y142040D02*
D03*
X45466Y226568D02*
D03*
Y239068D02*
D03*
Y251568D02*
D03*
Y264068D02*
D03*
D47*
X49696Y364528D02*
D03*
Y352028D02*
D03*
D48*
X21590Y391960D02*
D03*
Y324320D02*
D03*
D49*
X200716Y100300D02*
D03*
X195716D02*
D03*
X190716D02*
D03*
X185716D02*
D03*
X180716D02*
D03*
X175716D02*
D03*
X170716D02*
D03*
X165716D02*
D03*
X160716D02*
D03*
X155716D02*
D03*
X150716D02*
D03*
X145716D02*
D03*
X140716D02*
D03*
X135716D02*
D03*
X130716D02*
D03*
X125716D02*
D03*
X120716D02*
D03*
X115716D02*
D03*
X110716D02*
D03*
X105716D02*
D03*
X100716D02*
D03*
X95716D02*
D03*
X90716D02*
D03*
X85716D02*
D03*
X80716D02*
D03*
Y255300D02*
D03*
X85716D02*
D03*
X90716D02*
D03*
X95716D02*
D03*
X100716D02*
D03*
X105716D02*
D03*
X110716D02*
D03*
X115716D02*
D03*
X120716D02*
D03*
X125716D02*
D03*
X130716D02*
D03*
X135716D02*
D03*
X140716D02*
D03*
X145716D02*
D03*
X150716D02*
D03*
X155716D02*
D03*
X160716D02*
D03*
X165716D02*
D03*
X170716D02*
D03*
X175716D02*
D03*
X180716D02*
D03*
X185716D02*
D03*
X190716D02*
D03*
X195716D02*
D03*
X200716D02*
D03*
D50*
X63216Y117800D02*
D03*
Y122800D02*
D03*
Y127800D02*
D03*
Y132800D02*
D03*
Y137800D02*
D03*
Y142800D02*
D03*
Y147800D02*
D03*
Y152800D02*
D03*
Y157800D02*
D03*
Y162800D02*
D03*
Y167800D02*
D03*
Y172800D02*
D03*
Y177800D02*
D03*
Y182800D02*
D03*
Y187800D02*
D03*
Y192800D02*
D03*
Y197800D02*
D03*
Y202800D02*
D03*
Y207800D02*
D03*
Y212800D02*
D03*
Y217800D02*
D03*
Y222800D02*
D03*
Y227800D02*
D03*
Y232800D02*
D03*
Y237800D02*
D03*
X218216D02*
D03*
Y232800D02*
D03*
Y227800D02*
D03*
Y222800D02*
D03*
Y217800D02*
D03*
Y212800D02*
D03*
Y207800D02*
D03*
Y202800D02*
D03*
Y197800D02*
D03*
Y192800D02*
D03*
Y187800D02*
D03*
Y182800D02*
D03*
Y177800D02*
D03*
Y172800D02*
D03*
Y167800D02*
D03*
Y162800D02*
D03*
Y157800D02*
D03*
Y152800D02*
D03*
Y147800D02*
D03*
Y142800D02*
D03*
Y137800D02*
D03*
Y132800D02*
D03*
Y127800D02*
D03*
Y122800D02*
D03*
Y117800D02*
D03*
M02*
