G04*
G04 #@! TF.GenerationSoftware,Altium Limited,Altium Designer,23.5.1 (21)*
G04*
G04 Layer_Color=16711935*
%FSLAX44Y44*%
%MOMM*%
G71*
G04*
G04 #@! TF.SameCoordinates,D8F5AE86-2F01-4A25-AC6E-D886633190FF*
G04*
G04*
G04 #@! TF.FilePolarity,Negative*
G04*
G01*
G75*
%ADD55R,1.0270X0.9770*%
%ADD56R,0.9770X1.0270*%
%ADD58R,1.4270X0.7270*%
%ADD67C,1.7270*%
%ADD84C,1.1270*%
%ADD85O,2.4270X1.3270*%
%ADD86O,2.1270X1.3270*%
%ADD87C,0.8770*%
%ADD88R,1.1270X1.1270*%
%ADD89C,3.6270*%
%ADD120R,0.7270X1.1770*%
%ADD121R,1.1770X0.7270*%
%ADD122R,1.4270X1.1770*%
%ADD123R,1.6270X1.1270*%
%ADD124R,1.9270X0.8270*%
%ADD125R,1.5270X1.3270*%
%ADD126R,2.3270X2.1590*%
%ADD127R,1.5270X1.7270*%
D55*
X278261Y95250D02*
D03*
X262761D02*
D03*
X278130Y109220D02*
D03*
X262630D02*
D03*
X233940Y67310D02*
D03*
X218440D02*
D03*
X233940Y81280D02*
D03*
X218440D02*
D03*
X233432Y96774D02*
D03*
X217932D02*
D03*
X233432Y110744D02*
D03*
X217932D02*
D03*
X307471Y118110D02*
D03*
X291971D02*
D03*
Y132080D02*
D03*
X307471D02*
D03*
X270877Y291802D02*
D03*
X255377D02*
D03*
X270877Y277832D02*
D03*
X255377D02*
D03*
X193299Y255300D02*
D03*
X208799D02*
D03*
X256414Y263354D02*
D03*
X240914D02*
D03*
X242441Y218440D02*
D03*
X257941D02*
D03*
X229493Y166878D02*
D03*
X213993D02*
D03*
X287280Y52070D02*
D03*
X271780D02*
D03*
X287151Y38100D02*
D03*
X271651D02*
D03*
X242185Y52070D02*
D03*
X257685D02*
D03*
X242020Y38282D02*
D03*
X257520D02*
D03*
X172591Y392430D02*
D03*
X188091D02*
D03*
X172591Y378460D02*
D03*
X188091D02*
D03*
X172591Y364490D02*
D03*
X188091D02*
D03*
Y350520D02*
D03*
X172591D02*
D03*
Y323120D02*
D03*
X188091D02*
D03*
X172591Y309150D02*
D03*
X188091D02*
D03*
X172591Y295180D02*
D03*
X188091D02*
D03*
X188220Y281210D02*
D03*
X172720D02*
D03*
D56*
X247142Y95373D02*
D03*
Y110873D02*
D03*
X271526Y309241D02*
D03*
Y324741D02*
D03*
X242316Y233549D02*
D03*
Y249049D02*
D03*
X256540Y233420D02*
D03*
Y248920D02*
D03*
X271780Y218440D02*
D03*
Y233940D02*
D03*
X223550Y200049D02*
D03*
Y215549D02*
D03*
X201422Y144395D02*
D03*
Y159895D02*
D03*
Y114554D02*
D03*
Y130054D02*
D03*
X204470Y81151D02*
D03*
Y96651D02*
D03*
X247650Y65911D02*
D03*
Y81411D02*
D03*
X261620Y65911D02*
D03*
Y81411D02*
D03*
X9035Y12419D02*
D03*
Y27919D02*
D03*
X23005Y12419D02*
D03*
Y27919D02*
D03*
X104140Y27921D02*
D03*
Y12421D02*
D03*
X90170Y27919D02*
D03*
Y12419D02*
D03*
X76200Y12421D02*
D03*
Y27921D02*
D03*
X226060Y36699D02*
D03*
Y52199D02*
D03*
X157480Y27919D02*
D03*
Y12419D02*
D03*
X171450Y12421D02*
D03*
Y27921D02*
D03*
X219710Y317885D02*
D03*
Y302385D02*
D03*
X206204Y317885D02*
D03*
Y302385D02*
D03*
D58*
X38308Y20658D02*
D03*
X59308Y11158D02*
D03*
Y30158D02*
D03*
X120310Y20658D02*
D03*
X141310Y11158D02*
D03*
Y30158D02*
D03*
D67*
X109220Y45974D02*
D03*
X87630D02*
D03*
X127508Y463550D02*
D03*
X105410D02*
D03*
D84*
X45720Y318770D02*
D03*
Y398770D02*
D03*
X324158Y468122D02*
D03*
X311658D02*
D03*
X299158D02*
D03*
D85*
X290592Y71839D02*
D03*
X290592Y161839D02*
D03*
D86*
X332092Y161841D02*
D03*
X332092Y71840D02*
D03*
D87*
X295592Y145741D02*
D03*
Y87941D02*
D03*
D88*
X286658Y468122D02*
D03*
D89*
X324600Y24130D02*
D03*
X26670Y474980D02*
D03*
D120*
X214782Y124398D02*
D03*
X233782D02*
D03*
Y148398D02*
D03*
X224282D02*
D03*
X214782D02*
D03*
X252120Y126430D02*
D03*
X271120D02*
D03*
Y150430D02*
D03*
X261620D02*
D03*
X252120D02*
D03*
D121*
X258442Y305866D02*
D03*
Y324866D02*
D03*
X234442D02*
D03*
Y315366D02*
D03*
Y305866D02*
D03*
D122*
X204724Y42418D02*
D03*
X181724D02*
D03*
Y60918D02*
D03*
X204724D02*
D03*
D123*
X22860Y83820D02*
D03*
Y104070D02*
D03*
Y124320D02*
D03*
Y144570D02*
D03*
Y164820D02*
D03*
Y185070D02*
D03*
Y205320D02*
D03*
Y225570D02*
D03*
Y245820D02*
D03*
X172860Y84070D02*
D03*
Y104320D02*
D03*
Y124570D02*
D03*
Y144820D02*
D03*
Y165070D02*
D03*
Y185320D02*
D03*
Y205570D02*
D03*
Y225820D02*
D03*
Y246070D02*
D03*
D124*
X151990Y335770D02*
D03*
Y302770D02*
D03*
Y313770D02*
D03*
Y324770D02*
D03*
Y346770D02*
D03*
Y357770D02*
D03*
Y368770D02*
D03*
Y379770D02*
D03*
Y390770D02*
D03*
D125*
X145720Y289770D02*
D03*
D126*
X49720Y289770D02*
D03*
Y444770D02*
D03*
D127*
X145720Y436770D02*
D03*
M02*
