G04*
G04 #@! TF.GenerationSoftware,Altium Limited,Altium Designer,23.5.1 (21)*
G04*
G04 Layer_Physical_Order=1*
G04 Layer_Color=255*
%FSLAX44Y44*%
%MOMM*%
G71*
G04*
G04 #@! TF.SameCoordinates,F507A0DE-0196-4A71-86C9-71FBE13DDA2A*
G04*
G04*
G04 #@! TF.FilePolarity,Positive*
G04*
G01*
G75*
G04:AMPARAMS|DCode=15|XSize=0.75mm|YSize=0.85mm|CornerRadius=0mm|HoleSize=0mm|Usage=FLASHONLY|Rotation=208.504|XOffset=0mm|YOffset=0mm|HoleType=Round|Shape=Rectangle|*
%AMROTATEDRECTD15*
4,1,4,0.1267,0.5524,0.5324,-0.1945,-0.1267,-0.5524,-0.5324,0.1945,0.1267,0.5524,0.0*
%
%ADD15ROTATEDRECTD15*%

G04:AMPARAMS|DCode=16|XSize=2.33mm|YSize=2.38mm|CornerRadius=0mm|HoleSize=0mm|Usage=FLASHONLY|Rotation=210.000|XOffset=0mm|YOffset=0mm|HoleType=Round|Shape=Rectangle|*
%AMROTATEDRECTD16*
4,1,4,0.4139,1.6131,1.6039,-0.4481,-0.4139,-1.6131,-1.6039,0.4481,0.4139,1.6131,0.0*
%
%ADD16ROTATEDRECTD16*%

G04:AMPARAMS|DCode=17|XSize=1.1mm|YSize=2.38mm|CornerRadius=0mm|HoleSize=0mm|Usage=FLASHONLY|Rotation=210.000|XOffset=0mm|YOffset=0mm|HoleType=Round|Shape=Rectangle|*
%AMROTATEDRECTD17*
4,1,4,-0.1187,1.3056,1.0713,-0.7556,0.1187,-1.3056,-1.0713,0.7556,-0.1187,1.3056,0.0*
%
%ADD17ROTATEDRECTD17*%

G04:AMPARAMS|DCode=18|XSize=2.33mm|YSize=2.38mm|CornerRadius=0mm|HoleSize=0mm|Usage=FLASHONLY|Rotation=179.892|XOffset=0mm|YOffset=0mm|HoleType=Round|Shape=Rectangle|*
%AMROTATEDRECTD18*
4,1,4,1.1672,1.1878,1.1628,-1.1922,-1.1672,-1.1878,-1.1628,1.1922,1.1672,1.1878,0.0*
%
%ADD18ROTATEDRECTD18*%

G04:AMPARAMS|DCode=19|XSize=1.1mm|YSize=2.38mm|CornerRadius=0mm|HoleSize=0mm|Usage=FLASHONLY|Rotation=179.892|XOffset=0mm|YOffset=0mm|HoleType=Round|Shape=Rectangle|*
%AMROTATEDRECTD19*
4,1,4,0.5522,1.1890,0.5478,-1.1910,-0.5522,-1.1890,-0.5478,1.1910,0.5522,1.1890,0.0*
%
%ADD19ROTATEDRECTD19*%

G04:AMPARAMS|DCode=20|XSize=2.33mm|YSize=2.38mm|CornerRadius=0mm|HoleSize=0mm|Usage=FLASHONLY|Rotation=155.000|XOffset=0mm|YOffset=0mm|HoleType=Round|Shape=Rectangle|*
%AMROTATEDRECTD20*
4,1,4,1.5588,0.5862,0.5529,-1.5709,-1.5588,-0.5862,-0.5529,1.5709,1.5588,0.5862,0.0*
%
%ADD20ROTATEDRECTD20*%

G04:AMPARAMS|DCode=21|XSize=1.1mm|YSize=2.38mm|CornerRadius=0mm|HoleSize=0mm|Usage=FLASHONLY|Rotation=155.000|XOffset=0mm|YOffset=0mm|HoleType=Round|Shape=Rectangle|*
%AMROTATEDRECTD21*
4,1,4,1.0014,0.8461,-0.0045,-1.3110,-1.0014,-0.8461,0.0045,1.3110,1.0014,0.8461,0.0*
%
%ADD21ROTATEDRECTD21*%

G04:AMPARAMS|DCode=22|XSize=0.75mm|YSize=0.85mm|CornerRadius=0mm|HoleSize=0mm|Usage=FLASHONLY|Rotation=156.138|XOffset=0mm|YOffset=0mm|HoleType=Round|Shape=Rectangle|*
%AMROTATEDRECTD22*
4,1,4,0.5149,0.2370,0.1710,-0.5404,-0.5149,-0.2370,-0.1710,0.5404,0.5149,0.2370,0.0*
%
%ADD22ROTATEDRECTD22*%

G04:AMPARAMS|DCode=23|XSize=0.75mm|YSize=0.85mm|CornerRadius=0mm|HoleSize=0mm|Usage=FLASHONLY|Rotation=336.629|XOffset=0mm|YOffset=0mm|HoleType=Round|Shape=Rectangle|*
%AMROTATEDRECTD23*
4,1,4,-0.5128,-0.2414,-0.1756,0.5389,0.5128,0.2414,0.1756,-0.5389,-0.5128,-0.2414,0.0*
%
%ADD23ROTATEDRECTD23*%

G04:AMPARAMS|DCode=24|XSize=2.33mm|YSize=2.38mm|CornerRadius=0mm|HoleSize=0mm|Usage=FLASHONLY|Rotation=336.148|XOffset=0mm|YOffset=0mm|HoleType=Round|Shape=Rectangle|*
%AMROTATEDRECTD24*
4,1,4,-1.5467,-0.6173,-0.5843,1.5595,1.5467,0.6173,0.5843,-1.5595,-1.5467,-0.6173,0.0*
%
%ADD24ROTATEDRECTD24*%

G04:AMPARAMS|DCode=25|XSize=1.1mm|YSize=2.38mm|CornerRadius=0mm|HoleSize=0mm|Usage=FLASHONLY|Rotation=336.148|XOffset=0mm|YOffset=0mm|HoleType=Round|Shape=Rectangle|*
%AMROTATEDRECTD25*
4,1,4,-0.9842,-0.8660,-0.0218,1.3108,0.9842,0.8660,0.0218,-1.3108,-0.9842,-0.8660,0.0*
%
%ADD25ROTATEDRECTD25*%

G04:AMPARAMS|DCode=26|XSize=2.33mm|YSize=2.38mm|CornerRadius=0mm|HoleSize=0mm|Usage=FLASHONLY|Rotation=308.271|XOffset=0mm|YOffset=0mm|HoleType=Round|Shape=Rectangle|*
%AMROTATEDRECTD26*
4,1,4,-1.6558,0.1776,0.2127,1.6517,1.6558,-0.1776,-0.2127,-1.6517,-1.6558,0.1776,0.0*
%
%ADD26ROTATEDRECTD26*%

G04:AMPARAMS|DCode=27|XSize=1.1mm|YSize=2.38mm|CornerRadius=0mm|HoleSize=0mm|Usage=FLASHONLY|Rotation=308.271|XOffset=0mm|YOffset=0mm|HoleType=Round|Shape=Rectangle|*
%AMROTATEDRECTD27*
4,1,4,-1.2749,-0.3053,0.5936,1.1689,1.2749,0.3053,-0.5936,-1.1689,-1.2749,-0.3053,0.0*
%
%ADD27ROTATEDRECTD27*%

G04:AMPARAMS|DCode=28|XSize=0.75mm|YSize=0.85mm|CornerRadius=0mm|HoleSize=0mm|Usage=FLASHONLY|Rotation=272.963|XOffset=0mm|YOffset=0mm|HoleType=Round|Shape=Rectangle|*
%AMROTATEDRECTD28*
4,1,4,-0.4438,0.3525,0.4051,0.3965,0.4438,-0.3525,-0.4051,-0.3965,-0.4438,0.3525,0.0*
%
%ADD28ROTATEDRECTD28*%

G04:AMPARAMS|DCode=29|XSize=2.33mm|YSize=2.38mm|CornerRadius=0mm|HoleSize=0mm|Usage=FLASHONLY|Rotation=274.296|XOffset=0mm|YOffset=0mm|HoleType=Round|Shape=Rectangle|*
%AMROTATEDRECTD29*
4,1,4,-1.2739,1.0726,1.0994,1.2509,1.2739,-1.0726,-1.0994,-1.2509,-1.2739,1.0726,0.0*
%
%ADD29ROTATEDRECTD29*%

G04:AMPARAMS|DCode=30|XSize=1.1mm|YSize=2.38mm|CornerRadius=0mm|HoleSize=0mm|Usage=FLASHONLY|Rotation=274.296|XOffset=0mm|YOffset=0mm|HoleType=Round|Shape=Rectangle|*
%AMROTATEDRECTD30*
4,1,4,-1.2279,0.4593,1.1455,0.6376,1.2279,-0.4593,-1.1455,-0.6376,-1.2279,0.4593,0.0*
%
%ADD30ROTATEDRECTD30*%

G04:AMPARAMS|DCode=31|XSize=2.33mm|YSize=2.38mm|CornerRadius=0mm|HoleSize=0mm|Usage=FLASHONLY|Rotation=241.269|XOffset=0mm|YOffset=0mm|HoleType=Round|Shape=Rectangle|*
%AMROTATEDRECTD31*
4,1,4,-0.4835,1.5936,1.6035,0.4496,0.4835,-1.5936,-1.6035,-0.4496,-0.4835,1.5936,0.0*
%
%ADD31ROTATEDRECTD31*%

G04:AMPARAMS|DCode=32|XSize=1.1mm|YSize=2.38mm|CornerRadius=0mm|HoleSize=0mm|Usage=FLASHONLY|Rotation=241.269|XOffset=0mm|YOffset=0mm|HoleType=Round|Shape=Rectangle|*
%AMROTATEDRECTD32*
4,1,4,-0.7791,1.0543,1.3079,-0.0897,0.7791,-1.0543,-1.3079,0.0897,-0.7791,1.0543,0.0*
%
%ADD32ROTATEDRECTD32*%

G04:AMPARAMS|DCode=33|XSize=2.33mm|YSize=2.38mm|CornerRadius=0mm|HoleSize=0mm|Usage=FLASHONLY|Rotation=1.085|XOffset=0mm|YOffset=0mm|HoleType=Round|Shape=Rectangle|*
%AMROTATEDRECTD33*
4,1,4,-1.1423,-1.2119,-1.1873,1.1677,1.1423,1.2119,1.1873,-1.1677,-1.1423,-1.2119,0.0*
%
%ADD33ROTATEDRECTD33*%

G04:AMPARAMS|DCode=34|XSize=1.1mm|YSize=2.38mm|CornerRadius=0mm|HoleSize=0mm|Usage=FLASHONLY|Rotation=1.085|XOffset=0mm|YOffset=0mm|HoleType=Round|Shape=Rectangle|*
%AMROTATEDRECTD34*
4,1,4,-0.5274,-1.2002,-0.5724,1.1794,0.5274,1.2002,0.5724,-1.1794,-0.5274,-1.2002,0.0*
%
%ADD34ROTATEDRECTD34*%

G04:AMPARAMS|DCode=35|XSize=0.75mm|YSize=0.85mm|CornerRadius=0mm|HoleSize=0mm|Usage=FLASHONLY|Rotation=36.135|XOffset=0mm|YOffset=0mm|HoleType=Round|Shape=Rectangle|*
%AMROTATEDRECTD35*
4,1,4,-0.0522,-0.5644,-0.5535,0.1221,0.0522,0.5644,0.5535,-0.1221,-0.0522,-0.5644,0.0*
%
%ADD35ROTATEDRECTD35*%

G04:AMPARAMS|DCode=36|XSize=2.33mm|YSize=2.38mm|CornerRadius=0mm|HoleSize=0mm|Usage=FLASHONLY|Rotation=36.159|XOffset=0mm|YOffset=0mm|HoleType=Round|Shape=Rectangle|*
%AMROTATEDRECTD36*
4,1,4,-0.2385,-1.6482,-1.6427,0.2734,0.2385,1.6482,1.6427,-0.2734,-0.2385,-1.6482,0.0*
%
%ADD36ROTATEDRECTD36*%

G04:AMPARAMS|DCode=37|XSize=1.1mm|YSize=2.38mm|CornerRadius=0mm|HoleSize=0mm|Usage=FLASHONLY|Rotation=36.159|XOffset=0mm|YOffset=0mm|HoleType=Round|Shape=Rectangle|*
%AMROTATEDRECTD37*
4,1,4,0.2581,-1.2853,-1.1462,0.6363,-0.2581,1.2853,1.1462,-0.6363,0.2581,-1.2853,0.0*
%
%ADD37ROTATEDRECTD37*%

G04:AMPARAMS|DCode=38|XSize=2.33mm|YSize=2.38mm|CornerRadius=0mm|HoleSize=0mm|Usage=FLASHONLY|Rotation=63.973|XOffset=0mm|YOffset=0mm|HoleType=Round|Shape=Rectangle|*
%AMROTATEDRECTD38*
4,1,4,0.5581,-1.5690,-1.5805,-0.5247,-0.5581,1.5690,1.5805,0.5247,0.5581,-1.5690,0.0*
%
%ADD38ROTATEDRECTD38*%

G04:AMPARAMS|DCode=39|XSize=1.1mm|YSize=2.38mm|CornerRadius=0mm|HoleSize=0mm|Usage=FLASHONLY|Rotation=63.973|XOffset=0mm|YOffset=0mm|HoleType=Round|Shape=Rectangle|*
%AMROTATEDRECTD39*
4,1,4,0.8280,-1.0164,-1.3107,0.0279,-0.8280,1.0164,1.3107,-0.0279,0.8280,-1.0164,0.0*
%
%ADD39ROTATEDRECTD39*%

G04:AMPARAMS|DCode=40|XSize=2.33mm|YSize=2.38mm|CornerRadius=0mm|HoleSize=0mm|Usage=FLASHONLY|Rotation=95.000|XOffset=0mm|YOffset=0mm|HoleType=Round|Shape=Rectangle|*
%AMROTATEDRECTD40*
4,1,4,1.2870,-1.0569,-1.0839,-1.2643,-1.2870,1.0569,1.0839,1.2643,1.2870,-1.0569,0.0*
%
%ADD40ROTATEDRECTD40*%

G04:AMPARAMS|DCode=41|XSize=1.1mm|YSize=2.38mm|CornerRadius=0mm|HoleSize=0mm|Usage=FLASHONLY|Rotation=95.000|XOffset=0mm|YOffset=0mm|HoleType=Round|Shape=Rectangle|*
%AMROTATEDRECTD41*
4,1,4,1.2334,-0.4442,-1.1375,-0.6516,-1.2334,0.4442,1.1375,0.6516,1.2334,-0.4442,0.0*
%
%ADD41ROTATEDRECTD41*%

G04:AMPARAMS|DCode=42|XSize=0.75mm|YSize=0.85mm|CornerRadius=0mm|HoleSize=0mm|Usage=FLASHONLY|Rotation=95.000|XOffset=0mm|YOffset=0mm|HoleType=Round|Shape=Rectangle|*
%AMROTATEDRECTD42*
4,1,4,0.4561,-0.3365,-0.3907,-0.4106,-0.4561,0.3365,0.3907,0.4106,0.4561,-0.3365,0.0*
%
%ADD42ROTATEDRECTD42*%

G04:AMPARAMS|DCode=43|XSize=2.33mm|YSize=2.38mm|CornerRadius=0mm|HoleSize=0mm|Usage=FLASHONLY|Rotation=125.273|XOffset=0mm|YOffset=0mm|HoleType=Round|Shape=Rectangle|*
%AMROTATEDRECTD43*
4,1,4,1.6443,-0.2639,-0.2988,-1.6383,-1.6443,0.2639,0.2988,1.6383,1.6443,-0.2639,0.0*
%
%ADD43ROTATEDRECTD43*%

G04:AMPARAMS|DCode=44|XSize=1.1mm|YSize=2.38mm|CornerRadius=0mm|HoleSize=0mm|Usage=FLASHONLY|Rotation=125.273|XOffset=0mm|YOffset=0mm|HoleType=Round|Shape=Rectangle|*
%AMROTATEDRECTD44*
4,1,4,1.2891,0.2382,-0.6539,-1.1362,-1.2891,-0.2382,0.6539,1.1362,1.2891,0.2382,0.0*
%
%ADD44ROTATEDRECTD44*%

G04:AMPARAMS|DCode=45|XSize=1.4mm|YSize=1.65mm|CornerRadius=0mm|HoleSize=0mm|Usage=FLASHONLY|Rotation=185.000|XOffset=0mm|YOffset=0mm|HoleType=Round|Shape=Rectangle|*
%AMROTATEDRECTD45*
4,1,4,0.6254,0.8829,0.7692,-0.7609,-0.6254,-0.8829,-0.7692,0.7609,0.6254,0.8829,0.0*
%
%ADD45ROTATEDRECTD45*%

G04:AMPARAMS|DCode=46|XSize=1.4mm|YSize=1.65mm|CornerRadius=0mm|HoleSize=0mm|Usage=FLASHONLY|Rotation=125.000|XOffset=0mm|YOffset=0mm|HoleType=Round|Shape=Rectangle|*
%AMROTATEDRECTD46*
4,1,4,1.0773,-0.1002,-0.2743,-1.0466,-1.0773,0.1002,0.2743,1.0466,1.0773,-0.1002,0.0*
%
%ADD46ROTATEDRECTD46*%

G04:AMPARAMS|DCode=47|XSize=1.4mm|YSize=1.65mm|CornerRadius=0mm|HoleSize=0mm|Usage=FLASHONLY|Rotation=65.000|XOffset=0mm|YOffset=0mm|HoleType=Round|Shape=Rectangle|*
%AMROTATEDRECTD47*
4,1,4,0.4519,-0.9831,-1.0435,-0.2858,-0.4519,0.9831,1.0435,0.2858,0.4519,-0.9831,0.0*
%
%ADD47ROTATEDRECTD47*%

G04:AMPARAMS|DCode=48|XSize=1.4mm|YSize=1.65mm|CornerRadius=0mm|HoleSize=0mm|Usage=FLASHONLY|Rotation=240.000|XOffset=0mm|YOffset=0mm|HoleType=Round|Shape=Rectangle|*
%AMROTATEDRECTD48*
4,1,4,-0.3645,1.0187,1.0645,0.1937,0.3645,-1.0187,-1.0645,-0.1937,-0.3645,1.0187,0.0*
%
%ADD48ROTATEDRECTD48*%

%ADD85C,1.0000*%
%ADD86C,0.7620*%
%ADD87C,0.7620*%
%ADD88C,1.0160*%
%ADD89C,0.5080*%
%ADD90C,0.8000*%
%ADD91C,1.0000*%
%ADD92P,1.4142X4X85.452*%
D15*
X69138Y-117364D02*
D03*
X81880Y-110444D02*
D03*
D16*
X55880Y-96787D02*
D03*
D17*
X74716Y-85912D02*
D03*
D18*
X-3348Y-86011D02*
D03*
D19*
X18402Y-86052D02*
D03*
D20*
X-57088Y-96693D02*
D03*
D21*
X-37376Y-105885D02*
D03*
D22*
X-65730Y-119621D02*
D03*
X-52469Y-125487D02*
D03*
D23*
X54171Y125259D02*
D03*
X40861Y131011D02*
D03*
D24*
X44450Y101867D02*
D03*
D25*
X24558Y110662D02*
D03*
D26*
X79189Y45720D02*
D03*
D27*
X65718Y62796D02*
D03*
D28*
X136638Y11954D02*
D03*
X135889Y26435D02*
D03*
D29*
X111335Y9740D02*
D03*
D30*
X109705Y31430D02*
D03*
D31*
X75924Y-39073D02*
D03*
D32*
X86379Y-20001D02*
D03*
D33*
X0Y86360D02*
D03*
D34*
X-21746Y85948D02*
D03*
D35*
X-72817Y116630D02*
D03*
X-84527Y108080D02*
D03*
D36*
X-55880Y96787D02*
D03*
D37*
X-73441Y83954D02*
D03*
D38*
X-78101Y48416D02*
D03*
D39*
X-87644Y28872D02*
D03*
D40*
X-112283Y1093D02*
D03*
D41*
X-110387Y-20574D02*
D03*
D42*
X-137262Y-4824D02*
D03*
X-135999Y-19269D02*
D03*
D43*
X-77022Y-40656D02*
D03*
D44*
X-64462Y-58413D02*
D03*
D45*
X-41721Y-3650D02*
D03*
X-69614Y-6090D02*
D03*
X41721Y3650D02*
D03*
X69614Y6091D02*
D03*
D46*
X-24021Y34306D02*
D03*
X-40082Y57242D02*
D03*
X24021Y-34306D02*
D03*
X40082Y-57242D02*
D03*
D47*
X17699Y37956D02*
D03*
X29533Y63333D02*
D03*
D48*
X-20940Y-36269D02*
D03*
X-34940Y-60518D02*
D03*
D85*
X-69795Y49702D02*
G03*
X-66638Y51095I-1597J7888D01*
G01*
X-47864Y57242D02*
G03*
X-66638Y51095I0J-31746D01*
G01*
X-29457Y-64921D02*
G03*
X-23471Y-77447I20659J2179D01*
G01*
X-20302Y-80616D02*
G03*
X-10028Y-85978I13711J13745D01*
G01*
X-69614Y-6090D02*
G03*
X-77022Y-23974I17884J-17884D01*
G01*
X17699Y37956D02*
G03*
X7910Y42011I-9789J-9789D01*
G01*
X34281Y-24046D02*
G03*
X41721Y-6086I-17960J17960D01*
G01*
X-5795Y42011D02*
G03*
X-23756Y34571I0J-25400D01*
G01*
X-34281Y24834D02*
G03*
X-41721Y6874I17960J-17960D01*
G01*
X9103Y-40485D02*
G03*
X24021Y-34306I0J21097D01*
G01*
X-20940Y-36269D02*
G03*
X-10761Y-40485I10179J10179D01*
G01*
X-41721Y-4967D02*
G03*
X-34281Y-22928I25400J0D01*
G01*
X71750Y8226D02*
G03*
X79189Y26187I-17960J17960D01*
G01*
X77053Y43584D02*
G03*
X69614Y25624I17960J-17960D01*
G01*
X43800Y-57080D02*
G03*
X70252Y-44745I-3719J42505D01*
G01*
X67607Y-39892D02*
G03*
X45754Y-51570I8317J-41849D01*
G01*
X-77022Y-40656D02*
G03*
X-69614Y-22772I-17884J17884D01*
G01*
X-59429Y48416D02*
G03*
X-41468Y55856I0J25400D01*
G01*
X11106Y81760D02*
G03*
X0Y86360I-11106J-11106D01*
G01*
X18427Y67933D02*
G03*
X29533Y63333I11106J11106D01*
G01*
X-78101Y48416D02*
X-69795Y49702D01*
X-69829Y48416D02*
X-59429D01*
X-47864Y57242D02*
X-40082D01*
X-5372Y-83738D02*
X-3348Y-85761D01*
X-34940Y-60518D02*
X-32661Y-63071D01*
X-29457Y-64921D01*
X-23471Y-77447D02*
X-20302Y-80616D01*
X-10021Y-79089D02*
X-5372Y-83738D01*
X-10028Y-85978D02*
X-9998Y-85978D01*
X-3352Y-86013D01*
X-34940Y-60518D02*
X-30411D01*
X-25237Y-65692D01*
X-25069D01*
X-11673Y-79089D01*
X-3348Y-86011D02*
Y-85761D01*
X-11673Y-79089D02*
X-10021D01*
X-77022Y-40656D02*
Y-23974D01*
X-69614Y-22772D02*
Y-6090D01*
X-5795Y42011D02*
X7910D01*
X17699Y37956D02*
X21490Y38395D01*
X40333Y43277D02*
X41856Y48090D01*
X21490Y38395D02*
X40333Y43277D01*
X41721Y3650D02*
X43184Y7041D01*
X45729Y62017D02*
X78678Y94967D01*
X86963D01*
X91730Y71094D02*
X91730D01*
X91730D02*
X97141Y76505D01*
Y84789D01*
X86963Y94967D02*
X97141Y84789D01*
X24021Y-34306D02*
X34281Y-24046D01*
X-24021Y34306D02*
X-23756Y34571D01*
X-34281Y24834D02*
X-25120Y33995D01*
X-41721Y-3650D02*
Y6874D01*
X-10761Y-40485D02*
X9103D01*
X-41721Y-4967D02*
Y-3650D01*
X-34281Y-22928D02*
X-20940Y-36269D01*
X66444Y62796D02*
X83937Y80288D01*
X41856Y48090D02*
X45729Y62017D01*
X69614Y6091D02*
X71750Y8226D01*
X69614Y6091D02*
Y25624D01*
X77053Y43584D02*
X79189Y45720D01*
X40082Y-57242D02*
X43800Y-57080D01*
X70252Y-44745D02*
X70757Y-43824D01*
X75924Y-39073D01*
X40082Y-57242D02*
X45754Y-51570D01*
X67607Y-39892D02*
X75924Y-39073D01*
X-41468Y55856D02*
X-40082Y57242D01*
X0Y86360D02*
X18427Y67933D01*
X11106Y81760D02*
X29533Y63333D01*
X79189Y26187D02*
Y45720D01*
X41721Y-6086D02*
Y3650D01*
D86*
X-113781Y39123D02*
D03*
D87*
X70034Y-77802D02*
G03*
X70036Y-77806I4401J2536D01*
G01*
X-82643Y-74267D02*
X-82642Y-74268D01*
X105374Y-31736D02*
X106584Y-25361D01*
X90294Y-1214D02*
X104375Y-15513D01*
X106584Y-25361D01*
X99659Y-46307D02*
X105374Y-31736D01*
Y-31736D01*
X85000Y-60721D02*
X99659Y-46307D01*
Y-46307D01*
X-62059Y67427D02*
X-49120Y69427D01*
X-68531Y66427D02*
X-62059Y67427D01*
X-73441Y83954D02*
X-68798Y77327D01*
X-62192Y68288D01*
X-94187Y69073D02*
X-93818Y69591D01*
X-86567Y72273D02*
X-71107Y66338D01*
X-113781Y41559D02*
X-94187Y69073D01*
X-91136Y72273D02*
X-86567D01*
X-71107Y66338D02*
X-69110D01*
X-68531Y66427D01*
X-93818Y69591D02*
X-91136Y72273D01*
X-113781Y38776D02*
X-113749Y38429D01*
X-113781Y39123D02*
X-113781Y41559D01*
X-113749Y38429D02*
X-113205Y32474D01*
X-113781Y39123D02*
X-113781Y38776D01*
X-47070Y71477D02*
X-46815Y71794D01*
X-34146Y87504D01*
X-49120Y69427D02*
X-47070Y71477D01*
X-113205Y32474D02*
X-110259Y27592D01*
X-100633Y21968D01*
X-97096Y19696D01*
X-93758Y10581D01*
X-104100Y-40261D02*
X-90496Y-23698D01*
X-102412Y-18900D02*
X-91047Y-17906D01*
X-93758Y10581D02*
X-91047Y-17906D01*
X-90496Y-23698D01*
X-110387Y-20574D02*
X-102412Y-18900D01*
X-104477Y-46861D02*
X-96901Y-56473D01*
X-104477Y-43815D02*
X-104100Y-40261D01*
X-104477Y-46861D02*
Y-43815D01*
X-96901Y-56473D02*
X-86158Y-70102D01*
X-83105Y-73761D01*
X-82885Y-74025D02*
X-82643Y-74267D01*
X-82642Y-74268D02*
X-80411Y-76499D01*
X-58328Y-74760D02*
X-35779Y-86950D01*
X-69241Y-75620D02*
X-58328Y-74760D01*
X-80411Y-76499D02*
X-69241Y-75620D01*
X-31479Y-90816D02*
X-27248Y-94620D01*
X-35779Y-86950D02*
X-31479Y-90816D01*
X-31155Y-91843D01*
X-19545Y-101546D02*
X-16457Y-105045D01*
X-27248Y-94620D02*
X-19545Y-101546D01*
X2544Y-109495D02*
X19046Y-109240D01*
X2544Y-109495D02*
X2544D01*
X-16457Y-105045D02*
X2544Y-109495D01*
X65618Y-70154D02*
X70034Y-77802D01*
X40428Y-77546D02*
X85000Y-60721D01*
X101052Y28758D02*
X101765Y29138D01*
X100338Y28377D02*
X101052Y28758D01*
X91286Y23544D02*
X100338Y28377D01*
X101765Y29138D02*
X109705Y31430D01*
X-24561Y106645D02*
X-12565Y108112D01*
X-12565D02*
X19741Y103946D01*
X-12565Y108112D02*
X-12565D01*
X19741Y103946D02*
X24558Y110662D01*
X-30287Y105946D02*
X-24561Y106645D01*
X-34146Y87504D02*
X-33681Y93324D01*
X-33214Y101862D02*
X-30287Y105946D01*
X-33681Y93324D02*
X-33214Y101862D01*
X-83105Y-73761D02*
X-82885Y-74025D01*
X90296Y1000D02*
X90455Y7072D01*
X90294Y934D02*
X90296Y1000D01*
X90294Y-1214D02*
Y934D01*
X90701Y16484D02*
X91286Y23544D01*
X90455Y7072D02*
X90701Y16484D01*
X-87692Y117915D02*
X-84657Y123046D01*
X-75042Y130618D01*
X-87746Y113325D02*
X-87692Y117915D01*
X-87746Y113325D02*
X-87435Y112719D01*
X-84527Y108080D01*
X40861Y131011D02*
X45734Y141703D01*
X135889Y26435D02*
X145729Y26635D01*
X81880Y-110444D02*
X86279Y-114843D01*
Y-121361D02*
Y-114843D01*
X-53489Y-129536D02*
X-52469Y-125487D01*
X-56363Y-132410D02*
X-53489Y-129536D01*
X19046Y-109240D02*
X27565Y-104968D01*
X28299Y-104600D01*
X29727Y-103173D01*
X37601Y-79618D01*
X39294Y-77926D01*
X40428Y-77546D01*
X-37376Y-105885D02*
X-33688Y-97277D01*
X-31155Y-91843D01*
X107674Y48602D02*
X108747Y34326D01*
X107674Y48602D02*
X107950Y52070D01*
D88*
X99840Y61582D02*
X122677Y82724D01*
X-75042Y130618D02*
X-19791Y146067D01*
X45969Y142792D02*
X53387Y141190D01*
X24548Y147420D02*
X45969Y142792D01*
X143299Y42182D02*
X148565Y27664D01*
X122677Y82724D02*
X132133Y67343D01*
X132133Y67343D01*
X143299Y42182D01*
X98201Y113576D02*
X106645Y105342D01*
X122677Y82724D01*
X76493Y129929D02*
X98201Y113576D01*
X98201Y113576D01*
X53387Y141190D02*
X76493Y129929D01*
X23144Y147415D02*
X23303Y147420D01*
X-19791Y146067D02*
X23144Y147415D01*
X23303Y147420D02*
X24548D01*
X147690Y-18362D02*
X150008Y1252D01*
X149293Y25655D02*
X150008Y1252D01*
Y1252D02*
Y1252D01*
X131034Y-61825D02*
X147236Y-19546D01*
X147690Y-18362D01*
X99051Y-113668D02*
X130688Y-62728D01*
X131034Y-61825D01*
X390Y-151009D02*
X43764Y-142001D01*
X45026Y-141739D01*
X84242Y-122447D01*
X84242Y-122447D02*
X95816Y-116279D01*
X97152Y-115567D01*
X98223Y-114497D01*
X98223Y-114497D02*
X99051Y-113668D01*
X-63941Y-133815D02*
X-63258Y-134136D01*
X-80179Y-126171D02*
X-64425Y-134708D01*
X-82203Y-124147D02*
X-80897Y-125453D01*
X-44330Y-144857D02*
X390Y-151009D01*
X-64425Y-134708D02*
X-46161Y-144605D01*
X-44330Y-144857D01*
X-63258Y-134136D02*
X-61337Y-134262D01*
X-59650Y-134373D02*
X-56363Y-132410D01*
X-61337Y-134262D02*
X-59650Y-134373D01*
X-135562Y-20445D02*
X-133680Y-41950D01*
X-133461Y-44450D01*
X-82203Y-124147D01*
X-135999Y-19269D02*
X-135562Y-20445D01*
D89*
X55880Y-96787D02*
X61219Y-104513D01*
X67595Y-116255D01*
X69138Y-117364D01*
X-59237Y-106018D02*
X-57088Y-96693D01*
X-64641Y-118234D02*
X-59237Y-106018D01*
X-65730Y-119621D02*
X-64641Y-118234D01*
X111335Y9740D02*
X120672Y10399D01*
X134968Y11139D01*
X136638Y11954D01*
X-62881Y103264D02*
X-55880Y96787D01*
X-71693Y115333D02*
X-62881Y103264D01*
X-72817Y116630D02*
X-71693Y115333D01*
X44450Y101867D02*
X47641Y110690D01*
X53295Y123774D01*
X54171Y125259D01*
X-137262Y-4824D02*
X-136808D01*
X-134321Y-2337D01*
Y-1883D01*
X-131345Y1093D01*
X-112283D01*
D90*
X65901Y62481D02*
X66444Y62796D01*
X64981Y61948D02*
X65901Y62481D01*
X64981Y61948D02*
X65718Y62796D01*
X59041Y58504D02*
X64981Y61948D01*
X-61916Y13305D02*
X-61583Y13037D01*
X52650Y43323D02*
X53358Y38848D01*
X60445Y56725D02*
X64981Y61948D01*
X52650Y43323D02*
X60445Y56725D01*
X53358Y38848D02*
X53806Y25989D01*
X55884Y1211D01*
X57420Y-21058D01*
X-56652Y5309D02*
X-55804Y2383D01*
X-61916Y13305D02*
X-56652Y5309D01*
X-55805Y-1523D02*
X-55804Y2383D01*
X-55805Y-1523D02*
X-53934Y-16995D01*
X-71820Y21291D02*
X-64791Y22224D01*
X-53934Y-16995D02*
X-48297Y-45015D01*
X-71820Y21291D02*
X-61916Y13305D01*
X41092Y-37729D02*
X57420Y-21058D01*
X79725Y-15705D02*
X86379Y-20001D01*
X79715Y-15700D02*
X79725Y-15705D01*
X57420Y-21058D02*
X62739Y-15628D01*
X69357Y-13255D02*
X79715Y-15700D01*
X62739Y-15628D02*
X65112Y-13255D01*
X69357D01*
X23803Y-51165D02*
X41092Y-37729D01*
X13092Y-65702D02*
X23803Y-51165D01*
X-22941Y-50947D02*
X3018Y-61577D01*
X15748Y-68358D02*
X18328Y-78024D01*
X18327Y-78152D02*
X18402Y-86052D01*
X18327Y-78152D02*
X18328Y-78024D01*
X3018Y-61577D02*
X13092Y-65702D01*
X15748Y-68358D01*
X-36947Y-44229D02*
X-22941Y-50947D01*
X-41624Y-44587D02*
X-36947Y-44229D01*
X-48297Y-45015D02*
X-41624Y-44587D01*
X-64462Y-58413D02*
X-57756Y-54213D01*
X-56866Y-53583D01*
X-48297Y-45015D01*
X-24069Y50138D02*
X-21017Y55559D01*
X-21746Y85948D02*
X-21444Y78052D01*
X-21017Y55559D01*
X-31460Y46196D02*
X-24069Y50138D01*
X-50431Y34541D02*
X-31460Y46196D01*
X-64791Y22224D02*
X-50431Y34541D01*
X-80488Y25523D02*
X-71820Y21291D01*
X-87644Y28872D02*
X-80488Y25523D01*
D91*
X83619Y80606D02*
D03*
X91730Y71094D02*
D03*
X99840Y61582D02*
D03*
D92*
X107950Y52070D02*
D03*
M02*
